<?xml version="1.0" encoding="UTF-8"?>
<svg width="38px" height="38px" viewBox="0 0 38 38" version="1.1" xmlns="http://www.w3.org/2000/svg" xmlns:xlink="http://www.w3.org/1999/xlink">
    <!-- Generator: Sketch 48.2 (47327) - http://www.bohemiancoding.com/sketch -->
    <title>Bonds/Icons/Menu/Report/Active</title>
    <desc>Created with Sketch.</desc>
    <defs>
        <path d="M19,0 C29.4934392,0 38,8.50656078 38,19 C38,29.4934392 29.4934392,38 19,38 C8.50656078,38 0,29.4934392 0,19 C0,8.50656078 8.50656078,0 19,0 Z M25.957949,14.6793255 L24.7975333,14.6793255 C24.5655843,14.6793255 24.1403569,14.2212392 24.1403569,13.9543451 L24.1403569,12.9328902 C24.1403569,12.045702 23.4529294,11.3254902 22.6041882,11.3254902 L15.6185216,11.3254902 C14.7725373,11.3254902 14.0823529,12.045702 14.0823529,12.9328902 L14.0823529,27.6027529 C14.0823529,28.4864392 14.7725373,29.2101529 15.6184471,29.2101529 L25.957949,29.2101529 C26.8066902,29.2101529 27.4941176,28.4864392 27.4941176,27.6027529 L27.4941176,16.2867255 C27.4941176,15.3995373 26.8066902,14.6793255 25.957949,14.6793255 Z M26.3784824,27.6027529 C26.3784824,27.8724039 26.189898,28.0910902 25.957949,28.0910902 L15.6184471,28.0910902 C15.3893294,28.0910902 15.2014157,27.8724039 15.2014157,27.6027529 L15.2014157,12.9328902 C15.2014157,12.6625686 15.3893294,12.4445529 15.6184471,12.4445529 L22.6041137,12.4445529 C22.8360627,12.4445529 23.0246471,12.6624941 23.0246471,12.9328902 L23.0246471,13.9543451 C23.0246471,14.8380314 23.9487176,15.7949608 24.7974588,15.7949608 L25.9578745,15.7949608 C26.1898235,15.7949608 26.3784078,16.0164039 26.3784078,16.2867255 L26.3784078,27.6027529 L26.3784824,27.6027529 Z M17.1432902,23.3378863 L17.1304,23.3378863 C16.8223765,23.3378863 16.5709059,23.5858549 16.5709059,23.8939529 C16.5709059,24.2055529 16.8223765,24.4535216 17.1304,24.4535216 L17.1432902,24.4535216 C17.4520588,24.4535216 17.7027843,24.2055529 17.7027843,23.8939529 C17.7028588,23.5858549 17.4520588,23.3378863 17.1432902,23.3378863 Z M17.0343569,17.5270157 L21.5441373,17.5270157 C21.8528314,17.5270157 22.1036314,17.2790471 22.1036314,16.9674471 C22.1036314,16.659349 21.8528314,16.4113804 21.5441373,16.4113804 L17.0343569,16.4113804 C16.7263333,16.4113804 16.4748627,16.659349 16.4748627,16.9674471 C16.4748627,17.2790471 16.7263333,17.5270157 17.0343569,17.5270157 Z M24.5420392,21.1449882 L17.0343569,21.1449882 C16.7263333,21.1449882 16.4748627,21.3929569 16.4748627,21.7010549 C16.4748627,22.0126549 16.7263333,22.2606235 17.0343569,22.2606235 L24.5420392,22.2606235 C24.8508078,22.2606235 25.1015333,22.0126549 25.1015333,21.7010549 C25.1016078,21.3929569 24.8508078,21.1449882 24.5420392,21.1449882 Z M24.5420392,18.7781843 L17.0343569,18.7781843 C16.7263333,18.7781843 16.4748627,19.0261529 16.4748627,19.334251 C16.4748627,19.645851 16.7263333,19.8938196 17.0343569,19.8938196 L24.5420392,19.8938196 C24.8508078,19.8938196 25.1015333,19.645851 25.1015333,19.334251 C25.1016078,19.0261529 24.8508078,18.7781843 24.5420392,18.7781843 Z M12.5903686,25.1407255 L12.5903686,10.4708627 C12.5903686,10.2005412 12.7782824,9.98252549 13.0074,9.98252549 L19.9930667,9.98252549 C20.2062392,9.98252549 20.3823804,10.1667882 20.4095765,10.4064863 L21.5261059,10.4064863 C21.4936196,9.54932549 20.8210196,8.86338824 19.9930667,8.86338824 L13.0074,8.86338824 C12.1614902,8.86338824 11.4713059,9.5836 11.4713059,10.4707882 L11.4713059,25.140651 C11.4713059,26.0243373 12.1614902,26.748051 13.0074,26.748051 C13.0074,26.748051 13.0269961,26.7136275 13.0640275,26.6484314 L13.0485294,25.6289882 C12.8194118,25.6290627 12.5903686,25.4103765 12.5903686,25.1407255 Z" id="path-1"></path>
    </defs>
    <g id="Icons" stroke="none" stroke-width="1" fill="none" fill-rule="evenodd">
        <g id="Bonds/Icons/Menu/Report/Active">
            <mask id="mask-2" fill="white">
                <use xlink:href="#path-1"></use>
            </mask>
            <g id="Combined-Shape"></g>
            <g id="Bonds/Colours/General/White" mask="url(#mask-2)" fill="#FFFFFF">
                <rect id="Rectangle-3" x="0" y="0" width="38" height="38"></rect>
            </g>
        </g>
    </g>
</svg>