<?xml version="1.0" encoding="UTF-8"?>
<svg width="78px" height="30px" viewBox="0 0 78 30" version="1.1" xmlns="http://www.w3.org/2000/svg" xmlns:xlink="http://www.w3.org/1999/xlink">
    <!-- Generator: Sketch 48.2 (47327) - http://www.bohemiancoding.com/sketch -->
    <title>Bonds/Icons/Learn/Paginator</title>
    <desc>Created with Sketch.</desc>
    <defs></defs>
    <g id="Icons" stroke="none" stroke-width="1" fill="none" fill-rule="evenodd">
        <g id="Bonds/Icons/Learn/Paginator">
            <path d="M21.498,15.4992 C21.498,19.3642 18.364,22.4982 14.499,22.4982 C10.634,22.4982 7.5,19.3642 7.5,15.4992 C7.5,11.6332 10.634,8.5002 14.499,8.5002 C18.364,8.5002 21.498,11.6332 21.498,15.4992 Z" id="Stroke-1" stroke="#D1D1D1"></path>
            <path d="M46.8935,16.0217 C46.6055,19.8767 43.2465,22.7677 39.3915,22.4787 C35.5375,22.1897 32.6455,18.8317 32.9345,14.9767 C33.2235,11.1217 36.5815,8.2307 40.4365,8.5197 C44.2915,8.8087 47.1825,12.1677 46.8935,16.0217" id="Fill-3" fill="#7A7979"></path>
            <path d="M71.6426,15.4992 C71.6426,19.3642 68.5086,22.4982 64.6436,22.4982 C60.7776,22.4982 57.6446,19.3642 57.6446,15.4992 C57.6446,11.6332 60.7776,8.5002 64.6436,8.5002 C68.5086,8.5002 71.6426,11.6332 71.6426,15.4992 Z" id="Stroke-5" stroke="#D1D1D1"></path>
        </g>
    </g>
</svg>