<?xml version="1.0" encoding="UTF-8"?>
<svg width="30px" height="30px" viewBox="0 0 30 30" version="1.1" xmlns="http://www.w3.org/2000/svg" xmlns:xlink="http://www.w3.org/1999/xlink">
    <!-- Generator: Sketch 48.2 (47327) - http://www.bohemiancoding.com/sketch -->
    <title>Bonds/Icons/Learn/Search</title>
    <desc>Created with Sketch.</desc>
    <defs>
        <path d="M25.8149689,25.3952587 C25.8438086,25.2201666 25.7942166,25.0302328 25.6659361,24.9086336 L18.5315992,17.7710631 C19.7237093,16.4011066 20.4469515,14.60863 20.4469515,12.6523192 C20.4469515,8.34951317 16.9493048,4.85078863 12.6486545,4.85078863 C8.34800417,4.85078863 4.85035749,8.34951317 4.85035749,12.6523192 C4.85035749,16.9540474 8.34800417,20.4527719 12.6486545,20.4527719 C14.607121,20.4527719 16.396364,19.7241404 17.7663206,18.5277189 L24.9092804,25.6739123 C25.0314684,25.7987422 25.2155783,25.8499134 25.3859707,25.823954 C22.6908796,28.4110338 19.0314824,30.0010779 15.0005389,30.0010779 C6.71505048,30.0010779 -3.6e-15,23.2849495 -3.6e-15,15.0005389 C-3.6e-15,6.71612834 6.71505048,0 15.0005389,0 C23.2849495,0 30,6.71612834 30,15.0005389 C30,19.0358564 28.4067591,22.6990766 25.8149689,25.3952587 Z M12.6486545,5.92649014 C16.3683397,5.92649014 19.37125,8.93155607 19.37125,12.6523192 C19.37125,16.3720045 16.3683397,19.3770704 12.6486545,19.3770704 C8.92896921,19.3770704 5.92605899,16.3720045 5.92605899,12.6523192 C5.92605899,8.93155607 8.92896921,5.92649014 12.6486545,5.92649014 Z" id="path-1"></path>
    </defs>
    <g id="Icons" stroke="none" stroke-width="1" fill="none" fill-rule="evenodd">
        <g id="Bonds/Icons/Learn/Search">
            <mask id="mask-2" fill="white">
                <use xlink:href="#path-1"></use>
            </mask>
            <use id="Stroke-1" fill="#000000" xlink:href="#path-1"></use>
            <g id="Bonds/Colours/General/Black" mask="url(#mask-2)" fill="#000000">
                <rect id="Rectangle-3" x="0" y="0" width="30" height="30"></rect>
            </g>
        </g>
    </g>
</svg>