<?xml version="1.0" encoding="UTF-8"?>
<svg width="38px" height="38px" viewBox="0 0 38 38" version="1.1" xmlns="http://www.w3.org/2000/svg" xmlns:xlink="http://www.w3.org/1999/xlink">
    <!-- Generator: Sketch 48.2 (47327) - http://www.bohemiancoding.com/sketch -->
    <title>Bonds/Icons/Menu/Timeline/Default</title>
    <desc>Created with Sketch.</desc>
    <defs>
        <path d="M19,0 C29.4934392,0 38,8.50656078 38,19 C38,29.4934392 29.4934392,38 19,38 C8.50656078,38 0,29.4934392 0,19 C0,8.50656078 8.50656078,0 19,0 Z M19,36.86 C28.8638314,36.86 36.86,28.8638314 36.86,19 C36.86,9.13616863 28.8638314,1.14 19,1.14 C9.13616863,1.14 1.14,9.13616863 1.14,19 C1.14,28.8638314 9.13616863,36.86 19,36.86 Z M24.0772981,20.2335112 C23.5164249,20.2335112 23.0369656,19.8828424 22.8500732,19.3850664 L18.7956601,19.3850664 C18.6091601,19.8828424 18.1303547,20.2335112 17.5682391,20.2335112 L17.5380276,20.2335112 C16.9771544,20.2335112 16.4976951,19.8828424 16.3108027,19.3850664 L12.2563896,19.3850664 C12.1255388,19.7342993 11.8510203,20.0102396 11.5043081,20.1441634 L11.5043081,25.0672317 C11.5043081,25.3364498 11.2836078,25.5567191 11.0138628,25.5567191 C10.7441179,25.5567191 10.5234176,25.3364498 10.5234176,25.0672317 L10.5234176,20.1439023 C10.0350648,19.9548949 9.68691408,19.4839428 9.68691408,18.9240998 C9.68691408,18.3705222 10.0350648,17.9010711 10.5234176,17.7123901 L10.5234176,12.6668846 C10.5234176,12.3976666 10.7441179,12.1773972 11.0138628,12.1773972 C11.2836078,12.1773972 11.5043081,12.3976666 11.5043081,12.6668846 L11.5043081,17.7121943 C11.8304869,17.8378946 12.0935618,18.0883164 12.2325213,18.4060916 L16.3347365,18.4060916 C16.5369307,17.9445376 17.0004996,17.6229118 17.5380276,17.6229118 L17.5682391,17.6229118 C18.1069442,17.6229118 18.5699245,17.9445376 18.7717918,18.4060916 L22.8740069,18.4060916 C23.0762012,17.9445376 23.5397701,17.6229118 24.0772981,17.6229118 L24.1075095,17.6229118 C24.8313414,17.6229118 25.4193526,18.2031827 25.4193526,18.9240998 C25.4193526,19.6531749 24.8314068,20.2335112 24.1075095,20.2335112 L24.0772981,20.2335112 Z M14.5722839,15.3835373 C13.8498659,15.3835373 13.2601583,14.8032011 13.2601583,14.0741259 C13.2601583,13.3532089 13.8498659,12.7729379 14.5722839,12.7729379 L14.6025019,12.7729379 C15.141323,12.7729379 15.6044031,13.0945638 15.8063139,13.5561178 L19.9094126,13.5561178 C20.1116504,13.0945638 20.5753192,12.7729379 21.112963,12.7729379 L21.1431809,12.7729379 C21.8671687,12.7729379 22.4553066,13.3532089 22.4553066,14.0741259 C22.4553066,14.8032011 21.8672341,15.3835373 21.1431809,15.3835373 L21.112963,15.3835373 C20.5519689,15.3835373 20.0724064,15.0328686 19.8854738,14.5350925 L15.8301873,14.5350925 C15.6436472,15.0328686 15.1647386,15.3835373 14.6025019,15.3835373 L14.5722839,15.3835373 Z M28.2896694,22.3015892 C29.0137226,22.3015892 29.601795,22.8818602 29.601795,23.6027772 C29.601795,24.3318524 29.0137226,24.9121886 28.2896694,24.9121886 L28.2594515,24.9121886 C27.6984574,24.9121886 27.2188948,24.5615198 27.0319622,24.0637438 L22.9766758,24.0637438 C22.7901356,24.5615198 22.3112271,24.9121886 21.7489903,24.9121886 L21.7187724,24.9121886 C20.9963544,24.9121886 20.4066468,24.3318524 20.4066468,23.6027772 C20.4066468,22.8818602 20.9963544,22.3015892 21.7187724,22.3015892 L21.7489903,22.3015892 C22.2878115,22.3015892 22.7508916,22.6232151 22.9528023,23.084769 L27.0559011,23.084769 C27.2581389,22.6232151 27.7218076,22.3015892 28.2594515,22.3015892 L28.2896694,22.3015892 Z" id="path-1"></path>
    </defs>
    <g id="Icons" stroke="none" stroke-width="1" fill="none" fill-rule="evenodd">
        <g id="Bonds/Icons/Menu/Timeline/Default">
            <mask id="mask-2" fill="white">
                <use xlink:href="#path-1"></use>
            </mask>
            <g id="Combined-Shape"></g>
            <g id="Bonds/Colours/General/White" mask="url(#mask-2)" fill="#FFFFFF">
                <rect id="Rectangle-3" x="0" y="0" width="38" height="38"></rect>
            </g>
        </g>
    </g>
</svg>