<?xml version="1.0" encoding="UTF-8"?>
<svg width="42px" height="42px" viewBox="0 0 42 42" version="1.1" xmlns="http://www.w3.org/2000/svg" xmlns:xlink="http://www.w3.org/1999/xlink">
    <!-- Generator: Sketch 48.2 (47327) - http://www.bohemiancoding.com/sketch -->
    <title>Bonds/Icons/Global/Info/Active</title>
    <desc>Created with Sketch.</desc>
    <defs>
        <path d="M21,0 C32.5980118,0 42,9.40198824 42,21 C42,32.5980118 32.5980118,42 21,42 C9.40198824,42 0,32.5980118 0,21 C0,9.40198824 9.40198824,0 21,0 Z M24.834264,27.9188 C24.698688,27.985125 24.48012,28.0609 24.180408,28.147175 C23.879856,28.23345 23.609376,28.277375 23.371656,28.277375 C22.865304,28.277375 22.508808,28.190925 22.301832,28.01715 C22.096368,27.843375 21.993888,27.516475 21.993888,27.037675 C21.993888,26.847975 22.0248,26.565175 22.08948,26.19505 C22.152144,25.822475 22.224216,25.491375 22.304352,25.20175 L23.282112,21.595875 C23.377872,21.26495 23.44356,20.901125 23.47884,20.50405 C23.51496,20.10785 23.53176,19.83065 23.53176,19.673325 C23.53176,18.91295 23.275896,18.2959 22.764,17.8199 C22.252104,17.34425 21.523152,17.106425 20.578488,17.106425 C20.052816,17.106425 19.497072,17.203725 18.908904,17.39815 C18.320736,17.59205 17.705856,17.825675 17.062584,18.0985 L16.8,19.21465 C16.991688,19.1408 17.22,19.06135 17.48712,18.9791 C17.753064,18.8972 18.013968,18.85485 18.267816,18.85485 C18.786096,18.85485 19.1352,18.9469 19.318152,19.1282 C19.501104,19.310025 19.593,19.633425 19.593,20.095775 C19.593,20.35145 19.563936,20.635475 19.503624,20.944175 C19.444152,21.2548 19.369896,21.583275 19.282536,21.92995 L18.300576,25.55035 C18.213216,25.9308 18.149376,26.271175 18.109224,26.5734 C18.069408,26.875275 18.050256,27.17155 18.050256,27.4596 C18.050256,28.2037 18.314184,28.817075 18.841872,29.301125 C19.36956,29.78325 20.109432,30.025975 21.060648,30.025975 C21.680064,30.025975 22.223712,29.941625 22.691592,29.77205 C23.158968,29.603 23.786616,29.357125 24.572352,29.034075 L24.834264,27.9188 Z M25.082232,12.78025 C25.082232,12.1534 24.855264,11.6158 24.398136,11.169025 C23.94252,10.723475 23.393328,10.5 22.751232,10.5 C22.10712,10.5 21.555744,10.72295 21.09576,11.169025 C20.635776,11.6158 20.40528,12.153225 20.40528,12.78025 C20.40528,13.4085 20.635776,13.944875 21.09576,14.386225 C21.556584,14.828975 22.106952,15.050525 22.751232,15.050525 C23.393496,15.050525 23.94252,14.828975 24.398136,14.386225 C24.854928,13.94505 25.082232,13.4085 25.082232,12.78025 Z" id="path-1"></path>
    </defs>
    <g id="Icons" stroke="none" stroke-width="1" fill="none" fill-rule="evenodd">
        <g id="Bonds/Icons/Global/Info/Active">
            <mask id="mask-2" fill="white">
                <use xlink:href="#path-1"></use>
            </mask>
            <g id="Shape" fill-rule="nonzero"></g>
            <g id="Bonds/Colours/General/White" mask="url(#mask-2)" fill="#FFFFFF">
                <rect id="Rectangle-3" x="0" y="0" width="42" height="42"></rect>
            </g>
        </g>
    </g>
</svg>