<?xml version="1.0" encoding="UTF-8"?>
<svg width="38px" height="38px" viewBox="0 0 38 38" version="1.1" xmlns="http://www.w3.org/2000/svg" xmlns:xlink="http://www.w3.org/1999/xlink">
    <!-- Generator: Sketch 48.2 (47327) - http://www.bohemiancoding.com/sketch -->
    <title>Bonds/Icons/Menu/Hamburger</title>
    <desc>Created with Sketch.</desc>
    <defs>
        <path d="M25.0158747,29.1189773 C25.8579342,29.1189773 26.5509566,29.7891578 26.5509566,30.6123142 C26.5509566,31.4500399 25.8653861,32.1129358 25.0158747,32.1129358 L1.54253383,32.1129358 C0.700474298,32.1129358 0.00745185424,31.4500399 0.00745185424,30.6123142 C0.00745185424,29.7818732 0.700474298,29.1189773 1.54253383,29.1189773 L25.0158747,29.1189773 Z M36.4693746,17.5947867 C37.318886,17.5947867 38.0044566,18.2576826 38.0044566,19.0881237 C38.0044566,19.9258493 37.318886,20.5887452 36.4693746,20.5887452 L1.53508197,20.5887452 C0.693022444,20.5887452 0,19.9258493 0,19.0881237 C0,18.2576826 0.693022444,17.5947867 1.53508197,17.5947867 L36.4693746,17.5947867 Z M1.53508197,9.06455459 C0.693022444,9.06455459 0,8.3943741 0,7.56393306 C0,6.73349202 0.693022444,6.0705961 1.53508197,6.0705961 L36.4693746,6.0705961 C37.318886,6.0705961 38.0044566,6.74077659 38.0044566,7.56393306 C38.0044566,8.40165867 37.318886,9.06455459 36.4693746,9.06455459 L1.53508197,9.06455459 Z" id="path-1"></path>
    </defs>
    <g id="Icons" stroke="none" stroke-width="1" fill="none" fill-rule="evenodd">
        <g id="Bonds/Icons/Menu/Hamburger">
            <mask id="mask-2" fill="white">
                <use xlink:href="#path-1"></use>
            </mask>
            <g id="Combined-Shape" fill-rule="nonzero"></g>
            <g id="Bonds/Colours/General/White" mask="url(#mask-2)" fill="#FFFFFF">
                <rect id="Rectangle-3" x="0" y="0" width="38" height="38"></rect>
            </g>
        </g>
    </g>
</svg>