<?xml version="1.0" encoding="UTF-8"?>
<svg width="42px" height="42px" viewBox="0 0 42 42" version="1.1" xmlns="http://www.w3.org/2000/svg" xmlns:xlink="http://www.w3.org/1999/xlink">
    <!-- Generator: Sketch 48.2 (47327) - http://www.bohemiancoding.com/sketch -->
    <title>Bonds/Icons/Global/Notification/Default</title>
    <desc>Created with Sketch.</desc>
    <defs>
        <path d="M22.3347656,4.03257812 C32.5570312,4.03257812 40.84375,11.678125 40.84375,21.1095312 C40.84375,30.5409375 32.5570312,38.1861719 22.3347656,38.1860937 C18.5778906,38.1860937 15.0832031,37.1525 12.1642969,35.3778125 L2.58,38.0085937 C2.47054688,38.0388281 2.359375,38.0533594 2.24953125,38.0533594 C1.87257813,38.0533594 1.5078125,37.8824219 1.26742188,37.5766406 C0.956796875,37.1816406 0.912890625,36.6389844 1.1559375,36.1991406 L5.53421875,28.2824219 C4.43828125,26.1011719 3.82570313,23.6716406 3.82570313,21.1095312 C3.82570313,11.678125 12.1125,4.03257812 22.3347656,4.03257812 Z M22.1859375,5.83070313 C13.04,5.83070313 5.62585938,12.6711719 5.62585938,21.1095313 C5.62585938,23.401875 6.73632813,26.4754688 7.716875,28.4270313 L3.0246875,36.0540625 L12.6364844,33.4255469 C15.248125,35.0133594 18.8246875,36.3880469 22.1859375,36.3880469 C31.331875,36.3880469 38.7460156,29.5478906 38.7460156,21.1095313 C38.7460156,12.6711719 31.331875,5.83070313 22.1859375,5.83070313 Z M23.4303906,27.2103125 C23.4303906,28.0398438 22.7640625,28.7136719 21.9363281,28.7136719 C21.0991406,28.7136719 20.4328125,28.0398438 20.4328125,27.2103125 L20.4328125,20.2509375 C20.4328125,19.4232031 21.0991406,18.7475781 21.9363281,18.7475781 C22.7641406,18.7475781 23.4304687,19.4232813 23.4304687,20.2509375 L23.4303906,27.2103125 Z M21.9307031,17.2620312 C21.0475781,17.2615625 20.3295312,16.5428125 20.3299219,15.6596094 C20.3303906,14.7763281 21.0491406,14.0582812 21.9323437,14.05875 C22.815625,14.0592187 23.5336719,14.7779687 23.5332031,15.66125 C23.5328125,16.544375 22.8139844,17.2625 21.9307031,17.2620312 Z" id="path-1"></path>
    </defs>
    <g id="Icons" stroke="none" stroke-width="1" fill="none" fill-rule="evenodd">
        <g id="Bonds/Icons/Global/Notification/Default">
            <mask id="mask-2" fill="white">
                <use xlink:href="#path-1"></use>
            </mask>
            <g id="Shape"></g>
            <g id="Bonds/Colours/General/White" mask="url(#mask-2)" fill="#FFFFFF">
                <rect id="Rectangle-3" x="0" y="0" width="42" height="42"></rect>
            </g>
        </g>
    </g>
</svg>