<?xml version="1.0" encoding="UTF-8"?>
<svg width="38px" height="38px" viewBox="0 0 38 38" version="1.1" xmlns="http://www.w3.org/2000/svg" xmlns:xlink="http://www.w3.org/1999/xlink">
    <!-- Generator: Sketch 48.2 (47327) - http://www.bohemiancoding.com/sketch -->
    <title>Bonds/Icons/Menu/Offers/Current</title>
    <desc>Created with Sketch.</desc>
    <defs>
        <path d="M11.8293184,21.2182633 L24.1056956,21.2182633 L24.1056956,25.4951261 C24.1056956,25.689845 23.9211951,25.8428385 23.6870215,25.8428385 L12.2479925,25.8428385 C12.0138189,25.8428385 11.8293184,25.6828908 11.8293184,25.4951261 L11.8293184,21.2182633 Z M11.8293184,18.9650868 L11.8293184,17.9219496 C11.8293184,17.7272306 12.020915,17.5672829 12.2479925,17.5672829 L23.6870215,17.5672829 C23.9211951,17.5672829 24.1056956,17.7272306 24.1056956,17.9219496 L24.1056956,18.9650868 L11.8293184,18.9650868 Z M19,0 C29.4934392,0 38,8.50656078 38,19 C38,29.4934392 29.4934392,38 19,38 C8.50656078,38 1.8e-15,29.4934392 1.8e-15,19 C1.8e-15,8.50656078 8.50656078,0 19,0 Z M23.6870215,16.6354136 L12.2479925,16.6354136 C11.4887021,16.6354136 10.8713352,17.2126162 10.8713352,17.9289038 L10.8713352,25.5020803 C10.8713352,26.2114136 11.4887021,26.7955705 12.2479925,26.7955705 L23.6870215,26.7955705 C24.4463119,26.7955705 25.0636788,26.2183679 25.0636788,25.5020803 L25.0636788,17.9219496 C25.0636788,17.2126162 24.4463119,16.6354136 23.6870215,16.6354136 Z M22.2252101,23.0959104 C21.7568627,23.0959104 21.3736695,23.4714398 21.3736695,23.9304202 L21.3736695,23.9512829 C21.3736695,24.4102633 21.7497666,24.7857927 22.2252101,24.7857927 C22.7006536,24.7857927 23.0767507,24.4102633 23.0767507,23.9512829 L23.0767507,23.9304202 C23.0767507,23.4714398 22.7006536,23.0959104 22.2252101,23.0959104 Z M27.8169935,18.0958058 L25.5746032,10.8564332 C25.361718,10.1749169 24.6024276,9.79938749 23.8715219,10.0149692 L12.929225,13.2695574 C12.1983193,13.4851391 11.7796452,14.2153352 11.9925303,14.8968515 L12.3047619,15.9121718 C12.3189542,15.9678058 12.3757236,16.002577 12.432493,16.002577 L13.1563025,16.002577 C13.2414566,16.002577 13.3053221,15.9191261 13.2769374,15.8426293 L12.9008403,14.6256359 C12.844071,14.4378711 12.9788982,14.2361979 13.1988796,14.1666555 L24.1411765,10.9120672 C24.3611578,10.849479 24.5882353,10.9468385 24.6450047,11.1276489 L26.887395,18.3739757 C26.9441643,18.5547862 26.8093371,18.7634136 26.5893557,18.8260019 L25.8513539,19.0415836 C25.7945845,19.0554921 25.7591036,19.1041718 25.7591036,19.1598058 L25.7591036,19.8830476 C25.7591036,19.9664986 25.8442577,20.0290868 25.9223156,20.0012698 L26.8590103,19.7230999 C27.6112045,19.5075182 28.0298786,18.7773221 27.8169935,18.0958058 Z M22.8709617,15.3906032 L23.9495798,15.0846162 C24.2760037,14.994211 24.4676004,14.6534528 24.3753501,14.3266032 L24.0631186,13.2695574 C23.9708683,12.949662 23.6231559,12.7618973 23.2896359,12.8523025 L22.2110177,13.1582894 C21.8845938,13.2486947 21.6929972,13.5894528 21.7852474,13.9163025 L22.097479,14.9733483 C22.1968254,15.3001979 22.5374416,15.4879627 22.8709617,15.3906032 Z" id="path-1"></path>
    </defs>
    <g id="Icons" stroke="none" stroke-width="1" fill="none" fill-rule="evenodd">
        <g id="Bonds/Icons/Menu/Offers/Current">
            <mask id="mask-2" fill="white">
                <use xlink:href="#path-1"></use>
            </mask>
            <g id="Combined-Shape"></g>
            <g id="Bonds/Colours/General/White" mask="url(#mask-2)" fill="#FFFFFF">
                <rect id="Rectangle-3" x="0" y="0" width="38" height="38"></rect>
            </g>
        </g>
    </g>
</svg>