<?xml version="1.0" encoding="UTF-8"?>
<svg width="38px" height="38px" viewBox="0 0 38 38" version="1.1" xmlns="http://www.w3.org/2000/svg" xmlns:xlink="http://www.w3.org/1999/xlink">
    <!-- Generator: Sketch 48.2 (47327) - http://www.bohemiancoding.com/sketch -->
    <title>Bonds/Icons/Menu/Offers/Default</title>
    <desc>Created with Sketch.</desc>
    <defs>
        <path d="M19,0 C29.4934392,0 38,8.50656078 38,19 C38,29.4934392 29.4934392,38 19,38 C8.50656078,38 1.8e-15,29.4934392 1.8e-15,19 C1.8e-15,8.50656078 8.50656078,0 19,0 Z M19,36.86 C28.8638314,36.86 36.86,28.8638314 36.86,19 C36.86,9.13616863 28.8638314,1.14 19,1.14 C9.13616863,1.14 1.14,9.13616863 1.14,19 C1.14,28.8638314 9.13616863,36.86 19,36.86 Z M23.6870215,16.6354136 C24.4463119,16.6354136 25.0636788,17.2126162 25.0636788,17.9219496 L25.0636788,25.5020803 C25.0636788,26.2183679 24.4463119,26.7955705 23.6870215,26.7955705 L12.2479925,26.7955705 C11.4887021,26.7955705 10.8713352,26.2114136 10.8713352,25.5020803 L10.8713352,17.9289038 C10.8713352,17.2126162 11.4887021,16.6354136 12.2479925,16.6354136 L23.6870215,16.6354136 Z M24.1056956,25.4951261 L24.1056956,17.9219496 C24.1056956,17.7272306 23.9211951,17.5672829 23.6870215,17.5672829 L12.2479925,17.5672829 C12.020915,17.5672829 11.8293184,17.7272306 11.8293184,17.9219496 L11.8293184,25.4951261 C11.8293184,25.6828908 12.0138189,25.8428385 12.2479925,25.8428385 L23.6870215,25.8428385 C23.9211951,25.8428385 24.1056956,25.689845 24.1056956,25.4951261 Z M22.2252101,23.0959104 C22.7006536,23.0959104 23.0767507,23.4714398 23.0767507,23.9304202 L23.0767507,23.9512829 C23.0767507,24.4102633 22.7006536,24.7857927 22.2252101,24.7857927 C21.7497666,24.7857927 21.3736695,24.4102633 21.3736695,23.9512829 L21.3736695,23.9304202 C21.3736695,23.4714398 21.7568627,23.0959104 22.2252101,23.0959104 Z M11.8293184,18.9650868 L24.1056956,18.9650868 L24.1056956,21.2182633 L11.8293184,21.2182633 L11.8293184,18.9650868 Z M27.8169935,18.0958058 C28.0298786,18.7773221 27.6112045,19.5075182 26.8590103,19.7230999 L25.9223156,20.0012698 C25.8442577,20.0290868 25.7591036,19.9664986 25.7591036,19.8830476 L25.7591036,19.1598058 C25.7591036,19.1041718 25.7945845,19.0554921 25.8513539,19.0415836 L26.5893557,18.8260019 C26.8093371,18.7634136 26.9441643,18.5547862 26.887395,18.3739757 L24.6450047,11.1276489 C24.5882353,10.9468385 24.3611578,10.849479 24.1411765,10.9120672 L13.1988796,14.1666555 C12.9788982,14.2361979 12.844071,14.4378711 12.9008403,14.6256359 L13.2769374,15.8426293 C13.3053221,15.9191261 13.2414566,16.002577 13.1563025,16.002577 L12.432493,16.002577 C12.3757236,16.002577 12.3189542,15.9678058 12.3047619,15.9121718 L11.9925303,14.8968515 C11.7796452,14.2153352 12.1983193,13.4851391 12.929225,13.2695574 L23.8715219,10.0149692 C24.6024276,9.79938749 25.361718,10.1749169 25.5746032,10.8564332 L27.8169935,18.0958058 Z M22.8709617,15.3906032 C22.5374416,15.4879627 22.1968254,15.3001979 22.097479,14.9733483 L21.7852474,13.9163025 C21.6929972,13.5894528 21.8845938,13.2486947 22.2110177,13.1582894 L23.2896359,12.8523025 C23.6231559,12.7618973 23.9708683,12.949662 24.0631186,13.2695574 L24.3753501,14.3266032 C24.4676004,14.6534528 24.2760037,14.994211 23.9495798,15.0846162 L22.8709617,15.3906032 Z" id="path-1"></path>
    </defs>
    <g id="Icons" stroke="none" stroke-width="1" fill="none" fill-rule="evenodd">
        <g id="Bonds/Icons/Menu/Offers/Default">
            <mask id="mask-2" fill="white">
                <use xlink:href="#path-1"></use>
            </mask>
            <g id="Combined-Shape"></g>
            <g id="Bonds/Colours/General/White" mask="url(#mask-2)" fill="#FFFFFF">
                <rect id="Rectangle-3" x="0" y="0" width="38" height="38"></rect>
            </g>
        </g>
    </g>
</svg>