<?xml version="1.0" encoding="UTF-8"?>
<svg width="36px" height="36px" viewBox="0 0 36 36" version="1.1" xmlns="http://www.w3.org/2000/svg" xmlns:xlink="http://www.w3.org/1999/xlink">
    <!-- Generator: Sketch 48.2 (47327) - http://www.bohemiancoding.com/sketch -->
    <title>Bonds/Icons/My Account/FAQs/Default</title>
    <desc>Created with Sketch.</desc>
    <defs>
        <path d="M18,0.078125 C27.8980056,0.078125 35.921875,8.10199442 35.921875,18 C35.921875,27.8980056 27.8980056,35.921875 18,35.921875 C8.10199442,35.921875 0.078125,27.8980056 0.078125,18 C0.078125,8.10199442 8.10199442,0.078125 18,0.078125 Z M18,34.8465625 C27.3041238,34.8465625 34.8465625,27.3041238 34.8465625,18 C34.8465625,8.69587616 27.3041238,1.1534375 18,1.1534375 C8.69587616,1.1534375 1.1534375,8.69587616 1.1534375,18 C1.1534375,27.3041238 8.69587616,34.8465625 18,34.8465625 Z M18.8325782,24.2443368 L18.8325782,24.8511311 C18.8325782,25.3520892 18.4233449,25.7613226 17.9223868,25.7613226 C17.4214287,25.7613226 17.0121953,25.3520892 17.0121953,24.8511311 L17.0121953,24.2443368 C17.0121953,23.7433787 17.4214287,23.3341453 17.9223868,23.3341453 C18.4233449,23.3341453 18.8325782,23.7433787 18.8325782,24.2443368 Z M22.4592326,15.2905928 C22.113501,16.6594079 21.1256963,17.6542684 20.2578393,18.5362368 C19.5593203,19.2347559 18.9101915,19.9050519 18.9101915,20.4483445 C18.9101915,20.9493026 18.5009581,21.3585359 18,21.3585359 C17.4990419,21.3585359 17.0898085,20.9493026 17.0898085,20.4483445 C17.0898085,19.1571426 18.0423345,18.2046167 18.9595817,17.2591465 C19.7004352,16.4971257 20.4765675,15.7280492 20.7023514,14.8319692 C20.8858008,14.1052272 20.7799646,13.4349312 20.3989542,12.9480846 C19.9403306,12.3554018 19.1218639,12.0520046 18.0141115,12.0520046 C16.8287459,12.0520046 16.0243906,12.5106282 15.5728228,13.4208197 C15.2059239,14.1334502 15.1918124,14.8601922 15.1918124,14.8601922 C15.1918124,15.3611503 14.782579,15.7421607 14.2816209,15.7421607 C13.7806628,15.7421607 13.3855409,15.3470388 13.3855409,14.8601922 C13.3855409,14.7402445 13.4137639,13.6889381 13.9641123,12.6023529 C14.5074048,11.508712 15.650436,10.2386774 18.028223,10.2386774 C20.1520031,10.2386774 21.273867,11.1206459 21.8383268,11.8473879 C22.5650688,12.7716909 22.7979085,14.0346697 22.4592326,15.2905928 Z" id="path-1"></path>
    </defs>
    <g id="Icons" stroke="none" stroke-width="1" fill="none" fill-rule="evenodd">
        <g id="Bonds/Icons/My-Account/FAQs/Default">
            <mask id="mask-2" fill="white">
                <use xlink:href="#path-1"></use>
            </mask>
            <g id="Shape" fill-rule="nonzero"></g>
            <g id="Bonds/Colours/General/White" mask="url(#mask-2)" fill="#FFFFFF">
                <rect id="Rectangle-3" x="0" y="0" width="36" height="36"></rect>
            </g>
        </g>
    </g>
</svg>