<?xml version="1.0" encoding="UTF-8"?>
<svg width="38px" height="38px" viewBox="0 0 38 38" version="1.1" xmlns="http://www.w3.org/2000/svg" xmlns:xlink="http://www.w3.org/1999/xlink">
    <!-- Generator: Sketch 48.2 (47327) - http://www.bohemiancoding.com/sketch -->
    <title>Bonds/Icons/Menu/My Account/Default</title>
    <desc>Created with Sketch.</desc>
    <defs>
        <path d="M19,0 C29.4934392,0 38,8.50656078 38,19 C38,29.4934392 29.4934392,38 19,38 C8.50656078,38 0,29.4934392 0,19 C0,8.50656078 8.50656078,0 19,0 Z M19,36.86 C28.8638314,36.86 36.86,28.8638314 36.86,19 C36.86,9.13616863 28.8638314,1.14 19,1.14 C9.13616863,1.14 1.14,9.13616863 1.14,19 C1.14,28.8638314 9.13616863,36.86 19,36.86 Z M23.6333892,16.72 C26.7977669,16.72 28.4712929,20.3219752 28.4713763,23.4819098 C28.4713763,24.536 27.6119981,25.3950551 26.5574281,25.3950551 L11.7899426,25.3950551 C10.7386271,25.3950551 9.88,24.536 9.88,23.4819098 C9.88,20.3219752 11.552608,16.72 14.7138146,16.72 C15.0658943,16.72 15.3517973,17.005879 15.3517973,17.3577429 C15.3517973,17.708856 15.0658108,17.9954858 14.7138146,17.9954858 C12.2559329,17.9954858 11.155882,21.0249522 11.155882,23.4819098 C11.155882,23.8338571 11.4417851,24.1196527 11.7898591,24.1196527 L26.5573446,24.1196527 C26.9094243,24.1196527 27.1953274,23.8338571 27.1953274,23.4819098 C27.1953274,21.0249522 26.094442,17.9954858 23.6333892,17.9954858 C23.282144,17.9954858 22.9994121,17.708856 22.9994121,17.3577429 C22.9994121,17.005879 23.282144,16.72 23.6333892,16.72 Z M19.2495423,17.2160396 C17.013056,17.2160396 15.2,15.4036652 15.2,13.1680198 C15.2,10.9323744 17.013056,9.12 19.2495423,9.12 C21.4860285,9.12 23.2990845,10.9323744 23.2990845,13.1680198 C23.2990845,15.4036652 21.4860285,17.2160396 19.2495423,17.2160396 Z M19.2495423,10.1544031 C17.5846118,10.1544031 16.2348756,11.5036318 16.2348756,13.1679364 C16.2348756,14.8322409 17.5846118,16.1814696 19.2495423,16.1814696 C20.9144728,16.1814696 22.2642089,14.8322409 22.2642089,13.1679364 C22.2642089,11.5036318 20.9144728,10.1544031 19.2495423,10.1544031 Z" id="path-1"></path>
    </defs>
    <g id="Icons" stroke="none" stroke-width="1" fill="none" fill-rule="evenodd">
        <g id="Bonds/Icons/Menu/My-Account/Default">
            <mask id="mask-2" fill="white">
                <use xlink:href="#path-1"></use>
            </mask>
            <g id="Combined-Shape"></g>
            <g id="Bonds/Colours/General/White" mask="url(#mask-2)" fill="#FFFFFF">
                <rect id="Rectangle-3" x="0" y="0" width="38" height="38"></rect>
            </g>
        </g>
    </g>
</svg>