<?xml version="1.0" encoding="UTF-8"?>
<svg width="217px" height="17px" viewBox="0 0 217 17" version="1.1" xmlns="http://www.w3.org/2000/svg" xmlns:xlink="http://www.w3.org/1999/xlink">
    <!-- Generator: Sketch 46.2 (44496) - http://www.bohemiancoding.com/sketch -->
    <title>Combined Shape</title>
    <desc>Created with Sketch.</desc>
    <defs></defs>
    <g id="Page-1" stroke="none" stroke-width="1" fill="none" fill-rule="evenodd">
        <path d="M202.987704,1.98931197 C202.439436,1.98931197 201.993644,2.4353736 201.993644,2.98337224 L201.993644,14.9952517 C201.993644,15.5435194 202.439706,15.989312 202.987704,15.989312 L214.999584,15.989312 C215.547851,15.989312 215.993644,15.5432503 215.993644,14.9952517 L215.993644,2.98337224 C215.993644,2.43510451 215.547582,1.98931197 214.999584,1.98931197 L202.987704,1.98931197 Z M107.993644,15.989312 C111.859637,15.989312 114.993644,12.8553052 114.993644,8.98931197 C114.993644,5.12331872 111.859637,1.98931197 107.993644,1.98931197 C104.127651,1.98931197 100.993644,5.12331872 100.993644,8.98931197 C100.993644,12.8553052 104.127651,15.989312 107.993644,15.989312 Z M13.7660756,1.10241733 L1.21690631,8.35702959 C0.927718066,8.52420787 0.927677959,8.45629197 1.21690637,8.62349348 L13.7660759,15.8781062 C14.0542153,16.0446782 13.9936439,16.079742 13.9936439,15.7448743 L13.9936436,1.23564932 C13.9936436,0.900828227 14.0542573,0.935820879 13.7660756,1.10241733 Z" id="Combined-Shape" stroke="#FFFFFF" stroke-width="2"></path>
    </g>
</svg>