<?xml version="1.0" encoding="UTF-8"?>
<svg width="40px" height="40px" viewBox="0 0 40 40" version="1.1" xmlns="http://www.w3.org/2000/svg" xmlns:xlink="http://www.w3.org/1999/xlink">
    <!-- Generator: Sketch 48.2 (47327) - http://www.bohemiancoding.com/sketch -->
    <title>Bonds/Icons/Report/Personal/Default</title>
    <desc>Created with Sketch.</desc>
    <defs>
        <path d="M20,0 C31.0457255,0 40,8.95427451 40,20 C40,31.0457255 31.0457255,40 20,40 C8.95427451,40 0,31.0457255 0,20 C0,8.95427451 8.95427451,0 20,0 Z M20,38.8 C30.3829804,38.8 38.8,30.3829804 38.8,20 C38.8,9.61701961 30.3829804,1.2 20,1.2 C9.61701961,1.2 1.2,9.61701961 1.2,20 C1.2,30.3829804 9.61701961,38.8 20,38.8 Z M24.8772518,17.6 C28.2081757,17.6 29.969782,21.3915528 29.9698698,24.7177998 C29.9698698,25.8273684 29.0652612,26.7316369 27.9551875,26.7316369 L12.4104659,26.7316369 C11.303818,26.7316369 10.4,25.8273684 10.4,24.7177998 C10.4,21.3915528 12.16064,17.6 15.4882259,17.6 C15.8588361,17.6 16.1597867,17.9009253 16.1597867,18.2713083 C16.1597867,18.6409011 15.8587482,18.9426166 15.4882259,18.9426166 C12.900982,18.9426166 11.7430337,22.1315286 11.7430337,24.7177998 C11.7430337,25.0882707 12.0439843,25.3891081 12.410378,25.3891081 L27.9550996,25.3891081 C28.3257098,25.3891081 28.6266604,25.0882707 28.6266604,24.7177998 C28.6266604,22.1315286 27.4678337,18.9426166 24.8772518,18.9426166 C24.50752,18.9426166 24.2099075,18.6409011 24.2099075,18.2713083 C24.2099075,17.9009253 24.50752,17.6 24.8772518,17.6 Z M20.2626761,18.1221469 C17.90848,18.1221469 16,16.2143844 16,13.8610735 C16,11.5077625 17.90848,9.6 20.2626761,9.6 C22.6168722,9.6 24.5253522,11.5077625 24.5253522,13.8610735 C24.5253522,16.2143844 22.6168722,18.1221469 20.2626761,18.1221469 Z M20.2626761,10.6888454 C18.5101176,10.6888454 17.0893427,12.1090861 17.0893427,13.8609857 C17.0893427,15.6128852 18.5101176,17.0331259 20.2626761,17.0331259 C22.0152345,17.0331259 23.4360094,15.6128852 23.4360094,13.8609857 C23.4360094,12.1090861 22.0152345,10.6888454 20.2626761,10.6888454 Z" id="path-1"></path>
    </defs>
    <g id="Icons" stroke="none" stroke-width="1" fill="none" fill-rule="evenodd">
        <g id="Bonds/Icons/Report/Personal/Default">
            <mask id="mask-2" fill="white">
                <use xlink:href="#path-1"></use>
            </mask>
            <g id="Combined-Shape"></g>
            <g id="Bonds/Colours/General/White" mask="url(#mask-2)" fill="#FFFFFF">
                <rect id="Rectangle-3" x="0" y="0" width="40" height="40"></rect>
            </g>
        </g>
    </g>
</svg>