<?xml version="1.0" encoding="UTF-8"?>
<svg width="42px" height="42px" viewBox="0 0 42 42" version="1.1" xmlns="http://www.w3.org/2000/svg" xmlns:xlink="http://www.w3.org/1999/xlink">
    <!-- Generator: Sketch 48.2 (47327) - http://www.bohemiancoding.com/sketch -->
    <title>Bonds/Icons/Global/Link</title>
    <desc>Created with Sketch.</desc>
    <defs>
        <path d="M10.4697656,37.32 C9.89375,37.49625 9.29125,37.5973437 8.67335938,37.619375 C6.82257813,37.6842969 5.05734375,37.025 3.70257813,35.7622656 L3.239375,35.3302344 C0.44296875,32.7234375 0.28859375,28.3282812 2.8946875,25.5319531 L14.1238281,13.4845312 C16.7310156,10.6889844 21.1261719,10.5342187 23.9220313,13.1404687 L24.3855469,13.5720312 C27.181875,16.1786719 27.3366406,20.5749219 24.7298438,23.3707812 L23.73625,24.4363281 C23.2486719,24.9614062 22.4297656,24.9892969 21.9059375,24.5009375 C21.3823438,24.0133594 21.35375,23.1936719 21.8414062,22.6705469 L22.8346875,21.6046094 C23.6255469,20.7557031 24.0389063,19.6500781 23.9982031,18.49125 C23.9573437,17.3323437 23.4675781,16.258125 22.6186719,15.4671875 L22.155625,15.035625 C20.4041406,13.4036719 17.6515625,13.4996094 16.0186719,15.2509375 L4.78984375,27.2982812 C3.15734375,29.0494531 3.25453125,31.8026562 5.00570313,33.4350781 L5.46890625,33.8671875 C6.31757813,34.6576562 7.4228125,35.0711719 8.58210938,35.0301562 C9.74078125,34.9904687 10.8149219,34.5007031 11.6057031,33.6514062 L14.1139844,30.9603906 C14.6027344,30.4375 15.4214844,30.4091406 15.9449219,30.8960937 C16.4680469,31.3838281 16.4967187,32.2035937 16.0091406,32.7270312 L13.5007031,35.4175781 C12.6596094,36.3199219 11.6182813,36.9685156 10.4697656,37.32 Z M24.53,31.0690625 C22.2366406,31.7707812 19.6401562,31.2649219 17.7636719,29.515625 L17.3005469,29.0839844 C14.5035937,26.4775 14.3489062,22.0814062 16.955625,19.2853906 L17.9490625,18.219375 C18.4379687,17.6953906 19.2569531,17.6675 19.7795312,18.1553906 C20.3030469,18.6428125 20.3321875,19.4625 19.8441406,19.9857031 L18.8507031,21.0515625 C18.0598437,21.9004687 17.6469531,23.0060937 17.6872656,24.1650781 C17.7285937,25.32375 18.2178125,26.398125 19.0666406,27.1885156 L19.5298437,27.620625 C21.2813281,29.2525 24.0346875,29.1557812 25.6666406,27.4047656 L36.8959375,15.3578125 C38.5282031,13.6063281 38.4315625,10.8532812 36.6798437,9.22054687 L36.2167187,8.78890625 C35.3678906,7.99796875 34.2628125,7.58492187 33.1033594,7.62546875 C31.9460156,7.66625 30.8714062,8.15617187 30.0797656,9.00429687 L27.5720312,11.6954687 C27.0839844,12.2191406 26.2641406,12.2473437 25.7410937,11.7597656 C25.2174219,11.2717187 25.18875,10.4520312 25.676875,9.92882812 L28.1847656,7.23796875 C29.4471875,5.88273437 31.1609375,5.10226562 33.0126562,5.03671875 C34.8630469,4.971875 36.6282031,5.63125 37.9829687,6.89398437 L38.4460937,7.325625 C39.8007812,8.58835937 40.5830469,10.3029687 40.6480469,12.1539062 C40.7132031,14.0042187 40.0535937,15.7694531 38.7908594,17.1242187 L27.5619531,29.1714844 C26.704375,30.0910156 25.65375,30.7252344 24.53,31.0690625 Z" id="path-1"></path>
    </defs>
    <g id="Icons" stroke="none" stroke-width="1" fill="none" fill-rule="evenodd">
        <g id="Bonds/Icons/Global/Link">
            <mask id="mask-2" fill="white">
                <use xlink:href="#path-1"></use>
            </mask>
            <g id="Shape" fill-rule="nonzero"></g>
            <g id="Bonds/Colours/General/White" mask="url(#mask-2)" fill="#FFFFFF">
                <rect id="Rectangle-3" x="0" y="0" width="42" height="42"></rect>
            </g>
        </g>
    </g>
</svg>