<?xml version="1.0" encoding="UTF-8"?>
<svg width="42px" height="42px" viewBox="0 0 42 42" version="1.1" xmlns="http://www.w3.org/2000/svg" xmlns:xlink="http://www.w3.org/1999/xlink">
    <!-- Generator: Sketch 48.2 (47327) - http://www.bohemiancoding.com/sketch -->
    <title>Bonds/Icons/Global/Help/Active</title>
    <desc>Created with Sketch.</desc>
    <defs>
        <path d="M21,0 C32.5980118,0 42,9.40198824 42,21 C42,32.5980118 32.5980118,42 21,42 C9.40198824,42 0,32.5980118 0,21 C0,9.40198824 9.40198824,0 21,0 Z M20.9122118,27.2253059 C20.3276706,27.2253059 19.8494471,27.7032824 19.8494471,28.2877412 L19.8494471,28.9961412 C19.8494471,29.5806 20.3276706,30.0588235 20.9122118,30.0588235 C21.4966706,30.0588235 21.9746471,29.5806 21.9746471,28.9961412 L21.9746471,28.2877412 C21.9746471,27.7032 21.4966706,27.2253059 20.9122118,27.2253059 Z M25.4814824,13.8182471 C24.8262824,12.9682 23.5156353,11.9411765 21.0361529,11.9411765 C18.2556706,11.9411765 16.9274,13.4288824 16.2898235,14.7040353 C15.6522471,15.9791882 15.6168353,17.2013059 15.6168353,17.3428706 C15.6168353,17.9097059 16.0770235,18.3699765 16.6615647,18.3699765 C17.2460235,18.3699765 17.7242471,17.9274118 17.7242471,17.3428706 C17.7242471,17.3428706 17.7419529,16.4928235 18.1671412,15.6602353 C18.6982353,14.5977176 19.6370588,14.0664588 21.0184471,14.0664588 C22.3113059,14.0664588 23.2675059,14.4204941 23.7989294,15.1115176 C24.2418235,15.6780235 24.3656824,16.4571647 24.1532941,17.3074588 C23.8874588,18.3521882 22.9842941,19.2556 22.1166235,20.1410588 C21.0538588,21.2391529 19.9379765,22.3547882 19.9379765,23.8603647 C19.9379765,24.4445765 20.4162,24.9228 21.0007412,24.9228 C21.5852,24.9228 22.0634235,24.4444941 22.0634235,23.8603647 C22.0634235,23.2227882 22.8249412,22.4433176 23.6395765,21.6286824 C24.6492235,20.6016588 25.8001882,19.4326588 26.2075882,17.8388824 C26.5971176,16.3686353 26.3315294,14.8987176 25.4814824,13.8182471 Z" id="path-1"></path>
    </defs>
    <g id="Icons" stroke="none" stroke-width="1" fill="none" fill-rule="evenodd">
        <g id="Bonds/Icons/Global/Help/Active">
            <mask id="mask-2" fill="white">
                <use xlink:href="#path-1"></use>
            </mask>
            <g id="Shape" fill-rule="nonzero"></g>
            <g id="Bonds/Colours/General/White" mask="url(#mask-2)" fill="#FFFFFF">
                <rect id="Rectangle-3" x="0" y="0" width="42" height="42"></rect>
            </g>
        </g>
    </g>
</svg>