<?xml version="1.0" encoding="UTF-8"?>
<svg width="146px" height="146px" viewBox="0 0 146 146" version="1.1" xmlns="http://www.w3.org/2000/svg" xmlns:xlink="http://www.w3.org/1999/xlink">
    <!-- Generator: Sketch 48.2 (47327) - http://www.bohemiancoding.com/sketch -->
    <title>Bonds/Icons/Learn/Score/Block</title>
    <desc>Created with Sketch.</desc>
    <defs>
        <path d="M64.7,107.2 L53,111.4 C52.3,111.6 51.6,111.2 51.4,110.6 L30,50.9 C29.8,50.2 30.2,49.5 30.8,49.3 L63.4,37.5 L71.1,34.8 C71.8,34.6 72.5,35 72.7,35.6 L74.4,40.2 L75.5,43.4 L100.6,43.4 L108.7,43.4 C109.4,43.4 110,43.9 110,44.6 L110,49.5 L110,108 C110,108.7 109.4,109.2 108.8,109.2 L65.9,109.2 C65.2,109.2 64.7,108.6 64.7,108 L64.7,107.2 Z M64.5,38.4 L73.6,41.5 L71.9,36.8 C71.7,36.3 71.1,36 70.6,36.2 L64.5,38.4 Z M101.1,44.6 L108.6,50.6 L108.6,45.6 C108.6,45 108.1,44.6 107.6,44.6 L101.1,44.6 Z M64.7,49.9 L64.7,48.1 L61.6,49.2 C61.2,49.4 60.9,49.9 61.1,50.3 C61.3,50.7 61.8,51 62.2,50.8 L64.7,49.9 Z M45.7,56.7 C46.1,56.6 46.3,56.1 46.2,55.6 C46,55.2 45.5,54.9 45.1,55.1 L36.6,58.2 C36.2,58.4 35.9,58.9 36.1,59.3 C36.3,59.7 36.8,60 37.2,59.8 L45.7,56.7 Z M64.7,58.1 L64.7,56.3 L63,56.9 C62.6,57.1 62.3,57.6 62.5,58 C62.7,58.4 63.2,58.7 63.6,58.5 L64.7,58.1 Z M58.1,52.3 C58.6,52.1 58.8,51.6 58.6,51.2 C58.4,50.8 57.9,50.5 57.5,50.7 L49,53.8 C48.6,54 48.3,54.5 48.5,54.9 C48.7,55.3 49.2,55.6 49.6,55.4 L58.1,52.3 Z M48.6,63.9 C49,63.8 49.2,63.3 49,62.8 C48.8,62.4 48.3,62.1 47.9,62.3 L39.4,65.4 C39,65.6 38.7,66.1 38.9,66.5 C39.1,66.9 39.6,67.2 40,67 L48.6,63.9 Z M60.4,59.7 C60.8,59.5 61.1,59 60.9,58.6 C60.7,58.2 60.2,57.9 59.8,58.1 L51.3,61.2 C50.9,61.4 50.6,61.9 50.8,62.3 C51,62.7 51.5,63 51.9,62.8 L60.4,59.7 Z M56.7,69.4 C57.1,69.3 57.3,68.8 57.2,68.3 C57,67.9 56.5,67.6 56.1,67.8 L42.1,72.8 C41.7,73 41.4,73.5 41.6,73.9 C41.8,74.3 42.3,74.6 42.7,74.4 L56.7,69.4 Z M64.7,64.6 L59.4,66.5 C59,66.7 58.7,67.1 58.9,67.6 C59.1,68 59.5,68.3 60,68.1 L64.8,66.4 L64.7,64.6 Z M87.4,91.5 C93.4751322,91.5 98.4,86.5751322 98.4,80.5 C98.4,74.4248678 93.4751322,69.5 87.4,69.5 C81.3248678,69.5 76.4,74.4248678 76.4,80.5 C76.4,86.5751322 81.3248678,91.5 87.4,91.5 Z M87.4,71.41145 C87.1727624,71.41145 86.98855,71.2272376 86.98855,71 C86.98855,70.7727624 87.1727624,70.58855 87.4,70.58855 C92.8934898,70.58855 97.31145,75.0387581 97.31145,80.5 C97.31145,85.9934898 92.8612419,90.41145 87.4,90.41145 C81.9065102,90.41145 77.48855,85.9612419 77.48855,80.5 C77.48855,80.2727624 77.6727624,80.08855 77.9,80.08855 C78.1272376,80.08855 78.31145,80.2727624 78.31145,80.5 C78.31145,85.5081011 82.3623304,89.58855 87.4,89.58855 C92.4081011,89.58855 96.48855,85.5376696 96.48855,80.5 C96.48855,75.4918989 92.4376696,71.41145 87.4,71.41145 Z M79.5,55.4 C80,55.4 80.4,55 80.3,54.6 C80.3,54.2 80,53.8 79.5,53.8 L70.4,53.8 C70,53.8 69.6,54.1 69.6,54.6 C69.6,55 69.9,55.4 70.4,55.4 L79.5,55.4 Z M79.8,63.1 C80.3,63.1 80.6,62.8 80.6,62.3 C80.6,61.9 80.3,61.5 79.8,61.5 L70.7,61.5 C70.3,61.5 69.9,61.8 69.9,62.3 C69.9,62.7 70.2,63.1 70.7,63.1 L79.8,63.1 Z M91.4,63.1 C91.8,63.1 92.2,62.8 92.2,62.3 C92.2,61.9 91.9,61.5 91.4,61.5 L83.6,61.5 C83.2,61.5 82.8,61.8 82.8,62.3 C82.8,62.7 83.1,63.1 83.6,63.1 L91.4,63.1 Z M104.2,63.1 C104.7,63.1 105.1,62.8 105,62.3 C105,61.9 104.7,61.5 104.2,61.5 L95.1,61.5 C94.7,61.5 94.3,61.8 94.3,62.3 C94.3,62.7 94.6,63.1 95.1,63.1 L101.3,63.1 L104.2,63.1 Z M104,55.4 C104.5,55.4 104.8,55 104.8,54.6 C104.8,54.2 104.5,53.8 104,53.8 L83.3,53.8 C82.9,53.8 82.5,54.1 82.5,54.6 C82.5,55 82.8,55.4 83.3,55.4 L104,55.4 Z M82.7541109,80.9422641 C82.7892674,81.2430468 82.9289144,81.4510525 83.1730562,81.5662875 C83.2980569,81.6248815 83.4425867,81.6541781 83.60665,81.6541781 C83.9191516,81.6541781 84.1505946,81.5545697 84.3009859,81.35535 C84.4513773,81.1561303 84.5265719,80.9354293 84.5265719,80.6932406 C84.5265719,80.4002704 84.4372173,80.1737102 84.2585055,80.0135531 C84.0797936,79.8533961 83.8654403,79.7733187 83.6154391,79.7733187 C83.4337975,79.7733187 83.2780374,79.8084746 83.1481539,79.8787875 C83.0182704,79.9491004 82.9074317,80.0467556 82.8156344,80.1717562 L82.3586031,80.1453891 L82.6779391,77.8866 L84.8576266,77.8866 L84.8576266,78.3963656 L83.0734469,78.3963656 L82.8947359,79.5623812 C82.9923927,79.4881621 83.0851652,79.4324986 83.1730562,79.3953891 C83.329307,79.3309356 83.5099693,79.2987094 83.7150484,79.2987094 C84.099816,79.2987094 84.4259846,79.4227316 84.6935641,79.6707797 C84.9611435,79.9188278 85.0949312,80.2332778 85.0949312,80.6141391 C85.0949312,81.0106254 84.9723739,81.3602313 84.7272555,81.6629672 C84.4821371,81.9657031 84.0910277,82.1170687 83.5539156,82.1170687 C83.212117,82.1170687 82.909874,82.0208783 82.6471773,81.8284945 C82.3844807,81.6361108 82.2375095,81.3407036 82.2062594,80.9422641 L82.7541109,80.9422641 Z M88.1505953,78.4871859 C88.3380962,78.8328908 88.4318453,79.3065189 88.4318453,79.9080844 C88.4318453,80.4783997 88.3468852,80.9500747 88.1769625,81.3231234 C87.9308675,81.8582824 87.5285278,82.1258578 86.9699312,82.1258578 C86.4660225,82.1258578 86.0910262,81.90711 85.8449312,81.4696078 C85.6398521,81.1043716 85.5373141,80.6141421 85.5373141,79.9989047 C85.5373141,79.5223398 85.5988369,79.1131642 85.7218844,78.7713656 C85.9523543,78.1346437 86.3693423,77.8162875 86.9728609,77.8162875 C87.5158324,77.8162875 87.9084066,78.0399181 88.1505953,78.4871859 Z M87.6203219,81.2821078 C87.7824321,81.0399191 87.8634859,80.5887517 87.8634859,79.9285922 C87.8634859,79.4520273 87.8048928,79.0599414 87.6877047,78.7523227 C87.5705166,78.4447039 87.3429798,78.2908969 87.0050875,78.2908969 C86.6945391,78.2908969 86.4674906,78.4368915 86.3239352,78.7288852 C86.1803798,79.0208788 86.1086031,79.4510503 86.1086031,80.0194125 C86.1086031,80.447149 86.1545011,80.7908956 86.2462984,81.0506625 C86.3869241,81.4471489 86.6271561,81.6453891 86.9670016,81.6453891 C87.2404404,81.6453891 87.4582117,81.5242965 87.6203219,81.2821078 Z M91.4875094,78.4871859 C91.6750103,78.8328908 91.7687594,79.3065189 91.7687594,79.9080844 C91.7687594,80.4783997 91.6837993,80.9500747 91.5138766,81.3231234 C91.2677816,81.8582824 90.8654419,82.1258578 90.3068453,82.1258578 C89.8029365,82.1258578 89.4279403,81.90711 89.1818453,81.4696078 C88.9767662,81.1043716 88.8742281,80.6141421 88.8742281,79.9989047 C88.8742281,79.5223398 88.9357509,79.1131642 89.0587984,78.7713656 C89.2892683,78.1346437 89.7062564,77.8162875 90.309775,77.8162875 C90.8527465,77.8162875 91.2453207,78.0399181 91.4875094,78.4871859 Z M90.9572359,81.2821078 C91.1193461,81.0399191 91.2004,80.5887517 91.2004,79.9285922 C91.2004,79.4520273 91.1418068,79.0599414 91.0246187,78.7523227 C90.9074307,78.4447039 90.6798939,78.2908969 90.3420016,78.2908969 C90.0314531,78.2908969 89.8044046,78.4368915 89.6608492,78.7288852 C89.5172938,79.0208788 89.4455172,79.4510503 89.4455172,80.0194125 C89.4455172,80.447149 89.4914152,80.7908956 89.5832125,81.0506625 C89.7238382,81.4471489 89.9640702,81.6453891 90.3039156,81.6453891 C90.5773545,81.6453891 90.7951258,81.5242965 90.9572359,81.2821078 Z" id="path-1"></path>
    </defs>
    <g id="Icons" stroke="none" stroke-width="1" fill="none" fill-rule="evenodd">
        <g id="Bonds/Icons/Learn/Score/Block">
            <mask id="mask-2" fill="white">
                <use xlink:href="#path-1"></use>
            </mask>
            <use id="Combined-Shape" fill="#000000" fill-rule="nonzero" xlink:href="#path-1"></use>
            <g id="Bonds/Colours/Learn/Score" mask="url(#mask-2)" fill="#5D97ED">
                <rect id="Rectangle-3" x="0" y="0" width="146" height="146"></rect>
            </g>
        </g>
    </g>
</svg>