<?xml version="1.0" encoding="UTF-8"?>
<svg width="146px" height="146px" viewBox="0 0 146 146" version="1.1" xmlns="http://www.w3.org/2000/svg" xmlns:xlink="http://www.w3.org/1999/xlink">
    <!-- Generator: Sketch 48.2 (47327) - http://www.bohemiancoding.com/sketch -->
    <title>Bonds/Icons/Learn/Score/Gradient</title>
    <desc>Created with Sketch.</desc>
    <defs>
        <linearGradient x1="46.7207012%" y1="4.68635728%" x2="74.2360526%" y2="97.3576025%" id="linearGradient-1">
            <stop stop-color="#90A4AE" stop-opacity="0.5" offset="0%"></stop>
            <stop stop-color="#788F9C" offset="100%"></stop>
        </linearGradient>
        <linearGradient x1="46.7207012%" y1="4.68635728%" x2="74.2360526%" y2="97.3576025%" id="linearGradient-2">
            <stop stop-color="#91CAF9" stop-opacity="0.5" offset="0%"></stop>
            <stop stop-color="#63B5F6" offset="100%"></stop>
        </linearGradient>
        <linearGradient x1="36.1357616%" y1="-4.11930091%" x2="63.8675497%" y2="104.156535%" id="linearGradient-3">
            <stop stop-color="#CED8DB" stop-opacity="0.5" offset="0%"></stop>
            <stop stop-color="#617D8B" offset="100%"></stop>
        </linearGradient>
        <linearGradient x1="36.1357616%" y1="-4.11930091%" x2="63.8675497%" y2="104.156535%" id="linearGradient-4">
            <stop stop-color="#B3E5FC" stop-opacity="0.5" offset="0%"></stop>
            <stop stop-color="#63B5F6" offset="100%"></stop>
        </linearGradient>
        <linearGradient x1="41.065%" y1="0.780909091%" x2="58.4877273%" y2="99.5886364%" id="linearGradient-5">
            <stop stop-color="#7B8897" offset="0%"></stop>
            <stop stop-color="#4A4B58" offset="100%"></stop>
        </linearGradient>
    </defs>
    <g id="Icons" stroke="none" stroke-width="1" fill="none" fill-rule="evenodd">
        <g id="Bonds/Icons/Learn/Score/Gradient">
            <g id="icon">
                <g id="Asset-14">
                    <g id="Layer_2">
                        <g id="Layouts"></g>
                    </g>
                </g>
            </g>
            <g id="credit_score_report_learn" transform="translate(29.000000, 34.000000)">
                <g id="Group">
                    <g id="Credit_score__x26__report_icon">
                        <g id="back" fill-rule="nonzero">
                            <g id="Back_background">
                                <path d="M35.7,10.6 C35.7,9.9 36.3,9.4 36.9,9.4 L46.5,9.4 L45.4,6.2 L43.7,1.6 C43.5,1 42.8,0.6 42.1,0.8 L34.4,3.5 L1.8,15.3 C1.2,15.5 0.8,16.2 1,16.9 L22.4,76.6 C22.6,77.2 23.3,77.6 24,77.4 L35.7,73.2 L35.7,10.6 Z" id="Shape" fill="url(#linearGradient-1)"></path>
                                <path d="M35.7,10.6 C35.7,9.9 36.3,9.4 36.9,9.4 L46.5,9.4 L45.4,6.2 L43.7,1.6 C43.5,1 42.8,0.6 42.1,0.8 L34.4,3.5 L1.8,15.3 C1.2,15.5 0.8,16.2 1,16.9 L22.4,76.6 C22.6,77.2 23.3,77.6 24,77.4 L35.7,73.2 L35.7,10.6 Z" id="Shape" fill="url(#linearGradient-1)"></path>
                                <path d="M35.7,10.6 C35.7,9.9 36.3,9.4 36.9,9.4 L46.5,9.4 L45.4,6.2 L43.7,1.6 C43.5,1 42.8,0.6 42.1,0.8 L34.4,3.5 L1.8,15.3 C1.2,15.5 0.8,16.2 1,16.9 L22.4,76.6 C22.6,77.2 23.3,77.6 24,77.4 L35.7,73.2 L35.7,10.6 Z" id="Shape" fill="url(#linearGradient-2)"></path>
                            </g>
                            <path d="M35.5,4.4 L41.6,2.2 C42.1,2 42.7,2.3 42.9,2.8 L44.6,7.5 L35.5,4.4 Z" id="Back_corner_2_" fill="#FFFFFF"></path>
                            <g id="Lines_back" transform="translate(7.000000, 14.000000)" fill="#FFFFFF">
                                <path d="M28.7,1.9 L26.2,2.8 C25.8,3 25.3,2.7 25.1,2.3 L25.1,2.3 C24.9,1.9 25.2,1.4 25.6,1.2 L28.7,0.1" id="Shape"></path>
                                <path d="M9.7,8.7 L1.2,11.8 C0.8,12 0.3,11.7 0.1,11.3 L0.1,11.3 C-0.1,10.9 0.2,10.4 0.6,10.2 L9.1,7.1 C9.5,6.9 10,7.2 10.2,7.6 L10.2,7.6 C10.3,8.1 10.1,8.6 9.7,8.7 Z" id="Shape"></path>
                                <path d="M28.7,10.1 L27.6,10.5 C27.2,10.7 26.7,10.4 26.5,10 L26.5,10 C26.3,9.6 26.6,9.1 27,8.9 L28.7,8.3" id="Shape"></path>
                                <path d="M22.1,4.3 L13.6,7.4 C13.2,7.6 12.7,7.3 12.5,6.9 L12.5,6.9 C12.3,6.5 12.6,6 13,5.8 L21.5,2.7 C21.9,2.5 22.4,2.8 22.6,3.2 L22.6,3.2 C22.8,3.6 22.6,4.1 22.1,4.3 Z" id="Shape"></path>
                                <path d="M12.6,15.9 L4,19 C3.6,19.2 3.1,18.9 2.9,18.5 L2.9,18.5 C2.7,18.1 3,17.6 3.4,17.4 L11.9,14.3 C12.3,14.1 12.8,14.4 13,14.8 L13,14.8 C13.2,15.3 13,15.8 12.6,15.9 Z" id="Shape"></path>
                                <path d="M24.4,11.7 L15.9,14.8 C15.5,15 15,14.7 14.8,14.3 L14.8,14.3 C14.6,13.9 14.9,13.4 15.3,13.2 L23.8,10.1 C24.2,9.9 24.7,10.2 24.9,10.6 L24.9,10.6 C25.1,11 24.8,11.5 24.4,11.7 Z" id="Shape"></path>
                                <path d="M20.7,21.4 L6.7,26.4 C6.3,26.6 5.8,26.3 5.6,25.9 L5.6,25.9 C5.4,25.5 5.7,25 6.1,24.8 L20.1,19.8 C20.5,19.6 21,19.9 21.2,20.3 L21.2,20.3 C21.3,20.8 21.1,21.3 20.7,21.4 Z" id="Shape"></path>
                                <path d="M28.7,16.6 L23.4,18.5 C23,18.7 22.7,19.1 22.9,19.6 L22.9,19.6 C23.1,20 23.5,20.3 24,20.1 L28.8,18.4 L28.7,16.6 Z" id="Shape"></path>
                            </g>
                        </g>
                        <g id="front" transform="translate(35.000000, 9.000000)">
                            <g id="Front_background" fill-rule="nonzero">
                                <path d="M46,1.6 L46,6.5 L46,65 C46,65.7 45.4,66.2 44.8,66.2 L1.9,66.2 C1.2,66.2 0.7,65.6 0.7,65 L0.7,1.6 C0.7,0.9 1.3,0.4 1.9,0.4 L36.6,0.4 L44.7,0.4 C45.4,0.4 46,0.9 46,1.6 Z" id="Shape" fill="url(#linearGradient-3)"></path>
                                <path d="M46,1.6 L46,6.5 L46,65 C46,65.7 45.4,66.2 44.8,66.2 L1.9,66.2 C1.2,66.2 0.7,65.6 0.7,65 L0.7,1.6 C0.7,0.9 1.3,0.4 1.9,0.4 L36.6,0.4 L44.7,0.4 C45.4,0.4 46,0.9 46,1.6 Z" id="Shape" fill="url(#linearGradient-4)"></path>
                            </g>
                            <path d="M37.1,1.6 L43.6,1.6 C44.1,1.6 44.6,2 44.6,2.6 L44.6,7.6 L37.1,1.6 Z" id="corner_front_2_" fill="#FFFFFF" fill-rule="nonzero"></path>
                            <g id="Score" transform="translate(12.000000, 26.000000)">
                                <circle id="Oval" fill="url(#linearGradient-5)" fill-rule="nonzero" cx="11.4" cy="11.5" r="11"></circle>
                                <circle id="Oval" fill="url(#linearGradient-5)" fill-rule="nonzero" cx="11.4" cy="11.5" r="11"></circle>
                                <circle id="Oval" fill="#FFFFFF" fill-rule="nonzero" cx="11.4" cy="11.5" r="11"></circle>
                                <path d="M11.4,2 C16.7,2 20.9,6.3 20.9,11.5 C20.9,16.8 16.6,21 11.4,21 C6.1,21 1.9,16.7 1.9,11.5" id="Shape" stroke="#63B5F6" stroke-width="0.8229" stroke-linecap="round"></path>
                            </g>
                            <g id="lines_front" transform="translate(5.000000, 10.000000)" fill="#FFFFFF" fill-rule="nonzero">
                                <path d="M10.5,2.4 L1.4,2.4 C0.9,2.4 0.6,2 0.6,1.6 L0.6,1.6 C0.6,1.1 1,0.8 1.4,0.8 L10.5,0.8 C11,0.8 11.3,1.2 11.3,1.6 L11.3,1.6 C11.4,2 11,2.4 10.5,2.4 Z" id="Shape"></path>
                                <path d="M10.8,10.1 L1.7,10.1 C1.2,10.1 0.9,9.7 0.9,9.3 L0.9,9.3 C0.9,8.8 1.3,8.5 1.7,8.5 L10.8,8.5 C11.3,8.5 11.6,8.9 11.6,9.3 L11.6,9.3 C11.6,9.8 11.3,10.1 10.8,10.1 Z" id="Shape"></path>
                                <path d="M22.4,10.1 L14.6,10.1 C14.1,10.1 13.8,9.7 13.8,9.3 L13.8,9.3 C13.8,8.8 14.2,8.5 14.6,8.5 L22.4,8.5 C22.9,8.5 23.2,8.9 23.2,9.3 L23.2,9.3 C23.2,9.8 22.8,10.1 22.4,10.1 Z" id="Shape"></path>
                                <path d="M35.2,10.1 L32.3,10.1 L26.1,10.1 C25.6,10.1 25.3,9.7 25.3,9.3 L25.3,9.3 C25.3,8.8 25.7,8.5 26.1,8.5 L35.2,8.5 C35.7,8.5 36,8.9 36,9.3 L36,9.3 C36.1,9.8 35.7,10.1 35.2,10.1 Z" id="Shape"></path>
                                <path d="M35,2.4 L14.3,2.4 C13.8,2.4 13.5,2 13.5,1.6 L13.5,1.6 C13.5,1.1 13.9,0.8 14.3,0.8 L35,0.8 C35.5,0.8 35.8,1.2 35.8,1.6 L35.8,1.6 C35.8,2 35.5,2.4 35,2.4 Z" id="Shape"></path>
                            </g>
                        </g>
                    </g>
                    <text id="500" fill="#63B5F6" font-family="Helvetica" font-size="6" font-weight="normal">
                        <tspan x="53.0129" y="48.0116">500</tspan>
                    </text>
                </g>
            </g>
        </g>
    </g>
</svg>