<?xml version="1.0" encoding="UTF-8"?>
<svg width="42px" height="42px" viewBox="0 0 42 42" version="1.1" xmlns="http://www.w3.org/2000/svg" xmlns:xlink="http://www.w3.org/1999/xlink">
    <!-- Generator: Sketch 48.2 (47327) - http://www.bohemiancoding.com/sketch -->
    <title>Bonds/Icons/Global/Yes/Default</title>
    <desc>Created with Sketch.</desc>
    <defs>
        <path d="M20.921875,1 C31.9244531,1 40.84375,9.91929688 40.84375,20.921875 C40.84375,31.9244531 31.9244531,40.84375 20.921875,40.84375 C9.91929687,40.84375 1,31.9244531 1,20.921875 C1,9.91929687 9.91929687,1 20.921875,1 Z M20.921875,39.2709375 C31.0557812,39.2709375 39.2709375,31.0557812 39.2709375,20.921875 C39.2709375,10.7879688 31.0557812,2.5728125 20.921875,2.5728125 C10.7879688,2.5728125 2.5728125,10.7879688 2.5728125,20.921875 C2.5728125,31.0557812 10.7879688,39.2709375 20.921875,39.2709375 Z M32.610625,28.6563281 C32.610625,30.0166406 31.6203125,31.1227344 30.4034375,31.1228906 L27.788125,31.1228906 C26.775625,31.1228906 25.9223437,30.3566406 25.6642187,29.3157031 C24.8803125,30.056875 23.8190625,30.8704687 22.5154687,30.9153906 C21.6100781,30.9463281 20.3420312,30.956875 19.0482031,30.956875 C16.4639062,30.956875 13.7861719,31.0919531 13.7453125,31.0919531 C13.7050781,31.09125 13.6664062,31.0851562 13.6289062,31.0759375 C12.4314062,31.0114844 11.4790625,30.0167187 11.4790625,28.8032812 C11.4790625,28.2270312 11.749375,27.6940625 12.16,27.2875781 C11.4639844,26.8844531 10.9596094,26.1679687 10.9596094,25.3538281 C10.9596094,24.7861719 11.2294531,24.2528125 11.6374219,23.8454687 C10.9453906,23.4428125 10.4453906,22.7311719 10.4453906,21.9201562 C10.4453906,21.3408594 10.7149219,20.8071875 11.1258594,20.4007812 C10.4445312,19.9946094 9.95429687,19.2871094 9.95429687,18.4845312 C9.95429687,17.2289062 10.9755469,16.2057031 12.2304687,16.2057031 L16.8336719,16.42875 C16.6627344,15.9058594 16.4773437,15.0699219 16.3545312,13.7285937 C16.3514844,13.7139062 16.3467969,13.7 16.3449219,13.6848437 C16.3370312,13.6255469 16.2455469,12.198125 16.3429687,10.8944531 C16.3441406,10.8779687 16.34625,10.8617969 16.3488281,10.8457812 C16.3986719,10.0988281 16.5652344,9.10484375 17.2845312,8.491875 C17.7652344,8.08296875 18.4032031,7.91835937 19.1775,8.0059375 C20.7225,8.1759375 20.6300781,9.8453125 20.7091406,10.7117187 C20.7215625,10.7477344 20.730625,10.7854687 20.7351562,10.8248437 C20.8121875,11.4832031 21.0413281,12.7899219 21.2032812,13.3482812 C21.2110156,13.375625 21.2158594,13.4029687 21.2192187,13.4303125 C21.8976562,16.0849219 24.9222656,18.9903125 26.0078906,19.8246094 C26.4089844,19.2105469 27.0570312,18.8110156 27.7882812,18.8110156 L30.4035937,18.8110156 C31.6203906,18.8110156 32.610625,19.9164844 32.610625,21.2774219 L32.610625,28.6563281 Z M22.3234375,29.4764062 C23.2246875,29.4447656 24.0688281,28.8098437 24.7475781,28.1615625 C24.9435156,27.9739062 25.1319531,27.7936719 25.3116406,27.6423437 L25.3116406,21.2122656 C25.3116406,21.0697656 25.3235156,20.9303906 25.3450781,20.7947656 C23.8771875,19.8945312 20.7774219,16.5453906 20.1171094,13.8645312 C20.1123438,13.8450781 20.1090625,13.8257031 20.1066406,13.8063281 C19.923125,13.1377344 19.7123438,11.8150781 19.6515625,11.3782031 C19.6386719,11.3421094 19.6292969,11.3042187 19.6246875,11.264375 C19.4713281,10.0044531 19.54125,9.50234375 19.0335938,9.4453125 C18.5708594,9.39335937 18.2267969,9.47 17.9814844,9.67789062 C17.5428906,10.051875 17.4542188,10.8167969 17.4294531,11.3586719 C17.4280469,11.3846875 17.423125,11.4157812 17.4166406,11.4489844 C17.3577344,12.4285937 17.4082031,13.4796094 17.4209375,13.7225 C17.4253125,13.7428906 17.4288281,13.7635156 17.4307031,13.7847656 C17.6066406,15.7796094 17.9394531,16.5091406 18.0775,16.73375 C18.1696094,16.8255469 18.2267188,16.9524219 18.2267188,17.0922656 C18.2267188,17.3471094 18.0373438,17.5563281 17.7928125,17.5924219 C17.7746094,17.5954687 17.7563281,17.5969531 17.7379688,17.5979687 C17.7316406,17.5982031 17.725625,17.5998437 17.7191406,17.5998437 L17.7146094,17.5996094 C17.7135938,17.5996094 17.7125781,17.5998437 17.7115625,17.5998437 C17.7032031,17.5998437 17.6949219,17.5986719 17.6865625,17.5982812 L12.4582813,17.3449219 C11.8099219,17.3449219 11.2826563,17.8747656 11.2826563,18.52375 C11.2826563,19.1746094 11.9798438,19.701875 12.6282031,19.701875 C12.9077344,19.701875 13.1358594,19.929375 13.1358594,20.2095312 C13.1358594,20.4244531 13.0005469,20.6078125 12.8111719,20.6816406 C12.7952344,20.6882812 12.7788281,20.6942969 12.7619531,20.6994531 C12.2694531,20.8458594 11.7553906,21.3110156 11.7553906,21.8282031 C11.7553906,22.4771875 12.4525781,23.0070312 13.1009375,23.0070312 C13.1400781,23.0070312 13.1778125,23.0124219 13.2144531,23.0207812 C13.398125,23.0542187 13.5566406,23.1866406 13.6110938,23.3783594 C13.6878125,23.6457812 13.5344531,23.9278125 13.2644531,24.0045312 C12.7669531,24.1508594 12.2478125,24.6160937 12.2478125,25.1357812 C12.2478125,25.7873437 12.9450781,26.3146094 13.5934375,26.3146094 C13.8760938,26.3146094 14.1010938,26.5421094 14.1010938,26.8216406 C14.1010938,26.8270312 14.0996875,26.8320312 14.0995313,26.8373437 C14.1042969,27.0569531 13.9652344,27.2619531 13.7449219,27.3292969 C13.2492969,27.4826562 12.7478906,27.9357812 12.7478906,28.4560937 C12.7478906,29.1044531 13.2751563,29.6342969 13.9235156,29.6342969 C13.9550781,29.6342969 13.9855469,29.6380469 14.0153906,29.6434375 C14.7264844,29.6338281 19.9009375,29.5575781 22.3234375,29.4764062 Z M26.79125,21.5101563 L26.79125,28.4235156 C26.79125,29.1532812 27.2754687,29.7485938 27.8707812,29.7485938 L30.3210937,29.7485938 C30.9164062,29.7485938 31.400625,29.1532812 31.400625,28.4235156 L31.400625,21.5101563 C31.400625,20.7797656 30.9164062,20.1844531 30.3210937,20.1844531 L27.8707812,20.1844531 C27.2754687,20.1844531 26.79125,20.7797656 26.79125,21.5101563 Z M30.6669531,23.0183594 C30.6667969,23.7735937 29.4949219,23.7723437 29.4950781,23.0183594 C29.4950781,22.7445312 29.4972656,22.4707031 29.4808594,22.1972656 C29.4769531,22.1321875 29.4585937,22.0582812 29.4801562,22.1638281 C29.4726562,22.1272656 29.4558594,22.083125 29.4542969,22.0457031 C29.4500781,21.9459375 29.5211719,22.1197656 29.4628906,22.0567969 C29.3864844,21.9742969 29.5576562,22.1463281 29.4820312,22.0758594 C29.3978125,21.9973437 29.5965625,22.1657031 29.5021875,22.0934375 C29.4221094,22.0321875 29.6221875,22.1283594 29.5138281,22.1002344 C29.474375,22.09 29.4353906,22.081875 29.395625,22.0730469 C29.5426562,22.1057031 29.3935937,22.0725781 29.36125,22.070625 C29.084375,22.0539844 28.8075781,22.0535937 28.5302344,22.0535937 C27.7749219,22.0535156 27.7761719,20.8816406 28.5302344,20.8817187 C29.1017969,20.8817969 29.8676562,20.8020312 30.3107031,21.2471875 C30.7510937,21.6895312 30.6670312,22.4502344 30.6669531,23.0183594 Z" id="path-1"></path>
    </defs>
    <g id="Icons" stroke="none" stroke-width="1" fill="none" fill-rule="evenodd">
        <g id="Bonds/Icons/Global/Yes/Default">
            <mask id="mask-2" fill="white">
                <use xlink:href="#path-1"></use>
            </mask>
            <g id="Shape" fill-rule="nonzero"></g>
            <g id="Bonds/Colours/General/White" mask="url(#mask-2)" fill="#FFFFFF">
                <rect id="Rectangle-3" x="0" y="0" width="42" height="42"></rect>
            </g>
        </g>
    </g>
</svg>