<?xml version="1.0" encoding="UTF-8"?>
<svg width="40px" height="40px" viewBox="0 0 40 40" version="1.1" xmlns="http://www.w3.org/2000/svg" xmlns:xlink="http://www.w3.org/1999/xlink">
    <!-- Generator: Sketch 48.2 (47327) - http://www.bohemiancoding.com/sketch -->
    <title>Bonds/Icons/Report/Searches/Default</title>
    <desc>Created with Sketch.</desc>
    <defs>
        <path d="M19.921875,1 C30.3721669,1 38.84375,9.47158315 38.84375,19.921875 C38.84375,30.3721669 30.3721669,38.84375 19.921875,38.84375 C9.47158315,38.84375 1,30.3721669 1,19.921875 C1,9.47158315 9.47158315,1 19.921875,1 Z M19.921875,37.7084375 C29.7451479,37.7084375 37.7084375,29.7451479 37.7084375,19.921875 C37.7084375,10.0986021 29.7451479,2.1353125 19.921875,2.1353125 C10.0986021,2.1353125 2.1353125,10.0986021 2.1353125,19.921875 C2.1353125,29.7451479 10.0986021,37.7084375 19.921875,37.7084375 Z M27.6154352,25.4617548 C27.913733,25.7600526 28.0631787,26.1524403 28.0631787,26.5428988 C28.0631787,26.9353607 27.913733,27.3251513 27.6154352,27.6234491 C27.0195074,28.2193769 26.0528593,28.2193769 25.4569316,27.6234491 L20.5426609,22.7041327 C19.6833852,23.1989953 18.6918789,23.4870531 17.6310667,23.4870531 C14.4041078,23.4870531 11.7806455,20.8584707 11.7806455,17.6315119 C11.7806455,14.4018817 14.4041078,11.7733736 17.6310667,11.7733736 C20.8580997,11.7733736 23.481562,14.399433 23.481562,17.6315119 C23.481562,18.6923241 23.1960272,19.6856855 22.7018324,20.5430319 L27.6154352,25.4617548 Z M22.1102826,21.3926612 C21.8915309,21.6534121 21.6511118,21.8944248 21.3896931,22.1132507 L26.1774469,26.9028596 C26.3065608,27.0319736 26.4579358,27.0517117 26.5348848,27.0517117 C26.6143567,27.0517117 26.7663995,27.0319736 26.8955135,26.9028596 C27.0246275,26.7737456 27.0443656,26.6223706 27.0443656,26.5428988 C27.0443656,26.4633527 27.0246275,26.3113841 26.8955135,26.1822701 L22.1102826,21.3926612 Z M17.6310667,12.7922609 C14.9656052,12.7922609 12.7994586,14.9635275 12.7994586,17.6315119 C12.7994586,20.2994963 14.9656052,22.4681657 17.6310667,22.4681657 C20.2971218,22.4681657 22.4658654,20.2968991 22.4658654,17.6315119 C22.4657912,14.9635275 20.2971218,12.7922609 17.6310667,12.7922609 Z M15.7044488,15.4914107 C14.5864257,16.6094338 14.5864257,18.4277147 15.7070459,19.545812 C15.9054659,19.7448998 15.9054659,20.0679816 15.7070459,20.2664015 C15.5060288,20.4654893 15.18547,20.4654893 14.9864564,20.2664015 C13.4683284,18.7508706 13.4683284,16.2864263 14.9838593,14.7708212 C15.0856664,14.671537 15.2147061,14.6219691 15.3444879,14.6219691 C15.4761248,14.6219691 15.6052388,14.6716112 15.7044488,14.7708212 C15.9053917,14.969909 15.9053917,15.2929907 15.7044488,15.4914107 Z" id="path-1"></path>
    </defs>
    <g id="Icons" stroke="none" stroke-width="1" fill="none" fill-rule="evenodd">
        <g id="Bonds/Icons/Report/Searches/Default">
            <mask id="mask-2" fill="white">
                <use xlink:href="#path-1"></use>
            </mask>
            <g id="Shape" fill-rule="nonzero"></g>
            <g id="Bonds/Colours/General/White" mask="url(#mask-2)" fill="#FFFFFF">
                <rect id="Rectangle-3" x="0" y="0" width="40" height="40"></rect>
            </g>
        </g>
    </g>
</svg>