<?xml version="1.0" encoding="UTF-8"?>
<svg width="146px" height="146px" viewBox="0 0 146 146" version="1.1" xmlns="http://www.w3.org/2000/svg" xmlns:xlink="http://www.w3.org/1999/xlink">
    <!-- Generator: Sketch 48.2 (47327) - http://www.bohemiancoding.com/sketch -->
    <title>Bonds/Icons/Learn/Car Finance/Block</title>
    <desc>Created with Sketch.</desc>
    <defs>
        <linearGradient x1="49.8374999%" y1="13.3069407%" x2="49.8375009%" y2="96.1709442%" id="linearGradient-1">
            <stop stop-color="#5D909F" stop-opacity="0.508067255" offset="0%"></stop>
            <stop stop-color="#5D909F" offset="100%"></stop>
        </linearGradient>
        <path d="M104.542857,56.8935484 L104.674286,58.083871 C121.497143,72.2354839 117.948571,83.4774194 117.817143,84.0064516 C117.817143,84.0064516 117.817143,84.1387097 117.817143,84.1387097 C117.291429,85.3290323 115.057143,86.1225806 112.297143,86.6516129 C111.114286,89.8258065 108.222857,92.0741935 104.674286,92.0741935 C101.651429,92.0741935 98.8914286,90.3548387 97.5771429,87.8419355 C91.0057143,87.8419355 70.1085714,87.8419355 52.8914286,87.8419355 C51.5771429,90.4870968 48.8171429,92.2064516 45.7942857,92.2064516 C42.7714286,92.2064516 40.0114286,90.3548387 38.6971429,87.8419355 C32.52,87.8419355 28.3142857,87.8419355 28.1828571,87.8419355 C27.6571429,87.8419355 27.1314286,87.3129032 27.1314286,86.783871 C27.1314286,86.5193548 27,80.8322581 28.1828571,76.4677419 C28.1828571,76.3354839 28.1828571,76.3354839 28.1828571,76.2032258 C28.5771429,74.8806452 28.9714286,73.6903226 29.6285714,72.8967742 C32.7828571,68.2677419 40.6685714,66.1516129 46.8457143,65.2258065 C48.8171429,64.0354839 63.5371429,54.6451613 70.5028571,53.7193548 C77.6,52.7935484 94.5542857,52.6612903 105.068571,54.7774194 C105.594286,54.9096774 105.988571,55.5709677 105.857143,56.1 C105.725714,56.6290323 105.068571,57.0258065 104.542857,56.8935484 Z M85.88,63.9032258 C85.6171429,62.316129 84.96,58.6129032 84.3028571,55.1741935 C78.7828571,55.1741935 73.6571429,55.3064516 70.6342857,55.7032258 C65.7714286,56.3645161 56.1771429,61.9193548 51.1828571,64.9612903 C58.4114286,64.8290323 73.92,64.4322581 85.88,63.9032258 Z M87.9828571,63.9032258 C92.7142857,63.7709677 96.7885714,63.5064516 99.0228571,63.3741935 C97.5771429,61.3903226 94.8171429,57.9516129 91.2685714,55.4387097 C89.6914286,55.3064516 88.1142857,55.3064516 86.5371429,55.3064516 C86.9314286,57.5548387 87.72,62.0516129 87.9828571,63.9032258 Z M111.245714,68.7967742 C110.851429,68.7967742 109.931429,68.7967742 109.142857,68.7967742 C110.194286,70.383871 111.902857,72.5 113.611429,73.0290323 C113.085714,71.7064516 112.297143,70.2516129 111.245714,68.7967742 Z M45.6628571,90.0903226 C48.9292269,90.0903226 51.5771429,87.4256947 51.5771429,84.1387097 C51.5771429,80.8517246 48.9292269,78.1870968 45.6628571,78.1870968 C42.3964873,78.1870968 39.7485714,80.8517246 39.7485714,84.1387097 C39.7485714,87.4256947 42.3964873,90.0903226 45.6628571,90.0903226 Z M104.411429,90.0903226 C107.677798,90.0903226 110.325714,87.4256947 110.325714,84.1387097 C110.325714,80.8517246 107.677798,78.1870968 104.411429,78.1870968 C101.145059,78.1870968 98.4971429,80.8517246 98.4971429,84.1387097 C98.4971429,87.4256947 101.145059,90.0903226 104.411429,90.0903226 Z M34.7542857,73.6903226 C35.5428571,72.6322581 35.8057143,71.4419355 35.9371429,70.6483871 C33.9657143,71.5741935 32.2571429,72.7645161 31.2057143,74.3516129 C30.9428571,74.616129 30.8114286,75.0129032 30.5485714,75.5419355 C32.1257143,75.1451613 33.8342857,74.616129 34.7542857,73.6903226 Z" id="path-2"></path>
    </defs>
    <g id="Icons" stroke="none" stroke-width="1" fill="none" fill-rule="evenodd">
        <g id="Bonds/Icons/Learn/Car-Finance/Block">
            <mask id="mask-3" fill="white">
                <use xlink:href="#path-2"></use>
            </mask>
            <use id="Background_car_5_" fill="url(#linearGradient-1)" fill-rule="nonzero" xlink:href="#path-2"></use>
            <g id="Bonds/Colours/Learn/Car-Finance" mask="url(#mask-3)" fill="#5D909F">
                <rect id="Rectangle-3" x="0" y="0" width="146" height="146"></rect>
            </g>
        </g>
    </g>
</svg>