<?xml version="1.0" encoding="UTF-8"?>
<svg width="146px" height="146px" viewBox="0 0 146 146" version="1.1" xmlns="http://www.w3.org/2000/svg" xmlns:xlink="http://www.w3.org/1999/xlink">
    <!-- Generator: Sketch 48.2 (47327) - http://www.bohemiancoding.com/sketch -->
    <title>Bonds/Icons/Learn/Car Finance/Gradient</title>
    <desc>Created with Sketch.</desc>
    <defs>
        <linearGradient x1="49.8374999%" y1="13.3069407%" x2="49.8375009%" y2="96.1709442%" id="linearGradient-1">
            <stop stop-color="#5D909F" stop-opacity="0.508067255" offset="0%"></stop>
            <stop stop-color="#5D909F" offset="100%"></stop>
        </linearGradient>
    </defs>
    <g id="Icons" stroke="none" stroke-width="1" fill="none" fill-rule="evenodd">
        <g id="Bonds/Icons/Learn/Car-Finance/Gradient" fill-rule="nonzero">
            <g id="Car_3_" transform="translate(27.000000, 53.000000)">
                <path d="M77.5428571,3.89354839 C78.0685714,4.02580645 78.7257143,3.62903226 78.8571429,3.1 C78.9885714,2.57096774 78.5942857,1.90967742 78.0685714,1.77741935 C67.5542857,-0.338709677 50.6,-0.206451613 43.5028571,0.719354839 C36.5371429,1.64516129 21.8171429,11.0354839 19.8457143,12.2258065 C13.6685714,13.1516129 5.78285714,15.2677419 2.62857143,19.8967742 C1.97142857,20.6903226 1.57714286,21.8806452 1.18285714,23.2032258 C1.18285714,23.3354839 1.18285714,23.3354839 1.18285714,23.4677419 C-1.40026879e-13,27.8322581 0.131428571,33.5193548 0.131428571,33.783871 C0.131428571,34.3129032 0.657142857,34.8419355 1.18285714,34.8419355 C1.31428571,34.8419355 5.52,34.8419355 11.6971429,34.8419355 C13.0114286,37.3548387 15.7714286,39.2064516 18.7942857,39.2064516 C21.8171429,39.2064516 24.5771429,37.4870968 25.8914286,34.8419355 C43.1085714,34.8419355 64.0057143,34.8419355 70.5771429,34.8419355 C71.8914286,37.3548387 74.6514286,39.0741935 77.6742857,39.0741935 C81.2228571,39.0741935 84.1142857,36.8258065 85.2971429,33.6516129 C88.0571429,33.1225806 90.2914286,32.3290323 90.8171429,31.1387097 C90.8171429,31.1387097 90.8171429,31.0064516 90.8171429,31.0064516 C90.9485714,30.4774194 94.4971429,19.2354839 77.6742857,5.08387097" id="Background_car_5_" fill="url(#linearGradient-1)"></path>
                <g id="Group" transform="translate(2.628571, 1.645161)" fill="#FAFAFF">
                    <path d="M56.2514286,9.25806452 C55.9885714,7.67096774 55.3314286,3.96774194 54.6742857,0.529032258 C49.1542857,0.529032258 44.0285714,0.661290323 41.0057143,1.05806452 C36.1428571,1.71935484 26.5485714,7.27419355 21.5542857,10.316129 C28.7828571,10.183871 44.2914286,9.78709677 56.2514286,9.25806452 Z" id="Shape"></path>
                    <path d="M58.3542857,9.25806452 C63.0857143,9.12580645 67.16,8.86129032 69.3942857,8.72903226 C67.9485714,6.74516129 65.1885714,3.30645161 61.64,0.793548387 C60.0628571,0.661290323 58.4857143,0.661290323 56.9085714,0.661290323 C57.3028571,2.90967742 58.0914286,7.40645161 58.3542857,9.25806452 Z" id="Shape"></path>
                    <path d="M81.6171429,14.1516129 C81.2228571,14.1516129 80.3028571,14.1516129 79.5142857,14.1516129 C80.5657143,15.7387097 82.2742857,17.8548387 83.9828571,18.383871 C83.4571429,17.0612903 82.6685714,15.6064516 81.6171429,14.1516129 Z" id="Shape"></path>
                    <g id="Wheels_11_" transform="translate(9.200000, 23.483871)">
                        <ellipse id="Oval" cx="6.83428571" cy="6.00967742" rx="5.91428571" ry="5.9516129"></ellipse>
                    </g>
                    <g id="Wheels_10_" transform="translate(68.342857, 23.483871)">
                        <ellipse id="Oval" cx="6.44" cy="6.00967742" rx="5.91428571" ry="5.9516129"></ellipse>
                    </g>
                    <path d="M5.12571429,19.0451613 C5.91428571,17.9870968 6.17714286,16.7967742 6.30857143,16.0032258 C4.33714286,16.9290323 2.62857143,18.1193548 1.57714286,19.7064516 C1.31428571,19.9709677 1.18285714,20.3677419 0.92,20.8967742 C2.49714286,20.5 4.20571429,19.9709677 5.12571429,19.0451613 Z" id="Shape"></path>
                </g>
            </g>
        </g>
    </g>
</svg>