<?xml version="1.0" encoding="UTF-8"?>
<svg width="36px" height="36px" viewBox="0 0 36 36" version="1.1" xmlns="http://www.w3.org/2000/svg" xmlns:xlink="http://www.w3.org/1999/xlink">
    <!-- Generator: Sketch 48.2 (47327) - http://www.bohemiancoding.com/sketch -->
    <title>Bonds/Icons/My Account/My Account/Active</title>
    <desc>Created with Sketch.</desc>
    <defs>
        <path d="M18,0.078125 C8.10199442,0.078125 0.078125,8.10199442 0.078125,18 C0.078125,27.8980056 8.10199442,35.921875 18,35.921875 C27.8980056,35.921875 35.921875,27.8980056 35.921875,18 C35.921875,8.10199442 27.8980056,0.078125 18,0.078125 Z M23.4329258,24.7382391 L23.4329258,14.0205582 C23.4329258,13.7665513 23.2565321,13.5548789 23.0378039,13.5548789 L21.9371073,13.5548789 C21.132752,13.5548789 20.2578393,12.6517432 20.2578393,11.8121092 L20.2578393,10.8454717 C20.2578393,10.5914648 20.0814456,10.3797924 19.8627174,10.3797924 L13.244426,10.3797924 C13.0256978,10.3797924 12.8493041,10.5844091 12.8493041,10.8454717 L12.8493041,24.7382391 C12.8493041,24.9922461 13.0256978,25.2039185 13.244426,25.2039185 L23.0378039,25.2039185 C23.2565321,25.1968627 23.4329258,24.9922461 23.4329258,24.7382391 L23.4329258,24.7382391 Z M14.5850181,13.4349312 L18.8537455,13.4349312 C19.1430311,13.4349312 19.3829266,13.6677709 19.3829266,13.9641123 C19.3829266,14.2604537 19.1430311,14.4932933 18.8537455,14.4932933 L14.5850181,14.4932933 C14.2957324,14.4932933 14.055837,14.2604537 14.055837,13.9641123 C14.055837,13.6677709 14.2957324,13.4349312 14.5850181,13.4349312 Z M20.1026128,20.8928566 L18.0352787,22.9601907 L18.028223,22.9531349 C17.8236063,23.1577516 17.4849304,23.1577516 17.2803137,22.9531349 L16.6382407,22.3110619 L14.9448612,24.0044414 C14.7402445,24.2090581 14.4015686,24.2090581 14.1969519,24.0044414 C13.9923353,23.7998247 13.9923353,23.4611488 14.1969519,23.2565321 L16.264286,21.189198 C16.4689027,20.9845813 16.8075786,20.9845813 17.0121953,21.189198 C17.0263068,21.2033095 17.0404183,21.2244767 17.0545298,21.245644 L17.6472126,21.8383268 L19.3405921,20.1449473 C19.5452088,19.9403306 19.8838847,19.9403306 20.0885013,20.1449473 C20.3142853,20.349564 20.3142853,20.6882399 20.1026128,20.8928566 Z M21.6972118,24.1032218 L21.6831003,24.1032218 C21.3938147,24.1032218 21.1539193,23.8703822 21.1539193,23.5740408 C21.1539193,23.2847551 21.3938147,23.0448597 21.6831003,23.0448597 L21.6972118,23.0448597 C21.9864975,23.0448597 22.2263929,23.2776993 22.2263929,23.5740408 C22.2263929,23.8633264 21.9864975,24.1032218 21.6972118,24.1032218 Z M21.6972118,18.9736932 L14.5850181,18.9736932 C14.2957324,18.9736932 14.055837,18.7408535 14.055837,18.4445121 C14.055837,18.1552265 14.2957324,17.915331 14.5850181,17.915331 L21.6972118,17.915331 C21.9864975,17.915331 22.2263929,18.1481707 22.2263929,18.4445121 C22.2263929,18.7337978 21.9864975,18.9736932 21.6972118,18.9736932 Z M21.6972118,16.7299654 L14.5850181,16.7299654 C14.2957324,16.7299654 14.055837,16.4971257 14.055837,16.2007843 C14.055837,15.9114987 14.2957324,15.6716032 14.5850181,15.6716032 L21.6972118,15.6716032 C21.9864975,15.6716032 22.2263929,15.9044429 22.2263929,16.2007843 C22.2263929,16.4971257 21.9864975,16.7299654 21.6972118,16.7299654 Z M24.491288,24.7382391 C24.491288,25.5778731 23.8421592,26.2622807 23.0378039,26.2622807 L13.244426,26.2622807 C12.4400707,26.2622807 11.7909419,25.5778731 11.7909419,24.7382391 L11.7909419,10.8454717 C11.7909419,10.0058378 12.4471265,9.32143022 13.244426,9.32143022 L19.8627174,9.32143022 C20.6670727,9.32143022 21.3162015,10.0058378 21.3162015,10.8454717 L21.3162015,11.8121092 C21.3162015,12.0661161 21.7183791,12.4965167 21.9371073,12.4965167 L23.0378039,12.4965167 C23.8421592,12.4965167 24.491288,13.1809243 24.491288,14.0205582 L24.491288,24.7382391 L24.491288,24.7382391 Z" id="path-1"></path>
    </defs>
    <g id="Icons" stroke="none" stroke-width="1" fill="none" fill-rule="evenodd">
        <g id="Bonds/Icons/My-Account/My-Account/Active">
            <mask id="mask-2" fill="white">
                <use xlink:href="#path-1"></use>
            </mask>
            <g id="Shape" fill-rule="nonzero"></g>
            <g id="Bonds/Colours/General/White" mask="url(#mask-2)" fill="#FFFFFF">
                <rect id="Rectangle-3" x="0" y="0" width="36" height="36"></rect>
            </g>
        </g>
    </g>
</svg>