<?xml version="1.0" encoding="UTF-8"?>
<svg width="35px" height="35px" viewBox="0 0 35 35" version="1.1" xmlns="http://www.w3.org/2000/svg" xmlns:xlink="http://www.w3.org/1999/xlink">
    <!-- Generator: Sketch 48.2 (47327) - http://www.bohemiancoding.com/sketch -->
    <title>Bonds/Icons/Report/Rating Star</title>
    <desc>Created with Sketch.</desc>
    <defs>
        <path d="M12.173548,4.97382574 C12.1828792,4.99241086 12.2024724,5.0064015 12.226317,5.00981038 L17.1419242,5.71178128 C17.8828769,5.81761908 18.1819181,6.7221463 17.6408184,7.24050812 L14.0838832,10.6479809 C14.0692171,10.662035 14.0630402,10.6807149 14.0661659,10.6986279 L14.9058921,15.5101057 C15.0338022,16.2432555 14.2585332,16.7968647 13.5983687,16.455887 L9.20185127,14.184212 C9.1800635,14.1729629 9.15326448,14.1729629 9.13159667,14.1841528 L4.73488763,16.4559088 C4.07480321,16.7968784 3.29953202,16.2432505 3.42744484,15.510085 L4.26713046,10.6986401 C4.27026236,10.6806917 4.2640981,10.6620468 4.24945944,10.6480233 L0.692515198,7.24050837 C0.151415191,6.7221463 0.450456446,5.81761908 1.19142356,5.71177922 L6.10695235,5.00981953 C6.13085381,5.00640251 6.15045084,4.99240816 6.15979898,4.97379859 L8.35813422,0.59615488 C8.69034711,-0.0653850871 9.64298622,-0.0653850871 9.97519912,0.59615488 L12.173548,4.97382574 Z M9.10284054,0.970129387 L6.90448322,5.34781708 C6.77212981,5.61129656 6.51784367,5.79288359 6.22482493,5.83477437 L1.30924655,6.53674115 C1.25226161,6.54488089 1.23271802,6.6039955 1.26899337,6.63874649 L4.82593781,10.0462616 C5.04059238,10.2518963 5.13904677,10.549689 5.08805785,10.8418974 L4.24837421,15.653331 C4.24001594,15.7012386 4.29880761,15.7432223 4.35239552,15.7155412 L8.74914108,13.4437663 C9.01074361,13.3086671 9.32252534,13.3086671 9.58427092,13.443807 L13.9808473,15.7155124 C14.0345151,15.7432321 14.0933179,15.7012418 14.0849632,15.6533545 L13.245239,10.8418881 C13.1942564,10.5497161 13.2927219,10.2519436 13.5073606,10.0462616 L17.0643417,6.63874483 C17.1006153,6.6039955 17.0810717,6.54488089 17.0241012,6.53674321 L12.1084444,5.83476523 C11.815465,5.79288006 11.5611228,5.6112656 11.4288268,5.34777072 L9.23049279,0.970129387 C9.20585209,0.921067065 9.12747832,0.921067855 9.10284054,0.970129387 Z" id="path-1"></path>
        <path d="M8.26907569,0.0870450233 L6.05585566,4.49432948 C5.92260744,4.7595903 5.66660211,4.94240501 5.37160232,4.98457901 L0.422790593,5.69129166 C0.365420382,5.69948643 0.345744664,5.7590007 0.382265263,5.79398664 L3.96325758,9.22453934 C4.17936338,9.43156429 4.2784834,9.73137039 4.22714976,10.0255543 L3.38178917,14.8695172 C3.37337439,14.9177487 3.43256354,14.9600162 3.48651375,14.9321479 L7.91298492,12.645014 C8.1763561,12.5090014 8.49024574,12.5090014 8.75376093,12.6450549 L13.1800617,14.932119 C13.2340925,14.9600261 13.2932928,14.9177519 13.2848816,14.8695409 L12.4394802,10.025545 C12.3881529,9.7313976 12.4872841,9.43161197 12.7033739,9.22453941 L16.2844031,5.79398497 C16.320922,5.7590007 16.3012463,5.69948643 16.2438906,5.69129374 L11.2949999,4.98456981 C11.0000397,4.94240146 10.743978,4.75955913 10.6107876,4.49428282 L8.39759097,0.0870450233 C8.37278368,0.0376510003 8.29388004,0.0376517954 8.26907569,0.0870450233 Z" id="path-3"></path>
    </defs>
    <g id="Icons" stroke="none" stroke-width="1" fill="none" fill-rule="evenodd">
        <g id="Bonds/Icons/Report/Rating-Star">
            <g id="Outline" transform="translate(8.333333, 9.166667)">
                <mask id="mask-2" fill="white">
                    <use xlink:href="#path-1"></use>
                </mask>
                <g id="Fill-1" fill-rule="nonzero"></g>
                <g id="Bonds/Colours/Brand/Link/Orange" mask="url(#mask-2)" fill="#DCAA74">
                    <g transform="translate(-8.333333, -9.166667)" id="Rectangle-3">
                        <rect x="0" y="0" width="35" height="35"></rect>
                    </g>
                </g>
            </g>
            <g id="Fill" transform="translate(9.166667, 10.000000)">
                <mask id="mask-4" fill="white">
                    <use xlink:href="#path-3"></use>
                </mask>
                <g id="Fill-1" fill-rule="nonzero"></g>
                <g id="Bonds/Colours/Brand/Link/Orange" mask="url(#mask-4)" fill="#DCAA74">
                    <g transform="translate(-9.166667, -10.000000)" id="Rectangle-3">
                        <rect x="0" y="0" width="35" height="35"></rect>
                    </g>
                </g>
            </g>
        </g>
    </g>
</svg>