<?xml version="1.0" encoding="UTF-8"?>
<svg width="42px" height="42px" viewBox="0 0 42 42" version="1.1" xmlns="http://www.w3.org/2000/svg" xmlns:xlink="http://www.w3.org/1999/xlink">
    <!-- Generator: Sketch 48.2 (47327) - http://www.bohemiancoding.com/sketch -->
    <title>Bonds/Icons/Report/Search</title>
    <desc>Created with Sketch.</desc>
    <defs>
        <path d="M29.6940294,27.254739 C30.0311194,27.5915293 30.1999998,28.0345511 30.1999998,28.4753945 C30.1999998,28.9185 30.0311194,29.3585895 29.6940294,29.6953798 C29.020604,30.3682065 27.9282479,30.3682065 27.2548226,29.6953798 L21.7014743,24.1412715 C20.7304538,24.6999916 19.6100068,25.0252205 18.4112409,25.0252205 C14.7646314,25.0252205 11.8000002,22.0574442 11.8000002,18.4140765 C11.8000002,14.7676927 14.7646314,11.8000002 18.4112409,11.8000002 C22.0579344,11.8000002 25.0225656,14.764928 25.0225656,18.4140765 C25.0225656,19.6117766 24.6998983,20.733322 24.1414357,21.7013009 L29.6940294,27.254739 Z M23.4729577,22.660567 C23.2257584,22.9549653 22.9540739,23.2270785 22.658659,23.4741418 L28.0690375,28.8818049 C28.2149421,29.0275799 28.3860027,29.049865 28.4729585,29.049865 C28.5627654,29.049865 28.7345806,29.0275799 28.8804853,28.8818049 C29.0263899,28.73603 29.0486949,28.5651215 29.0486949,28.4753945 C29.0486949,28.3855838 29.0263899,28.214005 28.8804853,28.0682301 L23.4729577,22.660567 Z M18.4112409,12.9503654 C15.3991488,12.9503654 12.9513051,15.4018137 12.9513051,18.4140765 C12.9513051,21.4263393 15.3991488,23.8748553 18.4112409,23.8748553 C21.4240039,23.8748553 23.8747824,21.423407 23.8747824,18.4140765 C23.8746986,15.4018137 21.4240039,12.9503654 18.4112409,12.9503654 Z M16.2340755,15.9978153 C14.9706588,17.2601088 14.9706588,19.3130218 16.2370104,20.5753991 C16.4612339,20.8001774 16.4612339,21.1649498 16.2370104,21.388974 C16.0098519,21.6137522 15.647606,21.6137522 15.4227116,21.388974 C13.7071582,19.677878 13.7071582,16.8954201 15.4197767,15.1842404 C15.5348234,15.0721445 15.6806441,15.0161803 15.8273035,15.0161803 C15.9760591,15.0161803 16.1219637,15.0722283 16.2340755,15.1842404 C16.4611501,15.4090186 16.4611501,15.773791 16.2340755,15.9978153 Z" id="path-1"></path>
    </defs>
    <g id="Icons" stroke="none" stroke-width="1" fill="none" fill-rule="evenodd">
        <g id="Bonds/Icons/Report/Search">
            <mask id="mask-2" fill="white">
                <use xlink:href="#path-1"></use>
            </mask>
            <g id="Shape" fill-rule="nonzero"></g>
            <g id="Bonds/Colours/General/White" mask="url(#mask-2)" fill="#FFFFFF">
                <rect id="Rectangle-3" x="0" y="0" width="42" height="42"></rect>
            </g>
        </g>
    </g>
</svg>