<?xml version="1.0" encoding="UTF-8"?>
<svg width="40px" height="40px" viewBox="0 0 40 40" version="1.1" xmlns="http://www.w3.org/2000/svg" xmlns:xlink="http://www.w3.org/1999/xlink">
    <!-- Generator: Sketch 48.2 (47327) - http://www.bohemiancoding.com/sketch -->
    <title>Bonds/Icons/Report/Accounts/Default</title>
    <desc>Created with Sketch.</desc>
    <defs>
        <path d="M19.921875,1 C30.3721669,1 38.84375,9.47158315 38.84375,19.921875 C38.84375,30.3721669 30.3721669,38.84375 19.921875,38.84375 C9.47158315,38.84375 1,30.3721669 1,19.921875 C1,9.47158315 9.47158315,1 19.921875,1 Z M19.921875,37.7084375 C29.7451479,37.7084375 37.7084375,29.7451479 37.7084375,19.921875 C37.7084375,10.0986021 29.7451479,2.1353125 19.921875,2.1353125 C10.0986021,2.1353125 2.1353125,10.0986021 2.1353125,19.921875 C2.1353125,29.7451479 10.0986021,37.7084375 19.921875,37.7084375 Z M27.7791279,13.6913097 C28.079355,13.8277698 28.208469,14.17801 28.0731961,14.4754173 L27.3376917,16.09372 C27.6486041,16.4119043 27.8290669,16.8552698 27.7998307,17.3343271 C27.7449202,18.2342664 26.97083,18.919164 26.070965,18.8642535 C25.9017811,18.8539392 25.7402403,18.8181732 25.5897557,18.7609623 L22.9815793,21.5981305 C23.0982271,21.8407757 23.1566252,22.115551 23.139039,22.4033862 C23.0841284,23.3033254 22.3100382,23.988223 21.4101732,23.9333125 C20.5393218,23.8801828 19.8698584,23.1535086 19.8773529,22.2911164 L17.7360645,21.3853893 C17.5321535,21.5988725 17.2681377,21.759894 16.9610097,21.8384012 C16.6592985,21.9154986 16.3558065,21.9029582 16.0785083,21.8176243 L13.0588738,26.9098347 C13.0469271,27.1982635 12.8485813,27.4570108 12.5545131,27.5321789 C12.1952943,27.6239686 11.8297682,27.4072203 11.7379786,27.0480015 C11.6625879,26.7529687 11.7956346,26.4540031 12.0445129,26.3055962 L15.1454001,21.0762578 C15.0717903,20.9492957 15.0138374,20.8103869 14.9756969,20.6611638 C14.7525672,19.7878636 15.2796341,18.8989807 16.1529343,18.675851 C17.0262345,18.4527213 17.9151174,18.9797882 18.1382471,19.8530884 C18.1760909,20.0010501 18.191822,20.1493085 18.188557,20.2948214 L20.3132239,21.1934992 C20.6343021,20.848008 21.1017096,20.6435776 21.6091868,20.6745946 C21.789798,20.6855767 21.9615789,20.7260176 22.1205969,20.7902036 L24.7131164,17.9700279 C24.5868963,17.7202592 24.5228588,17.434947 24.5411128,17.1354619 C24.5958749,16.2379714 25.3659581,15.5544836 26.2627808,15.605313 L26.9983594,13.9869362 C27.1335581,13.6894546 27.4823142,13.5564078 27.7791279,13.6913097 Z M12.3883716,24.1958442 C12.0176537,24.1958442 11.7171274,23.895318 11.7171274,23.5246 C11.7171274,23.153882 12.0176537,22.8533558 12.3883716,22.8533558 C12.7590896,22.8533558 13.0596159,23.153882 13.0596159,23.5246 C13.0596159,23.895318 12.7590896,24.1958442 12.3883716,24.1958442 Z M12.3883716,20.8387326 C12.0176537,20.8387326 11.7171274,20.5382063 11.7171274,20.1674884 C11.7171274,19.7967704 12.0176537,19.4962441 12.3883716,19.4962441 C12.7590896,19.4962441 13.0596159,19.7967704 13.0596159,20.1674884 C13.0596159,20.5382063 12.7590896,20.8387326 12.3883716,20.8387326 Z M12.3883716,17.481621 C12.0176537,17.481621 11.7171274,17.1810947 11.7171274,16.8103767 C11.7171274,16.4396588 12.0176537,16.1391325 12.3883716,16.1391325 C12.7590896,16.1391325 13.0596159,16.4396588 13.0596159,16.8103767 C13.0596159,17.1810947 12.7590896,17.481621 12.3883716,17.481621 Z M12.3883716,14.1245093 C12.0176537,14.1245093 11.7171274,13.823983 11.7171274,13.4532651 C11.7171274,13.0825471 12.0176537,12.7820208 12.3883716,12.7820208 C12.7590896,12.7820208 13.0596159,13.0825471 13.0596159,13.4532651 C13.0596159,13.823983 12.7590896,14.1245093 12.3883716,14.1245093 Z M15.7454833,27.5529559 C15.3747653,27.5529559 15.074239,27.2524296 15.074239,26.8817116 C15.074239,26.5109937 15.3747653,26.2104674 15.7454833,26.2104674 C16.1162012,26.2104674 16.4167275,26.5109937 16.4167275,26.8817116 C16.4167275,27.2524296 16.1162012,27.5529559 15.7454833,27.5529559 Z M19.1025949,27.5529559 C18.731877,27.5529559 18.4313507,27.2524296 18.4313507,26.8817116 C18.4313507,26.5109937 18.731877,26.2104674 19.1025949,26.2104674 C19.4733129,26.2104674 19.7738392,26.5109937 19.7738392,26.8817116 C19.7738392,27.2524296 19.4733129,27.5529559 19.1025949,27.5529559 Z M22.4597066,27.5529559 C22.0889886,27.5529559 21.7884623,27.2524296 21.7884623,26.8817116 C21.7884623,26.5109937 22.0889886,26.2104674 22.4597066,26.2104674 C22.8304245,26.2104674 23.1309508,26.5109937 23.1309508,26.8817116 C23.1309508,27.2524296 22.8304245,27.5529559 22.4597066,27.5529559 Z M25.8168182,27.5529559 C25.4461002,27.5529559 25.145574,27.2524296 25.145574,26.8817116 C25.145574,26.5109937 25.4461002,26.2104674 25.8168182,26.2104674 C26.1875362,26.2104674 26.4880624,26.5109937 26.4880624,26.8817116 C26.4880624,27.2524296 26.1875362,27.5529559 25.8168182,27.5529559 Z" id="path-1"></path>
    </defs>
    <g id="Icons" stroke="none" stroke-width="1" fill="none" fill-rule="evenodd">
        <g id="Bonds/Icons/Report/Accounts/Default">
            <mask id="mask-2" fill="white">
                <use xlink:href="#path-1"></use>
            </mask>
            <g id="Shape" fill-rule="nonzero"></g>
            <g id="Bonds/Colours/General/White" mask="url(#mask-2)" fill="#FFFFFF">
                <rect id="Rectangle-3" x="0" y="0" width="40" height="40"></rect>
            </g>
        </g>
    </g>
</svg>