<?xml version="1.0" encoding="UTF-8"?>
<svg width="42px" height="42px" viewBox="0 0 42 42" version="1.1" xmlns="http://www.w3.org/2000/svg" xmlns:xlink="http://www.w3.org/1999/xlink">
    <!-- Generator: Sketch 48.2 (47327) - http://www.bohemiancoding.com/sketch -->
    <title>Bonds/Icons/Global/Add/Default</title>
    <desc>Created with Sketch.</desc>
    <defs>
        <path d="M20.921875,1 C31.9244531,1 40.84375,9.91929688 40.84375,20.921875 C40.84375,31.9244531 31.9244531,40.84375 20.921875,40.84375 C9.91929687,40.84375 1,31.9244531 1,20.921875 C1,9.91929687 9.91929687,1 20.921875,1 Z M20.921875,39.2709375 C31.0557812,39.2709375 39.2709375,31.0557812 39.2709375,20.921875 C39.2709375,10.7879688 31.0557812,2.5728125 20.921875,2.5728125 C10.7879688,2.5728125 2.5728125,10.7879688 2.5728125,20.921875 C2.5728125,31.0557812 10.7879688,39.2709375 20.921875,39.2709375 Z M27.9140625,19.203125 C28.859375,19.203125 29.6328125,19.9765625 29.6328125,20.921875 C29.6328125,21.8671875 28.859375,22.640625 27.9140625,22.640625 L22.640625,22.640625 L22.640625,27.9140625 C22.640625,28.859375 21.8671875,29.6328125 20.921875,29.6328125 C19.9765625,29.6328125 19.203125,28.859375 19.203125,27.9140625 L19.203125,22.640625 L13.9296875,22.640625 C12.984375,22.640625 12.2109375,21.8671875 12.2109375,20.921875 C12.2109375,19.9765625 12.984375,19.203125 13.9296875,19.203125 L19.203125,19.203125 L19.203125,13.9296875 C19.203125,12.984375 19.9765625,12.2109375 20.921875,12.2109375 C21.8671875,12.2109375 22.640625,12.984375 22.640625,13.9296875 L22.640625,19.203125 L27.9140625,19.203125 Z" id="path-1"></path>
    </defs>
    <g id="Icons" stroke="none" stroke-width="1" fill="none" fill-rule="evenodd">
        <g id="Bonds/Icons/Global/Add/Default">
            <mask id="mask-2" fill="white">
                <use xlink:href="#path-1"></use>
            </mask>
            <g id="Shape" fill-rule="nonzero"></g>
            <g id="Bonds/Colours/General/White" mask="url(#mask-2)" fill="#FFFFFF">
                <rect id="Rectangle-3" x="0" y="0" width="42" height="42"></rect>
            </g>
        </g>
    </g>
</svg>