<?xml version="1.0" encoding="UTF-8"?>
<svg width="24px" height="24px" viewBox="0 0 24 24" version="1.1" xmlns="http://www.w3.org/2000/svg" xmlns:xlink="http://www.w3.org/1999/xlink">
    <!-- Generator: Sketch 46.2 (44496) - http://www.bohemiancoding.com/sketch -->
    <title>Artboard</title>
    <desc>Created with Sketch.</desc>
    <defs></defs>
    <g id="Page-1" stroke="none" stroke-width="1" fill="none" fill-rule="evenodd">
        <g id="Artboard" fill-rule="nonzero" fill="#000000">
            <path d="M17.9411765,20.1372549 L17.9411765,8.22352941 C17.9411765,7.94117647 17.745098,7.70588235 17.5019608,7.70588235 L16.2784314,7.70588235 C15.3843137,7.70588235 14.4117647,6.70196078 14.4117647,5.76862745 L14.4117647,4.69411765 C14.4117647,4.41176471 14.2156863,4.17647059 13.972549,4.17647059 L6.61568627,4.17647059 C6.37254902,4.17647059 6.17647059,4.40392157 6.17647059,4.69411765 L6.17647059,20.1372549 C6.17647059,20.4196078 6.37254902,20.654902 6.61568627,20.654902 L17.5019608,20.654902 C17.745098,20.6470588 17.9411765,20.4196078 17.9411765,20.1372549 L17.9411765,20.1372549 Z M8.10588235,7.57254902 L12.8509804,7.57254902 C13.172549,7.57254902 13.4392157,7.83137255 13.4392157,8.16078431 C13.4392157,8.49019608 13.172549,8.74901961 12.8509804,8.74901961 L8.10588235,8.74901961 C7.78431373,8.74901961 7.51764706,8.49019608 7.51764706,8.16078431 C7.51764706,7.83137255 7.78431373,7.57254902 8.10588235,7.57254902 Z M14.2392157,15.8627451 L11.9411765,18.1607843 L11.9333333,18.1529412 C11.7058824,18.3803922 11.3294118,18.3803922 11.1019608,18.1529412 L10.3882353,17.4392157 L8.50588235,19.3215686 C8.27843137,19.5490196 7.90196078,19.5490196 7.6745098,19.3215686 C7.44705882,19.0941176 7.44705882,18.7176471 7.6745098,18.4901961 L9.97254902,16.1921569 C10.2,15.9647059 10.5764706,15.9647059 10.8039216,16.1921569 C10.8196078,16.2078431 10.8352941,16.2313725 10.8509804,16.254902 L11.5098039,16.9137255 L13.3921569,15.0313725 C13.6196078,14.8039216 13.9960784,14.8039216 14.2235294,15.0313725 C14.4745098,15.2588235 14.4745098,15.6352941 14.2392157,15.8627451 Z M16.0117647,19.4313725 L15.9960784,19.4313725 C15.6745098,19.4313725 15.4078431,19.172549 15.4078431,18.8431373 C15.4078431,18.5215686 15.6745098,18.254902 15.9960784,18.254902 L16.0117647,18.254902 C16.3333333,18.254902 16.6,18.5137255 16.6,18.8431373 C16.6,19.1647059 16.3333333,19.4313725 16.0117647,19.4313725 Z M16.0117647,13.7294118 L8.10588235,13.7294118 C7.78431373,13.7294118 7.51764706,13.4705882 7.51764706,13.1411765 C7.51764706,12.8196078 7.78431373,12.5529412 8.10588235,12.5529412 L16.0117647,12.5529412 C16.3333333,12.5529412 16.6,12.8117647 16.6,13.1411765 C16.6,13.4627451 16.3333333,13.7294118 16.0117647,13.7294118 Z M16.0117647,11.2352941 L8.10588235,11.2352941 C7.78431373,11.2352941 7.51764706,10.9764706 7.51764706,10.6470588 C7.51764706,10.3254902 7.78431373,10.0588235 8.10588235,10.0588235 L16.0117647,10.0588235 C16.3333333,10.0588235 16.6,10.3176471 16.6,10.6470588 C16.6,10.9764706 16.3333333,11.2352941 16.0117647,11.2352941 Z M19.1176471,20.1372549 C19.1176471,21.0705882 18.3960784,21.8313725 17.5019608,21.8313725 L6.61568627,21.8313725 C5.72156863,21.8313725 5,21.0705882 5,20.1372549 L5,4.69411765 C5,3.76078431 5.72941176,3 6.61568627,3 L13.972549,3 C14.8666667,3 15.5882353,3.76078431 15.5882353,4.69411765 L15.5882353,5.76862745 C15.5882353,6.05098039 16.0352941,6.52941176 16.2784314,6.52941176 L17.5019608,6.52941176 C18.3960784,6.52941176 19.1176471,7.29019608 19.1176471,8.22352941 L19.1176471,20.1372549 L19.1176471,20.1372549 Z" id="Shape"></path>
        </g>
    </g>
</svg>