<?xml version="1.0" encoding="UTF-8"?>
<svg width="146px" height="146px" viewBox="0 0 146 146" version="1.1" xmlns="http://www.w3.org/2000/svg" xmlns:xlink="http://www.w3.org/1999/xlink">
    <!-- Generator: Sketch 48.2 (47327) - http://www.bohemiancoding.com/sketch -->
    <title>Bonds/Icons/Learn/Loans/Block</title>
    <desc>Created with Sketch.</desc>
    <defs>
        <path d="M39.5,93.9 L39,94 C38,94.1 37.2,93.4 37.1,92.4 L33.8,58.3 C33.7,57.3 34.4,56.4 35.4,56.3 L102.2,48.1 C103.1,48 104,48.8 104.1,49.7 L105.1,59.6 L110.7,59.6 C111.7,59.6 112.5,60.4 112.5,61.5 L112.5,96.3 C112.5,97.3 111.7,98.2 110.6,98.2 L41.4,98.2 C40.4,98.2 39.5,97.4 39.5,96.3 L39.5,93.9 Z M53.6,76.9 C52.5,76.9 51.6,77.8 51.6,78.9 C51.6,80 52.5,80.9 53.6,80.9 C54.7,80.9 55.6,80 55.6,78.9 C55.6,77.7 54.7,76.9 53.6,76.9 Z M98.7,80.8 C99.8,80.8 100.7,79.9 100.7,78.8 C100.7,77.7 99.8,76.8 98.7,76.8 C97.6,76.8 96.7,77.7 96.7,78.8 C96.7,80 97.6,80.8 98.7,80.8 Z M76.2,65.6 C68.8,65.6 62.9,71.6 62.9,78.9 C62.9,86.2 68.9,92.2 76.2,92.2 C83.5,92.2 89.5,86.2 89.5,78.9 C89.4,71.6 83.5,65.6 76.2,65.6 Z M79.9,83.9 L72.1,83.9 L72.1,83.1 L72.1,82.3 C72.5,81.9 72.7,81.4 72.9,81 C73,80.6 73.1,80.1 73.1,79.5 L73.1,79 C73.1,78.9 73.1,79 73,78.5 L71.7,78.5 L71.7,77.4 L72.9,77.4 C72.9,76.9 72.8,76.7 72.8,76.5 C72.8,76.2 72.7,75.9 72.7,75.5 C72.7,74.9 72.8,74.3 73,73.8 C73.2,73.3 73.5,72.9 73.8,72.6 C74.1,72.3 74.5,72.1 75,71.9 C75.4,71.7 75.9,71.7 76.4,71.7 C77.1,71.7 77.6,71.8 78,71.9 C78.4,72.1 78.8,72.3 79,72.5 C79.3,72.8 79.5,73.1 79.6,73.4 C79.7,73.7 79.8,74.1 79.9,74.4 L78.3,74.7 C78.2,74.5 78.2,74.2 78.1,74 C78,73.8 77.9,73.6 77.8,73.5 C77.7,73.4 77.5,73.3 77.3,73.2 C77.1,73.1 76.9,73.1 76.6,73.1 C75.9,73.1 75.4,73.3 75.1,73.7 C74.8,74.1 74.6,74.6 74.6,75.2 L74.6,75.8 C74.6,76 74.6,76.3 74.7,76.4 L74.8,77.3 L78.3,77.3 L78.3,78.4 L75,78.4 L75,78.7 L75,79 C75,79.5 75,80.2 74.9,80.7 C74.8,81.2 74.6,81.7 74.3,82.2 L80.3,82.2 L79.9,83.9 Z M55.7,64.9 C56.3,64.9 56.7,64.5 56.7,63.9 L56.7,63.7 C56.7,63.1 56.3,62.7 55.7,62.7 L44.4,62.7 C43.8,62.7 43.4,63.1 43.4,63.7 L43.4,64.5 L43.4,65 L43.4,93 L43.4,94.2 C43.4,94.8 43.8,95.2 44.4,95.2 L55.7,95.2 C56.3,95.2 56.7,94.8 56.7,94.2 L56.7,94 C56.7,93.4 56.3,93 55.7,93 L45.6,93 L45.6,65 L55.7,65 L55.7,64.9 Z M96.3,64.9 L96.3,65 L106.4,65 L106.4,93 L96.3,93 C95.7,93 95.3,93.4 95.3,94 L95.3,94.2 C95.3,94.8 95.7,95.2 96.3,95.2 L107.6,95.2 C108.2,95.2 108.6,94.8 108.6,94.2 L108.6,93 L108.6,65 L108.6,64.5 L108.6,63.7 C108.6,63.1 108.2,62.7 107.6,62.7 L96.3,62.7 C95.7,62.7 95.3,63.1 95.3,63.7 L95.3,63.9 C95.3,64.5 95.7,64.9 96.3,64.9 Z M88.3956834,55.2153151 L98.5990692,54.1153151 L99.1992684,59.5153151 L101.399999,59.5153151 L100.699766,53.9153151 L100.599733,53.4153151 L100.4997,52.6153151 C100.399667,52.0153151 99.8995007,51.6153151 99.3993348,51.7153151 L88.195617,53.0153151 C87.5954178,53.1153151 87.195285,53.6153151 87.2953182,54.1153151 L87.2953182,54.3153151 C87.3953514,54.9153151 87.8955174,55.3153151 88.3956834,55.2153151 Z" id="path-1"></path>
    </defs>
    <g id="Icons" stroke="none" stroke-width="1" fill="none" fill-rule="evenodd">
        <g id="Bonds/Icons/Learn/Loans/Block">
            <mask id="mask-2" fill="white">
                <use xlink:href="#path-1"></use>
            </mask>
            <use id="Combined-Shape" fill="#000000" fill-rule="nonzero" xlink:href="#path-1"></use>
            <g id="Bonds/Colours/Learn/Loans" mask="url(#mask-2)" fill="#F44D84">
                <rect id="Rectangle-3" x="0" y="0" width="146" height="146"></rect>
            </g>
        </g>
    </g>
</svg>