<?xml version="1.0" encoding="UTF-8"?>
<svg width="146px" height="146px" viewBox="0 0 146 146" version="1.1" xmlns="http://www.w3.org/2000/svg" xmlns:xlink="http://www.w3.org/1999/xlink">
    <!-- Generator: Sketch 48.2 (47327) - http://www.bohemiancoding.com/sketch -->
    <title>Bonds/Icons/Learn/Loans/Gradient</title>
    <desc>Created with Sketch.</desc>
    <defs>
        <linearGradient x1="46.639088%" y1="5.74083626%" x2="55.828747%" y2="86.676676%" id="linearGradient-1">
            <stop stop-color="#F96B8A" stop-opacity="0.5" offset="0%"></stop>
            <stop stop-color="#FF2E55" offset="100%"></stop>
        </linearGradient>
        <linearGradient x1="44.0579452%" y1="-13.8559585%" x2="55.9550685%" y2="113.745855%" id="linearGradient-2">
            <stop stop-color="#F9BBCF" stop-opacity="0.5" offset="0%"></stop>
            <stop stop-color="#F993AE" offset="100%"></stop>
        </linearGradient>
    </defs>
    <g id="Icons" stroke="none" stroke-width="1" fill="none" fill-rule="evenodd">
        <g id="Bonds/Icons/Learn/Loans/Gradient" fill-rule="nonzero">
            <g id="loans_learn" transform="translate(35.000000, 45.000000)">
                <g id="Loans_icon">
                    <g id="back_2_">
                        <path d="M6.5,13.5 C6.5,12.5 7.3,11.6 8.4,11.6 L72.1,11.6 L71.1,1.7 C71,0.8 70.1,-1.0463852e-14 69.2,0.1 L2.4,8.3 C1.4,8.4 0.7,9.3 0.8,10.3 L4.1,44.4 C4.2,45.4 5,46.1 6,46 L6.5,45.9 L6.5,13.5 L6.5,13.5 Z" id="backgroiund" fill="url(#linearGradient-1)"></path>
                        <path d="M55.4,7.5 C54.9,7.6 54.4,7.2 54.3,6.6 L54.3,6.4 C54.2,5.9 54.6,5.4 55.2,5.3 L66.4,4 C66.9,3.9 67.4,4.3 67.5,4.9 L67.6,5.7 L67.7,6.2 L68.4,11.8 L66.2,11.8 L65.6,6.4 L55.4,7.5 Z" id="line" fill="#FFFFFF"></path>
                    </g>
                    <g id="front_1_" transform="translate(6.000000, 11.000000)">
                        <path d="M73.5,2.5 L73.5,37.3 C73.5,38.3 72.7,39.2 71.6,39.2 L2.4,39.2 C1.4,39.2 0.5,38.4 0.5,37.3 L0.5,2.5 C0.5,1.5 1.3,0.6 2.4,0.6 L71.7,0.6 C72.7,0.6 73.5,1.4 73.5,2.5 L73.5,2.5 Z" id="background_1_" fill="url(#linearGradient-2)"></path>
                        <g id="decoration_note" transform="translate(4.000000, 3.000000)" fill="#FFFFFF">
                            <path d="M10.6,14.9 C9.5,14.9 8.6,15.8 8.6,16.9 C8.6,18 9.5,18.9 10.6,18.9 C11.7,18.9 12.6,18 12.6,16.9 C12.6,15.7 11.7,14.9 10.6,14.9 Z" id="Shape"></path>
                            <path d="M55.7,18.8 C56.8,18.8 57.7,17.9 57.7,16.8 C57.7,15.7 56.8,14.8 55.7,14.8 C54.6,14.8 53.7,15.7 53.7,16.8 C53.7,18 54.6,18.8 55.7,18.8 Z" id="Shape"></path>
                            <path d="M33.2,3.6 C25.8,3.6 19.9,9.6 19.9,16.9 C19.9,24.2 25.9,30.2 33.2,30.2 C40.5,30.2 46.5,24.2 46.5,16.9 C46.4,9.6 40.5,3.6 33.2,3.6 Z M36.9,21.9 L29.1,21.9 L29.1,21.1 L29.1,20.3 C29.5,19.9 29.7,19.4 29.9,19 C30,18.6 30.1,18.1 30.1,17.5 L30.1,17 C30.1,16.9 30.1,17 30,16.5 L28.7,16.5 L28.7,15.4 L29.9,15.4 C29.9,14.9 29.8,14.7 29.8,14.5 C29.8,14.2 29.7,13.9 29.7,13.5 C29.7,12.9 29.8,12.3 30,11.8 C30.2,11.3 30.5,10.9 30.8,10.6 C31.1,10.3 31.5,10.1 32,9.9 C32.4,9.7 32.9,9.7 33.4,9.7 C34.1,9.7 34.6,9.8 35,9.9 C35.4,10.1 35.8,10.3 36,10.5 C36.3,10.8 36.5,11.1 36.6,11.4 C36.7,11.7 36.8,12.1 36.9,12.4 L35.3,12.7 C35.2,12.5 35.2,12.2 35.1,12 C35,11.8 34.9,11.6 34.8,11.5 C34.7,11.4 34.5,11.3 34.3,11.2 C34.1,11.1 33.9,11.1 33.6,11.1 C32.9,11.1 32.4,11.3 32.1,11.7 C31.8,12.1 31.6,12.6 31.6,13.2 L31.6,13.8 C31.6,14 31.6,14.3 31.7,14.4 L31.8,15.3 L35.3,15.3 L35.3,16.4 L32,16.4 L32,16.7 L32,17 C32,17.5 32,18.2 31.9,18.7 C31.8,19.2 31.6,19.7 31.3,20.2 L37.3,20.2 L36.9,21.9 Z" id="Shape"></path>
                            <path d="M12.7,2.9 C13.3,2.9 13.7,2.5 13.7,1.9 L13.7,1.7 C13.7,1.1 13.3,0.7 12.7,0.7 L1.4,0.7 C0.8,0.7 0.4,1.1 0.4,1.7 L0.4,2.5 L0.4,3 L0.4,31 L0.4,32.2 C0.4,32.8 0.8,33.2 1.4,33.2 L12.7,33.2 C13.3,33.2 13.7,32.8 13.7,32.2 L13.7,32 C13.7,31.4 13.3,31 12.7,31 L2.6,31 L2.6,3 L12.7,3 L12.7,2.9 Z" id="Shape"></path>
                            <path d="M53.3,2.9 C52.7,2.9 52.3,2.5 52.3,1.9 L52.3,1.7 C52.3,1.1 52.7,0.7 53.3,0.7 L64.6,0.7 C65.2,0.7 65.6,1.1 65.6,1.7 L65.6,2.5 L65.6,3 L65.6,31 L65.6,32.2 C65.6,32.8 65.2,33.2 64.6,33.2 L53.3,33.2 C52.7,33.2 52.3,32.8 52.3,32.2 L52.3,32 C52.3,31.4 52.7,31 53.3,31 L63.4,31 L63.4,3 L53.3,3 L53.3,2.9 Z" id="Shape"></path>
                        </g>
                    </g>
                </g>
            </g>
        </g>
    </g>
</svg>