<?xml version="1.0" encoding="UTF-8"?>
<svg width="36px" height="36px" viewBox="0 0 36 36" version="1.1" xmlns="http://www.w3.org/2000/svg" xmlns:xlink="http://www.w3.org/1999/xlink">
    <!-- Generator: Sketch 48.2 (47327) - http://www.bohemiancoding.com/sketch -->
    <title>Bonds/Icons/My Account/Logout/Active</title>
    <desc>Created with Sketch.</desc>
    <defs>
        <path d="M18,0.078125 C27.8980056,0.078125 35.921875,8.10199442 35.921875,18 C35.921875,27.8980056 27.8980056,35.921875 18,35.921875 C8.10199442,35.921875 0.078125,27.8980056 0.078125,18 C0.078125,8.10199442 8.10199442,0.078125 18,0.078125 Z M22.7990564,17.6913923 L14.1360437,17.6913923 L14.1360437,14.1207926 C14.1360437,12.9305692 14.336839,11.3622998 17.9985241,11.3622998 C21.5244246,11.3622998 21.8639562,12.9306395 21.8639562,14.1207926 L21.8639562,16.0801104 C21.8639562,16.5567619 21.9506138,16.7380892 22.3314712,16.7380892 C22.7128909,16.7380892 22.7989862,16.6056078 22.7989862,16.0801104 L22.7989862,14.1207926 C22.7990564,12.1682219 21.9357843,10.5501225 17.9985241,10.5501225 C13.9002481,10.5501225 13.1979917,12.1682219 13.1979917,14.1207223 L13.1979917,17.6913221 C12.3892583,17.6913221 11.7709185,18.3096619 11.7709185,19.1183953 L11.7709185,23.8792184 C11.7709185,24.6909739 12.3892583,25.3092434 13.1979917,25.3092434 L22.7991267,25.3092434 C23.6108119,25.3092434 24.2291518,24.6909739 24.2291518,23.8792184 L24.2291518,19.1183953 C24.2290815,18.3585078 23.6108119,17.6913923 22.7990564,17.6913923 Z M18.3178146,21.928475 L18.3178146,22.8396794 C18.3178146,23.0325328 18.1908855,23.1595321 17.9980321,23.1595321 C17.8091145,23.1595321 17.6821854,23.0325328 17.6821854,22.8396794 L17.6821854,21.928475 C17.3012577,21.8014757 17.046486,21.420548 17.046486,21.0387769 C17.046486,20.5308499 17.4932678,20.0872308 17.9980321,20.0872308 C18.5067322,20.0872308 18.953514,20.5308499 18.953514,21.0387769 C18.953514,21.485629 18.6987423,21.8014757 18.3178146,21.928475 Z" id="path-1"></path>
    </defs>
    <g id="Icons" stroke="none" stroke-width="1" fill="none" fill-rule="evenodd">
        <g id="Bonds/Icons/My-Account/Logout/Active">
            <mask id="mask-2" fill="white">
                <use xlink:href="#path-1"></use>
            </mask>
            <g id="Shape" fill-rule="nonzero"></g>
            <g id="Bonds/Colours/General/White" mask="url(#mask-2)" fill="#FFFFFF">
                <rect id="Rectangle-3" x="0" y="0" width="36" height="36"></rect>
            </g>
        </g>
    </g>
</svg>