<?xml version="1.0" encoding="UTF-8"?>
<svg width="58px" height="34px" viewBox="0 0 58 34" version="1.1" xmlns="http://www.w3.org/2000/svg" xmlns:xlink="http://www.w3.org/1999/xlink">
    <!-- Generator: Sketch 48.2 (47327) - http://www.bohemiancoding.com/sketch -->
    <title>Bonds/Icons/Offers/Benefits/Air Miles</title>
    <desc>Created with Sketch.</desc>
    <defs>
        <path d="M58,6.953125 L58,28 L57.9765625,28 L57.9765625,28.9765625 C57.9765625,31.7379862 55.7379862,33.9765625 52.9765625,33.9765625 L52,33.9765625 L52,34 L6,34 L6,33.953125 L5,33.953125 C2.23857625,33.953125 9.76996262e-15,31.7145487 8.8817842e-15,28.953125 L6.21724894e-15,27 L7.10542736e-15,7 L1.76400872e-15,5 C2.060245e-15,2.23857625 2.23857625,7.8817842e-16 5,7.8817842e-16 L6.953125,-1.87635684e-15 L51,-1e-16 L53,2.09276414e-16 C55.7614237,3.36424258e-16 58,2.23857625 58,5 L58,6.953125 Z M57,6.953125 L57,5 C57,2.790861 55.209139,1 53,1 L51,1 L6.953125,1 L5,1 C2.790861,1 1,2.790861 1,5 L1,7 L1,27 L1,28.953125 C1,31.162264 2.790861,32.953125 5,32.953125 L7,32.953125 L7,33 L51.0234375,33 L51.0234375,32.9765625 L52.9765625,32.9765625 C55.1857015,32.9765625 56.9765625,31.1857015 56.9765625,28.9765625 L56.9765625,26.9765625 L57,26.9765625 L57,6.953125 Z" id="path-1"></path>
        <path d="M37.3729485,8.00487657 C37.3729485,8.00487657 36.2552735,7.98011699 35.4877562,8.7512011 L32.3221895,11.9204275 C32.1347313,12.1078929 31.8694604,12.1998571 31.6077263,12.1680234 L21.3081393,10.9335814 C21.1136072,10.9123589 20.9190752,10.9760264 20.7811343,11.1175097 L20.1869273,11.7117396 C19.8721391,12.02654 19.9676367,12.5606396 20.3779224,12.7445679 L26.907125,15.6732727 C27.4588886,15.9208685 27.5932925,16.6459705 27.165322,17.0739576 L25.393312,18.8460362 C25.2306125,19.008742 25.0113218,19.1007062 24.7814203,19.1007062 L20.8837057,19.5640641 C20.3284052,19.6312687 20.1869273,20.3846674 20.6891737,20.6287261 C20.6997845,20.6322632 20.7103954,20.6393373 20.7210062,20.6428744 L23.6495976,21.8985389 C23.8547405,21.986966 24.01744,22.1496718 24.1023267,22.3512856 L25.3579426,25.2799904 C25.3614795,25.2906016 25.3685534,25.3012129 25.3720903,25.3118241 C25.6161396,25.8140899 26.3730461,25.6726066 26.4367111,25.1172845 L26.903588,21.2158819 C26.903588,20.9859715 26.9955486,20.7666723 27.1582481,20.6039665 L28.9302581,18.8318879 C29.3582286,18.4039008 30.0833026,18.53831 30.3308888,19.090095 L33.2594802,25.6230874 C33.4434014,26.029852 33.9774802,26.1288903 34.2922684,25.8140899 L34.8900123,25.2163229 C35.0279532,25.0783766 35.0951552,24.8838371 35.0739335,24.6892975 L33.8360024,14.3928486 C33.8041699,14.1311045 33.8961305,13.8658232 34.0835886,13.6783578 L37.2526923,10.5091314 C38.0202096,9.74158436 37.995451,8.62386611 37.995451,8.62386611 C38.0378944,8.19941614 37.7796973,7.96243157 37.3729485,8.00487657 Z" id="path-3"></path>
    </defs>
    <g id="Icons" stroke="none" stroke-width="1" fill="none" fill-rule="evenodd">
        <g id="Bonds/Icons/Offers/Benefits/Air-Miles">
            <g id="Global/Outline/Rounded">
                <g id="Outline">
                    <mask id="mask-2" fill="white">
                        <use xlink:href="#path-1"></use>
                    </mask>
                    <g id="Rectangle" fill-rule="nonzero"></g>
                    <g id="Bonds/Colours/General/Light-Grey" mask="url(#mask-2)" fill="#C4C8CB">
                        <rect id="Rectangle-3" x="0" y="0" width="58" height="34"></rect>
                    </g>
                </g>
            </g>
            <mask id="mask-4" fill="white">
                <use xlink:href="#path-3"></use>
            </mask>
            <g id="Shape" fill-rule="nonzero"></g>
            <g id="Bonds/Colours/General/Light-Grey" mask="url(#mask-4)" fill="#C4C8CB">
                <rect id="Rectangle-3" x="0" y="0" width="58" height="34"></rect>
            </g>
        </g>
    </g>
</svg>