<?xml version="1.0" encoding="UTF-8"?>
<svg width="58px" height="34px" viewBox="0 0 58 34" version="1.1" xmlns="http://www.w3.org/2000/svg" xmlns:xlink="http://www.w3.org/1999/xlink">
    <!-- Generator: Sketch 48.2 (47327) - http://www.bohemiancoding.com/sketch -->
    <title>Bonds/Icons/Offers/Benefits/Airport Lounge</title>
    <desc>Created with Sketch.</desc>
    <defs>
        <path d="M58,6.953125 L58,28 L57.9765625,28 L57.9765625,28.9765625 C57.9765625,31.7379862 55.7379862,33.9765625 52.9765625,33.9765625 L52,33.9765625 L52,34 L6,34 L6,33.953125 L5,33.953125 C2.23857625,33.953125 9.76996262e-15,31.7145487 8.8817842e-15,28.953125 L6.21724894e-15,27 L7.10542736e-15,7 L1.76400872e-15,5 C2.060245e-15,2.23857625 2.23857625,7.8817842e-16 5,7.8817842e-16 L6.953125,-1.87635684e-15 L51,-1e-16 L53,2.09276414e-16 C55.7614237,3.36424258e-16 58,2.23857625 58,5 L58,6.953125 Z M57,6.953125 L57,5 C57,2.790861 55.209139,1 53,1 L51,1 L6.953125,1 L5,1 C2.790861,1 1,2.790861 1,5 L1,7 L1,27 L1,28.953125 C1,31.162264 2.790861,32.953125 5,32.953125 L7,32.953125 L7,33 L51.0234375,33 L51.0234375,32.9765625 L52.9765625,32.9765625 C55.1857015,32.9765625 56.9765625,31.1857015 56.9765625,28.9765625 L56.9765625,26.9765625 L57,26.9765625 L57,6.953125 Z" id="path-1"></path>
        <path d="M34.3695039,7 C36.6437479,7 38.4888893,8.84514135 38.4888893,11.1193853 C38.4888893,13.3936293 36.6437479,15.2387707 34.3695039,15.2387707 C32.0952599,15.2387707 30.2501186,13.3936293 30.2501186,11.1193853 C30.2501186,8.84514135 32.0952599,7 34.3695039,7 Z M34.3695039,14.0255805 C35.9766884,14.0255805 37.2756991,12.7226688 37.2756991,11.1193853 C37.2756991,9.51610184 35.9727874,8.21319019 34.3695039,8.21319019 C32.7662204,8.21319019 31.4633088,9.51610184 31.4633088,11.1193853 C31.4633088,12.7226688 32.7623195,14.0255805 34.3695039,14.0255805 Z M35.8177873,10.5719391 C35.9529807,10.8336357 35.8486887,11.1607565 35.5705766,11.2993018 L34.6435362,11.7688163 C34.6358108,11.7726648 34.6242228,11.7765133 34.6164975,11.7803618 C34.6126348,11.7803618 34.6126348,11.7842102 34.6087722,11.7842102 C34.5971842,11.7919072 34.5817335,11.7957557 34.5701455,11.7996042 C34.5662828,11.7996042 34.5624201,11.8034526 34.5585575,11.8034526 C34.5469695,11.8034526 34.5353815,11.8073011 34.5237935,11.8111496 C34.5199308,11.8111496 34.5122055,11.8149981 34.5083428,11.8149981 C34.4967548,11.8149981 34.4851668,11.8188466 34.4735788,11.8188466 C34.4658534,11.822695 34.4619908,11.822695 34.4542654,11.822695 C34.4426774,11.822695 34.4349521,11.822695 34.4233641,11.822695 C34.4195014,11.822695 34.4117761,11.822695 34.4079134,11.822695 C34.4040508,11.822695 34.4040508,11.822695 34.4001881,11.822695 C34.3924627,11.822695 34.3808747,11.822695 34.3731494,11.822695 C34.3654241,11.8188466 34.3538361,11.8188466 34.3461107,11.8188466 C34.3383854,11.8188466 34.3345227,11.8149981 34.3267974,11.8149981 C34.3152094,11.8111496 34.3036214,11.8111496 34.2920334,11.8073011 C34.2881707,11.8073011 34.2804454,11.8034526 34.2765827,11.8034526 C34.2649947,11.7996042 34.2534067,11.7957557 34.2418187,11.7919072 C34.237956,11.7880587 34.2302307,11.7880587 34.2225053,11.7842102 C34.2109173,11.7803618 34.203192,11.7765133 34.1954667,11.7726648 C34.0834493,11.726483 33.9830199,11.637968 33.9250799,11.5225136 C33.9134919,11.4955742 33.9019039,11.4686349 33.8941785,11.4416955 C33.8941785,11.4416955 33.8941785,11.4378471 33.8941785,11.4378471 C33.8903159,11.4263016 33.8864532,11.4109077 33.8825905,11.3955138 C33.8787279,11.3916653 33.8787279,11.3878168 33.8787279,11.3839683 C33.8748652,11.3724229 33.8710025,11.357029 33.8710025,11.3454835 C33.8671399,11.3416351 33.8671399,11.3339381 33.8671399,11.3300896 C33.8671399,11.3185442 33.8671399,11.3069987 33.8671399,11.2954533 C33.8671399,11.2916048 33.8671399,11.2839079 33.8671399,11.2800594 L33.8671399,9.54824344 C33.8671399,9.2519105 34.110488,9.00945626 34.4079134,9.00945626 C34.7053389,9.00945626 34.948687,9.2519105 34.948687,9.54824344 L34.948687,10.4103029 L35.0916057,10.3371818 C35.3581298,10.202485 35.6825939,10.306394 35.8177873,10.5719391 Z M23.9203314,12.0236407 C22.6440705,12.0236407 21.6094566,10.9890268 21.6094566,9.71276596 C21.6094566,8.4365051 22.6440705,7.40189125 23.9203314,7.40189125 C25.1965922,7.40189125 26.2312061,8.4365051 26.2312061,9.71276596 C26.2312061,10.9890268 25.1965922,12.0236407 23.9203314,12.0236407 Z M33.8242011,25.0608973 C34.0201673,25.85087 33.5263326,26.6564087 32.7307099,26.8509832 C31.9350873,27.0455578 31.1237874,26.5552299 30.9278213,25.7652572 C30.9278213,25.7652572 30.3556001,22.2862642 30.0420542,22.2862642 L26.4441155,22.2862642 C26.3735677,22.2862642 26.3030199,22.2823727 26.232472,22.2706982 C26.232472,22.2706982 26.2285527,22.2706982 26.2285527,22.2706982 C25.334947,22.2706982 24.5158085,21.6636256 24.292407,20.7646912 L22.873612,15.0441994 C22.607098,13.9662563 23.2773023,12.8727473 24.3590355,12.608126 L24.8685476,12.4835982 C25.9542001,12.2189769 27.0555299,12.8844218 27.3220439,13.9584734 C27.3220439,13.9584734 28.3802612,19.328731 28.6781297,19.328731 L31.276641,19.328731 C32.0252318,19.328731 32.6484042,19.9007802 32.7267906,20.6245975 C32.7267906,20.6245975 32.7267906,20.628489 32.7267906,20.628489 L33.8242011,25.0608973 Z M27.5028556,23.0361788 C28.1273476,23.0361788 28.6386505,23.5443398 28.6425536,24.1572363 C28.6425536,24.777891 28.1312507,25.286052 27.5067586,25.286052 L22.811359,25.286052 C22.7645221,25.286052 22.7176852,25.2821729 22.6747513,25.2782938 C22.1946731,25.2472611 21.7692379,24.9136592 21.6482425,24.4287727 L19.6342556,16.4378438 C19.4703265,15.7900354 19.911374,15.1267108 20.6022183,15.0452498 C21.1720673,14.9793053 21.6989825,15.3594563 21.8394932,15.9141664 L23.4670756,22.368975 C23.5646525,22.7607633 23.9198324,23.0361788 24.3257522,23.0361788 L27.5028556,23.0361788 Z" id="path-3"></path>
    </defs>
    <g id="Icons" stroke="none" stroke-width="1" fill="none" fill-rule="evenodd">
        <g id="Bonds/Icons/Offers/Benefits/Airport-Lounge">
            <g id="Global/Outline/Rounded">
                <g id="Outline">
                    <mask id="mask-2" fill="white">
                        <use xlink:href="#path-1"></use>
                    </mask>
                    <g id="Rectangle" fill-rule="nonzero"></g>
                    <g id="Bonds/Colours/General/Light-Grey" mask="url(#mask-2)" fill="#C4C8CB">
                        <rect id="Rectangle-3" x="0" y="0" width="58" height="34"></rect>
                    </g>
                </g>
            </g>
            <mask id="mask-4" fill="white">
                <use xlink:href="#path-3"></use>
            </mask>
            <g id="Combined-Shape" fill-rule="nonzero"></g>
            <g id="Bonds/Colours/General/Light-Grey" mask="url(#mask-4)" fill="#C4C8CB">
                <rect id="Rectangle-3" x="0" y="0" width="58" height="34"></rect>
            </g>
        </g>
    </g>
</svg>