<?xml version="1.0" encoding="UTF-8"?>
<svg width="58px" height="34px" viewBox="0 0 58 34" version="1.1" xmlns="http://www.w3.org/2000/svg" xmlns:xlink="http://www.w3.org/1999/xlink">
    <!-- Generator: Sketch 48.2 (47327) - http://www.bohemiancoding.com/sketch -->
    <title>Bonds/Icons/Offers/Benefits/AmEx</title>
    <desc>Created with Sketch.</desc>
    <defs>
        <path d="M58,6.953125 L58,28 L57.9765625,28 L57.9765625,28.9765625 C57.9765625,31.7379862 55.7379862,33.9765625 52.9765625,33.9765625 L52,33.9765625 L52,34 L6,34 L6,33.953125 L5,33.953125 C2.23857625,33.953125 9.76996262e-15,31.7145487 8.8817842e-15,28.953125 L6.21724894e-15,27 L7.10542736e-15,7 L1.76400872e-15,5 C2.060245e-15,2.23857625 2.23857625,7.8817842e-16 5,7.8817842e-16 L6.953125,-1.87635684e-15 L51,-1e-16 L53,2.09276414e-16 C55.7614237,3.36424258e-16 58,2.23857625 58,5 L58,6.953125 Z M57,6.953125 L57,5 C57,2.790861 55.209139,1 53,1 L51,1 L6.953125,1 L5,1 C2.790861,1 1,2.790861 1,5 L1,7 L1,27 L1,28.953125 C1,31.162264 2.790861,32.953125 5,32.953125 L7,32.953125 L7,33 L51.0234375,33 L51.0234375,32.9765625 L52.9765625,32.9765625 C55.1857015,32.9765625 56.9765625,31.1857015 56.9765625,28.9765625 L56.9765625,26.9765625 L57,26.9765625 L57,6.953125 Z" id="path-1"></path>
        <path d="M39.7404886,18.3949815 L39.7404886,6 L18.0862889,6 L18.0862889,15.1598134 L18.8283734,13.4491154 L20.3988314,13.4491154 L20.6188681,13.8865344 L20.6188681,13.4491154 L22.4956517,13.4491154 L22.8882662,14.3672621 L23.2808807,13.4491154 L29.1744127,13.4491154 C29.4375938,13.4491154 29.6964605,13.4924242 29.8733528,13.6699903 L29.8733528,13.4491154 L31.4869552,13.4491154 L31.4869552,13.6699903 C31.7501364,13.5400639 32.0996064,13.4491154 32.4922209,13.4491154 L34.8479079,13.4491154 L35.0679446,13.8865344 L35.0679446,13.4491154 L36.8152948,13.4491154 L37.0353315,13.8865344 L37.0353315,13.4491154 L38.7395373,13.4491154 L38.7395373,17.0004378 L37.0353315,17.0004378 L36.7290059,16.4764012 L36.7290059,17.0004378 L34.5890412,17.0004378 L34.3690045,16.4287615 L33.8469567,16.4287615 L33.62692,17.0004378 L32.5396798,17.0004378 C32.1039209,17.0004378 31.7975953,16.9138202 31.5775586,16.7795629 L31.5775586,17.0004378 L28.9586904,17.0004378 L28.9586904,16.2122175 C28.9586904,16.082291 28.9586904,16.082291 28.8724015,16.082291 L28.7861126,16.082291 L28.7861126,17.0004378 L23.7209541,17.0004378 L23.7209541,16.5630188 L23.5483763,17.0004378 L22.4999662,17.0004378 L22.3273884,16.5630188 L22.3273884,17.0004378 L20.2693981,17.0004378 L20.0493614,16.4287615 L19.5273135,16.4287615 L19.3072768,17.0004378 L18.2631811,17.0004378 L18.2631811,27.7800007 L39.9173808,27.7800007 L39.9173808,21.253363 C39.6541997,21.3832894 39.3478741,21.4265982 39.0458629,21.4265982 L37.4754049,21.4265982 L37.4754049,21.2057233 C37.3028271,21.3356497 36.9533571,21.4265982 36.6470315,21.4265982 L31.6638475,21.4265982 L31.6638475,20.5950691 C31.6638475,20.5084514 31.6638475,20.5084514 31.5344141,20.5084514 L31.4481252,20.5084514 L31.4481252,21.4265982 L29.8345228,21.4265982 L29.8345228,20.4608118 C29.5713416,20.5907382 29.265016,20.5907382 29.0061493,20.5907382 L28.8335715,20.5907382 L28.8335715,21.4222673 L26.870499,21.4222673 L26.3915956,20.850591 L25.8695478,21.4222673 L22.6380284,21.4222673 L22.6380284,17.8709449 L25.9126922,17.8709449 L26.3915956,18.3949815 L26.9136435,17.8709449 L29.0881238,17.8709449 C29.3513049,17.8709449 29.7439194,17.9142537 29.9596417,18.0918198 L29.9596417,17.8709449 L31.9227142,17.8709449 C32.095292,17.8709449 32.4922209,17.9142537 32.7510876,18.0918198 L32.7510876,17.8709449 L35.7194258,17.8709449 L35.7194258,18.0918198 C35.8488592,17.9618934 36.1983292,17.8709449 36.4615104,17.8709449 L38.1225717,17.8709449 L38.1225717,18.0918198 C38.2951495,17.9618934 38.5583306,17.8709449 38.8646562,17.8709449 L40.0036697,17.8709449 L40.0036697,18.3949815 L39.7404886,18.3949815 Z M32.6259687,19.0619372 C32.6259687,18.7544446 32.4965354,18.6245182 32.3196431,18.4902609 C32.0996064,18.4036433 31.8838842,18.3603345 31.5775586,18.3603345 L30.1796784,18.3603345 L30.1796784,20.9025616 L30.7923296,20.9025616 L30.7923296,19.9844148 L31.4481252,19.9844148 C31.6681619,19.9844148 31.7975953,19.9844148 31.8838842,20.1143413 C32.0133175,20.2442677 31.9701731,20.4651426 31.9701731,20.5950691 L31.9701731,20.9025616 L32.5828243,20.9025616 L32.5828243,20.378525 C32.5828243,20.1576501 32.5828243,20.0277236 32.4965354,19.8977972 C32.4533909,19.8111796 32.3239576,19.724562 32.1902098,19.6769223 C32.3627876,19.6769223 32.6259687,19.4560474 32.6259687,19.0619372 Z M31.8407397,19.4127385 C31.7544508,19.4560474 31.6681619,19.4560474 31.5344141,19.4560474 L30.7923296,19.4560474 L30.7923296,18.8843711 L31.5344141,18.8843711 C31.620703,18.8843711 31.7544508,18.8843711 31.8407397,18.9276799 C31.9270286,18.9709887 31.9701731,19.0576063 31.9701731,19.1485548 C31.9701731,19.2784812 31.9270286,19.3694297 31.8407397,19.4127385 Z M28.8724015,18.3603345 L26.909329,18.3603345 L26.1241,19.1918636 L25.377701,18.3603345 L22.9314107,18.3603345 L22.9314107,20.9025616 L25.3345566,20.9025616 L26.1197856,20.0710325 L26.8618701,20.9025616 L28.0397136,20.9025616 L28.0397136,20.0277236 L28.7817982,20.0277236 C29.303846,20.0277236 29.8302083,19.8977972 29.8302083,19.1528857 C29.9208117,18.5335697 29.3513049,18.3603345 28.8724015,18.3603345 Z M25.0713754,20.4218338 L23.5872063,20.4218338 L23.5872063,19.8977972 L24.9419421,19.8977972 L24.9419421,19.3737606 L23.5872063,19.3737606 L23.5872063,18.8843711 L25.1145199,18.8843711 L25.7703155,19.6292826 L25.0713754,20.4218338 Z M27.4745213,20.6816867 L26.559859,19.6292826 L27.4745213,18.6201873 L27.4745213,20.6816867 Z M28.8724015,19.542665 L28.0871725,19.542665 L28.0871725,18.8843711 L28.8724015,18.8843711 C29.0924382,18.8843711 29.265016,18.9709887 29.265016,19.1918636 C29.265016,19.4560474 29.0881238,19.542665 28.8724015,19.542665 Z M32.5828243,14.5491591 L33.152331,14.5491591 L33.152331,14.0251225 L32.5828243,14.0251225 C32.1470653,14.0251225 31.8407397,14.1117402 31.6681619,14.3326151 C31.4049808,14.5967988 31.3186919,14.9476002 31.3186919,15.3417104 C31.3186919,15.8224382 31.4481252,16.0866219 31.6250175,16.3074968 C31.8450542,16.5283718 32.1945242,16.5716806 32.4965354,16.5716806 L33.1954755,16.5716806 L33.4155122,16.0000043 L34.6796445,16.0000043 L34.8996812,16.5716806 L36.1206692,16.5716806 L36.1206692,14.6444385 L37.2553682,16.5716806 L38.1268861,16.5716806 L38.1268861,14.0294534 L37.5142349,14.0294534 L37.5142349,15.8267691 L36.4658248,14.0207917 L35.5511624,14.0207917 L35.5511624,16.4330924 L34.5027523,14.0207917 L33.58809,14.0207917 L32.7122576,16.0389822 L32.4490765,16.0389822 C32.2764987,16.0389822 32.0996064,15.9956734 32.0133175,15.9090558 C31.8838842,15.7791294 31.8407397,15.6015632 31.8407397,15.2940707 C31.8407397,15.0298869 31.9270286,14.8133429 32.0133175,14.7223944 C32.2333542,14.5491591 32.3627876,14.5491591 32.5828243,14.5491591 Z M34.0669934,14.4149018 L34.5027523,15.4239971 L33.6743789,15.4239971 L34.0669934,14.4149018 Z M36.5564281,20.3741941 C36.642717,20.3741941 36.7290059,20.3741941 36.8627537,20.3308853 C36.9058982,20.2875765 36.9490426,20.2442677 36.9490426,20.1576501 C36.9490426,20.0710325 36.9058982,20.0277236 36.8627537,19.9844148 C36.8152948,19.941106 36.7290059,19.941106 36.642717,19.941106 C36.0775247,19.941106 35.3785846,19.941106 35.3785846,19.1528857 C35.3785846,18.8020843 35.5943069,18.4079741 36.2501025,18.4079741 L37.4710905,18.4079741 L37.4710905,18.9320107 L36.3363914,18.9320107 C36.2026437,18.9320107 36.1163547,18.9320107 36.0732103,18.9753196 C36.0300658,19.0186284 35.9869214,19.0619372 35.9869214,19.1485548 C35.9869214,19.2351724 36.0300658,19.2784812 36.1163547,19.32179 C36.1638136,19.3650989 36.2501025,19.3650989 36.3363914,19.3650989 L36.6470315,19.3650989 C36.9965015,19.3650989 37.2165382,19.4560474 37.3459716,19.5859738 C37.4754049,19.6725914 37.5185494,19.8458266 37.5185494,20.1100104 C37.5185494,20.634047 37.1690793,20.8982307 36.5564281,20.8982307 L35.3785846,20.8982307 L35.3785846,20.3741941 L36.5564281,20.3741941 Z M39.0846929,20.3741941 C39.1709818,20.3741941 39.2572707,20.3741941 39.3910185,20.3308853 C39.434163,20.2875765 39.4773074,20.2442677 39.4773074,20.1576501 C39.4773074,20.0710325 39.434163,20.0277236 39.3910185,19.9844148 C39.3435596,19.941106 39.2572707,19.941106 39.1709818,19.941106 C38.6057895,19.941106 37.9068494,19.941106 37.9068494,19.1528857 C37.9068494,18.8020843 38.1225717,18.4079741 38.7783673,18.4079741 L39.7404886,18.4079741 L39.7404886,18.9320107 L38.8646562,18.9320107 C38.7309084,18.9320107 38.6446195,18.9320107 38.6014751,18.9753196 C38.5583306,19.0186284 38.5151862,19.0619372 38.5151862,19.1485548 C38.5151862,19.2351724 38.5583306,19.2784812 38.6446195,19.32179 C38.6920784,19.3650989 38.7783673,19.3650989 38.8646562,19.3650989 L39.1752963,19.3650989 C39.5247663,19.3650989 39.5722252,19.4560474 39.7016586,19.5859738 C39.8310919,19.6725914 39.8742364,19.8458266 39.8742364,20.1100104 C39.8742364,20.634047 39.5679108,20.8982307 38.9552596,20.8982307 L37.6911272,20.8982307 L37.6911272,20.3741941 L39.0846929,20.3741941 Z M30.050245,14.6790856 C30.050245,14.371593 29.9208117,14.2416666 29.7439194,14.1074093 C29.5238827,13.9774829 29.3081605,13.9774829 29.0018349,13.9774829 L27.6039547,13.9774829 L27.6039547,16.51971 L28.2166059,16.51971 L28.2166059,15.6015632 L28.8724015,15.6015632 C29.0924382,15.6015632 29.2218716,15.6015632 29.3081605,15.6881809 C29.4375938,15.8181073 29.3944494,16.0389822 29.3944494,16.1689087 L29.3944494,16.4764012 L30.0071006,16.4764012 L30.0071006,15.9956734 C30.0071006,15.7747985 30.0071006,15.644872 29.9208117,15.5149456 C29.8776672,15.428328 29.7482339,15.3417104 29.6144861,15.2940707 C29.7439194,15.2940707 30.050245,15.0731958 30.050245,14.6790856 Z M29.2218716,15.0298869 C29.1355827,15.0731958 29.0492938,15.0731958 28.915546,15.0731958 L28.1734614,15.0731958 L28.1734614,14.5015195 L28.915546,14.5015195 C29.0018349,14.5015195 29.1355827,14.5015195 29.2218716,14.5448283 C29.3081605,14.5881371 29.3513049,14.6747547 29.3513049,14.7657032 C29.3513049,14.8999605 29.3081605,14.9865781 29.2218716,15.0298869 Z M30.3997151,13.9774829 L31.0123663,13.9774829 L31.0123663,16.51971 L30.3997151,16.51971 L30.3997151,13.9774829 Z M34.9816557,18.9320107 L33.58809,18.9320107 L33.58809,19.3694297 L34.9816557,19.3694297 L34.9816557,19.8934663 L33.58809,19.8934663 L33.58809,20.4218338 L34.9816557,20.4218338 L34.9816557,20.9458704 L32.9754388,20.9458704 L32.9754388,18.3603345 L34.9816557,18.3603345 L34.9816557,18.9320107 Z M27.1681957,14.5058503 L25.7271711,14.5058503 L25.7271711,14.9865781 L27.1250513,14.9865781 L27.1250513,15.5106147 L25.7271711,15.5106147 L25.7271711,15.9956734 L27.1681957,15.9956734 L27.1681957,16.51971 L25.1145199,16.51971 L25.1145199,13.9774829 L27.1681957,13.9774829 L27.1681957,14.5058503 Z M20.2693981,15.9480337 L20.4894348,16.51971 L21.7104227,16.51971 L21.7104227,14.5058503 L22.5819406,16.51971 L23.1039885,16.51971 L23.9755064,14.5058503 L23.9755064,16.51971 L24.5881576,16.51971 L24.5881576,13.9774829 L23.5828919,13.9774829 L22.8408073,15.7314897 L22.0555783,13.9774829 L21.0546271,13.9774829 L21.0546271,16.3897836 L20.0062169,13.9774829 L19.0915546,13.9774829 L18,16.51971 L18.6557956,16.51971 L18.8758323,15.9480337 L20.2693981,15.9480337 Z M19.5587184,14.4149018 L19.9944774,15.4239971 L19.1617895,15.4239971 L19.5587184,14.4149018 Z" id="path-3"></path>
    </defs>
    <g id="Icons" stroke="none" stroke-width="1" fill="none" fill-rule="evenodd">
        <g id="Bonds/Icons/Offers/Benefits/AmEx">
            <g id="Global/Outline/Rounded">
                <g id="Outline">
                    <mask id="mask-2" fill="white">
                        <use xlink:href="#path-1"></use>
                    </mask>
                    <g id="Rectangle" fill-rule="nonzero"></g>
                    <g id="Bonds/Colours/General/Light-Grey" mask="url(#mask-2)" fill="#C4C8CB">
                        <rect id="Rectangle-3" x="0" y="0" width="58" height="34"></rect>
                    </g>
                </g>
            </g>
            <mask id="mask-4" fill="white">
                <use xlink:href="#path-3"></use>
            </mask>
            <g id="Shape" fill-rule="nonzero"></g>
            <g id="Bonds/Colours/General/Light-Grey" mask="url(#mask-4)" fill="#C4C8CB">
                <rect id="Rectangle-3" x="0" y="0" width="58" height="34"></rect>
            </g>
        </g>
    </g>
</svg>