<?xml version="1.0" encoding="UTF-8"?>
<svg width="58px" height="34px" viewBox="0 0 58 34" version="1.1" xmlns="http://www.w3.org/2000/svg" xmlns:xlink="http://www.w3.org/1999/xlink">
    <!-- Generator: Sketch 48.2 (47327) - http://www.bohemiancoding.com/sketch -->
    <title>Bonds/Icons/Offers/Benefits/Apple Pay</title>
    <desc>Created with Sketch.</desc>
    <defs>
        <path d="M58,6.953125 L58,28 L57.9765625,28 L57.9765625,28.9765625 C57.9765625,31.7379862 55.7379862,33.9765625 52.9765625,33.9765625 L52,33.9765625 L52,34 L6,34 L6,33.953125 L5,33.953125 C2.23857625,33.953125 9.76996262e-15,31.7145487 8.8817842e-15,28.953125 L6.21724894e-15,27 L7.10542736e-15,7 L1.76400872e-15,5 C2.060245e-15,2.23857625 2.23857625,7.8817842e-16 5,7.8817842e-16 L6.953125,-1.87635684e-15 L51,-1e-16 L53,2.09276414e-16 C55.7614237,3.36424258e-16 58,2.23857625 58,5 L58,6.953125 Z M57,6.953125 L57,5 C57,2.790861 55.209139,1 53,1 L51,1 L6.953125,1 L5,1 C2.790861,1 1,2.790861 1,5 L1,7 L1,27 L1,28.953125 C1,31.162264 2.790861,32.953125 5,32.953125 L7,32.953125 L7,33 L51.0234375,33 L51.0234375,32.9765625 L52.9765625,32.9765625 C55.1857015,32.9765625 56.9765625,31.1857015 56.9765625,28.9765625 L56.9765625,26.9765625 L57,26.9765625 L57,6.953125 Z" id="path-1"></path>
        <path d="M20.1908483,16.844381 C20.2119581,18.7979391 21.9851795,19.4421977 22.0062893,19.4560527 C21.9922161,19.5045453 21.7248256,20.3843392 21.0704224,21.2918431 C20.507495,22.0746519 19.9234577,22.8574607 19.0016641,22.8782432 C18.0939435,22.8920982 17.8054432,22.3656074 16.771064,22.3656074 C15.7366849,22.3656074 15.4130016,22.8643882 14.5545372,22.8920982 C13.6679265,22.9267358 12.985377,22.0400144 12.4224495,21.2572056 C11.2614116,19.6569505 10.3748009,16.7335408 11.5639851,14.7592001 C12.155059,13.7824211 13.2105479,13.1589451 14.3645492,13.1450901 C15.2370867,13.131235 16.0603681,13.7062185 16.5951492,13.7062185 C17.1299303,13.7062185 18.1291265,13.0134673 19.1846155,13.11738 C19.6279208,13.1381625 20.8663612,13.2905678 21.6544597,14.3989696 C21.5911303,14.4336071 20.1767751,15.2164159 20.1908483,16.844381 M18.4950294,12.0574708 C18.0235776,12.5978167 17.2425158,13.0273224 16.4896003,12.9719023 C16.3840514,12.2306586 16.771064,11.4617048 17.2073328,10.9767791 C17.6928577,10.4295057 18.5161391,10.02771 19.1986887,10 C19.2831278,10.7550987 18.9664811,11.5101974 18.4950294,12.0574708 Z M25.4724043,11.1748159 C25.8221805,11.1187142 26.1999387,11.0626124 26.6266656,11.0135234 C27.046397,10.9644344 27.501106,10.9433962 28.0117791,10.9433962 C28.732318,10.9433962 29.347924,11.0275489 29.8725882,11.2028668 C30.3972524,11.3781848 30.8239793,11.6166172 31.1597644,11.9321896 C31.4465809,12.2197111 31.6774331,12.5493088 31.8313346,12.9350084 C31.9922316,13.3207079 32.0691824,13.7695219 32.0691824,14.2744377 C32.0691824,14.8845442 31.957254,15.4175109 31.7333973,15.8733376 C31.5165361,16.3291643 31.2087331,16.7218766 30.8239793,17.0234235 C30.4392256,17.3319831 29.9845166,17.5634028 29.4598524,17.7176827 C28.9281926,17.8719625 28.3545597,17.9491024 27.7319582,17.9491024 C27.1653209,17.9491024 26.6966208,17.9070261 26.3118671,17.8228734 L26.3118671,22.8930692 L25.4654088,22.8930818 C25.4724043,22.9070946 25.4724043,11.1748159 25.4724043,11.1748159 Z M38.8584834,20.7196879 C38.8584834,21.0540562 38.8656466,21.3953905 38.8799731,21.7297588 C38.8942995,22.0641271 38.9301156,22.3915293 38.9874214,22.7049996 L38.1779774,22.7049996 L38.0490394,21.5138126 L38.0132233,21.5138126 C37.905775,21.6809967 37.7625106,21.8342489 37.5905933,22.001433 C37.418676,22.1686171 37.2181058,22.3079373 36.9888827,22.4472574 C36.7668228,22.5865775 36.5017836,22.6910676 36.2152548,22.7676937 C35.9287259,22.8512857 35.6135442,22.8930818 35.2625464,22.8930818 C34.8327531,22.8930818 34.4602656,22.8234217 34.1307574,22.6910676 C33.8012493,22.5517475 33.5362101,22.3845633 33.3284767,22.1686171 C33.1207433,21.952671 32.9631524,21.7088608 32.8557041,21.4232545 C32.755419,21.1376483 32.6981132,20.865974 32.6981132,20.5803678 C32.6981132,19.591195 33.1422329,18.8249343 34.0161459,18.2885519 C34.8900589,17.7521694 36.222418,17.4944272 37.9845704,17.5153252 L37.9845704,17.285447 C37.9845704,17.0625348 37.9630808,16.8117586 37.9201014,16.5191864 C37.8771221,16.2266141 37.7840002,15.9619059 37.6407358,15.7041637 C37.4974714,15.4464215 37.2682483,15.2304753 36.9817195,15.0563251 C36.6880274,14.882175 36.286887,14.7916169 35.7854615,14.7916169 C35.3986476,14.7916169 35.0261601,14.847345 34.6536726,14.9588011 C34.2740219,15.0702571 33.9373505,15.2304753 33.629332,15.4185574 L33.3571296,14.8055489 C33.7511067,14.5478067 34.1522471,14.3666906 34.5748772,14.2552345 C34.9975072,14.1437784 35.4273005,14.0880503 35.8785834,14.0880503 C36.4946204,14.0880503 36.9960459,14.1855744 37.3756966,14.3806226 C37.7625106,14.5826367 38.0633659,14.8334129 38.2854257,15.1538492 C38.5003223,15.4673195 38.6579132,15.8225858 38.7367086,16.2126821 C38.8155041,16.6027784 38.8584834,16.9928748 38.8584834,17.3760051 L38.8584834,20.7196879 Z M40.5032523,14.409488 L42.6620633,19.8757155 C42.7789416,20.1755214 42.8889447,20.4892717 42.9989478,20.8099942 C43.1020757,21.1307168 43.1983284,21.4235504 43.2808308,21.6954673 L43.3152067,21.6954673 C43.3977091,21.4374949 43.4870866,21.1516335 43.5970897,20.8239387 C43.7002176,20.5032162 43.8170959,20.1755214 43.9545998,19.8338822 L45.9690317,14.4025157 L46.8490566,14.4025157 L44.3946122,20.5659662 C44.1471052,21.2213558 43.9133486,21.8139952 43.7002176,22.3438846 C43.4870866,22.873774 43.2602052,23.3548579 43.040199,23.7801638 C42.8201927,24.2054698 42.5864361,24.5819702 42.3595547,24.9096649 C42.1326733,25.2303875 41.8714159,25.5232211 41.589533,25.7672491 C41.2595236,26.0600827 40.9570151,26.2692496 40.6751321,26.4086942 C40.4001244,26.5481388 40.2144941,26.6318055 40.1182414,26.6666667 L39.8363584,25.9833882 C40.0494894,25.885777 40.283246,25.7672491 40.5445034,25.6208323 C40.7988856,25.4674433 41.060143,25.2722209 41.3007748,25.0281928 C41.5139058,24.819026 41.7476624,24.5401368 41.9951694,24.1915253 C42.2426764,23.8498861 42.476433,23.4245801 42.6758137,22.9365241 C42.7445656,22.7482739 42.7789416,22.629746 42.7789416,22.5739682 C42.7789416,22.4903015 42.7445656,22.3648013 42.6758137,22.2114123 L39.6163522,14.4164602 L40.5032523,14.409488 Z M26.3118671,17.0935507 C26.5147372,17.1496524 26.7455895,17.1917287 26.9974283,17.2197796 C27.2492671,17.2408178 27.5220925,17.2548432 27.8019134,17.2548432 C28.879224,17.2548432 29.7186867,17.0023853 30.3063106,16.511495 C30.8939345,16.0206047 31.194742,15.2982947 31.194742,14.3445649 C31.194742,13.8887382 31.1177913,13.4820005 30.9638898,13.14539 C30.8099883,12.8087794 30.5861315,12.5282707 30.2993151,12.3038637 C30.0124987,12.0864694 29.669718,11.9251769 29.2709732,11.8129734 C28.8722284,11.7007699 28.438506,11.6446681 27.9558149,11.6446681 C27.5710612,11.6446681 27.2422716,11.6586936 26.9624507,11.6867444 C26.6896253,11.7147953 26.4657686,11.7498589 26.297876,11.7849225 L26.3118671,17.0935507 Z M37.9988969,18.2188918 C37.5332875,18.2049598 37.0390252,18.2258578 36.5375997,18.2746199 C36.029011,18.3233819 35.5562384,18.427872 35.1336084,18.5741581 C34.7038151,18.7343762 34.3528173,18.9572884 34.0662884,19.2637927 C33.7869228,19.5633309 33.6436584,19.9673593 33.6436584,20.4689117 C33.6436584,21.0610222 33.8227389,21.4998806 34.1809,21.7854868 C34.539061,22.0710931 34.9330382,22.2034472 35.3771579,22.2034472 C35.735319,22.2034472 36.0505007,22.1546851 36.3370296,22.0641271 C36.6163952,21.966603 36.8671079,21.8412149 37.0748413,21.6879627 C37.2825747,21.5277446 37.4616553,21.3535945 37.5977565,21.1585463 C37.7410209,20.9565321 37.841306,20.761484 37.9272647,20.5455378 C37.9845704,20.3086936 38.0203865,20.1484754 38.0203865,20.0370193 L37.9988969,18.2188918 Z" id="path-3"></path>
    </defs>
    <g id="Icons" stroke="none" stroke-width="1" fill="none" fill-rule="evenodd">
        <g id="Bonds/Icons/Offers/Benefits/Apple-Pay">
            <g id="Global/Outline/Rounded">
                <g id="Outline">
                    <mask id="mask-2" fill="white">
                        <use xlink:href="#path-1"></use>
                    </mask>
                    <g id="Rectangle" fill-rule="nonzero"></g>
                    <g id="Bonds/Colours/General/Light-Grey" mask="url(#mask-2)" fill="#C4C8CB">
                        <rect id="Rectangle-3" x="0" y="0" width="58" height="34"></rect>
                    </g>
                </g>
            </g>
            <mask id="mask-4" fill="white">
                <use xlink:href="#path-3"></use>
            </mask>
            <g id="Combined-Shape" fill-rule="nonzero"></g>
            <g id="Bonds/Colours/General/Light-Grey" mask="url(#mask-4)" fill="#C4C8CB">
                <rect id="Rectangle-3" x="0" y="0" width="58" height="34"></rect>
            </g>
        </g>
    </g>
</svg>