<?xml version="1.0" encoding="UTF-8"?>
<svg width="58px" height="34px" viewBox="0 0 58 34" version="1.1" xmlns="http://www.w3.org/2000/svg" xmlns:xlink="http://www.w3.org/1999/xlink">
    <!-- Generator: Sketch 48.2 (47327) - http://www.bohemiancoding.com/sketch -->
    <title>Bonds/Icons/Offers/Benefits/Contactless</title>
    <desc>Created with Sketch.</desc>
    <defs>
        <path d="M58,6.953125 L58,28 L57.9765625,28 L57.9765625,28.9765625 C57.9765625,31.7379862 55.7379862,33.9765625 52.9765625,33.9765625 L52,33.9765625 L52,34 L6,34 L6,33.953125 L5,33.953125 C2.23857625,33.953125 9.76996262e-15,31.7145487 8.8817842e-15,28.953125 L6.21724894e-15,27 L7.10542736e-15,7 L1.76400872e-15,5 C2.060245e-15,2.23857625 2.23857625,7.8817842e-16 5,7.8817842e-16 L6.953125,-1.87635684e-15 L51,-1e-16 L53,2.09276414e-16 C55.7614237,3.36424258e-16 58,2.23857625 58,5 L58,6.953125 Z M57,6.953125 L57,5 C57,2.790861 55.209139,1 53,1 L51,1 L6.953125,1 L5,1 C2.790861,1 1,2.790861 1,5 L1,7 L1,27 L1,28.953125 C1,31.162264 2.790861,32.953125 5,32.953125 L7,32.953125 L7,33 L51.0234375,33 L51.0234375,32.9765625 L52.9765625,32.9765625 C55.1857015,32.9765625 56.9765625,31.1857015 56.9765625,28.9765625 L56.9765625,26.9765625 L57,26.9765625 L57,6.953125 Z" id="path-1"></path>
        <path d="M32.1114946,27.9465827 C31.7628448,27.8430344 31.4099431,27.4245267 31.337662,27.023277 C31.2908919,26.7600917 31.3461657,26.5788822 31.7160747,25.8583585 C33.208466,22.9331189 33.8547438,20.2365485 33.8547438,16.9704624 C33.8547438,13.812239 33.2807471,11.3529668 31.856385,8.40615462 C31.5502534,7.77192125 31.2993956,7.18514752 31.2993956,7.10317178 C31.2993956,6.78821235 31.558757,6.33518852 31.8393777,6.15829349 C32.2220421,5.91236627 32.8683199,5.95982591 33.1744514,6.25321277 C33.2935026,6.36539011 33.5996341,6.87881712 33.8589956,7.39224413 C34.8794342,9.42437962 35.5767338,11.6549827 35.9211318,13.971876 C36.1337232,15.4086087 36.1762415,18.1310663 36.0061684,19.4426781 C35.6915332,21.8674343 35.0622627,24.0333197 34.0503278,26.1517454 C33.4380647,27.4331557 33.0554003,27.9595262 32.7365132,27.9595262 C32.6727358,27.9595262 32.5664401,27.9767843 32.5026627,27.9940423 C32.4388853,28.0113004 32.2603086,27.9897278 32.1114946,27.9465827 Z M27.9617112,25.7418667 C27.4259809,25.5822297 27.0433165,24.9177948 27.1963822,24.4216258 C27.2346487,24.3008194 27.4855065,23.7442473 27.7533716,23.1876752 C28.8971132,20.8233222 29.369066,18.2907032 29.1394673,15.8055439 C28.9481351,13.7604649 28.5867298,12.4747401 27.6768387,10.5849835 C27.0688274,9.32083131 27.0390646,9.12236373 27.3919663,8.61325123 C27.7278607,8.1300258 28.5697225,8.05236458 29.0119125,8.46224328 C29.3180441,8.74700112 30.2704534,10.7661931 30.6403624,11.9095389 C31.856385,15.6933666 31.6735564,19.7576376 30.1131358,23.4767475 C29.3137922,25.3880767 28.752551,25.9748504 27.9617112,25.7418667 Z M23.6801211,23.5069491 C23.3484786,23.3559412 23.0678579,23.0021511 22.9913251,22.6440466 C22.944555,22.4283209 23.0253397,22.1867082 23.4165078,21.3842089 C24.8536254,18.4287676 24.8706327,15.5855038 23.4632779,12.6990948 C22.8467629,11.430628 22.8340074,11.1803863 23.3527304,10.6799028 C23.6120918,10.4339756 23.7183875,10.3908305 24.0797928,10.3908305 C24.6878041,10.3908305 25.0024394,10.7014754 25.5424214,11.8318777 C26.3757796,13.5706263 26.7159258,15.0807058 26.7159258,17.009293 C26.7116739,18.9939688 26.3927869,20.3573548 25.504155,22.1910227 C24.9939357,23.2394493 24.7430779,23.5198926 24.2286068,23.5889249 C24.075541,23.6148119 23.828935,23.5759813 23.6801211,23.5069491 Z M19.6876553,21.427354 C19.4282938,21.3194912 19.1264141,20.9570721 19.0413775,20.6421127 C18.9435855,20.2926371 19.0243702,20.0121938 19.4155383,19.3607024 C19.9215058,18.5193724 20.0363051,18.0663486 20.0363051,16.9661478 C20.0363051,15.8659471 19.9172539,15.4129233 19.4155383,14.5715933 C19.2454652,14.2868354 19.0711403,13.9459889 19.0328739,13.812239 C18.8713044,13.2556669 19.3262499,12.5782884 19.9385131,12.4617966 C20.457236,12.3625628 20.8143895,12.599861 21.2905941,13.3549007 C22.672438,15.5423586 22.672438,18.4632837 21.2905941,20.6334836 C20.801634,21.3971524 20.2574001,21.6689667 19.6876553,21.427354 Z" id="path-3"></path>
    </defs>
    <g id="Icons" stroke="none" stroke-width="1" fill="none" fill-rule="evenodd">
        <g id="Bonds/Icons/Offers/Benefits/Contactless">
            <g id="Global/Outline/Rounded">
                <g id="Outline">
                    <mask id="mask-2" fill="white">
                        <use xlink:href="#path-1"></use>
                    </mask>
                    <g id="Rectangle" fill-rule="nonzero"></g>
                    <g id="Bonds/Colours/General/Light-Grey" mask="url(#mask-2)" fill="#C4C8CB">
                        <rect id="Rectangle-3" x="0" y="0" width="58" height="34"></rect>
                    </g>
                </g>
            </g>
            <mask id="mask-4" fill="white">
                <use xlink:href="#path-3"></use>
            </mask>
            <g id="Shape" fill-rule="nonzero"></g>
            <g id="Bonds/Colours/General/Light-Grey" mask="url(#mask-4)" fill="#C4C8CB">
                <rect id="Rectangle-3" x="0" y="0" width="58" height="34"></rect>
            </g>
        </g>
    </g>
</svg>