<?xml version="1.0" encoding="UTF-8"?>
<svg width="58px" height="34px" viewBox="0 0 58 34" version="1.1" xmlns="http://www.w3.org/2000/svg" xmlns:xlink="http://www.w3.org/1999/xlink">
    <!-- Generator: Sketch 48.2 (47327) - http://www.bohemiancoding.com/sketch -->
    <title>Bonds/Icons/Offers/Benefits/Home Cover</title>
    <desc>Created with Sketch.</desc>
    <defs>
        <path d="M58,6.953125 L58,28 L57.9765625,28 L57.9765625,28.9765625 C57.9765625,31.7379862 55.7379862,33.9765625 52.9765625,33.9765625 L52,33.9765625 L52,34 L6,34 L6,33.953125 L5,33.953125 C2.23857625,33.953125 9.76996262e-15,31.7145487 8.8817842e-15,28.953125 L6.21724894e-15,27 L7.10542736e-15,7 L1.76400872e-15,5 C2.060245e-15,2.23857625 2.23857625,7.8817842e-16 5,7.8817842e-16 L6.953125,-1.87635684e-15 L51,-1e-16 L53,2.09276414e-16 C55.7614237,3.36424258e-16 58,2.23857625 58,5 L58,6.953125 Z M57,6.953125 L57,5 C57,2.790861 55.209139,1 53,1 L51,1 L6.953125,1 L5,1 C2.790861,1 1,2.790861 1,5 L1,7 L1,27 L1,28.953125 C1,31.162264 2.790861,32.953125 5,32.953125 L7,32.953125 L7,33 L51.0234375,33 L51.0234375,32.9765625 L52.9765625,32.9765625 C55.1857015,32.9765625 56.9765625,31.1857015 56.9765625,28.9765625 L56.9765625,26.9765625 L57,26.9765625 L57,6.953125 Z" id="path-1"></path>
        <path d="M28.4937785,12.1909473 C29.9034291,13.3323161 30.8336844,15.2025789 30.8450985,15.6320048 L30.8450985,23.1187065 C30.8450985,23.9436563 30.1260055,24.6160468 29.2528211,24.6160468 L16.0922774,24.6160468 C15.2076788,24.6160468 14.5,23.9436563 14.5,23.1187065 L14.5,15.6320048 C14.5,14.7901041 18.5919817,9.78955239 22.6611351,9.77260136 C23.7283605,9.77260136 24.7955858,10.0607687 25.7943261,10.512796 L25.7943261,10.2415797 C25.7943261,9.97036329 26.0169025,9.75 26.2908427,9.75 L27.9972619,9.75 C28.2712021,9.75 28.4937785,9.97036329 28.4937785,10.2415797 L28.4937785,12.1909473 Z M26.3250853,23.5198807 L26.3307923,23.5198807 L26.3307923,19.1069645 C26.3307923,18.8357481 26.1082159,18.6153848 25.8342757,18.6153848 L24.1963416,18.6153848 C23.9224014,18.6153848 23.699825,18.8357481 23.699825,19.1069645 L23.699825,23.5198807 L26.3250853,23.5198807 Z M29.7265094,23.1074058 L29.7265094,16.247892 C29.7265094,16.0275287 29.5153472,15.8467178 29.241407,15.8467178 L16.0808632,15.8467178 C15.806923,15.8467178 15.5957608,16.016228 15.5957608,16.247892 L15.5957608,23.1074058 C15.5957608,23.3277691 15.806923,23.50858 16.0808632,23.50858 L22.849469,23.50858 L22.849469,18.1181548 C22.849469,17.8469385 23.0720454,17.6265752 23.3459856,17.6265752 L26.6618034,17.6265752 C26.9357436,17.6265752 27.15832,17.8469385 27.15832,18.1181548 L27.15832,23.50858 L29.2299928,23.50858 C29.503933,23.50858 29.7150952,23.3390698 29.7265094,23.1074058 Z M19.259711,17.9486446 C20.0130465,17.9486446 20.6179978,18.5419304 20.6179978,19.3047264 L20.6179978,19.3216774 C20.6179978,20.0618721 20.0187536,20.6664586 19.259711,20.6664586 C18.5006683,20.6664586 17.9014241,20.0618721 17.9014241,19.3216774 L17.9014241,19.2934257 C17.9014241,18.5419304 18.5120825,17.9486446 19.259711,17.9486446 Z M40.0272954,24.2168017 C39.6520638,24.0538112 39.3287873,23.6716266 39.253741,23.2838216 C39.2075587,23.0477664 39.2941506,22.7892297 39.7328829,21.9180736 C41.3608108,18.7088468 41.3781292,15.6288884 39.7790653,12.503967 C39.0805572,11.1269783 39.0632388,10.8628213 39.6520638,10.3176461 C39.9464763,10.0478688 40.0619322,10.0029059 40.4775734,10.0029059 C41.1645359,10.0029059 41.5166763,10.3345072 42.1343653,11.5709869 C43.0753307,13.4538082 43.4563351,15.094954 43.4563351,17.1857287 C43.4563351,19.332707 43.0926491,20.8108622 42.0824101,22.8060908 C41.5051307,23.941404 41.2222638,24.2449035 40.6392116,24.3235886 C40.4660278,24.3292089 40.1889337,24.2954868 40.0272954,24.2168017 Z M35.5129704,21.9630365 C35.2185579,21.8506292 34.8779631,21.4572039 34.7855984,21.1143618 C34.6759153,20.7321772 34.76828,20.4286776 35.2070124,19.720512 C35.778519,18.804393 35.9112932,18.3154215 35.9112932,17.1239047 C35.9112932,15.9323879 35.7727462,15.4434164 35.2070124,14.5272974 C35.0107374,14.2237978 34.8144624,13.8472336 34.7740528,13.7067245 C34.5893234,13.1053458 35.1088749,12.3690783 35.7958374,12.2454304 C36.3846624,12.1386435 36.7887579,12.3971801 37.3256278,13.2121326 C38.8842822,15.5783051 38.8842822,18.7481893 37.3256278,21.1031211 C36.7714396,21.9349347 36.1537506,22.2215731 35.5129704,21.9630365 Z" id="path-3"></path>
    </defs>
    <g id="Icons" stroke="none" stroke-width="1" fill="none" fill-rule="evenodd">
        <g id="Bonds/Icons/Offers/Benefits/Home-Cover">
            <g id="Global/Outline/Rounded">
                <g id="Outline">
                    <mask id="mask-2" fill="white">
                        <use xlink:href="#path-1"></use>
                    </mask>
                    <g id="Rectangle" fill-rule="nonzero"></g>
                    <g id="Bonds/Colours/General/Light-Grey" mask="url(#mask-2)" fill="#C4C8CB">
                        <rect id="Rectangle-3" x="0" y="0" width="58" height="34"></rect>
                    </g>
                </g>
            </g>
            <mask id="mask-4" fill="white">
                <use xlink:href="#path-3"></use>
            </mask>
            <g id="Shape" fill-rule="nonzero"></g>
            <g id="Bonds/Colours/General/Light-Grey" mask="url(#mask-4)" fill="#C4C8CB">
                <rect id="Rectangle-3" x="0" y="0" width="58" height="34"></rect>
            </g>
        </g>
    </g>
</svg>