<?xml version="1.0" encoding="UTF-8"?>
<svg width="58px" height="34px" viewBox="0 0 58 34" version="1.1" xmlns="http://www.w3.org/2000/svg" xmlns:xlink="http://www.w3.org/1999/xlink">
    <!-- Generator: Sketch 48.2 (47327) - http://www.bohemiancoding.com/sketch -->
    <title>Bonds/Icons/Offers/Benefits/Instant</title>
    <desc>Created with Sketch.</desc>
    <defs>
        <path d="M58,6.953125 L58,28 L57.9765625,28 L57.9765625,28.9765625 C57.9765625,31.7379862 55.7379862,33.9765625 52.9765625,33.9765625 L52,33.9765625 L52,34 L6,34 L6,33.953125 L5,33.953125 C2.23857625,33.953125 9.76996262e-15,31.7145487 8.8817842e-15,28.953125 L6.21724894e-15,27 L7.10542736e-15,7 L1.76400872e-15,5 C2.060245e-15,2.23857625 2.23857625,7.8817842e-16 5,7.8817842e-16 L6.953125,-1.87635684e-15 L51,-1e-16 L53,2.09276414e-16 C55.7614237,3.36424258e-16 58,2.23857625 58,5 L58,6.953125 Z M57,6.953125 L57,5 C57,2.790861 55.209139,1 53,1 L51,1 L6.953125,1 L5,1 C2.790861,1 1,2.790861 1,5 L1,7 L1,27 L1,28.953125 C1,31.162264 2.790861,32.953125 5,32.953125 L7,32.953125 L7,33 L51.0234375,33 L51.0234375,32.9765625 L52.9765625,32.9765625 C55.1857015,32.9765625 56.9765625,31.1857015 56.9765625,28.9765625 L56.9765625,26.9765625 L57,26.9765625 L57,6.953125 Z" id="path-1"></path>
        <path d="M38.5247059,14.4462745 L38.5247059,11.5 L35.9709804,10.0247059 L34.4956863,7.47098039 L31.5494118,7.47098039 L29,6 L26.4462745,7.47529412 L23.5,7.47529412 L22.0247059,10.0247059 L19.4709804,11.5 L19.4709804,14.4462745 L18,17 L19.4752941,19.5537255 L19.4752941,22.5 L22.0290196,23.9752941 L23.5043137,26.5290196 L26.4505882,26.5290196 L29,28 L31.5537255,26.5247059 L34.5,26.5247059 L35.9752941,23.9709804 L38.5290196,22.4956863 L38.5290196,19.5494118 L40,17 L38.5247059,14.4462745 Z M34.5993862,15.2635081 L29.0757779,20.608198 C28.8161023,20.8594623 28.468401,21 28.0986934,21 C27.7289858,21 27.3856858,20.8594623 27.1216089,20.608198 L24.4060182,17.9763109 C23.8646606,17.4567474 23.8646606,16.6092627 24.4060182,16.0896992 C24.9253694,15.5829119 25.8364347,15.5829119 26.3557859,16.0896992 L28.0986934,17.7761512 L32.6452172,13.3768965 C33.1645684,12.8743678 34.0756337,12.8743678 34.5949849,13.3768965 C34.8546605,13.6281608 34.9999028,13.9645994 34.9999028,14.3223316 C35.0043041,14.6758052 34.8590618,15.0122438 34.5993862,15.2635081 Z" id="path-3"></path>
    </defs>
    <g id="Icons" stroke="none" stroke-width="1" fill="none" fill-rule="evenodd">
        <g id="Bonds/Icons/Offers/Benefits/Instant">
            <g id="Global/Outline/Rounded">
                <g id="Outline">
                    <mask id="mask-2" fill="white">
                        <use xlink:href="#path-1"></use>
                    </mask>
                    <g id="Rectangle" fill-rule="nonzero"></g>
                    <g id="Bonds/Colours/General/Light-Grey" mask="url(#mask-2)" fill="#C4C8CB">
                        <rect id="Rectangle-3" x="0" y="0" width="58" height="34"></rect>
                    </g>
                </g>
            </g>
            <mask id="mask-4" fill="white">
                <use xlink:href="#path-3"></use>
            </mask>
            <g id="Shape" fill-rule="nonzero"></g>
            <g id="Bonds/Colours/General/Light-Grey" mask="url(#mask-4)" fill="#C4C8CB">
                <rect id="Rectangle-3" x="0" y="0" width="58" height="34"></rect>
            </g>
        </g>
    </g>
</svg>