<?xml version="1.0" encoding="UTF-8"?>
<svg width="58px" height="34px" viewBox="0 0 58 34" version="1.1" xmlns="http://www.w3.org/2000/svg" xmlns:xlink="http://www.w3.org/1999/xlink">
    <!-- Generator: Sketch 48.2 (47327) - http://www.bohemiancoding.com/sketch -->
    <title>Bonds/Icons/Offers/Benefits/Mastercard</title>
    <desc>Created with Sketch.</desc>
    <defs>
        <path d="M58,6.953125 L58,28 L57.9765625,28 L57.9765625,28.9765625 C57.9765625,31.7379862 55.7379862,33.9765625 52.9765625,33.9765625 L52,33.9765625 L52,34 L6,34 L6,33.953125 L5,33.953125 C2.23857625,33.953125 9.76996262e-15,31.7145487 8.8817842e-15,28.953125 L6.21724894e-15,27 L7.10542736e-15,7 L1.76400872e-15,5 C2.060245e-15,2.23857625 2.23857625,7.8817842e-16 5,7.8817842e-16 L6.953125,-1.87635684e-15 L51,-1e-16 L53,2.09276414e-16 C55.7614237,3.36424258e-16 58,2.23857625 58,5 L58,6.953125 Z M57,6.953125 L57,5 C57,2.790861 55.209139,1 53,1 L51,1 L6.953125,1 L5,1 C2.790861,1 1,2.790861 1,5 L1,7 L1,27 L1,28.953125 C1,31.162264 2.790861,32.953125 5,32.953125 L7,32.953125 L7,33 L51.0234375,33 L51.0234375,32.9765625 L52.9765625,32.9765625 C55.1857015,32.9765625 56.9765625,31.1857015 56.9765625,28.9765625 L56.9765625,26.9765625 L57,26.9765625 L57,6.953125 Z" id="path-1"></path>
        <path d="M35.2060784,8 C32.8354902,8 30.6533333,8.87150497 28.9696078,10.3603259 C27.3466667,8.87150497 25.1645098,8 22.7939216,8 C17.6819608,8 13.5,12.1638571 13.5,17.2536881 C13.5,22.3435192 17.6819608,26.5073763 22.7939216,26.5073763 C25.1645098,26.5073763 27.3466667,25.6358713 28.9696078,24.1470503 C30.592549,25.6358713 32.7747059,26.5073763 35.2060784,26.5073763 C40.3180392,26.5073763 44.5,22.3435192 44.5,17.2536881 C44.5,12.1638571 40.3180392,8 35.2060784,8 Z M19.7972549,18.5548935 C19.7972549,18.8030303 19.924902,18.9301248 20.1741176,18.9301248 C20.6117647,18.9301248 20.8609804,18.5548935 20.9217647,17.9980986 C20.7941176,17.9980986 20.7941176,17.9980986 20.672549,17.9980986 C20.1133333,17.9980986 19.7972549,18.1857143 19.7972549,18.5548935 Z M17.4266667,19.7350564 L17.9858824,16.1340463 L16.6790196,19.7350564 L15.9921569,19.7350564 L15.9313725,16.1340463 L15.3113725,19.7350564 L14.3752941,19.7350564 L15.1837255,15.0144045 L16.6182353,15.0144045 L16.6790196,17.9315253 L17.6758824,15.0144045 L19.2380392,15.0144045 L18.4296078,19.7350564 L17.4266667,19.7350564 Z M20.8001961,19.7350564 L20.8001961,19.3598251 C20.5509804,19.6684832 20.1741176,19.7955776 19.742549,19.7955776 C19.1833333,19.7955776 18.8064706,19.3598251 18.8064706,18.7425091 C18.8064706,17.810483 19.432549,17.2536881 20.5509804,17.2536881 C20.6786275,17.2536881 20.8001961,17.2536881 20.9886275,17.2536881 C21.0494118,17.1265937 21.0494118,17.0660725 21.0494118,17.0055513 C21.0494118,16.7574145 20.8609804,16.63032 20.4233333,16.63032 C19.924902,16.63032 19.5480392,16.7574145 19.3656863,16.8179357 C19.3656863,16.7574145 19.4933333,15.9464307 19.4933333,15.9464307 C19.9917647,15.8193362 20.3017647,15.758815 20.6786275,15.758815 C21.5539216,15.758815 21.9854902,16.1340463 21.9854902,16.8784568 C21.9854902,17.0660725 21.9854902,17.3142093 21.9247059,17.6228673 C21.8639216,18.1796622 21.6754902,19.3598251 21.6147059,19.6745353 C21.4809804,19.7350564 20.8001961,19.7350564 20.8001961,19.7350564 Z M23.7907843,17.4413038 C24.2892157,17.6894406 24.4776471,17.9980986 24.4776471,18.4943723 C24.4776471,19.3658773 23.9792157,19.7955776 22.9154902,19.7955776 C22.2894118,19.7955776 22.1070588,19.7350564 21.8578431,19.6684832 C21.8578431,19.607962 21.9854902,18.7969782 21.9854902,18.7969782 C22.2954902,18.9240727 22.6115686,18.9240727 22.9215686,18.9240727 C23.2984314,18.9240727 23.4807843,18.7969782 23.4807843,18.5488414 C23.4807843,18.3612257 23.42,18.3007045 22.9823529,18.1130889 C22.4231373,17.864952 22.2347059,17.556294 22.2347059,17.0600204 C22.2347059,16.3761311 22.6115686,15.758815 23.73,15.758815 C23.9792157,15.758815 24.3560784,15.8193362 24.6052941,15.8193362 L24.4776471,16.6908412 C24.2284314,16.63032 23.9792157,16.63032 23.73,16.63032 C23.42,16.63032 23.2315686,16.7574145 23.2315686,16.938978 C23.2923529,17.193167 23.3531373,17.2536881 23.7907843,17.4413038 Z M25.9729412,18.8696036 C26.1005882,18.8696036 26.1613725,18.8696036 26.2221569,18.8090824 L26.0945098,19.6805874 C25.8452941,19.7411086 25.5960784,19.8076819 25.3468627,19.8076819 C24.8484314,19.8076819 24.5384314,19.4990239 24.5384314,18.9361769 C24.5384314,18.7485612 24.5992157,18.3128088 24.6660784,17.9436296 C24.7268627,17.5683983 25.1037255,15.3351668 25.1037255,15.3351668 L26.1005882,15.3351668 L25.9729412,15.8919616 L26.4713725,15.8919616 L26.3437255,16.8239878 L25.8452941,16.8239878 C25.7176471,17.5683983 25.5352941,18.4399032 25.5352941,18.5609456 C25.6629412,18.7425091 25.7905882,18.8696036 25.9729412,18.8696036 Z M28.3435294,18.9301248 C28.7203922,18.9301248 29.0303922,18.8696036 29.4011765,18.6819879 L29.2127451,19.6140141 C28.8358824,19.7411086 28.5258824,19.7411086 28.155098,19.7411086 C27.0305882,19.7411086 26.4713725,19.1843137 26.4713725,18.0646719 C26.4713725,16.7634666 27.2190196,15.7648672 28.2158824,15.7648672 C29.0243137,15.7648672 29.5896078,16.321662 29.5896078,17.1326458 C29.5896078,17.4413038 29.5288235,17.6894406 29.4619608,18.0646719 L27.4682353,18.0646719 C27.407451,18.6819879 27.7843137,18.9301248 28.3435294,18.9301248 Z M30.592549,19.7350564 L29.5956863,19.7350564 L29.6564706,19.4869196 C29.844902,18.3067566 30.0333333,17.1265937 30.154902,15.9464307 L31.0909804,15.9464307 C31.0909804,16.1340463 31.0301961,16.321662 31.0301961,16.5032255 C31.3401961,16.067473 31.5894118,15.8193362 32.0270588,15.8798574 C31.8994118,16.067473 31.7170588,16.5032255 31.6501961,16.9994992 C31.0301961,16.9450301 30.9633333,17.3807826 30.592549,19.7350564 Z M34.4584314,19.6745353 C34.0815686,19.8016297 33.8323529,19.8016297 33.5831373,19.8016297 C32.5254902,19.8016297 31.8386275,18.9966981 31.8386275,17.7499618 C31.8386275,16.0735252 32.7747059,14.8933622 34.1484314,14.8933622 C34.5860784,14.8933622 35.0845098,15.0809778 35.2729412,15.141499 L35.0845098,16.1340463 C34.7076471,15.9464307 34.4584314,15.8859095 34.2092157,15.8859095 C33.4615686,15.8859095 32.9023529,16.63032 32.9023529,17.6228673 C32.9023529,18.3067566 33.2792157,18.7425091 33.8384314,18.7425091 C34.0876471,18.7425091 34.3368627,18.6819879 34.7137255,18.4943723 L34.4584314,19.6745353 Z M37.5766667,19.7350564 C37.4490196,19.7350564 36.7682353,19.7350564 36.7682353,19.7350564 L36.7682353,19.3598251 C36.5190196,19.6684832 36.1421569,19.7955776 35.7105882,19.7955776 C35.1513725,19.7955776 34.7745098,19.3598251 34.7745098,18.7425091 C34.7745098,17.810483 35.4005882,17.2536881 36.5190196,17.2536881 C36.6466667,17.2536881 36.7682353,17.2536881 36.9566667,17.2536881 C37.017451,17.1265937 37.017451,17.0660725 37.017451,17.0055513 C37.017451,16.7574145 36.8290196,16.63032 36.3913725,16.63032 C35.8929412,16.63032 35.5160784,16.7574145 35.3337255,16.8179357 C35.3337255,16.7574145 35.4613725,15.9464307 35.4613725,15.9464307 C35.9598039,15.8193362 36.2698039,15.758815 36.6466667,15.758815 C37.5219608,15.758815 37.9535294,16.1340463 37.9535294,16.8784568 C37.9535294,17.0660725 37.9535294,17.3142093 37.8927451,17.6228673 C37.765098,18.2462355 37.5766667,19.4263984 37.5766667,19.7350564 Z M38.9503922,19.7350564 L37.9535294,19.7350564 L38.0143137,19.4869196 C38.2027451,18.3067566 38.3911765,17.1265937 38.5127451,15.9464307 L39.4488235,15.9464307 C39.4488235,16.1340463 39.3880392,16.321662 39.3880392,16.5032255 C39.6980392,16.067473 39.9472549,15.8193362 40.384902,15.8798574 C40.2572549,16.067473 40.074902,16.5032255 40.0080392,16.9994992 C39.3880392,16.9450301 39.2603922,17.3807826 38.9503922,19.7350564 Z M41.9409804,19.7350564 L42.0017647,19.3598251 C41.752549,19.6684832 41.442549,19.7955776 41.0656863,19.7955776 C40.3180392,19.7955776 39.8196078,19.1722095 39.8196078,18.1796622 C39.8196078,16.938978 40.5672549,15.8193362 41.442549,15.8193362 C41.8194118,15.8193362 42.1294118,16.0069519 42.3786275,16.3156099 L42.6278431,14.9478313 L43.6247059,14.9478313 L42.8770588,19.6684832 L41.9409804,19.6684832 L41.9409804,19.7350564 Z M35.7652941,18.5548935 C35.7652941,18.1857143 36.0145098,17.9980986 36.6405882,17.9980986 C36.7621569,17.9980986 36.7621569,17.9980986 36.8898039,17.9980986 C36.8290196,18.5548935 36.5798039,18.9301248 36.1421569,18.9301248 C35.8929412,18.9301248 35.7652941,18.8030303 35.7652941,18.5548935 Z M28.155098,16.6968933 C28.7811765,16.6968933 28.6596078,17.2536881 28.6535294,17.3807826 L27.5290196,17.3807826 C27.5958824,16.9450301 27.845098,16.6968933 28.155098,16.6968933 Z M41.6917647,16.8179357 C41.2541176,16.8179357 40.8833333,17.3747305 40.8833333,18.119141 C40.8833333,18.6154147 41.0717647,18.8635515 41.3817647,18.8635515 C41.8801961,18.8635515 42.1901961,18.3067566 42.1901961,17.5623462 C42.2570588,17.0660725 42.0686275,16.8179357 41.6917647,16.8179357 Z" id="path-3"></path>
    </defs>
    <g id="Icons" stroke="none" stroke-width="1" fill="none" fill-rule="evenodd">
        <g id="Bonds/Icons/Offers/Benefits/Mastercard">
            <g id="Global/Outline/Rounded">
                <g id="Outline">
                    <mask id="mask-2" fill="white">
                        <use xlink:href="#path-1"></use>
                    </mask>
                    <g id="Rectangle" fill-rule="nonzero"></g>
                    <g id="Bonds/Colours/General/Light-Grey" mask="url(#mask-2)" fill="#C4C8CB">
                        <rect id="Rectangle-3" x="0" y="0" width="58" height="34"></rect>
                    </g>
                </g>
            </g>
            <mask id="mask-4" fill="white">
                <use xlink:href="#path-3"></use>
            </mask>
            <g id="Shape" fill-rule="nonzero"></g>
            <g id="Bonds/Colours/General/Light-Grey" mask="url(#mask-4)" fill="#C4C8CB">
                <rect id="Rectangle-3" x="0" y="0" width="58" height="34"></rect>
            </g>
        </g>
    </g>
</svg>