<?xml version="1.0" encoding="UTF-8"?>
<svg width="58px" height="34px" viewBox="0 0 58 34" version="1.1" xmlns="http://www.w3.org/2000/svg" xmlns:xlink="http://www.w3.org/1999/xlink">
    <!-- Generator: Sketch 48.2 (47327) - http://www.bohemiancoding.com/sketch -->
    <title>Bonds/Icons/Offers/Benefits/Own Design</title>
    <desc>Created with Sketch.</desc>
    <defs>
        <path d="M58,6.953125 L58,28 L57.9765625,28 L57.9765625,28.9765625 C57.9765625,31.7379862 55.7379862,33.9765625 52.9765625,33.9765625 L52,33.9765625 L52,34 L6,34 L6,33.953125 L5,33.953125 C2.23857625,33.953125 9.76996262e-15,31.7145487 8.8817842e-15,28.953125 L6.21724894e-15,27 L7.10542736e-15,7 L1.76400872e-15,5 C2.060245e-15,2.23857625 2.23857625,7.8817842e-16 5,7.8817842e-16 L6.953125,-1.87635684e-15 L51,-1e-16 L53,2.09276414e-16 C55.7614237,3.36424258e-16 58,2.23857625 58,5 L58,6.953125 Z M57,6.953125 L57,5 C57,2.790861 55.209139,1 53,1 L51,1 L6.953125,1 L5,1 C2.790861,1 1,2.790861 1,5 L1,7 L1,27 L1,28.953125 C1,31.162264 2.790861,32.953125 5,32.953125 L7,32.953125 L7,33 L51.0234375,33 L51.0234375,32.9765625 L52.9765625,32.9765625 C55.1857015,32.9765625 56.9765625,31.1857015 56.9765625,28.9765625 L56.9765625,26.9765625 L57,26.9765625 L57,6.953125 Z" id="path-1"></path>
        <path d="M38.0851129,7.91105777 C36.7345253,6.56053034 34.7333498,6.77809251 33.3827622,8.124515 L24.3033549,19.6142605 C24.3033549,19.6142605 19.4486513,19.429538 20.5274743,22.7258101 C21.6062973,26.0302921 17.8098286,25.7881002 18.0074756,26.1616504 C18.2092402,26.5352005 21.2933563,27.2864058 24.1674726,26.2026999 C27.0374712,25.1189939 26.4857067,21.9335554 26.4857067,21.9335554 L37.8668777,12.5948019 C39.2257006,11.2524843 39.4398181,9.25748026 38.0851129,7.91105777 Z M25.5301596,20.5882353 L25.4117647,20.328947 L32.0883935,11.9411765 L34.0588235,13.8508553 L25.5301596,20.5882353 Z M37.1396862,11.0499073 L36.0295325,11.9411765 L34.0588235,10.0113209 L34.9193789,8.91380755 C35.563864,8.27297764 36.3908913,7.97834319 37.1173341,8.51236812 C38.037495,9.18266148 37.9145585,10.2838577 37.1396862,11.0499073 Z" id="path-3"></path>
    </defs>
    <g id="Icons" stroke="none" stroke-width="1" fill="none" fill-rule="evenodd">
        <g id="Bonds/Icons/Offers/Benefits/Own-Design">
            <g id="Global/Outline/Rounded">
                <g id="Outline">
                    <mask id="mask-2" fill="white">
                        <use xlink:href="#path-1"></use>
                    </mask>
                    <g id="Rectangle" fill-rule="nonzero"></g>
                    <g id="Bonds/Colours/General/Light-Grey" mask="url(#mask-2)" fill="#C4C8CB">
                        <rect id="Rectangle-3" x="0" y="0" width="58" height="34"></rect>
                    </g>
                </g>
            </g>
            <mask id="mask-4" fill="white">
                <use xlink:href="#path-3"></use>
            </mask>
            <g id="Shape" fill-rule="nonzero"></g>
            <g id="Bonds/Colours/General/Light-Grey" mask="url(#mask-4)" fill="#C4C8CB">
                <rect id="Rectangle-3" x="0" y="0" width="58" height="34"></rect>
            </g>
        </g>
    </g>
</svg>