<?xml version="1.0" encoding="UTF-8"?>
<svg width="58px" height="34px" viewBox="0 0 58 34" version="1.1" xmlns="http://www.w3.org/2000/svg" xmlns:xlink="http://www.w3.org/1999/xlink">
    <!-- Generator: Sketch 48.2 (47327) - http://www.bohemiancoding.com/sketch -->
    <title>Bonds/Icons/Offers/Benefits/Visa</title>
    <desc>Created with Sketch.</desc>
    <defs>
        <path d="M58,6.953125 L58,28 L57.9765625,28 L57.9765625,28.9765625 C57.9765625,31.7379862 55.7379862,33.9765625 52.9765625,33.9765625 L52,33.9765625 L52,34 L6,34 L6,33.953125 L5,33.953125 C2.23857625,33.953125 9.76996262e-15,31.7145487 8.8817842e-15,28.953125 L6.21724894e-15,27 L7.10542736e-15,7 L1.76400872e-15,5 C2.060245e-15,2.23857625 2.23857625,7.8817842e-16 5,7.8817842e-16 L6.953125,-1.87635684e-15 L51,-1e-16 L53,2.09276414e-16 C55.7614237,3.36424258e-16 58,2.23857625 58,5 L58,6.953125 Z M57,6.953125 L57,5 C57,2.790861 55.209139,1 53,1 L51,1 L6.953125,1 L5,1 C2.790861,1 1,2.790861 1,5 L1,7 L1,27 L1,28.953125 C1,31.162264 2.790861,32.953125 5,32.953125 L7,32.953125 L7,33 L51.0234375,33 L51.0234375,32.9765625 L52.9765625,32.9765625 C55.1857015,32.9765625 56.9765625,31.1857015 56.9765625,28.9765625 L56.9765625,26.9765625 L57,26.9765625 L57,6.953125 Z" id="path-1"></path>
        <path d="M24.9929412,12.2188235 L27.8870588,12.2188235 L25.5152941,23.5058824 L22.5435294,23.5058824 L24.9929412,12.2188235 Z M20.6870588,12.2188235 L20.6941176,12.2188235 L20.6941176,12.1482353 L23.7364706,12.1482353 L18.9858824,23.4282353 L15.8658824,23.4282353 L13.5647059,14.4494118 C13.4164706,13.9270588 13.3388235,13.7082353 12.8941176,13.4823529 C12.1529412,13.1082353 11.0376471,12.7411765 10,12.5152941 L10.0776471,12.2188235 L15.0470588,12.2188235 C15.64,12.2188235 16.2329412,12.5929412 16.3811765,13.3341176 L17.6447059,19.8635294 L20.6870588,12.2188235 Z M43.7764706,12.2188235 L46,23.5058824 L43.3317647,23.5058824 L42.9576471,21.7976471 L39.2447059,21.7976471 L38.6517647,23.5058824 L35.6094118,23.5058824 L39.9858824,13.0376471 C40.2117647,12.5152941 40.6564706,12.2188235 41.2494118,12.2188235 L43.7764706,12.2188235 Z M31.7482353,15.3388235 C31.6776471,16.6729412 35.8282353,16.8988235 35.8352941,19.7223529 C35.8352941,22.1011765 33.8305882,23.5835294 30.7882353,23.5835294 C29.4470588,23.5835294 28.1905882,23.2870588 27.52,22.9905882 L28.0423529,20.5411765 C28.7129412,20.9082353 29.5317647,21.2823529 31.0141176,21.2823529 C31.9035294,21.2823529 32.7929412,20.9082353 32.7929412,20.1670588 C32.7929412,19.6447059 32.4258824,19.2776471 31.3105882,18.7552941 C30.2658824,18.24 28.7835294,17.3435294 28.7835294,15.7129412 C28.7835294,13.56 30.7882353,12 33.6823529,12 C34.7976471,12 35.7576471,12.2964706 36.4282353,12.5223529 L35.9058824,14.8941176 C34.5717647,14.2941176 33.4564706,14.2941176 33.0117647,14.3717647 C32.1223529,14.52 31.7482353,14.9647059 31.7482353,15.3388235 Z M40.2117647,19.4964706 L42.6611765,19.4964706 L41.7717647,15.2682353 L40.2117647,19.4964706 Z" id="path-3"></path>
    </defs>
    <g id="Icons" stroke="none" stroke-width="1" fill="none" fill-rule="evenodd">
        <g id="Bonds/Icons/Offers/Benefits/Visa">
            <g id="Global/Outline/Rounded">
                <g id="Outline">
                    <mask id="mask-2" fill="white">
                        <use xlink:href="#path-1"></use>
                    </mask>
                    <g id="Rectangle" fill-rule="nonzero"></g>
                    <g id="Bonds/Colours/General/Light-Grey" mask="url(#mask-2)" fill="#C4C8CB">
                        <rect id="Rectangle-3" x="0" y="0" width="58" height="34"></rect>
                    </g>
                </g>
            </g>
            <mask id="mask-4" fill="white">
                <use xlink:href="#path-3"></use>
            </mask>
            <g id="Combined-Shape" fill-rule="nonzero"></g>
            <g id="Bonds/Colours/General/Light-Grey" mask="url(#mask-4)" fill="#C4C8CB">
                <rect id="Rectangle-3" x="0" y="0" width="58" height="34"></rect>
            </g>
        </g>
    </g>
</svg>