<?xml version="1.0" encoding="UTF-8"?>
<svg width="42px" height="42px" viewBox="0 0 42 42" version="1.1" xmlns="http://www.w3.org/2000/svg" xmlns:xlink="http://www.w3.org/1999/xlink">
    <!-- Generator: Sketch 48.2 (47327) - http://www.bohemiancoding.com/sketch -->
    <title>Bonds/Icons/Global/Close/Active</title>
    <desc>Created with Sketch.</desc>
    <defs>
        <path d="M21.231867,20.6013709 L13.4324491,12.801953 C13.1494931,12.518997 12.6801824,12.5152488 12.3930322,12.802399 C12.10388,13.0915512 12.1056823,13.554912 12.3925862,13.8418159 L20.192004,21.6412338 L12.3925862,29.4406517 C12.1096302,29.7236077 12.105882,30.1929183 12.3930322,30.4800685 C12.6821844,30.7692207 13.1455452,30.7674185 13.4324491,30.4805146 L21.231867,22.6810967 L29.0312848,30.4805146 C29.3142408,30.7634706 29.7835515,30.7672188 30.0707017,30.4800685 C30.3598539,30.1909164 30.3580516,29.7275555 30.0711478,29.4406517 L22.2717299,21.6412338 L30.0711478,13.8418159 C30.3541037,13.5588599 30.3578519,13.0895492 30.0707017,12.802399 C29.7815495,12.5132468 29.3181887,12.5150491 29.0312848,12.801953 L21.231867,20.6013709 Z M21,0 C32.5980118,0 42,9.40198824 42,21 C42,32.5980118 32.5980118,42 21,42 C9.40198824,42 0,32.5980118 0,21 C0,9.40198824 9.40198824,0 21,0 Z" id="path-1"></path>
    </defs>
    <g id="Icons" stroke="none" stroke-width="1" fill="none" fill-rule="evenodd">
        <g id="Bonds/Icons/Global/Close/Active">
            <mask id="mask-2" fill="white">
                <use xlink:href="#path-1"></use>
            </mask>
            <g id="Shape"></g>
            <g id="Bonds/Colours/General/White" mask="url(#mask-2)" fill="#FFFFFF">
                <rect id="Rectangle-3" x="0" y="0" width="42" height="42"></rect>
            </g>
        </g>
    </g>
</svg>