<?xml version="1.0" encoding="UTF-8"?>
<svg width="38px" height="38px" viewBox="0 0 38 38" version="1.1" xmlns="http://www.w3.org/2000/svg" xmlns:xlink="http://www.w3.org/1999/xlink">
    <!-- Generator: Sketch 48.2 (47327) - http://www.bohemiancoding.com/sketch -->
    <title>Bonds/Icons/Menu/Dashboard/Active/Band 2</title>
    <desc>Created with Sketch.</desc>
    <defs>
        <path d="M19,38 C8.50658975,38 0,29.4934102 0,19 C0,8.50658975 8.50658975,0 19,0 C29.4934102,0 38,8.50658975 38,19 C38,29.4934102 29.4934102,38 19,38 Z M36.1904762,18.6709957 C36.1904762,9.3586619 28.6413381,1.80952381 19.3290043,1.80952381 C18.6476141,1.80952381 18.0952381,2.36189977 18.0952381,3.04329004 C18.0952381,3.72468032 18.6476141,4.27705628 19.3290043,4.27705628 C27.2785575,4.27705628 33.7229437,10.7214425 33.7229437,18.6709957 C33.7229437,19.3523859 34.2753197,19.9047619 34.95671,19.9047619 C35.6381002,19.9047619 36.1904762,19.3523859 36.1904762,18.6709957 Z M10.8987619,22.081619 L10.8987619,22.6190476 L15.2081429,22.6190476 L15.3275714,22.0617143 L11.6650952,22.0617143 C11.8641439,21.8892055 12.0764592,21.7050883 12.3020476,21.5093571 C12.527636,21.313626 12.7432688,21.1295088 12.9489524,20.957 C13.3470496,20.6186174 13.692062,20.3067792 13.984,20.0214762 C14.275938,19.7361732 14.5164514,19.459168 14.7055476,19.1904524 C14.8946438,18.9217368 15.0356345,18.6513664 15.1285238,18.3793333 C15.2214132,18.1073002 15.2678571,17.8153666 15.2678571,17.5035238 C15.2678571,17.2248557 15.2214132,16.9660964 15.1285238,16.7272381 C15.0356345,16.4883798 14.9012787,16.2810406 14.7254524,16.1052143 C14.5496261,15.929388 14.3323346,15.7933735 14.0735714,15.6971667 C13.8148082,15.6009598 13.5195572,15.5528571 13.1878095,15.5528571 C12.8029822,15.5528571 12.4762156,15.605936 12.2075,15.7120952 C11.9387844,15.8182545 11.714858,15.954269 11.5357143,16.1201429 C11.3565705,16.2860167 11.2139212,16.47511 11.1077619,16.6874286 C11.0016026,16.8997471 10.9219844,17.108745 10.8689048,17.3144286 L11.396381,17.4239048 C11.4627305,17.2248561 11.5373726,17.0423977 11.6203095,16.8765238 C11.7032464,16.71065 11.8110628,16.571318 11.9437619,16.4585238 C12.076461,16.3457296 12.2406736,16.2578178 12.4364048,16.1947857 C12.6321359,16.1317537 12.8726494,16.1002381 13.1579524,16.1002381 C13.6356691,16.1002381 14.0039035,16.2229829 14.2626667,16.4684762 C14.5214299,16.7139695 14.6508095,17.0855213 14.6508095,17.5831429 C14.6508095,17.855176 14.607683,18.1089591 14.5214286,18.3445 C14.4351742,18.5800409 14.3074532,18.8139195 14.1382619,19.0461429 C13.9690706,19.2783662 13.7567552,19.517221 13.5013095,19.7627143 C13.2458638,20.0082076 12.9489541,20.2769192 12.6105714,20.5688571 C12.3053636,20.8342553 12.001819,21.1013082 11.6999286,21.3700238 C11.3980382,21.6387394 11.1309853,21.8759355 10.8987619,22.081619 Z M17.8952857,19.1257619 C17.7758565,19.1523017 17.6365246,19.2037218 17.4772857,19.2800238 C17.3180468,19.3563258 17.1687626,19.4624834 17.0294286,19.5985 C16.8900945,19.7345166 16.7706672,19.9020466 16.6711429,20.1010952 C16.5716185,20.3001439 16.5218571,20.5356812 16.5218571,20.8077143 C16.5218571,21.1062872 16.5732773,21.3766575 16.676119,21.6188333 C16.7789608,21.8610091 16.9348799,22.0700071 17.143881,22.2458333 C17.352882,22.4216596 17.6133,22.5576741 17.9251429,22.653881 C18.2369857,22.7500878 18.5985852,22.7981905 19.0099524,22.7981905 C19.4213195,22.7981905 19.7829191,22.7500878 20.0947619,22.653881 C20.4066047,22.5576741 20.6653641,22.4216596 20.8710476,22.2458333 C21.0767312,22.0700071 21.2309915,21.8610091 21.3338333,21.6188333 C21.4366751,21.3766575 21.4880952,21.1062872 21.4880952,20.8077143 C21.4880952,20.5290462 21.4399925,20.2901915 21.3437857,20.0911429 C21.2475789,19.8920942 21.1298102,19.7229055 20.9904762,19.5835714 C20.8511422,19.4442374 20.7035167,19.3347623 20.5475952,19.2551429 C20.3916738,19.1755234 20.2506832,19.1191272 20.124619,19.0859524 C20.2639531,19.0461427 20.403285,18.9847703 20.542619,18.9018333 C20.6819531,18.8188964 20.8046979,18.7094213 20.9108571,18.5734048 C21.0170164,18.4373882 21.1032695,18.2781517 21.169619,18.0956905 C21.2359686,17.9132292 21.2691429,17.7025726 21.2691429,17.4637143 C21.2691429,17.1983161 21.2243576,16.9478504 21.1347857,16.7123095 C21.0452138,16.4767687 20.9091993,16.2744056 20.7267381,16.1052143 C20.5442769,15.936023 20.3103983,15.8016672 20.0250952,15.7021429 C19.7397922,15.6026185 19.4014147,15.5528571 19.0099524,15.5528571 C18.6118552,15.5528571 18.2701602,15.6026185 17.9848571,15.7021429 C17.6995541,15.8016672 17.4656755,15.936023 17.2832143,16.1052143 C17.1007531,16.2744056 16.9647385,16.4767687 16.8751667,16.7123095 C16.7855948,16.9478504 16.7408095,17.1983161 16.7408095,17.4637143 C16.7408095,17.7025726 16.7739838,17.914888 16.8403333,18.1006667 C16.9066829,18.2864454 16.9945947,18.4489993 17.1040714,18.5883333 C17.2135482,18.7276674 17.336293,18.8421186 17.4723095,18.9316905 C17.6083261,19.0212624 17.7493167,19.0859522 17.8952857,19.1257619 Z M17.3180476,17.4637143 C17.3180476,17.2713006 17.3495632,17.0905008 17.4125952,16.9213095 C17.4756273,16.7521182 17.5751501,16.602834 17.7111667,16.4734524 C17.8471832,16.3440708 18.0230069,16.2412305 18.2386429,16.1649286 C18.4542789,16.0886266 18.7113795,16.0504762 19.0099524,16.0504762 C19.3085253,16.0504762 19.5639672,16.0886266 19.7762857,16.1649286 C19.9886042,16.2412305 20.1627692,16.3440708 20.2987857,16.4734524 C20.4348023,16.602834 20.5343251,16.7521182 20.5973571,16.9213095 C20.6603892,17.0905008 20.6919048,17.2713006 20.6919048,17.4637143 C20.6919048,17.9281611 20.557549,18.2781496 20.2888333,18.5136905 C20.0201177,18.7492313 19.5938283,18.867 19.0099524,18.867 C18.4260764,18.867 17.9981283,18.7492313 17.7260952,18.5136905 C17.4540621,18.2781496 17.3180476,17.9281611 17.3180476,17.4637143 Z M17.1488571,20.8176667 C17.1488571,20.6053481 17.1803727,20.4112787 17.2434048,20.2354524 C17.3064368,20.0596261 17.4109358,19.9103419 17.5569048,19.7875952 C17.7028737,19.6648486 17.8936258,19.5686432 18.1291667,19.4989762 C18.3647075,19.4293092 18.6582998,19.3944762 19.0099524,19.3944762 C19.35497,19.3944762 19.6452449,19.4293092 19.8807857,19.4989762 C20.1163266,19.5686432 20.3070786,19.6648486 20.4530476,19.7875952 C20.5990166,19.9103419 20.7035156,20.0596261 20.7665476,20.2354524 C20.8295797,20.4112787 20.8610952,20.6053481 20.8610952,20.8176667 C20.8610952,21.2555736 20.7134697,21.612197 20.4182143,21.8875476 C20.1229588,22.1628982 19.6535429,22.3005714 19.0099524,22.3005714 C18.3597269,22.3005714 17.8869935,22.1628982 17.5917381,21.8875476 C17.2964827,21.612197 17.1488571,21.2555736 17.1488571,20.8176667 Z M26.5936667,17.1452381 L27.1111905,17.0158571 C26.9983963,16.5580453 26.7960332,16.1997632 26.5040952,15.941 C26.2121573,15.6822368 25.7643046,15.5528571 25.1605238,15.5528571 C24.842046,15.5528571 24.5302079,15.6109121 24.225,15.7270238 C23.9197921,15.8431355 23.6494218,16.0537921 23.413881,16.359 C23.1783401,16.6642079 22.987588,17.0822037 22.841619,17.613 C22.6956501,18.1437963 22.6226667,18.8205514 22.6226667,19.6432857 C22.6226667,20.0148431 22.6558409,20.3880537 22.7221905,20.7629286 C22.78854,21.1378035 22.9079674,21.476181 23.0804762,21.7780714 C23.252985,22.0799618 23.490181,22.3254514 23.7920714,22.5145476 C24.0939618,22.7036438 24.4837595,22.7981905 24.9614762,22.7981905 C25.3064938,22.7981905 25.6216494,22.7417942 25.9069524,22.629 C26.1922554,22.5162058 26.4344276,22.358628 26.6334762,22.1562619 C26.8325248,21.9538958 26.9867852,21.7100649 27.0962619,21.4247619 C27.2057386,21.1394589 27.2604762,20.8276207 27.2604762,20.4892381 C27.2604762,20.1973001 27.2239845,19.9153188 27.151,19.6432857 C27.0780155,19.3712526 26.9602468,19.1307391 26.7976905,18.9217381 C26.6351341,18.7127371 26.4195013,18.5468657 26.1507857,18.424119 C25.8820701,18.3013724 25.5553035,18.24 25.1704762,18.24 C24.7325692,18.24 24.3510651,18.3245944 24.0259524,18.4937857 C23.7008396,18.662977 23.4221758,18.9333473 23.1899524,19.3049048 C23.2098572,18.6679492 23.2728884,18.142137 23.3790476,17.7274524 C23.4852069,17.3127678 23.6261975,16.9843425 23.8020238,16.7421667 C23.9778501,16.4999909 24.1802131,16.3308021 24.409119,16.2345952 C24.638025,16.1383884 24.8884907,16.0902857 25.1605238,16.0902857 C25.3728423,16.0902857 25.5553008,16.1085316 25.7079048,16.1450238 C25.8605087,16.1815161 25.9915471,16.2428885 26.1010238,16.3291429 C26.2105005,16.4153973 26.3033885,16.5248724 26.3796905,16.6575714 C26.4559924,16.7902705 26.5273171,16.9528244 26.5936667,17.1452381 Z M24.9515238,22.2806667 C24.6927606,22.2806667 24.4638581,22.232564 24.2648095,22.1363571 C24.0657609,22.0401503 23.8998896,21.9124294 23.7671905,21.7531905 C23.6344914,21.5939516 23.5299924,21.4148105 23.4536905,21.2157619 C23.3773885,21.0167133 23.3359207,20.8110328 23.3292857,20.5987143 C23.3160158,20.2802365 23.3558249,20.0032313 23.4487143,19.7676905 C23.5416036,19.5321496 23.6709833,19.3380801 23.8368571,19.1854762 C24.002731,19.0328723 24.1951418,18.9200797 24.4140952,18.8470952 C24.6330487,18.7741107 24.8586338,18.737619 25.0908571,18.737619 C25.3894301,18.737619 25.6398958,18.784063 25.8422619,18.8769524 C26.044628,18.9698417 26.2055232,19.0975627 26.3249524,19.260119 C26.4443815,19.4226754 26.5306347,19.6117688 26.5837143,19.8274048 C26.6367939,20.0430408 26.6633333,20.2702845 26.6633333,20.5091429 C26.6633333,21.0532091 26.5123904,21.4844746 26.2105,21.8029524 C25.9086096,22.1214302 25.4889551,22.2806667 24.9515238,22.2806667 Z" id="path-1"></path>
    </defs>
    <g id="Icons" stroke="none" stroke-width="1" fill="none" fill-rule="evenodd">
        <g id="Bonds/Icons/Menu/Dashboard/Active/Band-2">
            <mask id="mask-2" fill="white">
                <use xlink:href="#path-1"></use>
            </mask>
            <g id="Combined-Shape" fill-rule="nonzero"></g>
            <g id="Bonds/Colours/General/White" mask="url(#mask-2)" fill="#FFFFFF">
                <rect id="Rectangle-3" x="0" y="0" width="38" height="38"></rect>
            </g>
        </g>
    </g>
</svg>