<?xml version="1.0" encoding="UTF-8"?>
<svg width="38px" height="38px" viewBox="0 0 38 38" version="1.1" xmlns="http://www.w3.org/2000/svg" xmlns:xlink="http://www.w3.org/1999/xlink">
    <!-- Generator: Sketch 48.2 (47327) - http://www.bohemiancoding.com/sketch -->
    <title>Bonds/Icons/Menu/Dashboard/Active/Band 4</title>
    <desc>Created with Sketch.</desc>
    <defs>
        <path d="M19,33.7672962 C18.8952585,33.7383876 18.7849306,33.7229437 18.6709957,33.7229437 C10.7214425,33.7229437 4.27705628,27.2785575 4.27705628,19.3290043 C4.27705628,18.6476141 3.72468032,18.0952381 3.04329004,18.0952381 C2.36189977,18.0952381 1.80952381,18.6476141 1.80952381,19.3290043 C1.80952381,28.6413381 9.3586619,36.1904762 18.6709957,36.1904762 C18.7849306,36.1904762 18.8952585,36.1750323 19,36.1461237 C19.1047415,36.1750323 19.2150694,36.1904762 19.3290043,36.1904762 C28.6413381,36.1904762 36.1904762,28.6413381 36.1904762,19.3290043 C36.1904762,19.2150694 36.1750323,19.1047415 36.1461237,19 C36.1750323,18.8952585 36.1904762,18.7849306 36.1904762,18.6709957 C36.1904762,9.3586619 28.6413381,1.80952381 19.3290043,1.80952381 C18.6476141,1.80952381 18.0952381,2.36189977 18.0952381,3.04329004 C18.0952381,3.72468032 18.6476141,4.27705628 19.3290043,4.27705628 C27.2785575,4.27705628 33.7229437,10.7214425 33.7229437,18.6709957 C33.7229437,18.7849306 33.7383876,18.8952585 33.7672962,19 C33.7383876,19.1047415 33.7229437,19.2150694 33.7229437,19.3290043 C33.7229437,27.2785575 27.2785575,33.7229437 19.3290043,33.7229437 C19.2150694,33.7229437 19.1047415,33.7383876 19,33.7672962 Z M19,38 C8.50658975,38 0,29.4934102 0,19 C0,8.50658975 8.50658975,0 19,0 C29.4934102,0 38,8.50658975 38,19 C38,29.4934102 29.4934102,38 19,38 Z M10.6200952,20.33 L10.6200952,20.8176667 L14.0039048,20.8176667 L14.0039048,22.6190476 L14.5811429,22.6190476 L14.5811429,20.8176667 L15.4569524,20.8176667 L15.5664286,20.33 L14.5811429,20.33 L14.5811429,15.7419524 L13.9740476,15.7419524 L10.6200952,20.33 Z M14.0039048,20.33 L11.2470952,20.33 L14.0039048,16.5182381 L14.0039048,20.33 Z M20.7018571,17.1452381 L21.219381,17.0158571 C21.1065867,16.5580453 20.9042237,16.1997632 20.6122857,15.941 C20.3203477,15.6822368 19.8724951,15.5528571 19.2687143,15.5528571 C18.9502365,15.5528571 18.6383984,15.6109121 18.3331905,15.7270238 C18.0279826,15.8431355 17.7576123,16.0537921 17.5220714,16.359 C17.2865306,16.6642079 17.0957785,17.0822037 16.9498095,17.613 C16.8038405,18.1437963 16.7308571,18.8205514 16.7308571,19.6432857 C16.7308571,20.0148431 16.7640314,20.3880537 16.830381,20.7629286 C16.8967305,21.1378035 17.0161579,21.476181 17.1886667,21.7780714 C17.3611755,22.0799618 17.5983715,22.3254514 17.9002619,22.5145476 C18.2021523,22.7036438 18.59195,22.7981905 19.0696667,22.7981905 C19.4146843,22.7981905 19.7298398,22.7417942 20.0151429,22.629 C20.3004459,22.5162058 20.5426181,22.358628 20.7416667,22.1562619 C20.9407153,21.9538958 21.0949756,21.7100649 21.2044524,21.4247619 C21.3139291,21.1394589 21.3686667,20.8276207 21.3686667,20.4892381 C21.3686667,20.1973001 21.332175,19.9153188 21.2591905,19.6432857 C21.186206,19.3712526 21.0684373,19.1307391 20.905881,18.9217381 C20.7433246,18.7127371 20.5276918,18.5468657 20.2589762,18.424119 C19.9902606,18.3013724 19.663494,18.24 19.2786667,18.24 C18.8407597,18.24 18.4592556,18.3245944 18.1341429,18.4937857 C17.8090301,18.662977 17.5303662,18.9333473 17.2981429,19.3049048 C17.3180477,18.6679492 17.3810788,18.142137 17.4872381,17.7274524 C17.5933974,17.3127678 17.734388,16.9843425 17.9102143,16.7421667 C18.0860406,16.4999909 18.2884036,16.3308021 18.5173095,16.2345952 C18.7462154,16.1383884 18.9966812,16.0902857 19.2687143,16.0902857 C19.4810328,16.0902857 19.6634913,16.1085316 19.8160952,16.1450238 C19.9686992,16.1815161 20.0997375,16.2428885 20.2092143,16.3291429 C20.318691,16.4153973 20.411579,16.5248724 20.487881,16.6575714 C20.5641829,16.7902705 20.6355076,16.9528244 20.7018571,17.1452381 Z M19.0597143,22.2806667 C18.8009511,22.2806667 18.5720486,22.232564 18.373,22.1363571 C18.1739514,22.0401503 18.00808,21.9124294 17.875381,21.7531905 C17.7426819,21.5939516 17.6381829,21.4148105 17.561881,21.2157619 C17.485579,21.0167133 17.4441111,20.8110328 17.4374762,20.5987143 C17.4242063,20.2802365 17.4640154,20.0032313 17.5569048,19.7676905 C17.6497941,19.5321496 17.7791738,19.3380801 17.9450476,19.1854762 C18.1109215,19.0328723 18.3033322,18.9200797 18.5222857,18.8470952 C18.7412392,18.7741107 18.9668242,18.737619 19.1990476,18.737619 C19.4976205,18.737619 19.7480863,18.784063 19.9504524,18.8769524 C20.1528185,18.9698417 20.3137137,19.0975627 20.4331429,19.260119 C20.552572,19.4226754 20.6388251,19.6117688 20.6919048,19.8274048 C20.7449844,20.0430408 20.7715238,20.2702845 20.7715238,20.5091429 C20.7715238,21.0532091 20.6205809,21.4844746 20.3186905,21.8029524 C20.0168001,22.1214302 19.5971455,22.2806667 19.0597143,22.2806667 Z M22.682381,22.081619 L22.682381,22.6190476 L26.9917619,22.6190476 L27.1111905,22.0617143 L23.4487143,22.0617143 C23.6477629,21.8892055 23.8600782,21.7050883 24.0856667,21.5093571 C24.3112551,21.313626 24.5268879,21.1295088 24.7325714,20.957 C25.1306687,20.6186174 25.4756811,20.3067792 25.767619,20.0214762 C26.059557,19.7361732 26.3000705,19.459168 26.4891667,19.1904524 C26.6782629,18.9217368 26.8192535,18.6513664 26.9121429,18.3793333 C27.0050322,18.1073002 27.0514762,17.8153666 27.0514762,17.5035238 C27.0514762,17.2248557 27.0050322,16.9660964 26.9121429,16.7272381 C26.8192535,16.4883798 26.6848977,16.2810406 26.5090714,16.1052143 C26.3332452,15.929388 26.1159537,15.7933735 25.8571905,15.6971667 C25.5984273,15.6009598 25.3031763,15.5528571 24.9714286,15.5528571 C24.5866013,15.5528571 24.2598347,15.605936 23.991119,15.7120952 C23.7224034,15.8182545 23.4984771,15.954269 23.3193333,16.1201429 C23.1401896,16.2860167 22.9975402,16.47511 22.891381,16.6874286 C22.7852217,16.8997471 22.7056034,17.108745 22.6525238,17.3144286 L23.18,17.4239048 C23.2463495,17.2248561 23.3209916,17.0423977 23.4039286,16.8765238 C23.4868655,16.71065 23.5946819,16.571318 23.727381,16.4585238 C23.86008,16.3457296 24.0242927,16.2578178 24.2200238,16.1947857 C24.4157549,16.1317537 24.6562684,16.1002381 24.9415714,16.1002381 C25.4192881,16.1002381 25.7875225,16.2229829 26.0462857,16.4684762 C26.3050489,16.7139695 26.4344286,17.0855213 26.4344286,17.5831429 C26.4344286,17.855176 26.391302,18.1089591 26.3050476,18.3445 C26.2187932,18.5800409 26.0910723,18.8139195 25.921881,19.0461429 C25.7526896,19.2783662 25.5403743,19.517221 25.2849286,19.7627143 C25.0294828,20.0082076 24.7325731,20.2769192 24.3941905,20.5688571 C24.0889826,20.8342553 23.785438,21.1013082 23.4835476,21.3700238 C23.1816572,21.6387394 22.9146043,21.8759355 22.682381,22.081619 Z" id="path-1"></path>
    </defs>
    <g id="Icons" stroke="none" stroke-width="1" fill="none" fill-rule="evenodd">
        <g id="Bonds/Icons/Menu/Dashboard/Active/Band-4">
            <mask id="mask-2" fill="white">
                <use xlink:href="#path-1"></use>
            </mask>
            <g id="Combined-Shape" fill-rule="nonzero"></g>
            <g id="Bonds/Colours/General/White" mask="url(#mask-2)" fill="#FFFFFF">
                <rect id="Rectangle-3" x="0" y="0" width="38" height="38"></rect>
            </g>
        </g>
    </g>
</svg>