<?xml version="1.0" encoding="UTF-8"?>
<svg width="146px" height="146px" viewBox="0 0 146 146" version="1.1" xmlns="http://www.w3.org/2000/svg" xmlns:xlink="http://www.w3.org/1999/xlink">
    <!-- Generator: Sketch 48.2 (47327) - http://www.bohemiancoding.com/sketch -->
    <title>Bonds/Icons/Learn/Savings/Block</title>
    <desc>Created with Sketch.</desc>
    <defs>
        <linearGradient x1="28.7195122%" y1="100%" x2="28.7195116%" y2="-10.0801249%" id="linearGradient-1">
            <stop stop-color="#E4C002" offset="0%"></stop>
            <stop stop-color="#FCDE41" stop-opacity="0.628000453" offset="100%"></stop>
        </linearGradient>
        <path d="M64.3728713,54.4947448 C64.3242923,54.1303061 64.2992187,53.7584704 64.2992187,53.3808 C64.2992187,48.752212 68.0652735,45 72.7109375,45 C77.3566015,45 81.1226562,48.752212 81.1226562,53.3808 C81.1222663,53.664036 81.1077959,53.9439826 81.0799052,54.2199822 C86.6196006,54.8059697 91.9135042,56.3312352 95.61625,59.64768 C97.1039325,60.9726229 99.5643415,64.5842102 99.7151563,64.76256 C101.015938,66.31776 102.316719,66.8304 103.600156,66.28896 C105.727656,65.38464 107.334844,62.02656 107.109375,60.01632 C107.039131,59.380088 107.499858,58.8075855 108.138438,58.7376 C108.777017,58.6676145 109.351631,59.126648 109.421875,59.76288 C109.739844,62.66016 107.6875,67.07232 104.513594,68.40864 C103.178277,68.9887913 101.65047,68.9315502 100.362656,68.25312 C100.602589,69.548781 100.720653,70.8639217 100.715313,72.18144 C100.715313,89.48448 87.129375,91.77696 83.660625,92.08224 L80.2695388,100.18879 C80.1139436,100.560748 79.7501928,100.80288 79.3470025,100.80288 L72.5820235,100.80288 C72.1056092,100.80288 71.6953461,100.466788 71.6015822,99.9996917 L70.472949,94.3772683 C70.3791851,93.910172 69.9689221,93.57408 69.4925077,93.57408 L65.6087392,93.57408 C65.167642,93.57408 64.7786428,93.86309 64.6513108,94.285409 L62.9007204,100.091551 C62.7733884,100.51387 62.3843893,100.80288 61.9432921,100.80288 L53.7223805,100.80288 C53.2704082,100.80288 52.8746199,100.499716 52.7568971,100.063345 L49.9390517,89.6182252 C49.8969773,89.462265 49.8177474,89.3188187 49.7081403,89.200159 L42.0261628,80.8837093 C41.8368667,80.6787789 41.5705701,80.56224 41.2915907,80.56224 L37,80.56224 C36.4477153,80.56224 36,80.1145247 36,79.56224 L36,71.3290482 C36,70.8403495 36.3532151,70.423236 36.8352347,70.3427154 L36.9654687,70.32096 C37.0059375,70.3152 40.9834375,69.62976 42.868125,67.752 C44.440625,66.18528 47.215625,61.56 48.3371875,59.58432 L48.3371875,51.6891114 C48.3371875,51.5345177 48.37303,51.3820291 48.4418997,51.2436232 C48.687936,50.7491694 49.2882219,50.5477873 49.7826757,50.7938236 L58.4428125,55.10304 C59.240625,55.03392 60.2176563,54.93024 61.3334375,54.80928 C62.268912,54.7095044 63.288046,54.6008667 64.3728713,54.4947448 Z M53.4825,73.82432 C55.2864864,73.82432 56.7489063,72.3672755 56.7489063,70.56992 C56.7489063,68.7725645 55.2864864,67.31552 53.4825,67.31552 C51.6785136,67.31552 50.2160938,68.7725645 50.2160938,70.56992 C50.2160938,72.3672755 51.6785136,73.82432 53.4825,73.82432 Z M65.8790312,63.99776 C65.2427992,63.99776 64.7270312,64.513528 64.7270312,65.14976 C64.7270312,65.785992 65.2427992,66.30176 65.8790312,66.30176 L78.0859687,66.30176 C78.7222008,66.30176 79.2379687,65.785992 79.2379687,65.14976 C79.2379687,64.513528 78.7222008,63.99776 78.0859687,63.99776 L65.8790312,63.99776 Z M66.6117187,53.57792 C66.6117187,56.934044 69.342432,59.65472 72.7109375,59.65472 C76.079443,59.65472 78.8101562,56.934044 78.8101562,53.57792 C78.8069691,50.2231122 76.078122,47.5042954 72.7109375,47.50112 C69.342432,47.50112 66.6117187,50.221796 66.6117187,53.57792 Z" id="path-2"></path>
    </defs>
    <g id="Icons" stroke="none" stroke-width="1" fill="none" fill-rule="evenodd">
        <g id="Bonds/Icons/Learn/Savings/Block">
            <mask id="mask-3" fill="white">
                <use xlink:href="#path-2"></use>
            </mask>
            <use id="Combined-Shape" fill="url(#linearGradient-1)" fill-rule="nonzero" xlink:href="#path-2"></use>
            <g id="Bonds/Colours/Learn/Savings" mask="url(#mask-3)" fill="#E4C002">
                <rect id="Rectangle-3" x="0" y="0" width="146" height="146"></rect>
            </g>
        </g>
    </g>
</svg>