<?xml version="1.0" encoding="UTF-8"?>
<svg width="146px" height="146px" viewBox="0 0 146 146" version="1.1" xmlns="http://www.w3.org/2000/svg" xmlns:xlink="http://www.w3.org/1999/xlink">
    <!-- Generator: Sketch 48.2 (47327) - http://www.bohemiancoding.com/sketch -->
    <title>Bonds/Icons/Learn/Savings/Default</title>
    <desc>Created with Sketch.</desc>
    <defs>
        <linearGradient x1="28.7195122%" y1="100%" x2="28.7195116%" y2="-10.0801249%" id="linearGradient-1">
            <stop stop-color="#E4C002" offset="0%"></stop>
            <stop stop-color="#FCDE41" stop-opacity="0.628000453" offset="100%"></stop>
        </linearGradient>
        <linearGradient x1="10.4726568%" y1="23.1670302%" x2="96.3897642%" y2="57.359463%" id="linearGradient-2">
            <stop stop-color="#E8CD3E" offset="0%"></stop>
            <stop stop-color="#F2E498" offset="100%"></stop>
        </linearGradient>
    </defs>
    <g id="Icons" stroke="none" stroke-width="1" fill="none" fill-rule="evenodd">
        <g id="Bonds/Icons/Learn/Savings/Default">
            <g id="Bonds/Icons/Learn/Savings/Gradient">
                <g id="Group" transform="translate(36.000000, 45.000000)">
                    <path d="M28.3728713,9.49474483 C28.3242923,9.13030611 28.2992187,8.75847041 28.2992187,8.3808 C28.2992187,3.75221197 32.0652735,0 36.7109375,0 C41.3566015,0 45.1226562,3.75221197 45.1226562,8.3808 C45.1222663,8.66403601 45.1077959,8.9439826 45.0799052,9.21998221 C50.6196006,9.80596969 55.9135042,11.3312352 59.61625,14.64768 C61.1039325,15.9726229 63.5643415,19.5842102 63.7151563,19.76256 C65.0159375,21.31776 66.3167188,21.8304 67.6001563,21.28896 C69.7276563,20.38464 71.3348438,17.02656 71.109375,15.01632 C71.0391313,14.380088 71.4998583,13.8075855 72.1384375,13.7376 C72.7770167,13.6676145 73.3516313,14.126648 73.421875,14.76288 C73.7398438,17.66016 71.6875,22.07232 68.5135938,23.40864 C67.1782767,23.9887913 65.6504704,23.9315502 64.3626563,23.25312 C64.6025891,24.548781 64.7206529,25.8639217 64.7153125,27.18144 C64.7153125,44.48448 51.129375,46.77696 47.660625,47.08224 L44.2695388,55.1887902 C44.1139436,55.5607479 43.7501928,55.80288 43.3470025,55.80288 L36.5820235,55.80288 C36.1056092,55.80288 35.6953461,55.466788 35.6015822,54.9996917 L34.472949,49.3772683 C34.3791851,48.910172 33.9689221,48.57408 33.4925077,48.57408 L29.6087392,48.57408 C29.167642,48.57408 28.7786428,48.86309 28.6513108,49.285409 L26.9007204,55.091551 C26.7733884,55.51387 26.3843893,55.80288 25.9432921,55.80288 L17.7223805,55.80288 C17.2704082,55.80288 16.8746199,55.4997163 16.7568971,55.0633445 L13.9390517,44.6182252 C13.8969773,44.462265 13.8177474,44.3188187 13.7081403,44.200159 L6.02616279,35.8837093 C5.83686672,35.6787789 5.5705701,35.56224 5.29159072,35.56224 L1,35.56224 C0.44771525,35.56224 2.02974496e-15,35.1145247 0,34.56224 L0,26.3290482 C-5.98483327e-17,25.8403495 0.353215113,25.423236 0.835234694,25.3427154 L0.96546875,25.32096 C1.0059375,25.3152 4.9834375,24.62976 6.868125,22.752 C8.440625,21.18528 11.215625,16.56 12.3371875,14.58432 L12.3371875,6.68911144 C12.3371875,6.53451772 12.37303,6.38202909 12.4418997,6.24362323 C12.687936,5.74916943 13.2882219,5.54778729 13.7826757,5.79382363 L22.4428125,10.10304 C23.240625,10.03392 24.2176563,9.93024 25.3334375,9.80928 C26.268912,9.70950435 27.288046,9.60086674 28.3728713,9.49474483 Z" id="Combined-Shape" fill="url(#linearGradient-1)" fill-rule="nonzero"></path>
                    <ellipse id="Oval-path" fill="#FFFFFF" cx="17.4825" cy="25.56992" rx="3.26640625" ry="3.2544"></ellipse>
                    <rect id="Rectangle-path" fill="#FFFFFF" fill-rule="nonzero" x="28.7270312" y="18.99776" width="14.5109375" height="2.304" rx="1.152"></rect>
                    <path d="M30.6117187,8.57792 C30.6117187,11.934044 33.342432,14.65472 36.7109375,14.65472 C40.079443,14.65472 42.8101562,11.934044 42.8101562,8.57792 C42.8069691,5.22311221 40.078122,2.5042954 36.7109375,2.50112 C33.342432,2.50112 30.6117187,5.22179603 30.6117187,8.57792 Z" id="Shape" fill="#FFFFFF" fill-rule="nonzero"></path>
                </g>
            </g>
            <circle id="Oval" stroke="url(#linearGradient-2)" stroke-width="3" fill-rule="nonzero" cx="73" cy="73" r="71"></circle>
        </g>
    </g>
</svg>