<?xml version="1.0" encoding="UTF-8"?>
<svg width="24px" height="24px" viewBox="0 0 24 24" version="1.1" xmlns="http://www.w3.org/2000/svg" xmlns:xlink="http://www.w3.org/1999/xlink">
    <!-- Generator: Sketch 46.2 (44496) - http://www.bohemiancoding.com/sketch -->
    <title>Artboard Copy 2</title>
    <desc>Created with Sketch.</desc>
    <defs></defs>
    <g id="Page-1" stroke="none" stroke-width="1" fill="none" fill-rule="evenodd">
        <g id="Artboard-Copy-2" fill-rule="nonzero" fill="#000000">
            <path d="M13.054902,18.5686275 L13.054902,19.2431373 C13.054902,19.8 12.6,20.254902 12.0431373,20.254902 C11.4862745,20.254902 11.0313725,19.8 11.0313725,19.2431373 L11.0313725,18.5686275 C11.0313725,18.0117647 11.4862745,17.5568627 12.0431373,17.5568627 C12.6,17.5568627 13.054902,18.0117647 13.054902,18.5686275 Z M17.0862745,8.61568627 C16.7019608,10.1372549 15.6039216,11.2431373 14.6392157,12.2235294 C13.8627451,13 13.1411765,13.745098 13.1411765,14.3490196 C13.1411765,14.9058824 12.6862745,15.3607843 12.1294118,15.3607843 C11.572549,15.3607843 11.1176471,14.9058824 11.1176471,14.3490196 C11.1176471,12.9137255 12.1764706,11.854902 13.1960784,10.8039216 C14.0196078,9.95686275 14.8823529,9.10196078 15.1333333,8.10588235 C15.3372549,7.29803922 15.2196078,6.55294118 14.7960784,6.01176471 C14.2862745,5.35294118 13.3764706,5.01568627 12.145098,5.01568627 C10.827451,5.01568627 9.93333333,5.5254902 9.43137255,6.5372549 C9.02352941,7.32941176 9.00784314,8.1372549 9.00784314,8.1372549 C9.00784314,8.69411765 8.55294118,9.11764706 7.99607843,9.11764706 C7.43921569,9.11764706 7,8.67843137 7,8.1372549 C7,8.00392157 7.03137255,6.83529412 7.64313725,5.62745098 C8.24705882,4.41176471 9.51764706,3 12.1607843,3 C14.5215686,3 15.7686275,3.98039216 16.3960784,4.78823529 C17.2039216,5.81568627 17.4627451,7.21960784 17.0862745,8.61568627 Z" id="Shape"></path>
        </g>
    </g>
</svg>