<?xml version="1.0" encoding="UTF-8"?>
<svg width="40px" height="40px" viewBox="0 0 40 40" version="1.1" xmlns="http://www.w3.org/2000/svg" xmlns:xlink="http://www.w3.org/1999/xlink">
    <!-- Generator: Sketch 48.2 (47327) - http://www.bohemiancoding.com/sketch -->
    <title>Bonds/Icons/Report/Corrections/Active</title>
    <desc>Created with Sketch.</desc>
    <defs>
        <path d="M19.921875,1 C30.3721669,1 38.84375,9.47158315 38.84375,19.921875 C38.84375,30.3721669 30.3721669,38.84375 19.921875,38.84375 C9.47158315,38.84375 1,30.3721669 1,19.921875 C1,9.47158315 9.47158315,1 19.921875,1 Z M28.8924762,25.480083 L20.666358,11.6452243 C20.4905701,11.3499688 20.2191339,11.1807108 19.9217266,11.1807108 C19.6245419,11.1807108 19.3531057,11.3498946 19.1776888,11.6452243 L10.9512738,25.480083 C10.7739276,25.7785292 10.7562672,26.0980492 10.9034868,26.3564998 C11.0504096,26.6150245 11.3340151,26.7634314 11.6815097,26.7634314 L28.1622403,26.7634314 C28.5097349,26.7634314 28.7930436,26.6149503 28.940189,26.3564998 C29.0874086,26.097975 29.0698224,25.778455 28.8924762,25.480083 Z M12.1207941,25.5631167 L19.9218008,12.5178566 L27.7230301,25.5631167 L12.1207941,25.5631167 Z M19.277715,16.8263305 L19.277715,20.9540447 C19.277715,21.3097018 19.5663664,21.5980563 19.9217266,21.5980563 C20.2776805,21.5980563 20.5657382,21.3097018 20.5657382,20.9540447 L20.5657382,16.8263305 C20.5657382,16.4703766 20.2776805,16.1823189 19.9217266,16.1823189 C19.5660695,16.1822447 19.277715,16.4703024 19.277715,16.8263305 Z M19.9217266,22.5345036 C19.5663664,22.5345036 19.277715,22.8228581 19.277715,23.1785152 L19.277715,23.5020422 C19.277715,23.8576992 19.5663664,24.1460537 19.9217266,24.1460537 C20.2776805,24.1460537 20.5657382,23.8576992 20.5657382,23.5020422 L20.5657382,23.1785152 C20.5657382,22.8228581 20.2773836,22.5345036 19.9217266,22.5345036 Z" id="path-1"></path>
    </defs>
    <g id="Icons" stroke="none" stroke-width="1" fill="none" fill-rule="evenodd">
        <g id="Bonds/Icons/Report/Corrections/Active">
            <mask id="mask-2" fill="white">
                <use xlink:href="#path-1"></use>
            </mask>
            <g id="Shape" fill-rule="nonzero"></g>
            <g id="Bonds/Colours/General/White" mask="url(#mask-2)" fill="#FFFFFF">
                <rect id="Rectangle-3" x="0" y="0" width="40" height="40"></rect>
            </g>
        </g>
    </g>
</svg>