<?xml version="1.0" encoding="UTF-8"?>
<svg width="28px" height="28px" viewBox="0 0 28 28" version="1.1" xmlns="http://www.w3.org/2000/svg" xmlns:xlink="http://www.w3.org/1999/xlink">
    <!-- Generator: Sketch 48.2 (47327) - http://www.bohemiancoding.com/sketch -->
    <title>Bonds/Icons/Report/Alert/Address</title>
    <desc>Created with Sketch.</desc>
    <defs>
        <path d="M23.4945169,21.3315753 C23.477262,21.6314836 23.1968698,21.8492252 22.8258894,21.8492252 L20.0392227,21.8492252 L20.0392227,14.8732772 C20.0392227,14.524069 19.7415757,14.2364858 19.3705953,14.2364858 L14.9058894,14.2364858 C14.5392227,14.2364858 14.237262,14.5199607 14.237262,14.8732772 L14.237262,21.8533335 L5.12667373,21.8533335 C4.76000706,21.8533335 4.47530118,21.6191586 4.47530118,21.3356836 L4.47530118,12.4493613 C4.47530118,12.1494531 4.76000706,11.9317115 5.12667373,11.9317115 L22.8431443,11.9317115 C23.209811,11.9317115 23.4945169,12.1658864 23.4945169,12.4493613 L23.4945169,21.3315753 Z M18.9176541,21.8656585 L15.3847129,21.8656585 L15.3847129,16.1509685 C15.3847129,15.8017603 15.68236,15.5141771 16.0533404,15.5141771 L18.2576541,15.5141771 C18.6243208,15.5141771 18.9262816,15.797652 18.9262816,16.1509685 L18.9262816,21.8656585 L18.9176541,21.8656585 Z M21.8337325,7.19891288 C23.7317718,8.6738041 24.9827522,11.09772 25.0000071,11.6523449 L25.0000071,21.3439003 C25.0000071,22.4120667 24.0294188,23.2830331 22.8560855,23.2830331 L5.14392863,23.2830331 C3.95334039,23.2830331 3.00000706,22.4120667 3.00000706,21.3439003 L3.00000706,11.6523449 C3.00000706,10.5636369 8.50863451,4.08890547 13.9827522,4.06425548 C15.4192227,4.06425548 16.8556933,4.4381137 18.2015757,5.02149686 L18.2015757,4.67228863 C18.2015757,4.31897207 18.5035365,4.03549716 18.8702031,4.03549716 L21.1651051,4.03549716 C21.5360855,4.03549716 21.8337325,4.3230804 21.8337325,4.67228863 L21.8337325,7.19891288 Z" id="path-1"></path>
    </defs>
    <g id="Icons" stroke="none" stroke-width="1" fill="none" fill-rule="evenodd">
        <g id="Bonds/Icons/Report/Alert/Address">
            <mask id="mask-2" fill="white">
                <use xlink:href="#path-1"></use>
            </mask>
            <g id="Fill-3"></g>
            <g id="Bonds/Colours/General/Black" mask="url(#mask-2)" fill="#000000">
                <rect id="Rectangle-3" x="0" y="0" width="28" height="28"></rect>
            </g>
        </g>
    </g>
</svg>