<?xml version="1.0" encoding="UTF-8"?>
<svg width="28px" height="28px" viewBox="0 0 28 28" version="1.1" xmlns="http://www.w3.org/2000/svg" xmlns:xlink="http://www.w3.org/1999/xlink">
    <!-- Generator: Sketch 48.2 (47327) - http://www.bohemiancoding.com/sketch -->
    <title>Bonds/Icons/Report/Alert/Confirmed</title>
    <desc>Created with Sketch.</desc>
    <defs>
        <path d="M25.0023529,9.07923338 C25.5529412,9.07923338 26,9.52709052 26,10.078662 L26,20.6433762 C26,22.2273762 24.7717647,23.5238048 23.2517647,23.5238048 L4.74823529,23.5238048 C3.23294118,23.5238048 2,22.2273762 2,20.6433762 L2,10.078662 C2,9.52709052 2.44705882,9.07923338 2.99764706,9.07923338 L3.00235294,9.07923338 C3.55294118,9.07923338 4,9.52709052 4,10.078662 L4,20.6433762 C4,21.1289477 4.33882353,21.5202334 4.74823529,21.5202334 L23.2517647,21.5202334 C23.6658824,21.5202334 24.0047059,21.1289477 24.0047059,20.6433762 L24.0047059,10.078662 C24.0047059,9.52709052 24.4517647,9.07923338 25.0023529,9.07923338 Z M21.1417135,4.94227869 C21.3266958,5.1214265 21.4330606,5.37407085 21.428436,5.63130873 C21.428436,5.88854662 21.3266958,6.13659743 21.1417135,6.32033878 L13.3724571,13.5229995 L13.3678325,13.5275931 C12.9839943,13.9042628 12.3643036,13.9042628 11.9804653,13.5229995 L9.14561166,10.445332 L9.1409871,10.4407385 C8.7617734,10.0594752 8.7617734,9.44394166 9.14561166,9.0672719 C9.53407448,8.69519568 10.1445161,8.69519568 10.5329789,9.0672719 L12.3504299,11.134362 C12.5261631,11.3089163 12.8175102,11.3089163 12.9932434,11.134362 L19.7543463,4.94227869 C20.1428091,4.57479599 20.7532507,4.57479599 21.1417135,4.94227869 Z" id="path-1"></path>
    </defs>
    <g id="Icons" stroke="none" stroke-width="1" fill="none" fill-rule="evenodd">
        <g id="Bonds/Icons/Report/Alert/Confirmed">
            <mask id="mask-2" fill="white">
                <use xlink:href="#path-1"></use>
            </mask>
            <g id="Combined-Shape"></g>
            <g id="Bonds/Colours/General/Black" mask="url(#mask-2)" fill="#000000">
                <rect id="Rectangle-3" x="0" y="0" width="28" height="28"></rect>
            </g>
        </g>
    </g>
</svg>