<?xml version="1.0" encoding="UTF-8"?>
<svg width="28px" height="28px" viewBox="0 0 28 28" version="1.1" xmlns="http://www.w3.org/2000/svg" xmlns:xlink="http://www.w3.org/1999/xlink">
    <!-- Generator: Sketch 48.2 (47327) - http://www.bohemiancoding.com/sketch -->
    <title>Bonds/Icons/Report/Alert/Name</title>
    <desc>Created with Sketch.</desc>
    <defs>
        <path d="M19.2756863,13.5138852 C23.02,13.5138852 25,17.2880002 25,20.5965519 C25,21.6994025 23.9819608,22.6000002 22.7352941,22.6000002 L5.26039216,22.6000002 C4.01803922,22.6000002 3,21.6994025 3,20.5965519 C3,17.2880002 4.98,13.5138852 8.72,13.5138852 C9.13843137,13.5138852 9.47490196,13.8115404 9.47490196,14.1817013 C9.47490196,14.5480462 9.13843137,14.8495174 8.72,14.8495174 C5.81254902,14.8495174 4.50980392,18.0245059 4.50980392,20.5965519 C4.50980392,20.9667129 4.85058824,21.264368 5.26039216,21.264368 L22.7352941,21.264368 C23.1537255,21.264368 23.4901961,20.9667129 23.4901961,20.5965519 C23.4901961,18.0206899 22.187451,14.8495174 19.2756863,14.8495174 C18.8615686,14.8495174 18.525098,14.5480462 18.525098,14.1817013 C18.525098,13.8115404 18.8615686,13.5138852 19.2756863,13.5138852 Z M14.0000086,14.756708 C11.2863479,14.756708 9.08978541,12.7941335 9.08978541,10.378354 C9.08978541,7.96257453 11.2907676,6 14.0000086,6 C16.7092497,6 18.9102318,7.95863362 18.9102318,10.378354 C18.9102318,12.7980744 16.7136693,14.756708 14.0000086,14.756708 Z M14.0000086,7.11921921 C11.9802318,7.11921921 10.344964,8.57735691 10.344964,10.378354 C10.344964,12.1793511 11.9802318,13.6374888 14.0000086,13.6374888 C16.0197854,13.6374888 17.6550533,12.1793511 17.6550533,10.378354 C17.6550533,8.57735691 16.0197854,7.11921921 14.0000086,7.11921921 Z" id="path-1"></path>
    </defs>
    <g id="Icons" stroke="none" stroke-width="1" fill="none" fill-rule="evenodd">
        <g id="Bonds/Icons/Report/Alert/Name">
            <mask id="mask-2" fill="white">
                <use xlink:href="#path-1"></use>
            </mask>
            <g id="Combined-Shape"></g>
            <g id="Bonds/Colours/General/Black" mask="url(#mask-2)" fill="#000000">
                <rect id="Rectangle-3" x="0" y="0" width="28" height="28"></rect>
            </g>
        </g>
    </g>
</svg>