<?xml version="1.0" encoding="UTF-8"?>
<svg width="28px" height="28px" viewBox="0 0 28 28" version="1.1" xmlns="http://www.w3.org/2000/svg" xmlns:xlink="http://www.w3.org/1999/xlink">
    <!-- Generator: Sketch 48.2 (47327) - http://www.bohemiancoding.com/sketch -->
    <title>Bonds/Icons/Report/Alert/Warning</title>
    <desc>Created with Sketch.</desc>
    <defs>
        <path d="M24.0854902,10.4052243 C24.5901961,10.4052243 25,10.7855599 25,11.2539733 L25,20.2258909 C25,21.571078 23.8741176,22.6720496 22.4807843,22.6720496 L5.51921569,22.6720496 C4.13019608,22.6720496 3,21.571078 3,20.2258909 L3,11.2539733 C3,10.7855599 3.40980392,10.4052243 3.9145098,10.4052243 L3.91882353,10.4052243 C4.42352941,10.4052243 4.83333333,10.7855599 4.83333333,11.2539733 L4.83333333,20.2258909 C4.83333333,20.6382548 5.14392157,20.970548 5.51921569,20.970548 L22.4807843,20.970548 C22.8603922,20.970548 23.1709804,20.6382548 23.1709804,20.2258909 L23.1709804,11.2539733 C23.1709804,10.7855599 23.5807843,10.4052243 24.0854902,10.4052243 Z M14.0000086,13.0911408 C13.4381039,13.0911408 12.9761991,12.7101502 12.9761991,12.2466771 L12.9761991,5.84446372 C12.9761991,5.38099061 13.4381039,5 14.0000086,5 C14.5619134,5 15.0238182,5.38099061 15.0238182,5.84446372 L15.0238182,12.2466771 C15.0238182,12.7101502 14.5619134,13.0911408 14.0000086,13.0911408 Z M14.0000086,17.4111947 C13.135284,17.4111947 12.4285801,16.7586537 12.4285801,15.9602028 L12.4285801,15.9926272 C12.4285801,15.1941764 13.135284,14.5416354 14.0000086,14.5416354 C14.8647333,14.5416354 15.5714372,15.1941764 15.5714372,15.9926272 L15.5714372,15.9602028 C15.5714372,16.7546006 14.8647333,17.4111947 14.0000086,17.4111947 Z" id="path-1"></path>
    </defs>
    <g id="Icons" stroke="none" stroke-width="1" fill="none" fill-rule="evenodd">
        <g id="Bonds/Icons/Report/Alert/Warning">
            <mask id="mask-2" fill="white">
                <use xlink:href="#path-1"></use>
            </mask>
            <g id="Combined-Shape"></g>
            <g id="Bonds/Colours/General/Black" mask="url(#mask-2)" fill="#000000">
                <rect id="Rectangle-3" x="0" y="0" width="28" height="28"></rect>
            </g>
        </g>
    </g>
</svg>