<?xml version="1.0" encoding="UTF-8"?>
<svg width="24px" height="24px" viewBox="0 0 24 24" version="1.1" xmlns="http://www.w3.org/2000/svg" xmlns:xlink="http://www.w3.org/1999/xlink">
    <!-- Generator: Sketch 46.2 (44496) - http://www.bohemiancoding.com/sketch -->
    <title>Artboard Copy 3</title>
    <desc>Created with Sketch.</desc>
    <defs></defs>
    <g id="Page-1" stroke="none" stroke-width="1" fill="none" fill-rule="evenodd">
        <g id="Artboard-Copy-3" fill-rule="nonzero" fill="#000000">
            <path d="M17.2588281,11.9382031 L7.6290625,11.9382031 L7.6290625,7.96914062 C7.6290625,6.64609375 7.85226562,4.9028125 11.9225781,4.9028125 C15.8419531,4.9028125 16.219375,6.64617188 16.219375,7.96914062 L16.219375,10.1471094 C16.219375,10.6769531 16.3157031,10.8785156 16.7390625,10.8785156 C17.1630469,10.8785156 17.25875,10.73125 17.25875,10.1471094 L17.25875,7.96914062 C17.2588281,5.79867187 16.2992188,4 11.9225781,4 C7.36695313,4 6.58632813,5.79867187 6.58632813,7.9690625 L6.58632813,11.938125 C5.68734375,11.938125 5,12.6254687 5,13.5244531 L5,18.8165625 C5,19.7189062 5.68734375,20.4061719 6.58632813,20.4061719 L17.2589063,20.4061719 C18.1611719,20.4061719 18.8485156,19.7189062 18.8485156,18.8165625 L18.8485156,13.5244531 C18.8484375,12.6797656 18.1611719,11.9382031 17.2588281,11.9382031 L17.2588281,11.9382031 Z M12.2775,16.648125 L12.2775,17.6610156 C12.2775,17.8753906 12.1364062,18.0165625 11.9220312,18.0165625 C11.7120312,18.0165625 11.5709375,17.8753906 11.5709375,17.6610156 L11.5709375,16.648125 C11.1475,16.5069531 10.8642969,16.0835156 10.8642969,15.6591406 C10.8642969,15.0945313 11.3609375,14.6014063 11.9220312,14.6014063 C12.4875,14.6014063 12.9841406,15.0945313 12.9841406,15.6591406 C12.9841406,16.1558594 12.7009375,16.5069531 12.2775,16.648125 L12.2775,16.648125 Z" id="Shape"></path>
        </g>
    </g>
</svg>