<?xml version="1.0" encoding="UTF-8"?>
<svg width="42px" height="42px" viewBox="0 0 42 42" version="1.1" xmlns="http://www.w3.org/2000/svg" xmlns:xlink="http://www.w3.org/1999/xlink">
    <!-- Generator: Sketch 48.2 (47327) - http://www.bohemiancoding.com/sketch -->
    <title>Bonds/Icons/Global/Eye/Simple</title>
    <desc>Created with Sketch.</desc>
    <defs>
        <path d="M20.921875,15.453125 C27.0532031,15.453125 33.421875,17.8557812 33.421875,20.9196875 C33.421875,23.9871094 27.0532031,26.390625 20.921875,26.390625 C14.7871094,26.390625 8.421875,23.9871094 8.421875,20.9196875 C8.421875,17.8557812 14.7871094,15.453125 20.921875,15.453125 Z M9.790625,20.9196875 C9.790625,22.3551563 13.5054687,23.9102344 16.906875,24.6210938 C16.0089062,23.6470313 15.4509375,22.3482813 15.4509375,20.9196875 C15.4509375,19.4920313 16.0089062,18.1967188 16.906875,17.2183594 C13.5053906,17.9326563 9.790625,19.4885156 9.790625,20.9196875 Z M20.921875,25.021875 C23.1809375,25.021875 25.0239844,23.183125 25.0239844,20.9197656 C25.0239844,18.660625 23.1809375,16.8219531 20.921875,16.8219531 C18.6585156,16.8219531 16.8197656,18.6607031 16.8197656,20.9197656 C16.8197656,23.1832031 18.6585156,25.021875 20.921875,25.021875 Z M24.9334375,24.6210938 C28.3374219,23.9102344 32.053125,22.3551563 32.053125,20.9196875 C32.053125,19.4885156 28.3374219,17.9326563 24.9334375,17.2183594 C25.8348437,18.1966406 26.3885156,19.4919531 26.3885156,20.9196875 C26.3885156,22.3482813 25.8348437,23.6470313 24.9334375,24.6210938 Z M20.921875,18.8708594 C22.053125,18.8708594 22.9707813,19.791875 22.9707813,20.9197656 C22.9707813,22.051875 22.053125,22.9729688 20.921875,22.9729688 C19.790625,22.9729688 18.8686719,22.051875 18.8686719,20.9197656 C18.8686719,19.7919531 19.790625,18.8708594 20.921875,18.8708594 Z" id="path-1"></path>
    </defs>
    <g id="Icons" stroke="none" stroke-width="1" fill="none" fill-rule="evenodd">
        <g id="Bonds/Icons/Global/Eye/Simple">
            <mask id="mask-2" fill="white">
                <use xlink:href="#path-1"></use>
            </mask>
            <g id="Shape" fill-rule="nonzero"></g>
            <g id="Bonds/Colours/General/White" mask="url(#mask-2)" fill="#FFFFFF">
                <rect id="Rectangle-3" x="0" y="0" width="42" height="42"></rect>
            </g>
        </g>
    </g>
</svg>