<?xml version="1.0" encoding="UTF-8"?>
<svg width="40px" height="40px" viewBox="0 0 40 40" version="1.1" xmlns="http://www.w3.org/2000/svg" xmlns:xlink="http://www.w3.org/1999/xlink">
    <!-- Generator: Sketch 48.2 (47327) - http://www.bohemiancoding.com/sketch -->
    <title>Bonds/Icons/Report/Overview/Default</title>
    <desc>Created with Sketch.</desc>
    <defs>
        <path d="M20,0.078125 C8.99742187,0.078125 0.078125,8.99742187 0.078125,20 C0.078125,31.0025781 8.99742187,39.921875 20,39.921875 C31.0025781,39.921875 39.921875,31.0025781 39.921875,20 C39.921875,8.99742188 31.0025781,0.078125 20,0.078125 Z M20,38.7265625 C9.65757813,38.7265625 1.2734375,30.3424219 1.2734375,20 C1.2734375,9.65757813 9.65757813,1.2734375 20,1.2734375 C30.3424219,1.2734375 38.7265625,9.65757813 38.7265625,20 C38.7265625,30.3424219 30.3424219,38.7265625 20,38.7265625 Z M26.0392157,27.4901961 L26.0392157,15.5764706 C26.0392157,15.2941176 25.8431373,15.0588235 25.6,15.0588235 L24.3764706,15.0588235 C23.4823529,15.0588235 22.5098039,14.054902 22.5098039,13.1215686 L22.5098039,12.0470588 C22.5098039,11.7647059 22.3137255,11.5294118 22.0705882,11.5294118 L14.7137255,11.5294118 C14.4705882,11.5294118 14.2745098,11.7568627 14.2745098,12.0470588 L14.2745098,27.4901961 C14.2745098,27.772549 14.4705882,28.0078431 14.7137255,28.0078431 L25.6,28.0078431 C25.8431373,28 26.0392157,27.772549 26.0392157,27.4901961 L26.0392157,27.4901961 Z M16.2039216,14.9254902 L20.9490196,14.9254902 C21.2705882,14.9254902 21.5372549,15.1843137 21.5372549,15.5137255 C21.5372549,15.8431373 21.2705882,16.1019608 20.9490196,16.1019608 L16.2039216,16.1019608 C15.8823529,16.1019608 15.6156863,15.8431373 15.6156863,15.5137255 C15.6156863,15.1843137 15.8823529,14.9254902 16.2039216,14.9254902 Z M22.3372549,23.2156863 L20.0392157,25.5137255 L20.0313725,25.5058824 C19.8039216,25.7333333 19.427451,25.7333333 19.2,25.5058824 L18.4862745,24.7921569 L16.6039216,26.6745098 C16.3764706,26.9019608 16,26.9019608 15.772549,26.6745098 C15.545098,26.4470588 15.545098,26.0705882 15.772549,25.8431373 L18.0705882,23.545098 C18.2980392,23.3176471 18.6745098,23.3176471 18.9019608,23.545098 C18.9176471,23.5607843 18.9333333,23.5843137 18.9490196,23.6078431 L19.6078431,24.2666667 L21.4901961,22.3843137 C21.7176471,22.1568627 22.0941176,22.1568627 22.3215686,22.3843137 C22.572549,22.6117647 22.572549,22.9882353 22.3372549,23.2156863 Z M24.1098039,26.7843137 L24.0941176,26.7843137 C23.772549,26.7843137 23.5058824,26.5254902 23.5058824,26.1960784 C23.5058824,25.8745098 23.772549,25.6078431 24.0941176,25.6078431 L24.1098039,25.6078431 C24.4313725,25.6078431 24.6980392,25.8666667 24.6980392,26.1960784 C24.6980392,26.5176471 24.4313725,26.7843137 24.1098039,26.7843137 Z M24.1098039,21.0823529 L16.2039216,21.0823529 C15.8823529,21.0823529 15.6156863,20.8235294 15.6156863,20.4941176 C15.6156863,20.172549 15.8823529,19.9058824 16.2039216,19.9058824 L24.1098039,19.9058824 C24.4313725,19.9058824 24.6980392,20.1647059 24.6980392,20.4941176 C24.6980392,20.8156863 24.4313725,21.0823529 24.1098039,21.0823529 Z M24.1098039,18.5882353 L16.2039216,18.5882353 C15.8823529,18.5882353 15.6156863,18.3294118 15.6156863,18 C15.6156863,17.6784314 15.8823529,17.4117647 16.2039216,17.4117647 L24.1098039,17.4117647 C24.4313725,17.4117647 24.6980392,17.6705882 24.6980392,18 C24.6980392,18.3294118 24.4313725,18.5882353 24.1098039,18.5882353 Z M27.2156863,27.4901961 C27.2156863,28.4235294 26.4941176,29.1843137 25.6,29.1843137 L14.7137255,29.1843137 C13.8196078,29.1843137 13.0980392,28.4235294 13.0980392,27.4901961 L13.0980392,12.0470588 C13.0980392,11.1137255 13.827451,10.3529412 14.7137255,10.3529412 L22.0705882,10.3529412 C22.9647059,10.3529412 23.6862745,11.1137255 23.6862745,12.0470588 L23.6862745,13.1215686 C23.6862745,13.4039216 24.1333333,13.8823529 24.3764706,13.8823529 L25.6,13.8823529 C26.4941176,13.8823529 27.2156863,14.6431373 27.2156863,15.5764706 L27.2156863,27.4901961 L27.2156863,27.4901961 Z" id="path-1"></path>
    </defs>
    <g id="Icons" stroke="none" stroke-width="1" fill="none" fill-rule="evenodd">
        <g id="Bonds/Icons/Report/Overview/Default">
            <mask id="mask-2" fill="white">
                <use xlink:href="#path-1"></use>
            </mask>
            <g id="Shape" fill-rule="nonzero"></g>
            <g id="Bonds/Colours/General/White" mask="url(#mask-2)" fill="#FFFFFF">
                <rect id="Rectangle-3" x="0" y="0" width="40" height="40"></rect>
            </g>
        </g>
    </g>
</svg>