<?xml version="1.0" encoding="UTF-8"?>
<svg width="24px" height="24px" viewBox="0 0 24 24" version="1.1" xmlns="http://www.w3.org/2000/svg" xmlns:xlink="http://www.w3.org/1999/xlink">
    <!-- Generator: Sketch 46.2 (44496) - http://www.bohemiancoding.com/sketch -->
    <title>Artboard Copy</title>
    <desc>Created with Sketch.</desc>
    <defs></defs>
    <g id="Page-1" stroke="none" stroke-width="1" fill="none" fill-rule="evenodd">
        <g id="Artboard-Copy" stroke="#000000">
            <path d="M19.9019608,10.4509804 C19.9019608,17.0078431 13.0313725,21.0941176 12.7411765,21.2666667 C12.654902,21.3137255 12.5529412,21.345098 12.4509804,21.345098 C12.3568627,21.345098 12.254902,21.3137255 12.1607843,21.2666667 C11.8705882,21.0941176 5,17.0156863 5,10.4509804 C5,6.34117647 8.34117647,3 12.4509804,3 C16.5607843,3 19.9019608,6.34117647 19.9019608,10.4509804 Z" id="Combined-Shape"></path>
            <path d="M14.7176471,10.6 C14.7176471,11.854902 13.7058824,12.8745098 12.4431373,12.8745098 C11.1882353,12.8745098 10.1764706,11.8627451 10.1764706,10.6 C10.1764706,9.34509804 11.1882353,8.33333333 12.4431373,8.33333333 C13.7058824,8.33333333 14.7176471,9.34509804 14.7176471,10.6 Z" id="Path"></path>
        </g>
    </g>
</svg>