<?xml version="1.0" encoding="UTF-8"?>
<svg width="40px" height="40px" viewBox="0 0 40 40" version="1.1" xmlns="http://www.w3.org/2000/svg" xmlns:xlink="http://www.w3.org/1999/xlink">
    <!-- Generator: Sketch 48.2 (47327) - http://www.bohemiancoding.com/sketch -->
    <title>Bonds/Icons/Report/Missing Brand/Loan</title>
    <desc>Created with Sketch.</desc>
    <defs>
        <path d="M27.999623,18.2226896 L28.7300039,18.2226896 C29.2855166,18.2226896 29.7358486,18.6738712 29.7358486,19.2210075 L29.7358486,26.0771534 C29.7358486,26.6285092 29.2904014,27.0754714 28.7300039,27.0754714 L13.425395,27.0754714 C12.8698823,27.0754714 12.4195503,26.6242898 12.4195503,26.0771534 L12.4195503,24.4295682 C11.8892635,24.4877593 11.4013435,24.1189032 11.3182718,23.5944097 L10.2457343,16.8226743 C10.1594833,16.2781066 10.529526,15.766964 11.0830241,15.6792985 L26.1992078,13.2851302 C26.7478812,13.1982288 27.2632492,13.5734082 27.3488402,14.1138084 L27.999623,18.2226896 Z M12.4195503,23.5955629 L12.4195503,20.5964083 L11.8738367,17.276895 C11.8407387,17.0755636 11.9926801,16.8837729 12.2118478,16.8502347 L14.1514369,16.5534282 C14.3688993,16.5201509 14.5698587,16.6554245 14.6002923,16.8555703 C14.6307259,17.0557161 14.4791091,17.2449429 14.2616467,17.2782201 L12.7201939,17.5141016 L12.8643316,18.3908745 C13.0240487,18.2846441 13.2167551,18.2226896 13.425395,18.2226896 L16.9561165,18.2226896 C17.2792623,17.5330599 17.9646244,16.9996248 18.820835,16.8640144 C19.9649379,16.6828062 21.0384194,17.2714307 21.4288898,18.2226896 L25.619532,18.2226896 L25.2314699,15.676089 L23.6925698,15.9280875 C23.4754676,15.9636385 23.2727971,15.8305253 23.2398927,15.6307708 C23.2069883,15.4310164 23.3563102,15.2402637 23.5734125,15.2047127 L25.5097896,14.8876264 C25.7285943,14.8517966 25.9323658,14.9872479 25.9631026,15.1889533 L26.4253965,18.2226896 L27.1834055,18.2226896 C26.9946577,17.127841 26.7573576,15.7472641 26.4715052,14.0809588 C26.4710549,14.0783427 21.2917181,14.8310612 10.9334946,16.3391143 C10.941196,16.3379918 11.3619001,18.7673735 12.1956068,23.6272593 C12.1956609,23.6275732 12.2703087,23.6170078 12.4195503,23.5955629 Z M28.9468065,26.3423504 C28.9390091,26.3423504 28.9364665,23.8823156 28.9391786,18.962246 C28.9391786,18.9595973 23.6956498,18.9574521 13.2085924,18.9558106 C13.2163897,18.9558106 13.2189324,21.4158454 13.2162203,26.335915 C13.2162203,26.3385637 18.459749,26.3407089 28.9468065,26.3423504 Z M20.8797846,25.0570831 C19.5439071,25.0570831 18.4609644,24.0605249 18.4609644,22.831208 C18.4609644,21.6018911 19.5439071,20.6053329 20.8797846,20.6053329 C22.2156621,20.6053329 23.2986048,21.6018911 23.2986048,22.831208 C23.2986048,24.0605249 22.2156621,25.0570831 20.8797846,25.0570831 Z M14.7440841,20.3619079 L14.7709467,24.9469874 L16.2830402,24.9413834 C16.5030328,24.940568 16.6820902,25.1040205 16.6829762,25.3064646 C16.6838622,25.5089088 16.5062413,25.6736831 16.2862487,25.6744984 L14.3763663,25.6815768 C14.1565859,25.6823913 13.9776178,25.5192431 13.9764329,25.3169955 L13.9452542,19.9952222 C13.9440589,19.7911918 14.1241324,19.6255313 14.3458482,19.6266913 L16.3079886,19.6369576 C16.5279794,19.6381087 16.7053032,19.8031538 16.7040524,20.0055963 C16.7028016,20.2080389 16.5234498,20.3712178 16.303459,20.3700668 L14.7440841,20.3619079 Z M27.3844522,24.9469874 L27.4113148,20.3619079 L25.8519399,20.3700668 C25.6319491,20.3712178 25.4525973,20.2080389 25.4513465,20.0055963 C25.4500957,19.8031538 25.6274195,19.6381087 25.8474103,19.6369576 L27.8095506,19.6266913 C28.0312665,19.6255313 28.21134,19.7911918 28.2101446,19.9952222 L28.178966,25.3169955 C28.1777811,25.5192431 27.998813,25.6823913 27.7790325,25.6815768 L25.8691502,25.6744984 C25.6491576,25.6736831 25.4715366,25.5089088 25.4724226,25.3064646 C25.4733086,25.1040205 25.6523661,24.940568 25.8723587,24.9413834 L27.3844522,24.9469874 Z" id="path-1"></path>
    </defs>
    <g id="Icons" stroke="none" stroke-width="1" fill="none" fill-rule="evenodd">
        <g id="Bonds/Icons/Report/Missing-Brand/Loan">
            <mask id="mask-2" fill="white">
                <use xlink:href="#path-1"></use>
            </mask>
            <g id="Combined-Shape"></g>
            <g id="Bonds/Colours/General/Light-Grey" mask="url(#mask-2)" fill="#C4C8CB">
                <rect id="Rectangle-3" x="0" y="0" width="40" height="40"></rect>
            </g>
        </g>
    </g>
</svg>