<?xml version="1.0" encoding="UTF-8"?>
<svg width="40px" height="40px" viewBox="0 0 40 40" version="1.1" xmlns="http://www.w3.org/2000/svg" xmlns:xlink="http://www.w3.org/1999/xlink">
    <!-- Generator: Sketch 48.2 (47327) - http://www.bohemiancoding.com/sketch -->
    <title>Bonds/Icons/Report/Missing Brand/Other</title>
    <desc>Created with Sketch.</desc>
    <defs>
        <path d="M19.3908676,22.1651515 C19.3908676,21.7666647 19.4361487,21.4134657 19.5267123,21.1055441 C19.6172759,20.7976224 19.7327428,20.5168745 19.8731164,20.263292 C20.01349,20.0097095 20.171974,19.7682059 20.3485731,19.5387741 C20.5251721,19.3093423 20.6949764,19.0799139 20.8579909,18.8504821 C21.0753436,18.5727488 21.2745805,18.2557754 21.4557078,17.8995523 C21.636835,17.5433293 21.7273973,17.0874913 21.7273973,16.5320248 C21.74551,15.8799554 21.6164588,15.3546852 21.3402397,14.9561983 C21.0640207,14.5577115 20.6542265,14.3584711 20.1108447,14.3584711 C19.5221812,14.3584711 19.0761621,14.5335612 18.772774,14.8837466 C18.4693858,15.233932 18.2407161,15.7954277 18.086758,16.5682507 L17,16.3327824 C17.0633945,15.8980695 17.1675411,15.4814758 17.3124429,15.082989 C17.4573447,14.6845021 17.6520536,14.3313032 17.8965753,14.0233815 C18.1410971,13.7154599 18.4467447,13.4679188 18.8135274,13.2807507 C19.1803101,13.0935826 19.617273,13 20.1244292,13 C20.5863037,13 20.9915698,13.0815074 21.3402397,13.2445248 C21.6889097,13.4075421 21.983237,13.6399893 22.2232306,13.9418733 C22.4632242,14.2437572 22.6443487,14.599975 22.7666096,15.0105372 C22.8888705,15.4210994 22.95,15.867881 22.95,16.3508953 C22.95,17.0754168 22.8435893,17.6731381 22.6307648,18.1440771 C22.4179403,18.6150161 22.1666301,19.0376473 21.8768265,19.4119835 C21.713812,19.6293399 21.553064,19.8406555 21.3945776,20.0459366 C21.2360913,20.2512177 21.0957198,20.4625333 20.9734589,20.6798898 C20.851198,20.8972463 20.7515795,21.1296934 20.6746005,21.3772383 C20.5976214,21.6247831 20.5591324,21.8994934 20.5591324,22.2013774 L20.5591324,22.4368457 L19.3908676,22.4368457 L19.3908676,22.1651515 Z M19.3093607,24.0488981 L20.6270548,24.0488981 L20.6270548,26.15 L19.3093607,26.15 L19.3093607,24.0488981 Z" id="path-1"></path>
    </defs>
    <g id="Icons" stroke="none" stroke-width="1" fill="none" fill-rule="evenodd">
        <g id="Bonds/Icons/Report/Missing-Brand/Other">
            <mask id="mask-2" fill="white">
                <use xlink:href="#path-1"></use>
            </mask>
            <g id="Combined-Shape"></g>
            <g id="Bonds/Colours/General/Light-Grey" mask="url(#mask-2)" fill="#C4C8CB">
                <rect id="Rectangle-3" x="0" y="0" width="40" height="40"></rect>
            </g>
        </g>
    </g>
</svg>