<?xml version="1.0" encoding="UTF-8"?>
<svg width="40px" height="40px" viewBox="0 0 40 40" version="1.1" xmlns="http://www.w3.org/2000/svg" xmlns:xlink="http://www.w3.org/1999/xlink">
    <!-- Generator: Sketch 48.2 (47327) - http://www.bohemiancoding.com/sketch -->
    <title>Bonds/Icons/Report/Missing Brand/Personal Account</title>
    <desc>Created with Sketch.</desc>
    <defs>
        <path d="M28.2269132,20.2529412 C28.2270301,19.4974637 28.2271499,18.6670779 28.2272727,17.7617835 C28.2269888,17.7618908 23.0761077,17.7619736 12.7746295,17.7620321 C12.7741034,17.7620321 12.7734693,20.4972308 12.7727273,25.9676282 C12.7730112,25.967521 17.9238923,25.9674381 28.2253705,25.9673797 C28.225704,25.9673797 28.2260808,24.8684492 28.2265011,22.6705882 L24.2540713,22.6705882 C23.5890811,22.6705882 23.05,22.134034 23.05,21.4617647 C23.05,20.7941499 23.5990967,20.2529412 24.2540713,20.2529412 L28.2269132,20.2529412 Z M14.7573485,17.0294118 L25.828977,13 L27.4603991,17.0294118 L28.0000398,17.0294118 C28.5523026,17.0294118 29,17.470066 29,18.0279106 L29,25.7015011 C29,26.2529568 28.5452911,26.7 28.0000398,26.7 L12.9999602,26.7 C12.4476974,26.7 12,26.2593457 12,25.7015011 L12,18.0279106 C12,17.4764549 12.4547089,17.0294118 12.9999602,17.0294118 L14.7573485,17.0294118 Z M26.6326962,17.0294118 L25.3844946,13.9465076 L16.9135884,17.0294118 L26.6326962,17.0294118 Z M24.595454,22.2310163 C25.0222194,22.2310163 25.3681812,21.903011 25.3681812,21.498396 C25.3681812,21.093781 25.0222194,20.7657757 24.595454,20.7657757 C24.1686885,20.7657757 23.8227267,21.093781 23.8227267,21.498396 C23.8227267,21.903011 24.1686885,22.2310163 24.595454,22.2310163 Z M16.25,19.0441176 C16.25,18.8215794 16.4275346,18.6411765 16.6599727,18.6411765 L24.3400273,18.6411765 C24.566449,18.6411765 24.75,18.8280877 24.75,19.0441176 C24.75,19.2666559 24.5724654,19.4470588 24.3400273,19.4470588 L16.6599727,19.4470588 C16.433551,19.4470588 16.25,19.2601476 16.25,19.0441176 Z" id="path-1"></path>
    </defs>
    <g id="Icons" stroke="none" stroke-width="1" fill="none" fill-rule="evenodd">
        <g id="Bonds/Icons/Report/Missing-Brand/Personal-Account">
            <mask id="mask-2" fill="white">
                <use xlink:href="#path-1"></use>
            </mask>
            <g id="Combined-Shape"></g>
            <g id="Bonds/Colours/General/Light-Grey" mask="url(#mask-2)" fill="#C4C8CB">
                <rect id="Rectangle-3" x="0" y="0" width="40" height="40"></rect>
            </g>
        </g>
    </g>
</svg>