<?xml version="1.0" encoding="UTF-8"?>
<svg width="40px" height="40px" viewBox="0 0 40 40" version="1.1" xmlns="http://www.w3.org/2000/svg" xmlns:xlink="http://www.w3.org/1999/xlink">
    <!-- Generator: Sketch 48.2 (47327) - http://www.bohemiancoding.com/sketch -->
    <title>Bonds/Icons/Report/Missing Brand/Telecomms</title>
    <desc>Created with Sketch.</desc>
    <defs>
        <path d="M16.375,21.8571429 L15.0705915,21.8571429 C15.0316049,21.8571429 15,21.8224771 15,21.7804029 L15,16.5053114 C15,16.4629291 15.0267596,16.4285714 15.0727336,16.4285714 L16.375,16.4285714 L16.375,12.5872494 C16.375,11.7106358 16.9917288,11 17.7540278,11 L24.6209722,11 C25.3825882,11 26,11.7101458 26,12.5872494 L26,28.4127506 C26,29.2893642 25.3832712,30 24.6209722,30 L17.7540278,30 C16.9924118,30 16.375,29.2898542 16.375,28.4127506 L16.375,21.8571429 Z M17.0625,21.8571429 L17.0625,28.4127506 C17.0625,28.8523411 17.3718577,29.2083333 17.7540278,29.2083333 L24.6209722,29.2083333 C25.0033569,29.2083333 25.3125,28.8523904 25.3125,28.4127506 L25.3125,12.5872494 C25.3125,12.1476589 25.0031423,11.7916667 24.6209722,11.7916667 L17.7540278,11.7916667 C17.3716431,11.7916667 17.0625,12.1476096 17.0625,12.5872494 L17.0625,16.4285714 L19.1177426,16.4285714 C19.1579123,16.4285714 19.2140067,16.4528474 19.2422689,16.4820051 L21.2339216,18.5367589 C21.2625259,18.5662695 21.2857143,18.6268819 21.2857143,18.670949 L21.2857143,21.7763863 C21.2857143,21.8209869 21.2576899,21.8571429 21.2151228,21.8571429 L17.0625,21.8571429 Z M15.6875,21.0654762 L20.5982143,21.0654762 L20.5982143,18.9438391 L18.9275448,17.2202381 L15.6875,17.2202381 L15.6875,21.0654762 Z M17.0625,14.1666667 L25.3125,14.1666667 L25.3125,14.9583333 L17.0625,14.9583333 L17.0625,14.1666667 Z M17.0625,25.25 L25.3125,25.25 L25.3125,26.0416667 L17.0625,26.0416667 L17.0625,25.25 Z M19.46875,13.375 C19.2789021,13.375 19.125,13.1977794 19.125,12.9791667 C19.125,12.760554 19.2789021,12.5833333 19.46875,12.5833333 C19.6585979,12.5833333 19.8125,12.760554 19.8125,12.9791667 C19.8125,13.1977794 19.6585979,13.375 19.46875,13.375 Z M21.1875,12.9791667 C21.1875,12.760554 21.3633476,12.5833333 21.5851707,12.5833333 L22.8523293,12.5833333 C23.0719567,12.5833333 23.25,12.7669474 23.25,12.9791667 C23.25,13.1977794 23.0741524,13.375 22.8523293,13.375 L21.5851707,13.375 C21.3655433,13.375 21.1875,13.1913859 21.1875,12.9791667 Z M21.1875,28.4166667 C20.8078042,28.4166667 20.5,28.0622254 20.5,27.625 C20.5,27.1877746 20.8078042,26.8333333 21.1875,26.8333333 C21.5671958,26.8333333 21.875,27.1877746 21.875,27.625 C21.875,28.0622254 21.5671958,28.4166667 21.1875,28.4166667 Z" id="path-1"></path>
    </defs>
    <g id="Icons" stroke="none" stroke-width="1" fill="none" fill-rule="evenodd">
        <g id="Bonds/Icons/Report/Missing-Brand/Telecomms">
            <mask id="mask-2" fill="white">
                <use xlink:href="#path-1"></use>
            </mask>
            <g id="Rectangle" fill-rule="nonzero"></g>
            <g id="Bonds/Colours/General/Light-Grey" mask="url(#mask-2)" fill="#C4C8CB">
                <rect id="Rectangle-3" x="0" y="0" width="40" height="40"></rect>
            </g>
        </g>
    </g>
</svg>