<?xml version="1.0" encoding="UTF-8"?>
<svg width="146px" height="146px" viewBox="0 0 146 146" version="1.1" xmlns="http://www.w3.org/2000/svg" xmlns:xlink="http://www.w3.org/1999/xlink">
    <!-- Generator: Sketch 48.2 (47327) - http://www.bohemiancoding.com/sketch -->
    <title>Bonds/Icons/Learn/Telecomms/Block</title>
    <desc>Created with Sketch.</desc>
    <defs>
        <path d="M59.3,69.2672956 L54.1,69.3 C53.5,69.3 53,68.8 53,68.2 L53,56.8 C53,56.2 53.5,55.7 54.1,55.7 L59.1,55.7 L59.1,55.6 C59.1,55.5 59.2,55.4 59.3,55.3 L59.3,51.9 C59.2,51.9 59.1,51.8 59.1,51.6 L59.1,49.2 C59,49.3 59.1,49.2 59.2,49.1 L59.2,45.4 C59.2,42.1 61.9,39.4 65.2,39.4 L87.6,39.4 C90.9,39.4 93.6,42.1 93.6,45.4 L93.6,55.5 C93.9,55.5 94,55.6 94,55.8 L94,60.7 C94,60.9 93.9,61 93.7,61 L93.6,100.6 C93.6,103.9 90.9,106.6 87.6,106.6 L65.3,106.6 C62,106.6 59.3,103.9 59.3,100.6 L59.3,69.2672956 Z M61.3,69.254717 L61.3,98.7 L92.2,98.7 L92.2,48.2 L61.3,48.2 L61.3,55.7 L66,55.7 C66.3,55.7 66.6,55.8 66.8,56 L70.9,60 C71.1,60.2 71.2,60.5 71.2,60.8 L71.2,68.1 C71.2,68.7 70.7,69.2 70,69.2 L61.3,69.254717 Z M67.8,61.5 C67.8,61.3 67.7,61.2 67.6,61 L65,58.4 C64.9,58.3 64.7,58.2 64.5,58.2 L57.1,58.2 C56.7,58.2 56.4,58.5 56.4,58.9 L56.4,66 C56.4,66.4 56.7,66.7 57.1,66.7 L67.1,66.7 C67.5,66.7 67.8,66.4 67.8,66 L67.8,61.5 Z M61.4,64.9 L58.1,64.9 C58,64.9 57.9,64.8 57.9,64.7 L57.9,60.2 C57.9,60.1 58,60 58.1,60 L61.4,60 C61.5,60 61.6,60.1 61.6,60.2 L61.6,64.7 C61.6,64.8 61.5,64.9 61.4,64.9 Z M74,44.5 C74,44.7680664 74.2224978,45 74.4969626,45 L79.1030373,45 C79.3735374,45 79.5999999,44.7761424 79.5999999,44.5 C79.5999999,44.2319336 79.3775022,44 79.1030373,44 L74.4969626,44 C74.2264625,44 74,44.2238576 74,44.5 Z M76.6,104.9 C78,104.9 79.2,103.7 79.2,102.3 C79.2,100.9 78,99.7 76.6,99.7 C75.2,99.7 74,100.8 74,102.3 C74,103.7 75.2,104.9 76.6,104.9 Z M71,44.9 C71.2761424,44.9 71.5,44.6761424 71.5,44.4 C71.5,44.1238576 71.2761424,43.9 71,43.9 C70.7238576,43.9 70.5,44.1238576 70.5,44.4 C70.5,44.6761424 70.7238576,44.9 71,44.9 Z" id="path-1"></path>
    </defs>
    <g id="Icons" stroke="none" stroke-width="1" fill="none" fill-rule="evenodd">
        <g id="Bonds/Icons/Learn/Telecomms/Block">
            <mask id="mask-2" fill="white">
                <use xlink:href="#path-1"></use>
            </mask>
            <use id="Phone_background_8_" fill="#000000" fill-rule="nonzero" xlink:href="#path-1"></use>
            <g id="Bonds/Colours/Learn/Telecomms" mask="url(#mask-2)" fill="#7E57C2">
                <rect id="Rectangle-3" x="0" y="0" width="146" height="146"></rect>
            </g>
        </g>
    </g>
</svg>