<?xml version="1.0" encoding="UTF-8"?>
<svg width="146px" height="146px" viewBox="0 0 146 146" version="1.1" xmlns="http://www.w3.org/2000/svg" xmlns:xlink="http://www.w3.org/1999/xlink">
    <!-- Generator: Sketch 48.2 (47327) - http://www.bohemiancoding.com/sketch -->
    <title>Bonds/Icons/Learn/Telecomms/Default</title>
    <desc>Created with Sketch.</desc>
    <defs>
        <linearGradient x1="32.2921075%" y1="-1.47425595%" x2="67.1833613%" y2="101.415327%" id="linearGradient-1">
            <stop stop-color="#B39DDB" offset="0%"></stop>
            <stop stop-color="#7E57C2" offset="100%"></stop>
        </linearGradient>
        <linearGradient x1="40.5032967%" y1="-7.89191176%" x2="55.8296703%" y2="108.427941%" id="linearGradient-2">
            <stop stop-color="#D1C4E9" offset="0%"></stop>
            <stop stop-color="#9575CD" offset="100%"></stop>
        </linearGradient>
        <linearGradient x1="96.3897642%" y1="57.359463%" x2="10.4726568%" y2="23.1670302%" id="linearGradient-3">
            <stop stop-color="#D1C4E9" offset="0%"></stop>
            <stop stop-color="#9575CD" offset="100%"></stop>
        </linearGradient>
    </defs>
    <g id="Icons" stroke="none" stroke-width="1" fill="none" fill-rule="evenodd">
        <g id="Bonds/Icons/Learn/Telecomms/Default">
            <g id="Bonds/Icons/Learn/Telecomms/Gradient">
                <g id="Group-2" transform="translate(52.000000, 39.000000)">
                    <path d="M6.2,10.1 L6.2,6.4 C6.2,3.1 8.9,0.4 12.2,0.4 L34.6,0.4 C37.9,0.4 40.6,3.1 40.6,6.4 L40.6,16.5 L40.7,16.5 C40.9,16.5 41,16.6 41,16.8 L41,21.7 C41,21.9 40.9,22 40.7,22 L40.6,22 L40.6,61.6 C40.6,64.9 37.9,67.6 34.6,67.6 L12.3,67.6 C9,67.6 6.3,64.9 6.3,61.6 L6.3,28.6 C6.2,28.6 6.1,28.5 6.1,28.3 L6.1,23.4 C6.1,23.3 6.2,23.2 6.3,23.1 L6.3,21.8 C6.2,21.8 6.1,21.7 6.1,21.5 L6.1,16.6 C6.1,16.5 6.2,16.4 6.3,16.3 L6.3,12.9 C6.2,12.9 6.1,12.8 6.1,12.6 L6.1,10.2 C6,10.3 6.1,10.2 6.2,10.1 Z" id="Phone_background_8_" fill="url(#linearGradient-1)" fill-rule="nonzero"></path>
                    <rect id="Rectangle" fill="#FFFFFF" x="21" y="5" width="5.5999999" height="1" rx="0.5"></rect>
                    <path d="M23.6,65.9 C25,65.9 26.2,64.7 26.2,63.3 C26.2,61.9 25,60.7 23.6,60.7 C22.2,60.7 21,61.8 21,63.3 C21,64.7 22.2,65.9 23.6,65.9 Z" id="Shape" fill="#FFFFFF" fill-rule="nonzero"></path>
                    <rect id="Screen_4_" fill="#F5F3FF" fill-rule="nonzero" x="8.3" y="9.2" width="30.9" height="50.5"></rect>
                    <circle id="Camera_4_" stroke="#FFFFFF" stroke-width="0.2924" fill="#FFFFFF" fill-rule="nonzero" cx="18" cy="5.4" r="1"></circle>
                    <path d="M18.2,29.1 L18.2,21.8 C18.2,21.5 18.1,21.2 17.9,21 L13.8,17 C13.6,16.8 13.3,16.7 13,16.7 L1.1,16.7 C0.5,16.7 0,17.2 0,17.8 L0,29.2 C0,29.8 0.5,30.3 1.1,30.3 L17,30.2 C17.7,30.2 18.2,29.7 18.2,29.1 Z" id="Shape" fill="url(#linearGradient-2)" fill-rule="nonzero"></path>
                    <path d="M14.8,22.5 C14.8,22.3 14.7,22.2 14.6,22 L12,19.4 C11.9,19.3 11.7,19.2 11.5,19.2 L4.1,19.2 C3.7,19.2 3.4,19.5 3.4,19.9 L3.4,27 C3.4,27.4 3.7,27.7 4.1,27.7 L14.1,27.7 C14.5,27.7 14.8,27.4 14.8,27 L14.8,22.5 Z M8.4,25.9 L5.1,25.9 C5,25.9 4.9,25.8 4.9,25.7 L4.9,21.2 C4.9,21.1 5,21 5.1,21 L8.4,21 C8.5,21 8.6,21.1 8.6,21.2 L8.6,25.7 C8.6,25.8 8.5,25.9 8.4,25.9 Z" id="Sim_card_5_" fill="#FFFFFF" fill-rule="nonzero"></path>
                </g>
            </g>
            <circle id="Oval" stroke="url(#linearGradient-3)" stroke-width="3" fill-rule="nonzero" cx="73" cy="73" r="71"></circle>
        </g>
    </g>
</svg>