<?xml version="1.0" encoding="UTF-8"?>
<svg width="38px" height="38px" viewBox="0 0 38 38" version="1.1" xmlns="http://www.w3.org/2000/svg" xmlns:xlink="http://www.w3.org/1999/xlink">
    <!-- Generator: Sketch 48.2 (47327) - http://www.bohemiancoding.com/sketch -->
    <title>Bonds/Icons/Menu/Learn/Default</title>
    <desc>Created with Sketch.</desc>
    <defs>
        <path d="M19,0 C29.4934392,0 38,8.50656078 38,19 C38,29.4934392 29.4934392,38 19,38 C8.50656078,38 1.8e-15,29.4934392 1.8e-15,19 C1.8e-15,8.50656078 8.50656078,0 19,0 Z M19,36.86 C28.8638314,36.86 36.86,28.8638314 36.86,19 C36.86,9.13616863 28.8638314,1.14 19,1.14 C9.13616863,1.14 1.14,9.13616863 1.14,19 C1.14,28.8638314 9.13616863,36.86 19,36.86 Z M27.0763949,12.5414267 C27.7369179,12.6882096 28.2726755,13.0771843 28.2653364,13.7303682 L28.2653364,24.8491733 C28.2653364,25.5023573 27.7369179,26.0381149 27.0763949,26.0381149 C27.0763949,26.0381149 25.6379224,25.744549 23.5756226,25.744549 C21.5133227,25.744549 20.1775983,26.0381149 20.1775983,26.0381149 C19.9280674,26.0381149 19.6932147,25.9573843 19.5023969,25.8252796 C19.3115791,25.9573843 19.0767265,26.0381149 18.8271956,26.0381149 C18.8271956,26.0381149 17.3887231,25.744549 15.3264233,25.744549 C13.2641234,25.744549 11.928399,26.0381149 11.928399,26.0381149 C11.2752151,26.0381149 10.7394574,25.5096964 10.7394574,24.8491733 L10.7394574,13.7303682 C10.7394574,13.0771843 11.2091627,12.6294964 11.928399,12.5414267 C11.928399,12.5414267 13.2641234,12.2478609 15.2823884,12.2478609 C17.3006533,12.2478609 18.8271956,12.5414267 18.8271956,12.5414267 C19.0914048,12.607479 19.3115791,12.6221573 19.5023969,12.7542619 C19.6932147,12.6221573 19.9207282,12.607479 20.1775983,12.5414267 C20.1775983,12.5414267 21.5133227,12.2478609 23.5315877,12.2478609 C25.5498526,12.2478609 27.0763949,12.5414267 27.0763949,12.5414267 Z M18.951961,23.9831542 L18.9593002,23.9831542 L18.9593002,14.4642827 C18.9593002,13.9578817 18.548308,13.671655 18.041907,13.5468896 C18.041907,13.5468896 16.8676438,13.3193761 15.311745,13.3193761 C13.7558462,13.3193761 12.7210267,13.5468896 12.7210267,13.5468896 C12.2072865,13.6349593 11.8036335,13.9578817 11.8036335,14.4642827 L11.8036335,23.9831542 C11.8036335,24.4895552 12.2146257,24.9005473 12.7210267,24.9005473 C12.7210267,24.9005473 13.748507,24.6730338 15.3337624,24.6730338 C16.9190178,24.6730338 18.0345679,24.9005473 18.0345679,24.9005473 C18.5409689,24.9005473 18.951961,24.4895552 18.951961,23.9831542 Z M27.2084995,23.9831542 L27.2158386,23.9831542 L27.2158386,14.4642827 C27.2158386,13.9578817 26.7608116,13.6349593 26.2984455,13.5468896 C26.2984455,13.5468896 25.1241822,13.3193761 23.5682834,13.3193761 C22.0123846,13.3193761 20.9775651,13.5468896 20.9775651,13.5468896 C20.4564858,13.6569768 20.060172,13.9578817 20.060172,14.4642827 L20.060172,23.9831542 C20.060172,24.4895552 20.4711641,24.9005473 20.9775651,24.9005473 C20.9775651,24.9005473 22.0050455,24.6730338 23.5903008,24.6730338 C25.1755562,24.6730338 26.2911063,24.9005473 26.2911063,24.9005473 C26.7975073,24.9005473 27.2084995,24.4895552 27.2084995,23.9831542 Z M25.5351744,21.9869067 L21.8656017,21.9869067 C21.579375,21.9869067 21.3812181,21.752054 21.425253,21.4805056 C21.4692879,21.2162964 21.7188188,21.0108003 21.9903672,21.0108003 L25.417748,21.0108003 C25.6892964,21.0108003 25.9388273,21.2162964 25.9828622,21.4805056 C26.0195579,21.752054 25.821401,21.9869067 25.5351744,21.9869067 Z M17.2639576,21.9869067 L13.594385,21.9869067 C13.3081583,21.9869067 13.1100014,21.752054 13.1540362,21.4805056 C13.1980711,21.2162964 13.4476021,21.0108003 13.7191504,21.0108003 L17.1465313,21.0108003 C17.4180797,21.0108003 17.6676106,21.2162964 17.7116455,21.4805056 C17.7556803,21.752054 17.5501843,21.9869067 17.2639576,21.9869067 Z M17.2639576,19.4402232 L13.594385,19.4402232 C13.3081583,19.4402232 13.1100014,19.2053706 13.1540362,18.9338222 C13.1980711,18.669613 13.4476021,18.4641169 13.7191504,18.4641169 L17.1465313,18.4641169 C17.4180797,18.4641169 17.6676106,18.669613 17.7116455,18.9338222 C17.7556803,19.2053706 17.5501843,19.4402232 17.2639576,19.4402232 Z M17.2639576,16.9228964 L13.594385,16.9228964 C13.3081583,16.9228964 13.1100014,16.6880438 13.1540362,16.4164954 C13.1980711,16.1522862 13.4476021,15.9467901 13.7191504,15.9467901 L17.1465313,15.9467901 C17.4180797,15.9467901 17.6676106,16.1522862 17.7116455,16.4164954 C17.7556803,16.6880438 17.5501843,16.9228964 17.2639576,16.9228964 Z M25.5351744,19.4402232 L21.8656017,19.4402232 C21.579375,19.4402232 21.3812181,19.2053706 21.425253,18.9338222 C21.4692879,18.669613 21.7188188,18.4641169 21.9903672,18.4641169 L25.417748,18.4641169 C25.6892964,18.4641169 25.9388273,18.669613 25.9828622,18.9338222 C26.0195579,19.2053706 25.821401,19.4402232 25.5351744,19.4402232 Z M25.5351744,16.9228964 L21.8656017,16.9228964 C21.579375,16.9228964 21.3812181,16.6880438 21.425253,16.4164954 C21.4692879,16.1522862 21.7188188,15.9467901 21.9903672,15.9467901 L25.417748,15.9467901 C25.6892964,15.9467901 25.9388273,16.1522862 25.9828622,16.4164954 C26.0195579,16.6880438 25.821401,16.9228964 25.5351744,16.9228964 Z" id="path-1"></path>
    </defs>
    <g id="Icons" stroke="none" stroke-width="1" fill="none" fill-rule="evenodd">
        <g id="Bonds/Icons/Menu/Learn/Default">
            <mask id="mask-2" fill="white">
                <use xlink:href="#path-1"></use>
            </mask>
            <g id="Combined-Shape"></g>
            <g id="Bonds/Colours/General/White" mask="url(#mask-2)" fill="#FFFFFF">
                <rect id="Rectangle-3" x="0" y="0" width="38" height="38"></rect>
            </g>
        </g>
    </g>
</svg>