<?xml version="1.0" encoding="UTF-8"?>
<svg width="38px" height="38px" viewBox="0 0 38 38" version="1.1" xmlns="http://www.w3.org/2000/svg" xmlns:xlink="http://www.w3.org/1999/xlink">
    <!-- Generator: Sketch 48.2 (47327) - http://www.bohemiancoding.com/sketch -->
    <title>Bonds/Icons/Menu/Coaching/Active</title>
    <desc>Created with Sketch.</desc>
    <defs>
        <path d="M19,0 C29.4934392,0 38,8.50656078 38,19 C38,29.4934392 29.4934392,38 19,38 C8.50656078,38 1.8e-15,29.4934392 1.8e-15,19 C1.8e-15,8.50656078 8.50656078,0 19,0 Z M18.9637104,11.5039062 C14.8615695,11.5039062 11.5261213,14.8328398 11.5261213,18.9269687 C11.5261213,23.0187227 14.8615695,26.3476562 18.9637104,26.3476562 C23.0634716,26.3476562 26.3995147,23.0187227 26.3995147,18.9269687 C26.3995147,14.8328398 23.0634716,11.5039062 18.9637104,11.5039062 Z M18.9637104,25.1470195 C15.527499,25.1470195 12.7320822,22.3563945 12.7320822,18.9269687 C12.7320822,15.4974687 15.5275734,12.706918 18.9637104,12.706918 C22.3999217,12.706918 25.1936282,15.497543 25.1936282,18.9269687 C25.1935538,22.3540937 22.3975421,25.1470195 18.9637104,25.1470195 Z M18.9637104,14.3559102 C16.4382348,14.3559102 14.3837065,16.4064258 14.3837065,18.9269688 C14.3837065,21.4457305 16.4383092,23.4957266 18.9637104,23.4957266 C21.4874012,23.4957266 23.5420039,21.4458047 23.5420039,18.9269688 C23.5419295,16.4064258 21.4874012,14.3559102 18.9637104,14.3559102 Z M18.9637104,22.2927148 C17.1018591,22.2927148 15.589593,20.7834023 15.589593,18.9269688 C15.589593,17.0681602 17.1035695,15.5588477 18.9637104,15.5588477 C20.8238513,15.5588477 22.3360431,17.0680859 22.3360431,18.9269688 C22.3360431,20.7834023 20.8238513,22.2927148 18.9637104,22.2927148 Z M20.7347632,18.9269687 C20.7347632,17.949582 19.9406301,17.1575937 18.963636,17.1575937 C17.984411,17.1575937 17.1907984,17.9496562 17.1907984,18.9269687 C17.1907984,19.9019805 17.984411,20.694043 18.963636,20.694043 C19.9405558,20.694043 20.7347632,19.9019805 20.7347632,18.9269687 Z" id="path-1"></path>
    </defs>
    <g id="Icons" stroke="none" stroke-width="1" fill="none" fill-rule="evenodd">
        <g id="Bonds/Icons/Menu/Coaching/Active">
            <mask id="mask-2" fill="white">
                <use xlink:href="#path-1"></use>
            </mask>
            <g id="Combined-Shape"></g>
            <g id="Bonds/Colours/General/White" mask="url(#mask-2)" fill="#FFFFFF">
                <rect id="Rectangle-3" x="0" y="0" width="38" height="38"></rect>
            </g>
        </g>
    </g>
</svg>