<?xml version="1.0" encoding="UTF-8"?>
<svg width="38px" height="38px" viewBox="0 0 38 38" version="1.1" xmlns="http://www.w3.org/2000/svg" xmlns:xlink="http://www.w3.org/1999/xlink">
    <!-- Generator: Sketch 48.2 (47327) - http://www.bohemiancoding.com/sketch -->
    <title>Bonds/Icons/Menu/Coaching/Default</title>
    <desc>Created with Sketch.</desc>
    <defs>
        <path d="M19,0 C29.4934392,0 38,8.50656078 38,19 C38,29.4934392 29.4934392,38 19,38 C8.50656078,38 1.8e-15,29.4934392 1.8e-15,19 C1.8e-15,8.50656078 8.50656078,0 19,0 Z M19,36.86 C28.8638314,36.86 36.86,28.8638314 36.86,19 C36.86,9.13616863 28.8638314,1.14 19,1.14 C9.13616863,1.14 1.14,9.13616863 1.14,19 C1.14,28.8638314 9.13616863,36.86 19,36.86 Z M18.9637104,11.5039062 C23.0634716,11.5039062 26.3995147,14.8328398 26.3995147,18.9269687 C26.3995147,23.0187227 23.0634716,26.3476562 18.9637104,26.3476562 C14.8615695,26.3476562 11.5261213,23.0187227 11.5261213,18.9269687 C11.5261213,14.8328398 14.8615695,11.5039062 18.9637104,11.5039062 Z M18.9637104,25.1470195 C22.3975421,25.1470195 25.1935538,22.3540937 25.1936282,18.9269687 C25.1936282,15.497543 22.3999217,12.706918 18.9637104,12.706918 C15.5275734,12.706918 12.7320822,15.4974687 12.7320822,18.9269687 C12.7320822,22.3563945 15.527499,25.1470195 18.9637104,25.1470195 Z M18.9637104,14.3559102 C21.4874012,14.3559102 23.5419295,16.4064258 23.5420039,18.9269688 C23.5420039,21.4458047 21.4874012,23.4957266 18.9637104,23.4957266 C16.4383092,23.4957266 14.3837065,21.4457305 14.3837065,18.9269688 C14.3837065,16.4064258 16.4382348,14.3559102 18.9637104,14.3559102 Z M18.9637104,22.2927148 C20.8238513,22.2927148 22.3360431,20.7834023 22.3360431,18.9269688 C22.3360431,17.0680859 20.8238513,15.5588477 18.9637104,15.5588477 C17.1035695,15.5588477 15.589593,17.0681602 15.589593,18.9269688 C15.589593,20.7834023 17.1018591,22.2927148 18.9637104,22.2927148 Z M20.7347632,18.9269687 C20.7347632,19.9019805 19.9405558,20.694043 18.963636,20.694043 C17.984411,20.694043 17.1907984,19.9019805 17.1907984,18.9269687 C17.1907984,17.9496562 17.984411,17.1575937 18.963636,17.1575937 C19.9406301,17.1575937 20.7347632,17.949582 20.7347632,18.9269687 Z" id="path-1"></path>
    </defs>
    <g id="Icons" stroke="none" stroke-width="1" fill="none" fill-rule="evenodd">
        <g id="Bonds/Icons/Menu/Coaching/Default">
            <mask id="mask-2" fill="white">
                <use xlink:href="#path-1"></use>
            </mask>
            <g id="Combined-Shape"></g>
            <g id="Bonds/Colours/General/White" mask="url(#mask-2)" fill="#FFFFFF">
                <rect id="Rectangle-3" x="0" y="0" width="38" height="38"></rect>
            </g>
        </g>
    </g>
</svg>