<?xml version="1.0" encoding="UTF-8"?>
<svg width="36px" height="36px" viewBox="0 0 36 36" version="1.1" xmlns="http://www.w3.org/2000/svg" xmlns:xlink="http://www.w3.org/1999/xlink">
    <!-- Generator: Sketch 48.2 (47327) - http://www.bohemiancoding.com/sketch -->
    <title>Bonds/Icons/My Account/Help/Default</title>
    <desc>Created with Sketch.</desc>
    <defs>
        <path d="M20.04,16.5882353 C20.04,17.7176471 19.1294118,18.6352941 17.9929412,18.6352941 C16.8635294,18.6352941 15.9529412,17.7247059 15.9529412,16.5882353 C15.9529412,15.4588235 16.8635294,14.5482353 17.9929412,14.5482353 C19.1294118,14.5482353 20.04,15.4588235 20.04,16.5882353 Z M24.7058824,16.4541176 C24.7058824,22.3552941 18.5223529,26.0329412 18.2611765,26.1882353 C18.1835294,26.2305882 18.0917647,26.2588235 18,26.2588235 C17.9152941,26.2588235 17.8235294,26.2305882 17.7388235,26.1882353 C17.4776471,26.0329412 11.2941176,22.3623529 11.2941176,16.4541176 C11.2941176,12.7552941 14.3011765,9.74823529 18,9.74823529 C21.6988235,9.74823529 24.7058824,12.7552941 24.7058824,16.4541176 Z M23.6752941,16.4470588 C23.6752941,13.32 21.1270588,10.7788235 18,10.7788235 C14.8729412,10.7788235 12.3317647,13.32 12.3317647,16.4470588 C12.3317647,21.12 16.8564706,24.3741176 18,25.1223529 C19.1435294,24.3741176 23.6752941,21.1129412 23.6752941,16.4470588 Z M36,18 C36,27.9388235 27.9388235,36 18,36 C8.06117647,36 0,27.9388235 0,18 C0,8.06117647 8.06117647,0 18,0 C27.9388235,0 36,8.06117647 36,18 Z M34.92,18 C34.92,8.65411765 27.3458824,1.08 18,1.08 C8.65411765,1.08 1.08,8.65411765 1.08,18 C1.08,27.3458824 8.65411765,34.92 18,34.92 C27.3458824,34.92 34.92,27.3458824 34.92,18 Z" id="path-1"></path>
    </defs>
    <g id="Icons" stroke="none" stroke-width="1" fill="none" fill-rule="evenodd">
        <g id="Bonds/Icons/My-Account/Help/Default">
            <mask id="mask-2" fill="white">
                <use xlink:href="#path-1"></use>
            </mask>
            <g id="Shape" fill-rule="nonzero"></g>
            <g id="Bonds/Colours/General/White" mask="url(#mask-2)" fill="#FFFFFF">
                <rect id="Rectangle-3" x="0" y="0" width="36" height="36"></rect>
            </g>
        </g>
    </g>
</svg>