<?xml version="1.0" encoding="UTF-8"?>
<svg width="42px" height="42px" viewBox="0 0 42 42" version="1.1" xmlns="http://www.w3.org/2000/svg" xmlns:xlink="http://www.w3.org/1999/xlink">
    <!-- Generator: Sketch 48.2 (47327) - http://www.bohemiancoding.com/sketch -->
    <title>Bonds/Icons/Global/Link/Active</title>
    <desc>Created with Sketch.</desc>
    <defs>
        <path d="M20.921875,1 C31.9244531,1 40.84375,9.91929688 40.84375,20.921875 C40.84375,31.9244531 31.9244531,40.84375 20.921875,40.84375 C9.91929687,40.84375 1,31.9244531 1,20.921875 C1,9.91929687 9.91929687,1 20.921875,1 Z M31.4103125,30.300625 L28.1817969,27.0721094 C29.4105469,25.3179688 29.2428125,22.8833594 27.6760156,21.3165625 C26.1092187,19.7497656 23.6746094,19.5820312 21.9204687,20.8107812 L20.9267969,19.8171094 C22.1555469,18.0629687 21.9878125,15.6283594 20.4210156,14.0615625 C18.8542187,12.4947656 16.4196094,12.3270312 14.6654687,13.5557813 L11.5428125,10.433125 C11.2363281,10.1266406 10.7392969,10.123125 10.4327344,10.4296875 C10.1226562,10.7396875 10.1261719,11.2367187 10.4326562,11.5432031 L13.5553125,14.6658594 C12.3265625,16.42 12.4942969,18.8546094 14.0610937,20.4214063 C15.6278906,21.9882031 18.0625,22.1559375 19.8166406,20.9271875 L20.8103125,21.9208594 C19.5815625,23.675 19.7492969,26.1096094 21.3160937,27.6764062 C22.8828906,29.2432031 25.3175,29.4109375 27.0716406,28.1821875 L30.3001562,31.4107031 C30.6073437,31.7178906 31.1036719,31.7207031 31.4136719,31.410625 C31.7203125,31.1041406 31.7175,30.6078906 31.4103125,30.300625 Z M24.9797656,24.9766406 C24.6696875,25.2867188 24.6732031,25.7836719 24.9797656,26.0901563 L26.119375,27.2297656 C24.8994531,27.9553906 23.2983594,27.7935938 22.2485937,26.7439063 C21.1988281,25.6942188 21.0371094,24.093125 21.7627344,22.8732031 L23.0082031,24.1186719 C23.3153906,24.4258594 23.8117187,24.4285938 24.1217187,24.1185938 C24.4282812,23.8120313 24.4254687,23.3157031 24.1182812,23.0085156 L22.8728125,21.7630469 C24.0928125,21.0374219 25.6939062,21.1992188 26.7435937,22.2489063 C27.7932812,23.2986719 27.9551562,24.8997656 27.2294531,26.1196875 L26.0898437,24.9800781 C25.7832812,24.6735938 25.2863281,24.6701563 24.9797656,24.9766406 Z M17.6877344,17.6846875 C17.3777344,17.9946875 17.3811719,18.4917187 17.6877344,18.7982031 L18.8644531,19.9749219 C17.6445312,20.7005469 16.0433594,20.53875 14.9936719,19.4890625 C13.9439844,18.439375 13.7821875,16.8382812 14.5078125,15.6183594 L15.7532812,16.86375 C16.0604687,17.1710156 16.5567969,17.17375 16.8667969,16.86375 C17.1733594,16.5571875 17.1705469,16.0608594 16.8633594,15.7536719 L15.6178906,14.5082031 C16.8378906,13.7825781 18.4389844,13.944375 19.4886719,14.9940625 C20.5383594,16.0438281 20.7002344,17.6449219 19.9745312,18.8648437 L18.7978125,17.688125 C18.49125,17.3816406 17.9942969,17.378125 17.6877344,17.6846875 Z" id="path-1"></path>
    </defs>
    <g id="Icons" stroke="none" stroke-width="1" fill="none" fill-rule="evenodd">
        <g id="Bonds/Icons/Global/Link/Active">
            <mask id="mask-2" fill="white">
                <use xlink:href="#path-1"></use>
            </mask>
            <g id="Shape" fill-rule="nonzero"></g>
            <g id="Bonds/Colours/General/White" mask="url(#mask-2)" fill="#FFFFFF">
                <rect id="Rectangle-3" x="0" y="0" width="42" height="42"></rect>
            </g>
        </g>
    </g>
</svg>