<?xml version="1.0" encoding="UTF-8"?>
<svg width="42px" height="42px" viewBox="0 0 42 42" version="1.1" xmlns="http://www.w3.org/2000/svg" xmlns:xlink="http://www.w3.org/1999/xlink">
    <!-- Generator: Sketch 48.2 (47327) - http://www.bohemiancoding.com/sketch -->
    <title>Bonds/Icons/Global/Link/Default</title>
    <desc>Created with Sketch.</desc>
    <defs>
        <path d="M20.9200001,1 C31.9215427,1 40.8400002,9.91929688 40.8400002,20.921875 C40.8400002,31.9244531 31.9215427,40.84375 20.9200001,40.84375 C9.91845745,40.84375 1,31.9244531 1,20.921875 C1,9.91929687 9.91845745,1 20.9200001,1 Z M20.9200001,39.2709375 C31.0529526,39.2709375 39.2673357,31.0557812 39.2673357,20.921875 C39.2673357,10.7879688 31.0529526,2.5728125 20.9200001,2.5728125 C10.7870476,2.5728125 2.57266448,10.7879688 2.57266448,20.921875 C2.57266448,31.0557812 10.7870476,39.2709375 20.9200001,39.2709375 Z M31.4074505,30.300625 C31.7146091,30.6078906 31.7174213,31.1041406 31.4108095,31.410625 C31.1008387,31.7207031 30.6045573,31.7178906 30.2973987,31.4107031 L27.0691869,28.1821875 C25.3152114,29.4109375 22.8808311,29.2432031 21.3141817,27.6764062 C19.7475323,26.1096094 19.5798137,23.675 20.8084481,21.9208594 L19.8148697,20.9271875 C18.0608942,22.1559375 15.6265139,21.9882031 14.0598645,20.4214063 C12.4932151,18.8546094 12.3254965,16.42 13.5541309,14.6658594 L10.4317685,11.5432031 C10.125313,11.2367187 10.1217977,10.7396875 10.4318466,10.4296875 C10.7383803,10.123125 11.2353647,10.1266406 11.5418203,10.433125 L14.6641826,13.5557813 C16.4181582,12.3270312 18.8525384,12.4947656 20.4191878,14.0615625 C21.9858373,15.6283594 22.1535558,18.0629687 20.9249215,19.8171094 L21.9184998,20.8107812 C23.6724754,19.5820312 26.1068556,19.7497656 27.673505,21.3165625 C29.2401545,22.8833594 29.407873,25.3179688 28.1792387,27.0721094 L31.4074505,30.300625 Z M24.9775088,24.9766406 C25.2840424,24.6701563 25.7809488,24.6735938 26.0874824,24.9800781 L27.2269846,26.1196875 C27.9526194,24.8997656 27.7907596,23.2986719 26.7411709,22.2489063 C25.6915822,21.1992188 24.0906391,21.0374219 22.870754,21.7630469 L24.1161055,23.0085156 C24.4232641,23.3157031 24.4260763,23.8120313 24.1195427,24.1185938 C23.8095719,24.4285938 23.3132904,24.4258594 23.0061318,24.1186719 L21.7607803,22.8732031 C21.0352236,24.093125 21.1969271,25.6942188 22.246594,26.7439063 C23.2962608,27.7935938 24.8972039,27.9553906 26.1170109,27.2297656 L24.9775088,26.0901563 C24.6709751,25.7836719 24.6674599,25.2867188 24.9775088,24.9766406 Z M17.6861638,17.6846875 C17.9926975,17.378125 18.4896038,17.3816406 18.7961375,17.688125 L19.9727455,18.8648437 C20.6983803,17.6449219 20.5365205,16.0438281 19.4869318,14.9940625 C18.4373431,13.944375 16.8364001,13.7825781 15.6165149,14.5082031 L16.8618664,15.7536719 C17.169025,16.0608594 17.1718372,16.5571875 16.8653036,16.86375 C16.5553328,17.17375 16.0590514,17.1710156 15.7518928,16.86375 L14.5065412,15.6183594 C13.7809845,16.8382812 13.9427662,18.439375 14.9923549,19.4890625 C16.0419436,20.53875 17.6429648,20.7005469 18.8627718,19.9749219 L17.6861638,18.7982031 C17.3796302,18.4917187 17.376193,17.9946875 17.6861638,17.6846875 Z" id="path-1"></path>
    </defs>
    <g id="Icons" stroke="none" stroke-width="1" fill="none" fill-rule="evenodd">
        <g id="Bonds/Icons/Global/Link/Default">
            <mask id="mask-2" fill="white">
                <use xlink:href="#path-1"></use>
            </mask>
            <g id="Shape" fill-rule="nonzero"></g>
            <g id="Bonds/Colours/General/White" mask="url(#mask-2)" fill="#FFFFFF">
                <rect id="Rectangle-3" x="0" y="0" width="42" height="42"></rect>
            </g>
        </g>
    </g>
</svg>