<?xml version="1.0" encoding="UTF-8"?>
<svg width="24px" height="24px" viewBox="0 0 24 24" version="1.1" xmlns="http://www.w3.org/2000/svg" xmlns:xlink="http://www.w3.org/1999/xlink">
    <!-- Generator: Sketch 48.2 (47327) - http://www.bohemiancoding.com/sketch -->
    <title>Bonds/Icons/Social/Google</title>
    <desc>Created with Sketch.</desc>
    <defs>
        <path d="M12.2089286,5.93409466 C12.2089286,8.07162928 11.0571429,9.0802247 9.9,10.0315136 C9.54107143,10.4097369 9.12857143,10.8108828 9.12857143,11.4469856 C9.12857143,12.0830883 9.54107143,12.4326584 9.84107143,12.6905379 L10.8321429,13.4985603 C12.0428571,14.5644623 13.1410714,15.5501351 13.1410714,17.5444033 C13.1410714,20.2607342 10.6392857,22.9999877 5.90892857,22.9999877 C1.92321429,23.0057183 0,21.0114501 0,18.8739155 C0,17.8366668 0.492857143,16.3638882 2.11607143,15.3495622 C3.81964286,14.2550069 6.13392857,14.1060099 7.36607143,14.02005 C6.98035714,13.4985603 6.54107143,12.9484174 6.54107143,12.0544351 C6.54107143,11.5615987 6.68035714,11.2750659 6.81428571,10.9254959 C6.51428571,10.9541492 6.20892857,10.9828024 5.93571429,10.9828024 C3.02142857,10.9828024 1.37142857,8.70200142 1.37142857,6.44985368 C1.37142857,5.12034153 1.95,3.64756299 3.13392857,2.58166101 C4.70357143,1.22922623 6.57321429,1 8.05714286,1 L13.7196429,1 L11.9625,2.0372487 L10.2589286,2.0372487 C10.8910714,2.58739166 12.2089286,3.73925348 12.2089286,5.93409466 Z M8.30357143,14.8624564 C8.08392857,14.8338031 7.94464286,14.8338031 7.67142857,14.8338031 C7.425,14.8338031 5.94107143,14.8911097 4.78392857,15.2922556 C4.17857143,15.5214818 2.42142857,16.2148912 2.42142857,18.266466 C2.42142857,20.3180408 4.31785714,21.7908193 7.25892857,21.7908193 C9.9,21.7908193 11.2982143,20.4613072 11.2982143,18.6733425 C11.2982143,17.200564 10.3928571,16.4211948 8.30357143,14.8624564 L8.30357143,14.8624564 Z M9.10178571,9.37248815 C8.65714286,9.83667127 7.91785714,10.1862413 7.23214286,10.1805106 C4.86428571,10.1805106 3.79285714,6.97707402 3.79285714,5.04011235 C3.79285714,4.28939644 3.93214286,3.51002725 4.39821429,2.90257773 C4.8375,2.32378149 5.60892857,1.95128887 6.32142857,1.95128887 C8.60357143,1.95128887 9.7875,5.18337875 9.7875,7.26360681 C9.7875,7.78509649 9.73392857,8.70773207 9.10178571,9.37248815 Z M24,5.4871035 L24,6.50716024 L19.8053571,6.50716024 L19.8053571,11.1432608 L18.8571429,11.1432608 L18.8571429,6.50716024 L14.5875,6.50716024 L14.5875,5.4871035 L18.8571429,5.4871035 L18.8571429,1.00573066 L19.8053571,1.00573066 L19.8053571,5.4871035 L24,5.4871035 Z" id="path-1"></path>
    </defs>
    <g id="Icons" stroke="none" stroke-width="1" fill="none" fill-rule="evenodd">
        <g id="Bonds/Icons/Social/Google">
            <mask id="mask-2" fill="white">
                <use xlink:href="#path-1"></use>
            </mask>
            <g id="Combined-Shape"></g>
            <g id="Bonds/Colours/General/Black" mask="url(#mask-2)" fill="#000000">
                <rect id="Rectangle-3" x="0" y="0" width="24" height="24"></rect>
            </g>
        </g>
    </g>
</svg>