<?xml version="1.0" encoding="UTF-8"?>
<svg width="24px" height="24px" viewBox="0 0 24 24" version="1.1" xmlns="http://www.w3.org/2000/svg" xmlns:xlink="http://www.w3.org/1999/xlink">
    <!-- Generator: Sketch 48.2 (47327) - http://www.bohemiancoding.com/sketch -->
    <title>Bonds/Icons/Social/LinkedIn</title>
    <desc>Created with Sketch.</desc>
    <defs>
        <path d="M21.97008,0 L1.75248,0 C0.7848,0 0,0.76608 0,1.71024 L0,22.16448 C0,23.10816 0.7848,23.87424 1.75248,23.87424 L21.97008,23.87424 C22.9392,23.87424 23.724,23.10768 23.724,22.16448 L23.724,1.71024 C23.724,0.7656 22.93872,0 21.97008,0 L21.97008,0 Z M7.19088,19.98576 L3.60768,19.98576 L3.60768,9.20544 L7.19088,9.20544 L7.19088,19.98576 L7.19088,19.98576 Z M5.39952,7.7328 L5.37552,7.7328 C4.1736,7.7328 3.396,6.9048 3.396,5.8704 C3.396,4.81296 4.1976,4.008 5.42304,4.008 C6.64896,4.008 7.40304,4.81296 7.42704,5.8704 C7.42704,6.9048 6.64848,7.7328 5.39952,7.7328 L5.39952,7.7328 Z M20.112,19.98576 L16.5288,19.98576 L16.5288,14.21712 C16.5288,12.76848 16.0104,11.77968 14.71392,11.77968 C13.72416,11.77968 13.13472,12.4464 12.87504,13.09056 C12.78048,13.32048 12.75744,13.64208 12.75744,13.96464 L12.75744,19.98528 L9.17424,19.98528 C9.17424,19.98528 9.22128,10.21536 9.17424,9.20496 L12.75744,9.20496 L12.75744,10.73088 C13.2336,9.99648 14.08512,8.95056 15.98736,8.95056 C18.34464,8.95056 20.11248,10.49184 20.11248,13.80336 L20.11248,19.98576 L20.112,19.98576 Z" id="path-1"></path>
    </defs>
    <g id="Icons" stroke="none" stroke-width="1" fill="none" fill-rule="evenodd">
        <g id="Bonds/Icons/Social/LinkedIn">
            <mask id="mask-2" fill="white">
                <use xlink:href="#path-1"></use>
            </mask>
            <g id="Shape"></g>
            <g id="Bonds/Colours/General/Black" mask="url(#mask-2)" fill="#000000">
                <rect id="Rectangle-3" x="0" y="0" width="24" height="24"></rect>
            </g>
        </g>
    </g>
</svg>