<?xml version="1.0" encoding="UTF-8"?>
<svg width="24px" height="24px" viewBox="0 0 24 24" version="1.1" xmlns="http://www.w3.org/2000/svg" xmlns:xlink="http://www.w3.org/1999/xlink">
    <!-- Generator: Sketch 48.2 (47327) - http://www.bohemiancoding.com/sketch -->
    <title>Bonds/Icons/Social/Twitter</title>
    <desc>Created with Sketch.</desc>
    <defs>
        <path d="M21.2,4.08000001 C22.2666667,3.28000001 23.0666667,2.16000001 23.3333333,0.880000006 C22.4,1.52000001 21.3333333,2.00000001 20.2666667,2.32000001 C19.3333333,1.20000001 18.1333333,0.400000006 16.6666667,0.400000006 C14,0.400000006 11.7333333,3.12000001 11.7333333,6.32000001 C11.7333333,6.80000001 11.7333333,7.28000001 11.8666667,7.60000001 C7.73333333,7.28000001 4.13333333,5.04000001 1.73333333,1.36000001 C1.33333333,2.16000001 1.06666667,3.28000001 1.06666667,4.40000001 C1.06666667,6.48000001 2,8.24000001 3.2,9.36000001 C2.4,9.36000001 1.6,9.04000001 0.933333333,8.56000001 C0.933333333,11.44 2.66666667,13.84 4.93333333,14.32 C4.53333333,14.48 4.13333333,14.48 3.6,14.48 C3.33333333,14.48 2.93333333,14.48 2.66666667,14.32 C3.33333333,16.72 5.06666667,18.32 7.33333333,18.48 C5.6,20.08 3.46666667,21.04 1.2,21.04 C0.8,21.04 0.4,21.04 0,20.88 C2.13333333,22.48 4.8,23.6 7.6,23.6 C16.6666667,23.6 21.6,14.64 21.6,6.80000001 L21.6,6.00000001 C22.5333333,5.36000001 23.3333333,4.24000001 24,3.12000001 C23.0666667,3.60000001 22.1333333,3.92000001 21.2,4.08000001 Z" id="path-1"></path>
    </defs>
    <g id="Icons" stroke="none" stroke-width="1" fill="none" fill-rule="evenodd">
        <g id="Bonds/Icons/Social/Twitter">
            <mask id="mask-2" fill="white">
                <use xlink:href="#path-1"></use>
            </mask>
            <g id="Shape-3"></g>
            <g id="Bonds/Colours/General/Black" mask="url(#mask-2)" fill="#000000">
                <rect id="Rectangle-3" x="0" y="0" width="24" height="24"></rect>
            </g>
        </g>
    </g>
</svg>