<?xml version="1.0" encoding="UTF-8"?>
<svg width="24px" height="24px" viewBox="0 0 24 24" version="1.1" xmlns="http://www.w3.org/2000/svg" xmlns:xlink="http://www.w3.org/1999/xlink">
    <!-- Generator: Sketch 48.2 (47327) - http://www.bohemiancoding.com/sketch -->
    <title>Bonds/Icons/Social/YouTube</title>
    <desc>Created with Sketch.</desc>
    <defs>
        <path d="M19.6079497,11.4264531 C22.0276396,11.4264531 23.9899998,13.3902806 23.9899998,15.8099705 L23.9899998,19.3321429 C23.9899998,21.7518327 22.0276396,23.7151711 19.6079497,23.7151711 L4.38205003,23.7151711 C1.96187104,23.7151711 0,21.7518327 0,19.3321429 L0,15.8099705 C0,13.3902806 1.96187104,11.4264531 4.38205003,11.4264531 L19.6079497,11.4264531 Z M7.58091232,14.1684748 L7.58091232,12.9720807 L3.38326153,12.9720807 L3.38326153,14.1684748 L4.79780431,14.1684748 L4.79780431,21.2020588 L6.1653913,21.2020588 L6.1653913,14.1684748 L7.58091232,14.1684748 Z M11.5794902,21.2020588 L11.5794902,15.1296009 L10.3664659,15.1296009 L10.3664659,19.7415385 C10.2525004,19.8745799 10.127285,19.9821869 9.98984149,20.0682725 C9.85337626,20.1533798 9.7398998,20.1954444 9.65185772,20.1954444 C9.53789213,20.1954444 9.45474128,20.1651188 9.40240515,20.0990872 C9.35398201,20.0350121 9.32708026,19.9318073 9.32708026,19.7880052 L9.32708026,15.13009 L8.11405603,15.13009 L8.11405603,20.205716 C8.11405603,20.5691341 8.18595707,20.8381516 8.3268244,21.0196161 C8.47013734,21.2015697 8.67948184,21.2910792 8.9612165,21.2910792 C9.18914767,21.2910792 9.42343743,21.2294497 9.66604228,21.0973866 C9.90864712,20.9707038 10.1409804,20.7828807 10.3664659,20.536852 L10.3664659,21.2020588 L11.5794902,21.2020588 Z M15.9835507,19.9484374 L15.9825725,19.9484374 L15.9825725,16.5788713 C15.9825725,16.0819227 15.8813241,15.7028526 15.6778491,15.4441067 C15.4753523,15.1853608 15.1828569,15.0572107 14.7988956,15.0572107 C14.6100943,15.0572107 14.4237385,15.1041665 14.238361,15.2015019 C14.0568965,15.2968808 13.883258,15.4392155 13.7189127,15.6226365 L13.7189127,12.9720807 L12.4912148,12.9720807 L12.4912148,21.2015697 L13.7189127,21.2015697 L13.7189127,20.7364141 C13.8778776,20.9242372 14.0524944,21.0597241 14.2378719,21.1477662 C14.4222712,21.2367866 14.6345504,21.2798294 14.8732423,21.2798294 C15.2317692,21.2798294 15.5086126,21.166842 15.6979031,20.9369544 C15.8881718,20.7070667 15.9835507,20.377398 15.9835507,19.9484374 Z M14.2266221,16.0212715 C14.3899891,16.0212715 14.5161827,16.0740967 14.605203,16.178769 C14.6912886,16.2849086 14.7323749,16.4394714 14.7323749,16.6458811 L14.7323749,19.7816466 C14.7323749,19.9758283 14.6971581,20.1132718 14.6281918,20.1993574 C14.5582473,20.2864212 14.449662,20.329464 14.3004796,20.329464 C14.1972747,20.329464 14.1004284,20.3059861 14.007006,20.2644107 C13.9130945,20.2213679 13.8167373,20.146043 13.7194019,20.0482185 L13.7194019,16.2658328 C13.8015745,16.182682 13.8847253,16.1186069 13.9698327,16.0799662 C14.0534727,16.0403473 14.1405365,16.0212715 14.2266221,16.0212715 Z M20.1914731,18.3123221 L20.1914731,16.7642488 C20.1914731,16.1885514 20.0422907,15.748341 19.744415,15.4406829 C19.4465393,15.1335138 19.0195352,14.9804184 18.4634027,14.9804184 C17.9199874,14.9804184 17.4783096,15.1457419 17.1354346,15.476878 C16.7915814,15.808014 16.618432,16.2399093 16.618432,16.764738 L16.618432,19.492086 C16.618432,20.0770767 16.7769077,20.5373411 17.0875006,20.8689663 C17.3990717,21.202548 17.8280323,21.3683606 18.3724259,21.3683606 C18.9769815,21.3683606 19.4318656,21.2128195 19.7336543,20.8992919 C20.0403342,20.5828295 20.1914731,20.1137609 20.1914731,19.4915969 L20.1914731,19.1800257 L18.9427429,19.1800257 L18.9427429,19.45638 C18.9427429,19.8134396 18.9006784,20.0433272 18.8224187,20.1489777 C18.7412244,20.25365 18.6018244,20.3059861 18.4003059,20.3059861 C18.2061242,20.3059861 18.0696589,20.2453349 17.9884646,20.1210977 C17.9092267,19.9973497 17.8700969,19.775288 17.8700969,19.45638 L17.8700969,18.3123221 L20.1914731,18.3123221 Z M18.4120448,16.0418146 C18.596444,16.0418146 18.7329093,16.0965964 18.8145928,16.2095837 C18.8997001,16.3157233 18.9427429,16.4986552 18.9427429,16.7534881 L18.9427429,17.3673371 L17.8700969,17.3673371 L17.8700969,16.7534881 C17.8700969,16.4986552 17.9102049,16.3162125 17.9962905,16.2095837 C18.0804196,16.0961073 18.2183522,16.0418146 18.4120448,16.0418146 Z M6.37571405,9.31735612 L6.37571405,5.72523921 L4.54394964,0.25 L6.09300114,0.25 L7.09227877,3.87439901 L7.18912506,3.87439901 L8.14095778,0.25 L9.70419384,0.25 L7.91351574,5.55600276 L7.91351574,9.31735612 L6.37571405,9.31735612 Z M11.7878564,9.48610345 C11.1906376,9.48610345 10.7112974,9.31735612 10.3527705,8.98132885 C9.99424359,8.6438342 9.81473557,8.19384134 9.81473557,7.62499167 L9.81473557,4.15809016 C9.81473557,3.63815276 9.99913482,3.22680059 10.3659768,2.92012068 C10.7337971,2.61344076 11.2283001,2.45985624 11.8494859,2.45985624 C12.4149117,2.45985624 12.8786,2.62224497 13.2405508,2.94457681 C13.6000559,3.2678869 13.7805422,3.68706503 13.7805422,4.19624173 L13.7805422,7.6514043 C13.7805422,8.22367782 13.6039689,8.67024683 13.2513115,8.99746989 C12.8962084,9.32322559 12.4090422,9.48610345 11.7878564,9.48610345 Z M11.2214524,4.1072214 L11.2209633,4.1072214 L11.2209633,7.75118532 C11.2209633,7.93460632 11.2698755,8.07547365 11.3662327,8.1757438 C11.4640572,8.27845956 11.6034572,8.32737183 11.7839435,8.32737183 C11.9683427,8.32737183 12.1150795,8.2769922 12.2241539,8.17427643 C12.3342065,8.0720498 12.3884991,7.93020422 12.3884991,7.75167444 L12.3884991,4.1072214 C12.3884991,3.96195197 12.3332282,3.84456253 12.2221974,3.75260747 C12.1106774,3.66260889 11.9644297,3.61907698 11.7839435,3.61907698 C11.6166635,3.61907698 11.4821548,3.66260889 11.3760151,3.75260747 C11.2737885,3.84456253 11.2214524,3.96195197 11.2214524,4.1072214 Z M15.8431725,9.41518066 C15.5257319,9.41518066 15.2899748,9.31393226 15.1285643,9.11339197 C14.9700885,8.91578641 14.8898724,8.6179107 14.8898724,8.21927572 L14.8898724,2.62909268 L16.2540356,2.62909268 L16.2540356,7.75705479 C16.2540356,7.91406317 16.2858285,8.02851788 16.3420776,8.09846242 C16.3973485,8.1713417 16.4917492,8.20655853 16.6198993,8.20655853 C16.7201695,8.20655853 16.8473414,8.15960275 17.0019041,8.0656912 C17.1535322,7.9708014 17.2948886,7.85145547 17.4220605,7.70618604 L17.4220605,2.62909268 L18.7881801,2.62909268 L18.7881801,9.31784525 L17.4220605,9.31784525 L17.4220605,8.5768244 C17.1721188,8.84926572 16.9094599,9.05812111 16.6350621,9.20094493 C16.363599,9.34181226 16.0999619,9.41518066 15.8431725,9.41518066 Z" id="path-1"></path>
    </defs>
    <g id="Icons" stroke="none" stroke-width="1" fill="none" fill-rule="evenodd">
        <g id="Bonds/Icons/Social/YouTube">
            <mask id="mask-2" fill="white">
                <use xlink:href="#path-1"></use>
            </mask>
            <g id="Combined-Shape"></g>
            <g id="Bonds/Colours/General/Black" mask="url(#mask-2)" fill="#000000">
                <rect id="Rectangle-3" x="0" y="0" width="24" height="24"></rect>
            </g>
        </g>
    </g>
</svg>