<?xml version="1.0" encoding="UTF-8"?>
<svg width="42px" height="42px" viewBox="0 0 42 42" version="1.1" xmlns="http://www.w3.org/2000/svg" xmlns:xlink="http://www.w3.org/1999/xlink">
    <!-- Generator: Sketch 48.2 (47327) - http://www.bohemiancoding.com/sketch -->
    <title>Bonds/Icons/Global/No/Active</title>
    <desc>Created with Sketch.</desc>
    <defs>
        <path d="M20.921875,1 C31.9244531,1 40.84375,9.91929688 40.84375,20.921875 C40.84375,31.9244531 31.9244531,40.84375 20.921875,40.84375 C9.91929687,40.84375 1,31.9244531 1,20.921875 C1,9.91929687 9.91929687,1 20.921875,1 Z M9.954375,14.3557813 L9.954375,21.7346875 C9.954375,23.095625 10.9446094,24.2010938 12.1614063,24.2010938 L14.7767188,24.2010938 C15.5079688,24.2010938 16.1560156,23.8015625 16.5571094,23.1875 C17.6427344,24.0217969 20.6673438,26.9271875 21.3457813,29.5817969 C21.3491406,29.6091406 21.3539844,29.6364844 21.3617188,29.6638281 C21.5236719,30.2221875 21.7528125,31.5289063 21.8298438,32.1872656 C21.834375,32.2266406 21.8434375,32.264375 21.8558594,32.3003906 C21.9349219,33.1667969 21.8425,34.8361719 23.3875,35.0061719 C24.1617969,35.09375 24.7997656,34.9291406 25.2804688,34.5202344 C25.9997656,33.9072656 26.1663281,32.9132813 26.2161719,32.1663281 C26.21875,32.1503125 26.2208594,32.1341406 26.2220313,32.1176563 C26.3194531,30.8139844 26.2279688,29.3865625 26.2200781,29.3272656 C26.2182031,29.3121094 26.2135156,29.2982031 26.2104688,29.2835156 C26.0876563,27.9421875 25.9022656,27.10625 25.7313281,26.5833594 L30.3345313,26.8064063 C31.5894531,26.8064063 32.6107031,25.7832031 32.6107031,24.5275781 C32.6107031,23.725 32.1204688,23.0175 31.4391406,22.6113281 C31.8500781,22.2049219 32.1196094,21.67125 32.1196094,21.0919531 C32.1196094,20.2809375 31.6196094,19.5692969 30.9275781,19.1666406 C31.3355469,18.7592969 31.6053906,18.2259375 31.6053906,17.6582813 C31.6053906,16.8441406 31.1010156,16.1276563 30.405,15.7245313 C30.815625,15.3180469 31.0859375,14.7850781 31.0859375,14.2088281 C31.0859375,12.9953906 30.1335938,12.000625 28.9360938,11.9361719 C28.8985938,11.9269531 28.8599219,11.9208594 28.8196875,11.9201563 C28.7788281,11.9201563 26.1010938,12.0552344 23.5167969,12.0552344 C22.2229688,12.0552344 20.9549219,12.0657813 20.0495313,12.0967188 C18.7459375,12.1416406 17.6846875,12.9552344 16.9007813,13.6964063 C16.6426563,12.6554688 15.789375,11.8892188 14.776875,11.8892188 L12.1615625,11.8892188 C10.9446094,11.8892969 9.954375,12.9954688 9.954375,14.3557813 Z M20.2414844,13.535625 C22.6639844,13.4544531 27.8384375,13.3782031 28.5495312,13.3685937 C28.579375,13.3739844 28.6098437,13.3777344 28.6414062,13.3777344 C29.2897656,13.3777344 29.8170312,13.9075781 29.8170312,14.5559375 C29.8170312,15.07625 29.315625,15.529375 28.82,15.6827344 C28.5996875,15.7500781 28.460625,15.9550781 28.4653906,16.1746875 C28.4652344,16.18 28.4638281,16.185 28.4638281,16.1903906 C28.4638281,16.4699219 28.6888281,16.6974219 28.9714844,16.6974219 C29.6198437,16.6974219 30.3171094,17.2246875 30.3171094,17.87625 C30.3171094,18.3959375 29.7979687,18.8610937 29.3004687,19.0075 C29.0304687,19.0842187 28.8771094,19.36625 28.9538281,19.6336719 C29.0082812,19.8253906 29.1667969,19.9578125 29.3504687,19.99125 C29.3871094,19.9996094 29.4248437,20.005 29.4639844,20.005 C30.1123437,20.005 30.8095312,20.5348437 30.8095312,21.1838281 C30.8095312,21.7010156 30.2954687,22.1661719 29.8029687,22.3125781 C29.7860937,22.3177344 29.7696875,22.32375 29.75375,22.3303906 C29.5644531,22.4042187 29.4290625,22.5875781 29.4290625,22.8025 C29.4290625,23.0826562 29.6571875,23.3101562 29.9367187,23.3101562 C30.5850781,23.3101562 31.2822656,23.8374219 31.2822656,24.4882812 C31.2822656,25.1372656 30.755,25.6671094 30.1066406,25.6671094 L24.8783594,25.41375 C24.87,25.4133594 24.8617187,25.4121875 24.8533594,25.4121875 C24.8523437,25.4121875 24.8513281,25.4124219 24.8503125,25.4124219 L24.8457812,25.4121875 C24.8392969,25.4121875 24.8332812,25.4138281 24.8269531,25.4140625 C24.8085937,25.4150781 24.7903125,25.4165625 24.7721094,25.4196094 C24.5275781,25.4557031 24.3382031,25.6649219 24.3382031,25.9197656 C24.3382031,26.0596094 24.3953125,26.1864844 24.4874219,26.2782812 C24.6254687,26.5028906 24.9582812,27.2324219 25.1342187,29.2272656 C25.1360937,29.2485156 25.1396094,29.2691406 25.1439844,29.2895312 C25.1567187,29.5324219 25.2071875,30.5834375 25.1482812,31.5630469 C25.1417969,31.59625 25.136875,31.6273437 25.1354687,31.6533594 C25.1107031,32.1952344 25.0220312,32.9601562 24.5834375,33.3341406 C24.338125,33.5420312 23.9940625,33.6186719 23.5313281,33.5667187 C23.0236719,33.5096875 23.0935937,33.0075781 22.9402344,31.7476562 C22.935625,31.7078125 22.92625,31.6699219 22.9133594,31.6338281 C22.8525781,31.1969531 22.6417969,29.8742969 22.4582812,29.2057031 C22.4558594,29.1863281 22.4525781,29.1669531 22.4478125,29.1475 C21.7875,26.4666406 18.6877344,23.1175 17.2198437,22.2172656 C17.2414062,22.0816406 17.2532812,21.9422656 17.2532812,21.7997656 L17.2532812,15.3696875 C17.4329687,15.2183594 17.6214062,15.038125 17.8173437,14.8504687 C18.4960937,14.2022656 19.3402344,13.5673437 20.2414844,13.535625 Z M15.7736719,21.5019531 C15.7736719,22.2323437 15.2894531,22.8276562 14.6941406,22.8276562 L12.2438281,22.8276562 C11.6485156,22.8276562 11.1642969,22.2323437 11.1642969,21.5019531 L11.1642969,14.5885937 C11.1642969,13.8588281 11.6485156,13.2635156 12.2438281,13.2635156 L14.6941406,13.2635156 C15.2894531,13.2635156 15.7736719,13.8588281 15.7736719,14.5885937 L15.7736719,21.5019531 Z M15.1982031,16.1433594 C15.1982812,15.5752344 15.2823437,14.8145312 14.8419531,14.3721875 C14.3989062,13.9270312 13.6330469,14.0067969 13.0614844,14.0067187 C12.3074219,14.0066406 12.3061719,15.1785156 13.0614844,15.1785937 C13.3388281,15.1785937 13.615625,15.1789844 13.8925,15.195625 C13.9248437,15.1975781 14.0739062,15.2307031 13.926875,15.1980469 C13.9666406,15.206875 14.005625,15.215 14.0450781,15.2252344 C14.1534375,15.2533594 13.9533594,15.1571875 14.0334375,15.2184375 C14.1278125,15.2907031 13.9290625,15.1223437 14.0132812,15.2008594 C14.0889062,15.2713281 13.9177344,15.0992969 13.9941406,15.1817969 C14.0524219,15.2447656 13.9813281,15.0709375 13.9855469,15.1707031 C13.9871094,15.208125 14.0039062,15.2522656 14.0114062,15.2888281 C13.9898437,15.1832812 14.0082031,15.2571875 14.0120312,15.3222656 C14.0284375,15.5957031 14.02625,15.8695312 14.02625,16.1433594 C14.0261719,16.8973437 15.1980469,16.8985937 15.1982031,16.1433594 Z" id="path-1"></path>
    </defs>
    <g id="Icons" stroke="none" stroke-width="1" fill="none" fill-rule="evenodd">
        <g id="Bonds/Icons/Global/No/Active">
            <mask id="mask-2" fill="white">
                <use xlink:href="#path-1"></use>
            </mask>
            <g id="Shape" fill-rule="nonzero"></g>
            <g id="Bonds/Colours/General/White" mask="url(#mask-2)" fill="#FFFFFF">
                <rect id="Rectangle-3" x="0" y="0" width="42" height="42"></rect>
            </g>
        </g>
    </g>
</svg>