<?xml version="1.0" encoding="UTF-8"?>
<svg width="40px" height="40px" viewBox="0 0 40 40" version="1.1" xmlns="http://www.w3.org/2000/svg" xmlns:xlink="http://www.w3.org/1999/xlink">
    <!-- Generator: Sketch 48.2 (47327) - http://www.bohemiancoding.com/sketch -->
    <title>Bonds/Icons/Offers/Car Insurance/Active</title>
    <desc>Created with Sketch.</desc>
    <defs>
        <path d="M20,0.078125 C8.99742187,0.078125 0.078125,8.99742187 0.078125,20 C0.078125,31.0025781 8.99742187,39.921875 20,39.921875 C31.0025781,39.921875 39.921875,31.0025781 39.921875,20 C39.921875,8.99742188 31.0025781,0.078125 20,0.078125 Z M13,13.0228729 C11.9379742,13.3035752 11.0465547,13.6089555 10.327299,13.9375945 C8.72566676,14.6694051 7.5213678,15.7320171 6.70079089,17.1424905 C9.07378903,17.1693651 11.1737003,17.1880209 13,17.1984737 L13,13.0228729 Z M14,12.7773633 L14,17.2034951 C17.611594,17.2189436 20.0213095,17.1983855 21.2243183,17.141966 C22.8939786,17.0636612 24.391171,16.8144187 25.7166321,16.3957183 C23.8093233,13.3084174 20.2236316,11.6737099 16.6363177,12.2660975 C15.6777599,12.4243924 14.7988196,12.5949672 14,12.7773633 Z M6.22416675,18.1016768 C6.08886697,18.4236123 5.96976375,18.7604999 5.8667377,19.1124891 L5.8667377,22 C5.8667377,23.1943363 6.81845149,24.1663879 8.00487108,24.1991469 C8.00163633,24.133172 8,24.0667771 8,24 C8,21.790861 9.790861,20 12,20 C14.209139,20 16,21.790861 16,24 C16,24.067065 15.9983495,24.1337444 15.995087,24.2 L23.004913,24.2 C23.0016505,24.1337444 23,24.067065 23,24 C23,21.790861 24.790861,20 27,20 C29.209139,20 31,21.790861 31,24 C31,24.067065 30.9983495,24.1337444 30.995087,24.2 L32,24.2 C32.6627417,24.2 33.2,23.6627417 33.2,23 L33.2,21.4539882 C33.2,19.7418782 32.0289775,18.2518744 30.3653737,17.8472225 L26.9191466,17.0089685 L26.5190917,17.1509028 C24.9827573,17.6959744 23.2346127,18.0134288 21.2756703,18.1053005 C19.3528254,18.1954793 14.4646183,18.1954793 6.59224812,18.1058667 L6.22416675,18.1016768 Z M23.1260175,25 L15.8739825,25 C15.4299397,26.7252272 13.8638394,28 12,28 C10.1361606,28 8.57006028,26.7252272 8.12601749,25 L8.0667377,25 C6.40988345,25 5.0667377,23.6568542 5.0667377,22 L5.0667377,19 C5.82831962,16.2931369 7.47101639,14.363121 9.994828,13.2099524 C11.4980847,12.5230911 13.6684661,11.9453696 16.5059722,11.4767876 L16.5059751,11.4768054 C20.4514398,10.8252567 24.3951083,12.6468591 26.456963,16.0732219 L30.5544512,17.0698875 C32.5765971,17.5617505 34,19.3728819 34,21.4539882 L34,23 C34,24.1045695 33.1045695,25 32,25 L30.8739825,25 C30.4299397,26.7252272 28.8638394,28 27,28 C25.1361606,28 23.5700603,26.7252272 23.1260175,25 Z M27,27.0390625 C28.6784279,27.0390625 30.0390625,25.6784279 30.0390625,24 C30.0390625,22.3215721 28.6784279,20.9609375 27,20.9609375 C25.3215721,20.9609375 23.9609375,22.3215721 23.9609375,24 C23.9609375,25.6784279 25.3215721,27.0390625 27,27.0390625 Z M12,27.0390625 C13.6784279,27.0390625 15.0390625,25.6784279 15.0390625,24 C15.0390625,22.3215721 13.6784279,20.9609375 12,20.9609375 C10.3215721,20.9609375 8.9609375,22.3215721 8.9609375,24 C8.9609375,25.6784279 10.3215721,27.0390625 12,27.0390625 Z" id="path-1"></path>
    </defs>
    <g id="Symbols" stroke="none" stroke-width="1" fill="none" fill-rule="evenodd">
        <g id="Bonds/Icons/Offers/Car-Insurance/Active">
            <mask id="mask-2" fill="white">
                <use xlink:href="#path-1"></use>
            </mask>
            <g id="Combined-Shape"></g>
            <g id="Bonds/Colours/Brand/Primary" mask="url(#mask-2)" fill="#263648">
                <rect id="Rectangle-3" x="0" y="0" width="40" height="40"></rect>
            </g>
        </g>
    </g>
</svg>