<?xml version="1.0" encoding="UTF-8"?>
<svg width="40px" height="40px" viewBox="0 0 40 40" version="1.1" xmlns="http://www.w3.org/2000/svg" xmlns:xlink="http://www.w3.org/1999/xlink">
    <!-- Generator: Sketch 48.2 (47327) - http://www.bohemiancoding.com/sketch -->
    <title>Bonds/Icons/Offers/Credit Card/Active</title>
    <desc>Created with Sketch.</desc>
    <defs>
        <path d="M27.3577562,15.187475 L13.1241795,17.954202 L13.3151628,18.936726 L24.0811874,18.936726 C25.1883933,18.936726 26.0859609,19.8415302 26.0859609,20.9328306 L26.0859609,21.4585413 L27.7072034,21.1434037 C28.1365023,21.0599565 28.419028,20.647245 28.3367096,20.2237536 L27.3577562,15.187475 Z M27.0588528,13.6497503 L26.9093471,12.8806101 C26.8263694,12.4537266 26.413436,12.1797189 25.9811721,12.2637425 L13.3052766,14.727687 C12.8759777,14.8111343 12.593452,15.2238458 12.6757703,15.6473371 L12.8252761,16.4164773 L27.0588528,13.6497503 Z M20,0.078125 C31.0025781,0.078125 39.921875,8.99742187 39.921875,20 C39.921875,31.0025781 31.0025781,39.921875 20,39.921875 C8.99742187,39.921875 0.078125,31.0025781 0.078125,20 C0.078125,8.99742187 8.99742187,0.078125 20,0.078125 Z M10.7929893,20.502617 L10.7929893,27.9831999 C10.7929893,28.4180732 11.1460529,28.765838 11.5864073,28.765838 L24.4995536,28.765838 C24.9368876,28.765838 25.2929716,28.4146176 25.2929716,27.9831999 L25.2929716,20.502617 C25.2929716,20.0677437 24.9399081,19.7199789 24.4995536,19.7199789 L11.5864073,19.7199789 C11.1490733,19.7199789 10.7929893,20.0711993 10.7929893,20.502617 Z M11.5859787,21.7848081 C11.5859787,21.5095917 11.8003221,21.2864847 12.0869947,21.2864847 L13.8165543,21.2864847 C14.0932578,21.2864847 14.3175703,21.5033326 14.3175703,21.7848081 L14.3175703,23.1379201 C14.3175703,23.4131365 14.1032269,23.6362434 13.8165543,23.6362434 L12.0869947,23.6362434 C11.8102912,23.6362434 11.5859787,23.4193956 11.5859787,23.1379201 L11.5859787,21.7848081 Z M11.5859787,25.5943757 C11.5859787,25.3780864 11.7603622,25.2027493 11.9810994,25.2027493 L22.2927085,25.2027493 C22.5109277,25.2027493 22.6878293,25.3844119 22.6878293,25.5943757 C22.6878293,25.8106651 22.5134457,25.9860022 22.2927085,25.9860022 L11.9810994,25.9860022 C11.7628802,25.9860022 11.5859787,25.8043395 11.5859787,25.5943757 Z M11.5859787,27.1608816 C11.5859787,26.9445922 11.7706679,26.7692551 11.9851875,26.7692551 L16.7376951,26.7692551 C16.9581721,26.7692551 17.136904,26.9509178 17.136904,27.1608816 C17.136904,27.3771709 16.9522147,27.552508 16.7376951,27.552508 L11.9851875,27.552508 C11.7647106,27.552508 11.5859787,27.3708454 11.5859787,27.1608816 Z M24.3897881,17.7329215 C24.2699659,17.1164897 24.6734601,16.5194605 25.2875005,16.4001031 L25.3139349,16.3949648 C25.92955,16.2753014 26.5249043,16.673714 26.6455619,17.2944435 C26.7653841,17.9108753 26.3618899,18.5079044 25.7478494,18.6272618 L25.7214151,18.6324001 C25.1058,18.7520636 24.5104457,18.3536509 24.3897881,17.7329215 Z" id="path-1"></path>
    </defs>
    <g id="Symbols" stroke="none" stroke-width="1" fill="none" fill-rule="evenodd">
        <g id="Bonds/Icons/Offers/Credit-Card/Active">
            <mask id="mask-2" fill="white">
                <use xlink:href="#path-1"></use>
            </mask>
            <g id="Combined-Shape"></g>
            <g id="Bonds/Colours/Brand/Primary" mask="url(#mask-2)" fill="#263648">
                <rect id="Rectangle-3" x="0" y="0" width="40" height="40"></rect>
            </g>
        </g>
    </g>
</svg>