<?xml version="1.0" encoding="UTF-8"?>
<svg width="40px" height="40px" viewBox="0 0 40 40" version="1.1" xmlns="http://www.w3.org/2000/svg" xmlns:xlink="http://www.w3.org/1999/xlink">
    <!-- Generator: Sketch 48.2 (47327) - http://www.bohemiancoding.com/sketch -->
    <title>Bonds/Icons/Offers/Energy</title>
    <desc>Created with Sketch.</desc>
    <defs>
        <path d="M20,0.078125 C31.0025781,0.078125 39.921875,8.99742188 39.921875,20 C39.921875,31.0025781 31.0025781,39.921875 20,39.921875 C8.99742187,39.921875 0.078125,31.0025781 0.078125,20 C0.078125,8.99742188 8.99742187,0.078125 20,0.078125 Z M20,38.7265625 C30.3424219,38.7265625 38.7265625,30.3424219 38.7265625,20 C38.7265625,9.65757813 30.3424219,1.2734375 20,1.2734375 C9.65757813,1.2734375 1.2734375,9.65757813 1.2734375,20 C1.2734375,30.3424219 9.65757813,38.7265625 20,38.7265625 Z M18.4329191,26.8047877 L22.1007281,26.320439 L22.2902621,25.1202553 L18.25933,25.7717471 L18.4329191,26.8047877 Z M18.1317553,25.0125413 L22.4166384,24.3200052 L22.5616853,23.4015268 L17.9818012,24.1201549 L18.1317553,25.0125413 Z M17.8542043,23.3608165 L22.7837857,22.5873176 C24.2347727,21.614442 25.204878,19.8469169 25.204878,17.8278539 C25.204878,14.759269 22.9641178,12.2716895 20.2,12.2716895 C17.4358822,12.2716895 15.195122,14.759269 15.195122,17.8278539 C15.195122,19.9026705 16.2195432,21.7118656 17.7375049,22.6660822 C17.7380617,22.6695612 17.7386331,22.673045 17.7392194,22.6765336 L17.8542043,23.3608165 Z M17.1111527,23.1469464 C15.5400005,22.0201755 14.5,20.0588452 14.5,17.8278539 C14.5,14.3330767 17.0519769,11.5 20.2,11.5 C23.3480231,11.5 25.9,14.3330767 25.9,17.8278539 C25.9,20.0488073 24.869337,22.0025208 23.3100223,23.1316868 L22.6473216,27.3280956 C22.5520805,27.9311894 22.0460195,28.4 21.4882427,28.4 L18.9804549,28.4 C18.4307587,28.4 17.9140173,27.9248479 17.8144345,27.3322244 L17.1111527,23.1469464 Z M22.0248474,17.2819769 C21.4260157,18.4349212 20.827184,19.5877327 20.2250872,20.7406769 C20.2219814,20.7441249 20.2187163,20.7477497 20.2187163,20.7548224 C20.1773448,20.8396068 20.1296023,20.9209433 20.0275472,20.8786395 C19.9224262,20.8361589 19.9479101,20.73356 19.9606918,20.6451508 C20.0084343,20.3552571 20.0563361,20.0651424 20.1071844,19.7752486 C20.1931926,19.2660117 20.2825056,18.756819 20.3685138,18.2474053 C20.3748848,18.2051015 20.3779906,18.1589961 20.3843616,18.098922 C20.326983,18.0954741 20.2792405,18.0918493 20.2314582,18.0918493 C19.8937966,18.0918493 19.5529894,18.0954741 19.2153278,18.0954741 C19.0146819,18.0954741 18.9700453,18.0034401 19.0687954,17.8089841 C19.6676271,16.6560399 20.2664587,15.5032725 20.8685556,14.3505051 C20.8718207,14.3468804 20.8749265,14.3434324 20.8749265,14.3363597 C20.9163379,14.2513984 20.9640803,14.170062 21.0660956,14.2125426 C21.1712564,14.2550232 21.1457327,14.3574011 21.1329908,14.4458102 C21.0852483,14.735925 21.0373465,15.0258187 20.9864584,15.3159335 C20.9004502,15.8251262 20.811177,16.3343631 20.7251688,16.8435558 C20.7187979,16.8860364 20.7156522,16.931965 20.7092812,16.9920832 C20.7666996,16.995708 20.8144421,16.999156 20.8621846,16.999156 C21.199886,16.999156 21.5406534,16.995708 21.8783549,16.995708 C22.0790007,16.995708 22.1269025,17.0875651 22.0248474,17.2819769 Z" id="path-1"></path>
    </defs>
    <g id="Symbols" stroke="none" stroke-width="1" fill="none" fill-rule="evenodd">
        <g id="Bonds/Icons/Offers/Energy">
            <mask id="mask-2" fill="white">
                <use xlink:href="#path-1"></use>
            </mask>
            <g id="Combined-Shape"></g>
            <g id="Bonds/Colours/Brand/Primary" mask="url(#mask-2)" fill="#263648">
                <rect id="Rectangle-3" x="0" y="0" width="40" height="40"></rect>
            </g>
        </g>
    </g>
</svg>