<?xml version="1.0" encoding="UTF-8"?>
<svg width="40px" height="40px" viewBox="0 0 40 40" version="1.1" xmlns="http://www.w3.org/2000/svg" xmlns:xlink="http://www.w3.org/1999/xlink">
    <!-- Generator: Sketch 48.2 (47327) - http://www.bohemiancoding.com/sketch -->
    <title>Bonds/Icons/Offers/Loans</title>
    <desc>Created with Sketch.</desc>
    <defs>
        <path d="M20,0.078125 C31.0025781,0.078125 39.921875,8.99742188 39.921875,20 C39.921875,31.0025781 31.0025781,39.921875 20,39.921875 C8.99742187,39.921875 0.078125,31.0025781 0.078125,20 C0.078125,8.99742187 8.99742187,0.078125 20,0.078125 Z M20,38.7265625 C30.3424219,38.7265625 38.7265625,30.3424219 38.7265625,20 C38.7265625,9.65757813 30.3424219,1.2734375 20,1.2734375 C9.65757813,1.2734375 1.2734375,9.65757813 1.2734375,20 C1.2734375,30.3424219 9.65757813,38.7265625 20,38.7265625 Z M13.9810127,26.6604035 C14.6054884,26.0190501 15.014767,25.2680027 15.2088608,24.4072389 C15.4029546,23.5464751 15.5,22.6688468 15.5,21.7743275 C15.5,21.5211617 15.4831225,21.2553416 15.4493671,20.9768592 C15.4156116,20.6983768 15.373418,20.3650468 15.3227848,19.9768592 L13.5,19.9768592 L13.5,18.6857199 L15.1708861,18.6857199 C15.0864975,18.196266 15.0105489,17.689942 14.943038,17.1667326 C14.8755271,16.6435232 14.8417722,16.078128 14.8417722,15.4705301 C14.8417722,14.5760108 14.9810113,13.7912085 15.2594937,13.1160997 C15.5379761,12.4409908 15.9177191,11.879815 16.3987342,11.4325554 C16.8797492,10.9852958 17.4367057,10.6477464 18.0696203,10.4198972 C18.7025348,10.1920479 19.3734142,10.078125 20.0822785,10.078125 C20.9261646,10.078125 21.6350182,10.1793898 22.2088608,10.3819225 C22.7827033,10.5844551 23.2594918,10.8629334 23.6392405,11.2173655 C24.0189892,11.5717977 24.3185643,11.9810763 24.5379747,12.4452136 C24.7573851,12.9093509 24.9261597,13.4030169 25.0443038,13.9262263 L23.7025316,14.2806566 C23.5506322,13.774325 23.3818575,13.3397302 23.1962025,12.9768592 C23.0105476,12.6139882 22.7827018,12.3101937 22.5126582,12.0654668 C22.2426147,11.8207398 21.9135041,11.6435264 21.5253165,11.5338212 C21.1371289,11.424116 20.6645597,11.3692642 20.1075949,11.3692642 C19.4324861,11.3692642 18.8586522,11.4705291 18.3860759,11.6730617 C17.9134997,11.8755944 17.525318,12.158292 17.221519,12.521163 C16.91772,12.884034 16.6983129,13.3144094 16.5632911,13.8123022 C16.4282694,14.310195 16.3607595,14.8460546 16.3607595,15.4198972 C16.3607595,16.0106174 16.3860757,16.5675739 16.4367089,17.0907832 C16.487342,17.6139926 16.5548519,18.1456328 16.6392405,18.6857199 L22.5632911,18.6857199 L22.5632911,19.9768592 L16.8164557,19.9768592 C16.8502111,20.3144136 16.8797467,20.5971112 16.9050633,20.8249604 C16.9303799,21.0528097 16.943038,21.2848749 16.943038,21.521163 C16.943038,21.943106 16.9303799,22.3734815 16.9050633,22.8123022 C16.8797467,23.251123 16.8248949,23.6899372 16.7405063,24.1287579 C16.6561177,24.5675787 16.521098,25.0021735 16.335443,25.4325554 C16.1497881,25.8629373 15.8966261,26.2722159 15.5759494,26.6604035 L25.5,26.6604035 L25.1962025,28.0528085 L13.9810127,28.0528085 L13.9810127,26.6604035 Z" id="path-1"></path>
    </defs>
    <g id="Symbols" stroke="none" stroke-width="1" fill="none" fill-rule="evenodd">
        <g id="Bonds/Icons/Offers/Loans">
            <mask id="mask-2" fill="white">
                <use xlink:href="#path-1"></use>
            </mask>
            <g id="Combined-Shape"></g>
            <g id="Bonds/Colours/Brand/Primary" mask="url(#mask-2)" fill="#263648">
                <rect id="Rectangle-3" x="0" y="0" width="40" height="40"></rect>
            </g>
        </g>
    </g>
</svg>