<?xml version="1.0" encoding="UTF-8"?>
<svg width="146px" height="146px" viewBox="0 0 146 146" version="1.1" xmlns="http://www.w3.org/2000/svg" xmlns:xlink="http://www.w3.org/1999/xlink">
    <!-- Generator: Sketch 48.2 (47327) - http://www.bohemiancoding.com/sketch -->
    <title>Bonds/Icons/Learn/Mortgages/Block</title>
    <desc>Created with Sketch.</desc>
    <defs>
        <path d="M67.8319362,61.6613575 L67.8319362,46.1486915 L61.2369659,41.7284366 C60.6481292,41.3700375 60.8836639,40.7727058 61.2369659,40.175374 C61.5902678,39.5780423 62.1791045,39.4585759 62.7679411,39.816975 L93.1519117,59.0510572 L93.1519117,51.6441435 C93.1519117,50.4494801 94.0940503,49.2548166 95.2717236,49.2548166 L101.866694,49.2548166 C103.044367,49.2548166 103.986506,50.4494801 103.986506,51.6441435 L103.986506,65.9801054 L111.405847,70.7587594 C111.876917,71.1171584 111.876917,71.8339565 111.641382,72.3118219 C111.405847,72.9091537 110.581476,73.02862 109.99264,72.670221 L106.224085,70.5198267 L106.224085,105.7624 L67.8319362,105.7624 L41.2165201,105.7624 L41.2165201,78.6221068 L36.505827,81.0028342 C35.9169904,81.2409069 35.0926191,81.0028342 34.7393171,80.4076523 C34.5037825,79.6934341 34.7393171,78.9792159 35.3281538,78.6221068 L67.8319362,61.6613575 Z M49.9268491,104.09589 L62.1717804,104.09589 L63.5846571,104.09589 L63.5846571,84.8119981 C63.5846571,84.6929617 63.4669174,84.454889 63.2314379,84.454889 L48.8671916,84.454889 C48.7494519,84.454889 48.5139725,84.5739254 48.5139725,84.8119981 L48.5139725,104.09589 L49.9268491,104.09589 Z M74.8969463,90.0774457 L74.8969463,104.214927 L85.7315405,104.214927 L85.7315405,90.0774457 C85.7315405,89.8034356 85.5105062,89.573453 85.2378466,89.573453 L75.3906402,89.573453 C75.1232422,89.573453 74.8969463,89.7990982 74.8969463,90.0774457 Z M87.0269811,90.0774457 L87.0269811,104.214927 L97.8615752,104.214927 L97.8615752,90.0774457 C97.8615752,89.8034356 97.6405409,89.573453 97.3678813,89.573453 L87.520675,89.573453 C87.253277,89.573453 87.0269811,89.7990982 87.0269811,90.0774457 Z M48.3561644,80.4292778 L48.3561644,81.4063386 C48.3561644,81.677827 48.5806616,81.9041096 48.857593,81.9041096 L62.9254204,81.9041096 C63.2021124,81.9041096 63.4268491,81.6812499 63.4268491,81.4063386 L63.4268491,80.4292778 C63.4268491,80.1577895 63.2023518,79.9315068 62.9254204,79.9315068 L48.857593,79.9315068 C48.580901,79.9315068 48.3561644,80.1543665 48.3561644,80.4292778 Z M74.779179,85.4594133 L74.779179,86.4364741 C74.779179,86.7079625 75.0005327,86.9342451 75.2735863,86.9342451 L97.9560045,86.9342451 C98.2311912,86.9342451 98.4504119,86.7113854 98.4504119,86.4364741 L98.4504119,85.4594133 C98.4504119,85.1879249 98.2290582,84.9616423 97.9560045,84.9616423 L75.2735863,84.9616423 C74.9983996,84.9616423 74.779179,85.184502 74.779179,85.4594133 Z M79.7264363,72.110888 C83.0042683,72.110888 85.6581987,69.4283593 85.6581987,66.1232877 C85.6581987,62.8182161 83.0042683,60.1356873 79.7264363,60.1356873 C76.4486043,60.1356873 73.7946739,62.8182161 73.7946739,66.1232877 C73.7946739,69.4283593 76.4486043,72.110888 79.7264363,72.110888 Z M79.7264363,70.610888 C77.2806516,70.610888 75.2946739,68.6035097 75.2946739,66.1232877 C75.2946739,63.6430656 77.2806516,61.6356873 79.7264363,61.6356873 C82.172221,61.6356873 84.1581987,63.6430656 84.1581987,66.1232877 C84.1581987,68.6035097 82.172221,70.610888 79.7264363,70.610888 Z" id="path-1"></path>
    </defs>
    <g id="Icons" stroke="none" stroke-width="1" fill="none" fill-rule="evenodd">
        <g id="Bonds/Icons/Learn/Mortgages/Block">
            <mask id="mask-2" fill="white">
                <use xlink:href="#path-1"></use>
            </mask>
            <use id="Shape" fill="#000000" fill-rule="nonzero" xlink:href="#path-1"></use>
            <g id="Bonds/Colours/Learn/Mortgages" mask="url(#mask-2)" fill="#FF8833">
                <rect id="Rectangle-3" x="0" y="0" width="146" height="146"></rect>
            </g>
        </g>
    </g>
</svg>