<?xml version="1.0" encoding="UTF-8"?>
<svg width="146px" height="146px" viewBox="0 0 146 146" version="1.1" xmlns="http://www.w3.org/2000/svg" xmlns:xlink="http://www.w3.org/1999/xlink">
    <!-- Generator: Sketch 48.2 (47327) - http://www.bohemiancoding.com/sketch -->
    <title>Bonds/Icons/Learn/Mortgages/Gradient</title>
    <desc>Created with Sketch.</desc>
    <defs>
        <linearGradient x1="11.3608068%" y1="19.0590011%" x2="95.5767447%" y2="60.1956399%" id="linearGradient-1">
            <stop stop-color="#FF9933" offset="0%"></stop>
            <stop stop-color="#FF9933" stop-opacity="0.5" offset="100%"></stop>
        </linearGradient>
    </defs>
    <g id="Icons" stroke="none" stroke-width="1" fill="none" fill-rule="evenodd">
        <g id="Bonds/Icons/Learn/Mortgages/Gradient">
            <g id="Group-2" transform="translate(33.547945, 37.493151)">
                <path d="M0.780208546,39.1289561 C0.191371908,39.4860652 -0.0441627479,40.2002834 0.191371908,40.9145017 C0.544673891,41.5096835 1.36904519,41.7477563 1.95788182,41.5096835 L6.66857493,39.1289561 L6.66857493,66.2692489 L33.283991,66.2692489 L33.4017583,22.1067548 L0.780208546,39.1289561 Z" id="Shape" fill="url(#linearGradient-1)" fill-rule="nonzero"></path>
                <path d="M15.3789039,64.6027397 L13.9660272,64.6027397 L13.9660272,45.3188474 C13.9660272,45.0807747 14.2015067,44.9617383 14.3192464,44.9617383 L28.6834927,44.9617383 C28.9189722,44.9617383 29.0367119,45.1998111 29.0367119,45.3188474 L29.0367119,64.6027397 L27.6238352,64.6027397 L15.3789039,64.6027397 Z" id="Shape" fill="#FFFFFF" fill-rule="nonzero"></path>
                <path d="M76.8579023,31.2656087 L69.4385606,26.4869547 L69.4385606,12.1509929 C69.4385606,10.9563294 68.496422,9.76166588 67.3187487,9.76166588 L60.7237784,9.76166588 C59.5461051,9.76166588 58.6039665,10.9563294 58.6039665,12.1509929 L58.6039665,19.5579065 L28.2199959,0.32382431 C27.6311593,-0.0345747365 27.0423226,0.0848916124 26.6890207,0.682223357 C26.3357187,1.2795551 26.100184,1.87688685 26.6890207,2.23528589 L33.283991,6.65554081 L33.283991,66.2692489 L71.6761398,66.2692489 L71.6761398,31.026676 L75.4446943,33.1770703 C76.033531,33.5354693 76.8579023,33.416003 77.0934369,32.8186712 C77.3289716,32.3408058 77.3289716,31.6240077 76.8579023,31.2656087 Z" id="Shape" fill="url(#linearGradient-1)" fill-rule="nonzero"></path>
                <path d="M40.3490011,50.584295 C40.3490011,50.3059475 40.575297,50.0803023 40.842695,50.0803023 L50.6899014,50.0803023 C50.962561,50.0803023 51.1835953,50.3102849 51.1835953,50.584295 L51.1835953,64.7217761 L40.3490011,64.7217761 L40.3490011,50.584295 Z" id="Rectangle-path" fill="#FFFFFF" fill-rule="nonzero"></path>
                <path d="M52.4790359,50.584295 C52.4790359,50.3059475 52.7053318,50.0803023 52.9727297,50.0803023 L62.8199361,50.0803023 C63.0925957,50.0803023 63.31363,50.3102849 63.31363,50.584295 L63.31363,64.7217761 L52.4790359,64.7217761 L52.4790359,50.584295 Z" id="Rectangle-path" fill="#FFFFFF" fill-rule="nonzero"></path>
                <ellipse id="Oval" stroke="#FFFFFF" stroke-width="1.5" cx="45.1784911" cy="26.630137" rx="5.18176242" ry="5.23760038"></ellipse>
                <rect id="Rectangle" fill="#FFFFFF" x="13.8082192" y="40.4383562" width="15.0706847" height="1.97260274" rx="0.5"></rect>
                <rect id="Rectangle-Copy" fill="#FFFFFF" x="40.2312338" y="45.4684916" width="23.6712329" height="1.97260274" rx="0.5"></rect>
            </g>
        </g>
    </g>
</svg>