<?xml version="1.0" encoding="UTF-8"?>
<svg width="40px" height="40px" viewBox="0 0 40 40" version="1.1" xmlns="http://www.w3.org/2000/svg" xmlns:xlink="http://www.w3.org/1999/xlink">
    <!-- Generator: Sketch 48.2 (47327) - http://www.bohemiancoding.com/sketch -->
    <title>Bonds/Icons/Report/Addresses/Active</title>
    <desc>Created with Sketch.</desc>
    <defs>
        <path d="M40,20 C40,31.0431373 31.0431373,40 20,40 C8.95686275,40 0,31.0431373 0,20 C0,8.95686275 8.95686275,0 20,0 C31.0431373,0 40,8.95686275 40,20 Z M27.4509804,18.2823529 C27.4509804,14.172549 24.1098039,10.8313725 20,10.8313725 C15.8901961,10.8313725 12.5490196,14.172549 12.5490196,18.2823529 C12.5490196,24.8470588 19.4196078,28.9254902 19.7098039,29.0980392 C19.8039216,29.145098 19.9058824,29.1764706 20,29.1764706 C20.1019608,29.1764706 20.2039216,29.145098 20.2901961,29.0980392 C20.5803922,28.9254902 27.4509804,24.8392157 27.4509804,18.2823529 Z M26.3058824,18.2745098 C26.3058824,23.4588235 21.2705882,27.0823529 20,27.9137255 C18.7294118,27.0823529 13.7019608,23.4666667 13.7019608,18.2745098 C13.7019608,14.8 16.5254902,11.9764706 20,11.9764706 C23.4745098,11.9764706 26.3058824,14.8 26.3058824,18.2745098 Z M22.2666667,18.4313725 C22.2666667,17.1764706 21.254902,16.1647059 19.9921569,16.1647059 C18.7372549,16.1647059 17.7254902,17.1764706 17.7254902,18.4313725 C17.7254902,19.6941176 18.7372549,20.7058824 19.9921569,20.7058824 C21.254902,20.7058824 22.2666667,19.6862745 22.2666667,18.4313725 Z" id="path-1"></path>
    </defs>
    <g id="Icons" stroke="none" stroke-width="1" fill="none" fill-rule="evenodd">
        <g id="Bonds/Icons/Report/Addresses/Active">
            <mask id="mask-2" fill="white">
                <use xlink:href="#path-1"></use>
            </mask>
            <g id="Shape" fill-rule="nonzero"></g>
            <g id="Bonds/Colours/General/White" mask="url(#mask-2)" fill="#FFFFFF">
                <rect id="Rectangle-3" x="0" y="0" width="40" height="40"></rect>
            </g>
        </g>
    </g>
</svg>