<?xml version="1.0" encoding="UTF-8"?>
<svg width="40px" height="40px" viewBox="0 0 40 40" version="1.1" xmlns="http://www.w3.org/2000/svg" xmlns:xlink="http://www.w3.org/1999/xlink">
    <!-- Generator: Sketch 48.2 (47327) - http://www.bohemiancoding.com/sketch -->
    <title>Bonds/Icons/Report/Addresses/Default</title>
    <desc>Created with Sketch.</desc>
    <defs>
        <path d="M22.2666667,18.4313725 C22.2666667,19.6862745 21.254902,20.7058824 19.9921569,20.7058824 C18.7372549,20.7058824 17.7254902,19.6941176 17.7254902,18.4313725 C17.7254902,17.1764706 18.7372549,16.1647059 19.9921569,16.1647059 C21.254902,16.1647059 22.2666667,17.1764706 22.2666667,18.4313725 Z M27.4509804,18.2823529 C27.4509804,24.8392157 20.5803922,28.9254902 20.2901961,29.0980392 C20.2039216,29.145098 20.1019608,29.1764706 20,29.1764706 C19.9058824,29.1764706 19.8039216,29.145098 19.7098039,29.0980392 C19.4196078,28.9254902 12.5490196,24.8470588 12.5490196,18.2823529 C12.5490196,14.172549 15.8901961,10.8313725 20,10.8313725 C24.1098039,10.8313725 27.4509804,14.172549 27.4509804,18.2823529 Z M26.3058824,18.2745098 C26.3058824,14.8 23.4745098,11.9764706 20,11.9764706 C16.5254902,11.9764706 13.7019608,14.8 13.7019608,18.2745098 C13.7019608,23.4666667 18.7294118,27.0823529 20,27.9137255 C21.2705882,27.0823529 26.3058824,23.4588235 26.3058824,18.2745098 Z M40,20 C40,31.0431373 31.0431373,40 20,40 C8.95686275,40 0,31.0431373 0,20 C0,8.95686275 8.95686275,0 20,0 C31.0431373,0 40,8.95686275 40,20 Z M38.8,20 C38.8,9.61568627 30.3843137,1.2 20,1.2 C9.61568627,1.2 1.2,9.61568627 1.2,20 C1.2,30.3843137 9.61568627,38.8 20,38.8 C30.3843137,38.8 38.8,30.3843137 38.8,20 Z" id="path-1"></path>
    </defs>
    <g id="Icons" stroke="none" stroke-width="1" fill="none" fill-rule="evenodd">
        <g id="Bonds/Icons/Report/Addresses/Default">
            <mask id="mask-2" fill="white">
                <use xlink:href="#path-1"></use>
            </mask>
            <g id="Shape" fill-rule="nonzero"></g>
            <g id="Bonds/Colours/General/White" mask="url(#mask-2)" fill="#FFFFFF">
                <rect id="Rectangle-3" x="0" y="0" width="40" height="40"></rect>
            </g>
        </g>
    </g>
</svg>