<?xml version="1.0" encoding="UTF-8"?>
<svg width="38px" height="38px" viewBox="0 0 38 38" version="1.1" xmlns="http://www.w3.org/2000/svg" xmlns:xlink="http://www.w3.org/1999/xlink">
    <!-- Generator: Sketch 48.2 (47327) - http://www.bohemiancoding.com/sketch -->
    <title>Bonds/Icons/Menu/Dashboard/Default/Band 5</title>
    <desc>Created with Sketch.</desc>
    <defs>
        <path d="M19,34.8333333 C27.7445085,34.8333333 34.8333333,27.7445085 34.8333333,19 C34.8333333,10.2554915 27.7445085,3.16666667 19,3.16666667 C10.2554915,3.16666667 3.16666667,10.2554915 3.16666667,19 C3.16666667,27.7445085 10.2554915,34.8333333 19,34.8333333 Z M19,38 C8.50658975,38 0,29.4934102 0,19 C0,8.50658975 8.50658975,0 19,0 C29.4934102,0 38,8.50658975 38,19 C38,29.4934102 29.4934102,38 19,38 Z M11.4461429,20.9968095 C11.4925875,21.222398 11.5556186,21.4148087 11.6352381,21.5740476 C11.7148575,21.7332865 11.8226739,21.8643249 11.9586905,21.9671667 C12.094707,22.0700085 12.257261,22.1463093 12.4463571,22.1960714 C12.6354533,22.2458336 12.8626971,22.2707143 13.1280952,22.2707143 C13.6323517,22.2707143 14.0271256,22.1230888 14.3124286,21.8278333 C14.5977316,21.5325779 14.740381,21.0731142 14.740381,20.4494286 C14.740381,20.2105702 14.7121828,19.9866439 14.6557857,19.7776429 C14.5993886,19.5686418 14.5081594,19.387842 14.3820952,19.2352381 C14.2560311,19.0826342 14.0918185,18.9632068 13.8894524,18.8769524 C13.6870863,18.790698 13.4432554,18.7475714 13.1579524,18.7475714 C12.8129348,18.7475714 12.5110489,18.7989915 12.2522857,18.9018333 C11.9935225,19.0046751 11.7579852,19.1688878 11.5456667,19.3944762 L11.0281429,19.3944762 L11.3167619,15.7419524 L14.9394286,15.7419524 L14.9394286,16.2893333 L11.7944762,16.2893333 L11.5755238,18.8072857 C11.694953,18.7143964 11.8127216,18.6331194 11.9288333,18.5634524 C12.044945,18.4937854 12.1676898,18.4357304 12.2970714,18.3892857 C12.426453,18.342841 12.5674437,18.3080081 12.7200476,18.2847857 C12.8726516,18.2615634 13.0484752,18.2499524 13.2475238,18.2499524 C13.6190812,18.2499524 13.9358955,18.3080074 14.1979762,18.424119 C14.4600569,18.5402307 14.6756896,18.6978085 14.844881,18.8968571 C15.0140723,19.0959058 15.1384758,19.3264669 15.2180952,19.5885476 C15.2977147,19.8506283 15.3375238,20.1309509 15.3375238,20.4295238 C15.3375238,20.8143511 15.2861037,21.1543874 15.1832619,21.4496429 C15.0804201,21.7448983 14.9327946,21.9920466 14.740381,22.1910952 C14.5479673,22.3901439 14.3157474,22.5410868 14.0437143,22.6439286 C13.7716812,22.7467704 13.4664779,22.7981905 13.1280952,22.7981905 C12.43806,22.7981905 11.9089304,22.6439301 11.5406905,22.3354048 C11.1724505,22.0268794 10.9551591,21.5806855 10.8888095,20.9968095 L11.4461429,20.9968095 Z M17.8654286,22.6190476 C18.1905413,21.5176453 18.5637519,20.4427989 18.9850714,19.3944762 C19.406391,18.3461535 19.8957115,17.3111162 20.4530476,16.2893333 L16.5019524,16.2893333 L16.5019524,15.7419524 L21.09,15.7419524 L21.09,16.2893333 C20.5459338,17.3044813 20.058272,18.3362011 19.627,19.3845238 C19.195728,20.4328465 18.830811,21.5110103 18.5322381,22.6190476 L17.8654286,22.6190476 Z M23.7870952,19.1257619 C23.6411263,19.0859522 23.5001356,19.0212624 23.364119,18.9316905 C23.2281025,18.8421186 23.1053577,18.7276674 22.995881,18.5883333 C22.8864042,18.4489993 22.7984924,18.2864454 22.7321429,18.1006667 C22.6657933,17.914888 22.632619,17.7025726 22.632619,17.4637143 C22.632619,17.1983161 22.6774043,16.9478504 22.7669762,16.7123095 C22.8565481,16.4767687 22.9925626,16.2744056 23.1750238,16.1052143 C23.357485,15.936023 23.5913637,15.8016672 23.8766667,15.7021429 C24.1619697,15.6026185 24.5036647,15.5528571 24.9017619,15.5528571 C25.2932242,15.5528571 25.6316017,15.6026185 25.9169048,15.7021429 C26.2022078,15.8016672 26.4360864,15.936023 26.6185476,16.1052143 C26.8010088,16.2744056 26.9370234,16.4767687 27.0265952,16.7123095 C27.1161671,16.9478504 27.1609524,17.1983161 27.1609524,17.4637143 C27.1609524,17.7025726 27.1277781,17.9132292 27.0614286,18.0956905 C26.995079,18.2781517 26.9088259,18.4373882 26.8026667,18.5734048 C26.6965074,18.7094213 26.5737626,18.8188964 26.4344286,18.9018333 C26.2950945,18.9847703 26.1557626,19.0461427 26.0164286,19.0859524 C26.1424927,19.1191272 26.2834833,19.1755234 26.4394048,19.2551429 C26.5953262,19.3347623 26.7429517,19.4442374 26.8822857,19.5835714 C27.0216197,19.7229055 27.1393884,19.8920942 27.2355952,20.0911429 C27.3318021,20.2901915 27.3799048,20.5290462 27.3799048,20.8077143 C27.3799048,21.1062872 27.3284846,21.3766575 27.2256429,21.6188333 C27.1228011,21.8610091 26.9685407,22.0700071 26.7628571,22.2458333 C26.5571736,22.4216596 26.2984143,22.5576741 25.9865714,22.653881 C25.6747286,22.7500878 25.313129,22.7981905 24.9017619,22.7981905 C24.4903948,22.7981905 24.1287952,22.7500878 23.8169524,22.653881 C23.5051096,22.5576741 23.2446915,22.4216596 23.0356905,22.2458333 C22.8266894,22.0700071 22.6707704,21.8610091 22.5679286,21.6188333 C22.4650868,21.3766575 22.4136667,21.1062872 22.4136667,20.8077143 C22.4136667,20.5356812 22.4634281,20.3001439 22.5629524,20.1010952 C22.6624767,19.9020466 22.7819041,19.7345166 22.9212381,19.5985 C23.0605721,19.4624834 23.2098563,19.3563258 23.3690952,19.2800238 C23.5283341,19.2037218 23.6676661,19.1523017 23.7870952,19.1257619 Z M23.2098571,17.4637143 C23.2098571,17.9281611 23.3458717,18.2781496 23.6179048,18.5136905 C23.8899379,18.7492313 24.317886,18.867 24.9017619,18.867 C25.4856378,18.867 25.9119272,18.7492313 26.1806429,18.5136905 C26.4493585,18.2781496 26.5837143,17.9281611 26.5837143,17.4637143 C26.5837143,17.2713006 26.5521987,17.0905008 26.4891667,16.9213095 C26.4261346,16.7521182 26.3266118,16.602834 26.1905952,16.4734524 C26.0545787,16.3440708 25.8804138,16.2412305 25.6680952,16.1649286 C25.4557767,16.0886266 25.2003348,16.0504762 24.9017619,16.0504762 C24.603189,16.0504762 24.3460884,16.0886266 24.1304524,16.1649286 C23.9148164,16.2412305 23.7389927,16.3440708 23.6029762,16.4734524 C23.4669596,16.602834 23.3674368,16.7521182 23.3044048,16.9213095 C23.2413727,17.0905008 23.2098571,17.2713006 23.2098571,17.4637143 Z M23.0406667,20.8176667 C23.0406667,21.2555736 23.1882922,21.612197 23.4835476,21.8875476 C23.7788031,22.1628982 24.2515364,22.3005714 24.9017619,22.3005714 C25.5453524,22.3005714 26.0147684,22.1628982 26.3100238,21.8875476 C26.6052793,21.612197 26.7529048,21.2555736 26.7529048,20.8176667 C26.7529048,20.6053481 26.7213892,20.4112787 26.6583571,20.2354524 C26.5953251,20.0596261 26.4908261,19.9103419 26.3448571,19.7875952 C26.1988882,19.6648486 26.0081361,19.5686432 25.7725952,19.4989762 C25.5370544,19.4293092 25.2467795,19.3944762 24.9017619,19.3944762 C24.5501094,19.3944762 24.2565171,19.4293092 24.0209762,19.4989762 C23.7854353,19.5686432 23.5946833,19.6648486 23.4487143,19.7875952 C23.3027453,19.9103419 23.1982463,20.0596261 23.1352143,20.2354524 C23.0721822,20.4112787 23.0406667,20.6053481 23.0406667,20.8176667 Z" id="path-1"></path>
    </defs>
    <g id="Icons" stroke="none" stroke-width="1" fill="none" fill-rule="evenodd">
        <g id="Bonds/Icons/Menu/Dashboard/Default/Band-5">
            <mask id="mask-2" fill="white">
                <use xlink:href="#path-1"></use>
            </mask>
            <g id="Combined-Shape" fill-rule="nonzero"></g>
            <g id="Bonds/Colours/General/White" mask="url(#mask-2)" fill="#FFFFFF">
                <rect id="Rectangle-3" x="0" y="0" width="38" height="38"></rect>
            </g>
        </g>
    </g>
</svg>