<?xml version="1.0" encoding="UTF-8"?>
<svg width="38px" height="38px" viewBox="0 0 38 38" version="1.1" xmlns="http://www.w3.org/2000/svg" xmlns:xlink="http://www.w3.org/1999/xlink">
    <!-- Generator: Sketch 48.2 (47327) - http://www.bohemiancoding.com/sketch -->
    <title>Bonds/Icons/Menu/Dashboard/Default/Band 4</title>
    <desc>Created with Sketch.</desc>
    <defs>
        <path d="M0.93397778,17.9630162 C1.1703122,17.7632718 1.47585583,17.6428571 1.80952381,17.6428571 C2.55905311,17.6428571 3.16666667,18.2504707 3.16666667,19 C3.16666667,27.7445085 10.2554915,34.8333333 19,34.8333333 C27.7445085,34.8333333 34.8333333,27.7445085 34.8333333,19 C34.8333333,10.2554915 27.7445085,3.16666667 19,3.16666667 C18.2504707,3.16666667 17.6428571,2.55905311 17.6428571,1.80952381 C17.6428571,1.47585583 17.7632718,1.1703122 17.9630162,0.93397778 C8.79500311,1.4519574 1.4519574,8.79500311 0.93397778,17.9630162 Z M19,38 C8.50658975,38 0,29.4934102 0,19 C0,8.50658975 8.50658975,0 19,0 C29.4934102,0 38,8.50658975 38,19 C38,29.4934102 29.4934102,38 19,38 Z M10.6200952,20.33 L13.9740476,15.7419524 L14.5811429,15.7419524 L14.5811429,20.33 L15.5664286,20.33 L15.4569524,20.8176667 L14.5811429,20.8176667 L14.5811429,22.6190476 L14.0039048,22.6190476 L14.0039048,20.8176667 L10.6200952,20.8176667 L10.6200952,20.33 Z M14.0039048,20.33 L14.0039048,16.5182381 L11.2470952,20.33 L14.0039048,20.33 Z M20.7018571,17.1452381 C20.6355076,16.9528244 20.5641829,16.7902705 20.487881,16.6575714 C20.411579,16.5248724 20.318691,16.4153973 20.2092143,16.3291429 C20.0997375,16.2428885 19.9686992,16.1815161 19.8160952,16.1450238 C19.6634913,16.1085316 19.4810328,16.0902857 19.2687143,16.0902857 C18.9966812,16.0902857 18.7462154,16.1383884 18.5173095,16.2345952 C18.2884036,16.3308021 18.0860406,16.4999909 17.9102143,16.7421667 C17.734388,16.9843425 17.5933974,17.3127678 17.4872381,17.7274524 C17.3810788,18.142137 17.3180477,18.6679492 17.2981429,19.3049048 C17.5303662,18.9333473 17.8090301,18.662977 18.1341429,18.4937857 C18.4592556,18.3245944 18.8407597,18.24 19.2786667,18.24 C19.663494,18.24 19.9902606,18.3013724 20.2589762,18.424119 C20.5276918,18.5468657 20.7433246,18.7127371 20.905881,18.9217381 C21.0684373,19.1307391 21.186206,19.3712526 21.2591905,19.6432857 C21.332175,19.9153188 21.3686667,20.1973001 21.3686667,20.4892381 C21.3686667,20.8276207 21.3139291,21.1394589 21.2044524,21.4247619 C21.0949756,21.7100649 20.9407153,21.9538958 20.7416667,22.1562619 C20.5426181,22.358628 20.3004459,22.5162058 20.0151429,22.629 C19.7298398,22.7417942 19.4146843,22.7981905 19.0696667,22.7981905 C18.59195,22.7981905 18.2021523,22.7036438 17.9002619,22.5145476 C17.5983715,22.3254514 17.3611755,22.0799618 17.1886667,21.7780714 C17.0161579,21.476181 16.8967305,21.1378035 16.830381,20.7629286 C16.7640314,20.3880537 16.7308571,20.0148431 16.7308571,19.6432857 C16.7308571,18.8205514 16.8038405,18.1437963 16.9498095,17.613 C17.0957785,17.0822037 17.2865306,16.6642079 17.5220714,16.359 C17.7576123,16.0537921 18.0279826,15.8431355 18.3331905,15.7270238 C18.6383984,15.6109121 18.9502365,15.5528571 19.2687143,15.5528571 C19.8724951,15.5528571 20.3203477,15.6822368 20.6122857,15.941 C20.9042237,16.1997632 21.1065867,16.5580453 21.219381,17.0158571 L20.7018571,17.1452381 Z M19.0597143,22.2806667 C19.5971455,22.2806667 20.0168001,22.1214302 20.3186905,21.8029524 C20.6205809,21.4844746 20.7715238,21.0532091 20.7715238,20.5091429 C20.7715238,20.2702845 20.7449844,20.0430408 20.6919048,19.8274048 C20.6388251,19.6117688 20.552572,19.4226754 20.4331429,19.260119 C20.3137137,19.0975627 20.1528185,18.9698417 19.9504524,18.8769524 C19.7480863,18.784063 19.4976205,18.737619 19.1990476,18.737619 C18.9668242,18.737619 18.7412392,18.7741107 18.5222857,18.8470952 C18.3033322,18.9200797 18.1109215,19.0328723 17.9450476,19.1854762 C17.7791738,19.3380801 17.6497941,19.5321496 17.5569048,19.7676905 C17.4640154,20.0032313 17.4242063,20.2802365 17.4374762,20.5987143 C17.4441111,20.8110328 17.485579,21.0167133 17.561881,21.2157619 C17.6381829,21.4148105 17.7426819,21.5939516 17.875381,21.7531905 C18.00808,21.9124294 18.1739514,22.0401503 18.373,22.1363571 C18.5720486,22.232564 18.8009511,22.2806667 19.0597143,22.2806667 Z M22.682381,22.081619 C22.9146043,21.8759355 23.1816572,21.6387394 23.4835476,21.3700238 C23.785438,21.1013082 24.0889826,20.8342553 24.3941905,20.5688571 C24.7325731,20.2769192 25.0294828,20.0082076 25.2849286,19.7627143 C25.5403743,19.517221 25.7526896,19.2783662 25.921881,19.0461429 C26.0910723,18.8139195 26.2187932,18.5800409 26.3050476,18.3445 C26.391302,18.1089591 26.4344286,17.855176 26.4344286,17.5831429 C26.4344286,17.0855213 26.3050489,16.7139695 26.0462857,16.4684762 C25.7875225,16.2229829 25.4192881,16.1002381 24.9415714,16.1002381 C24.6562684,16.1002381 24.4157549,16.1317537 24.2200238,16.1947857 C24.0242927,16.2578178 23.86008,16.3457296 23.727381,16.4585238 C23.5946819,16.571318 23.4868655,16.71065 23.4039286,16.8765238 C23.3209916,17.0423977 23.2463495,17.2248561 23.18,17.4239048 L22.6525238,17.3144286 C22.7056034,17.108745 22.7852217,16.8997471 22.891381,16.6874286 C22.9975402,16.47511 23.1401896,16.2860167 23.3193333,16.1201429 C23.4984771,15.954269 23.7224034,15.8182545 23.991119,15.7120952 C24.2598347,15.605936 24.5866013,15.5528571 24.9714286,15.5528571 C25.3031763,15.5528571 25.5984273,15.6009598 25.8571905,15.6971667 C26.1159537,15.7933735 26.3332452,15.929388 26.5090714,16.1052143 C26.6848977,16.2810406 26.8192535,16.4883798 26.9121429,16.7272381 C27.0050322,16.9660964 27.0514762,17.2248557 27.0514762,17.5035238 C27.0514762,17.8153666 27.0050322,18.1073002 26.9121429,18.3793333 C26.8192535,18.6513664 26.6782629,18.9217368 26.4891667,19.1904524 C26.3000705,19.459168 26.059557,19.7361732 25.767619,20.0214762 C25.4756811,20.3067792 25.1306687,20.6186174 24.7325714,20.957 C24.5268879,21.1295088 24.3112551,21.313626 24.0856667,21.5093571 C23.8600782,21.7050883 23.6477629,21.8892055 23.4487143,22.0617143 L27.1111905,22.0617143 L26.9917619,22.6190476 L22.682381,22.6190476 L22.682381,22.081619 Z" id="path-1"></path>
    </defs>
    <g id="Icons" stroke="none" stroke-width="1" fill="none" fill-rule="evenodd">
        <g id="Bonds/Icons/Menu/Dashboard/Default/Band-4">
            <mask id="mask-2" fill="white">
                <use xlink:href="#path-1"></use>
            </mask>
            <g id="Combined-Shape" fill-rule="nonzero"></g>
            <g id="Bonds/Colours/General/White" mask="url(#mask-2)" fill="#FFFFFF">
                <rect id="Rectangle-3" x="0" y="0" width="38" height="38"></rect>
            </g>
        </g>
    </g>
</svg>