<?xml version="1.0" encoding="UTF-8"?>
<svg width="38px" height="38px" viewBox="0 0 38 38" version="1.1" xmlns="http://www.w3.org/2000/svg" xmlns:xlink="http://www.w3.org/1999/xlink">
    <!-- Generator: Sketch 48.2 (47327) - http://www.bohemiancoding.com/sketch -->
    <title>Bonds/Icons/Menu/Dashboard/Default/Band 1</title>
    <desc>Created with Sketch.</desc>
    <defs>
        <path d="M19,38 C8.50658975,38 0,29.4934102 0,19 C0,8.50658975 8.50658975,0 19,0 C29.4934102,0 38,8.50658975 38,19 C38,29.4934102 29.4934102,38 19,38 Z M19,37.0952381 C28.993724,37.0952381 37.0952381,28.993724 37.0952381,19 C37.0952381,9.00627596 28.993724,0.904761905 19,0.904761905 C9.00627596,0.904761905 0.904761905,9.00627596 0.904761905,19 C0.904761905,28.993724 9.00627596,37.0952381 19,37.0952381 Z M10.8987619,22.081619 C11.1309853,21.8759355 11.3980382,21.6387394 11.6999286,21.3700238 C12.001819,21.1013082 12.3053636,20.8342553 12.6105714,20.5688571 C12.9489541,20.2769192 13.2458638,20.0082076 13.5013095,19.7627143 C13.7567552,19.517221 13.9690706,19.2783662 14.1382619,19.0461429 C14.3074532,18.8139195 14.4351742,18.5800409 14.5214286,18.3445 C14.607683,18.1089591 14.6508095,17.855176 14.6508095,17.5831429 C14.6508095,17.0855213 14.5214299,16.7139695 14.2626667,16.4684762 C14.0039035,16.2229829 13.6356691,16.1002381 13.1579524,16.1002381 C12.8726494,16.1002381 12.6321359,16.1317537 12.4364048,16.1947857 C12.2406736,16.2578178 12.076461,16.3457296 11.9437619,16.4585238 C11.8110628,16.571318 11.7032464,16.71065 11.6203095,16.8765238 C11.5373726,17.0423977 11.4627305,17.2248561 11.396381,17.4239048 L10.8689048,17.3144286 C10.9219844,17.108745 11.0016026,16.8997471 11.1077619,16.6874286 C11.2139212,16.47511 11.3565705,16.2860167 11.5357143,16.1201429 C11.714858,15.954269 11.9387844,15.8182545 12.2075,15.7120952 C12.4762156,15.605936 12.8029822,15.5528571 13.1878095,15.5528571 C13.5195572,15.5528571 13.8148082,15.6009598 14.0735714,15.6971667 C14.3323346,15.7933735 14.5496261,15.929388 14.7254524,16.1052143 C14.9012787,16.2810406 15.0356345,16.4883798 15.1285238,16.7272381 C15.2214132,16.9660964 15.2678571,17.2248557 15.2678571,17.5035238 C15.2678571,17.8153666 15.2214132,18.1073002 15.1285238,18.3793333 C15.0356345,18.6513664 14.8946438,18.9217368 14.7055476,19.1904524 C14.5164514,19.459168 14.275938,19.7361732 13.984,20.0214762 C13.692062,20.3067792 13.3470496,20.6186174 12.9489524,20.957 C12.7432688,21.1295088 12.527636,21.313626 12.3020476,21.5093571 C12.0764592,21.7050883 11.8641439,21.8892055 11.6650952,22.0617143 L15.3275714,22.0617143 L15.2081429,22.6190476 L10.8987619,22.6190476 L10.8987619,22.081619 Z M18.9800952,22.7981905 C18.2038056,22.7981905 17.6000339,22.5079156 17.1687619,21.9273571 C16.7374899,21.3467987 16.5218571,20.4328475 16.5218571,19.1854762 C16.5218571,18.5617905 16.5799121,18.0210499 16.6960238,17.5632381 C16.8121355,17.1054263 16.9796656,16.7272396 17.198619,16.4286667 C17.4175725,16.1300937 17.681308,15.9094848 17.9898333,15.7668333 C18.2983587,15.6241818 18.6417124,15.5528571 19.0199048,15.5528571 C19.4047321,15.5528571 19.7480858,15.6241818 20.0499762,15.7668333 C20.3518666,15.9094848 20.6073085,16.1300937 20.8163095,16.4286667 C21.0253106,16.7272396 21.1862058,17.1054263 21.299,17.5632381 C21.4117942,18.0210499 21.4681905,18.5617905 21.4681905,19.1854762 C21.4681905,19.8091618 21.4117942,20.3482438 21.299,20.8027381 C21.1862058,21.2572324 21.0236519,21.6321017 20.8113333,21.9273571 C20.5990148,22.2226126 20.3385968,22.4415628 20.0300714,22.5842143 C19.7215461,22.7268658 19.3715575,22.7981905 18.9800952,22.7981905 Z M19,22.2607619 C19.3383826,22.2607619 19.6236814,22.1910959 19.8559048,22.0517619 C20.0881281,21.9124279 20.2772215,21.7117235 20.4231905,21.4496429 C20.5691595,21.1875622 20.6736584,20.8657717 20.7366905,20.4842619 C20.7997225,20.1027521 20.8312381,19.6698278 20.8312381,19.1854762 C20.8312381,18.7077595 20.7997225,18.2781527 20.7366905,17.8966429 C20.6736584,17.515133 20.5691595,17.1916839 20.4231905,16.9262857 C20.2772215,16.6608876 20.0881281,16.4568658 19.8559048,16.3142143 C19.6236814,16.1715628 19.3383826,16.1002381 19,16.1002381 C18.6616174,16.1002381 18.3746599,16.1715628 18.139119,16.3142143 C17.9035782,16.4568658 17.7128261,16.6608876 17.5668571,16.9262857 C17.4208882,17.1916839 17.3163892,17.515133 17.2533571,17.8966429 C17.1903251,18.2781527 17.1588095,18.7077595 17.1588095,19.1854762 C17.1588095,19.6698278 17.1903251,20.1027521 17.2533571,20.4842619 C17.3163892,20.8657717 17.4208882,21.1875622 17.5668571,21.4496429 C17.7128261,21.7117235 17.9035782,21.9124279 18.139119,22.0517619 C18.3746599,22.1910959 18.6616174,22.2607619 19,22.2607619 Z M23.2397143,21.2356667 C23.3259687,21.6271289 23.4852052,21.899158 23.7174286,22.0517619 C23.949652,22.2043658 24.268125,22.2806667 24.6728571,22.2806667 C24.9714301,22.2806667 25.2351655,22.2275878 25.4640714,22.1214286 C25.6929773,22.0152693 25.8853881,21.837787 26.0413095,21.5889762 C26.1972309,21.3401654 26.3133409,21.0084227 26.3896429,20.5937381 C26.4659448,20.1790535 26.5040952,19.6631936 26.5040952,19.0461429 C26.0661883,19.7627179 25.4226074,20.121 24.5733333,20.121 C24.1818711,20.121 23.8534458,20.0579689 23.5880476,19.9319048 C23.3226495,19.8058406 23.1086754,19.6383106 22.946119,19.4293095 C22.7835627,19.2203085 22.665794,18.979795 22.5928095,18.7077619 C22.519825,18.4357288 22.4833333,18.1537475 22.4833333,17.8618095 C22.4833333,17.5234269 22.5380709,17.2115887 22.6475476,16.9262857 C22.7570244,16.6409827 22.9112847,16.3971518 23.1103333,16.1947857 C23.3093819,15.9924196 23.5482367,15.8348418 23.8269048,15.7220476 C24.1055728,15.6092534 24.417411,15.5528571 24.7624286,15.5528571 C25.2202404,15.5528571 25.6000858,15.6490625 25.9019762,15.8414762 C26.2038666,16.0338899 26.4410626,16.2860143 26.6135714,16.5978571 C26.7860802,16.9097 26.9071663,17.2613472 26.9768333,17.6528095 C27.0465003,18.0442718 27.0813333,18.4357282 27.0813333,18.8271905 C27.0813333,19.0925886 27.0746985,19.3762286 27.0614286,19.678119 C27.0481587,19.9800094 27.0166431,20.2769192 26.966881,20.5688571 C26.9171188,20.8607951 26.840818,21.1411177 26.7379762,21.4098333 C26.6351344,21.678549 26.4958025,21.915745 26.3199762,22.1214286 C26.1441499,22.3271121 25.9218823,22.4913248 25.6531667,22.6140714 C25.384451,22.7368181 25.0610019,22.7981905 24.6828095,22.7981905 C24.0989336,22.7981905 23.6328351,22.6721282 23.2845,22.42 C22.9361649,22.1678718 22.7288257,21.7730979 22.6624762,21.2356667 L23.2397143,21.2356667 Z M24.6529524,19.6034762 C24.8851758,19.6034762 25.1057847,19.5686432 25.3147857,19.4989762 C25.5237868,19.4293092 25.7062453,19.3231515 25.8621667,19.1805 C26.0180881,19.0378485 26.1408329,18.8587074 26.2304048,18.6430714 C26.3199766,18.4274354 26.3647619,18.1736523 26.3647619,17.8817143 C26.3647619,17.6627608 26.3332463,17.4454693 26.2702143,17.2298333 C26.2071822,17.0141973 26.1109768,16.8201278 25.9815952,16.647619 C25.8522136,16.4751102 25.6863423,16.3357783 25.4839762,16.229619 C25.2816101,16.1234598 25.0444141,16.070381 24.772381,16.070381 C24.2349497,16.070381 23.8186126,16.2296175 23.5233571,16.5480952 C23.2281017,16.866573 23.0804762,17.2978385 23.0804762,17.8419048 C23.0804762,18.0807631 23.1053569,18.3080069 23.155119,18.5236429 C23.2048812,18.7392789 23.2894756,18.9267135 23.4089048,19.0859524 C23.5283339,19.2451913 23.6892291,19.3712535 23.8915952,19.4641429 C24.0939613,19.5570322 24.3477445,19.6034762 24.6529524,19.6034762 Z" id="path-1"></path>
    </defs>
    <g id="Icons" stroke="none" stroke-width="1" fill="none" fill-rule="evenodd">
        <g id="Bonds/Icons/Menu/Dashboard/Default/Band-1">
            <mask id="mask-2" fill="white">
                <use xlink:href="#path-1"></use>
            </mask>
            <g id="Combined-Shape" fill-rule="nonzero"></g>
            <g id="Bonds/Colours/General/White" mask="url(#mask-2)" fill="#FFFFFF">
                <rect id="Rectangle-3" x="0" y="0" width="38" height="38"></rect>
            </g>
        </g>
    </g>
</svg>