<?xml version="1.0" encoding="UTF-8"?>
<svg width="38px" height="38px" viewBox="0 0 38 38" version="1.1" xmlns="http://www.w3.org/2000/svg" xmlns:xlink="http://www.w3.org/1999/xlink">
    <!-- Generator: Sketch 48.2 (47327) - http://www.bohemiancoding.com/sketch -->
    <title>Bonds/Icons/Menu/Dashboard/Default/Band 3</title>
    <desc>Created with Sketch.</desc>
    <defs>
        <path d="M17.9630162,0.93397778 C8.45181168,1.47134723 0.904761905,9.35431965 0.904761905,19 C0.904761905,28.6456803 8.45181168,36.5286528 17.9630162,37.0660222 C17.7632718,36.8296878 17.6428571,36.5241442 17.6428571,36.1904762 C17.6428571,35.4409469 18.2504707,34.8333333 19,34.8333333 C27.7445085,34.8333333 34.8333333,27.7445085 34.8333333,19 C34.8333333,10.2554915 27.7445085,3.16666667 19,3.16666667 C18.2504707,3.16666667 17.6428571,2.55905311 17.6428571,1.80952381 C17.6428571,1.47585583 17.7632718,1.1703122 17.9630162,0.93397778 Z M19,38 C8.50658975,38 0,29.4934102 0,19 C0,8.50658975 8.50658975,0 19,0 C29.4934102,0 38,8.50658975 38,19 C38,29.4934102 29.4934102,38 19,38 Z M11.2869048,20.877381 C11.3200795,21.1029694 11.3731584,21.302015 11.4461429,21.4745238 C11.5191273,21.6470326 11.6236263,21.7929994 11.7596429,21.9124286 C11.8956594,22.0318577 12.0698243,22.1214283 12.2821429,22.1811429 C12.4944614,22.2408574 12.7565381,22.2707143 13.068381,22.2707143 C13.6257171,22.2707143 14.0387368,22.1346998 14.3074524,21.8626667 C14.576168,21.5906336 14.7105238,21.205812 14.7105238,20.7081905 C14.7105238,20.4494273 14.6723734,20.2304771 14.5960714,20.0513333 C14.5197695,19.8721896 14.4119531,19.7262228 14.272619,19.6134286 C14.133285,19.5006344 13.9690724,19.4193574 13.7799762,19.3695952 C13.59088,19.3198331 13.3835408,19.2949524 13.1579524,19.2949524 L12.3219524,19.2949524 L12.3219524,18.7475714 L13.1579524,18.7475714 C13.5892244,18.7475714 13.9309194,18.6298028 14.1830476,18.3942619 C14.4351759,18.158721 14.5612381,17.8153673 14.5612381,17.3641905 C14.5612381,16.9395534 14.4252236,16.6227391 14.1531905,16.4137381 C13.8811574,16.2047371 13.5062881,16.1002381 13.0285714,16.1002381 C12.7565383,16.1002381 12.5276358,16.1267775 12.3418571,16.1798571 C12.1560784,16.2329368 11.9985006,16.3108963 11.869119,16.4137381 C11.7397374,16.5165799 11.6335798,16.6459595 11.5506429,16.801881 C11.4677059,16.9578024 11.3930638,17.1386021 11.3267143,17.3442857 L10.7892857,17.2447619 C10.8357304,17.0457133 10.9087138,16.8450089 11.0082381,16.6426429 C11.1077624,16.4402768 11.2437769,16.2578183 11.4162857,16.0952619 C11.5887945,15.9327055 11.8094034,15.8016672 12.078119,15.7021429 C12.3468347,15.6026185 12.6736013,15.5528571 13.0584286,15.5528571 C13.4167161,15.5528571 13.7285542,15.5993011 13.9939524,15.6921905 C14.2593505,15.7850798 14.476642,15.9111421 14.6458333,16.070381 C14.8150247,16.2296198 14.9410869,16.4137371 15.0240238,16.6227381 C15.1069607,16.8317391 15.1484286,17.0556655 15.1484286,17.2945238 C15.1484286,17.7125259 15.0654929,18.0509035 14.899619,18.3096667 C14.7337452,18.5684299 14.4783033,18.7840626 14.1332857,18.9565714 C14.9162103,19.2617793 15.3076667,19.8356942 15.3076667,20.6783333 C15.3076667,20.9835412 15.259564,21.2655225 15.1633571,21.5242857 C15.0671503,21.7830489 14.9228422,22.0069752 14.7304286,22.1960714 C14.5380149,22.3851676 14.3008189,22.5327931 14.0188333,22.6389524 C13.7368478,22.7451116 13.4133987,22.7981905 13.0484762,22.7981905 C12.5972993,22.7981905 12.2240888,22.7384768 11.9288333,22.6190476 C11.6335779,22.4996185 11.3996993,22.3470168 11.2271905,22.1612381 C11.0546817,21.9754594 10.9319369,21.7681202 10.8589524,21.5392143 C10.7859679,21.3103084 10.7428413,21.0896995 10.7295714,20.877381 L11.2869048,20.877381 Z M17.3479048,21.2356667 C17.4341592,21.6271289 17.5933957,21.899158 17.825619,22.0517619 C18.0578424,22.2043658 18.3763154,22.2806667 18.7810476,22.2806667 C19.0796205,22.2806667 19.343356,22.2275878 19.5722619,22.1214286 C19.8011678,22.0152693 19.9935786,21.837787 20.1495,21.5889762 C20.3054214,21.3401654 20.4215314,21.0084227 20.4978333,20.5937381 C20.5741353,20.1790535 20.6122857,19.6631936 20.6122857,19.0461429 C20.1743788,19.7627179 19.5307979,20.121 18.6815238,20.121 C18.2900615,20.121 17.9616362,20.0579689 17.6962381,19.9319048 C17.4308399,19.8058406 17.2168659,19.6383106 17.0543095,19.4293095 C16.8917532,19.2203085 16.7739845,18.979795 16.701,18.7077619 C16.6280155,18.4357288 16.5915238,18.1537475 16.5915238,17.8618095 C16.5915238,17.5234269 16.6462614,17.2115887 16.7557381,16.9262857 C16.8652148,16.6409827 17.0194752,16.3971518 17.2185238,16.1947857 C17.4175724,15.9924196 17.6564272,15.8348418 17.9350952,15.7220476 C18.2137633,15.6092534 18.5256014,15.5528571 18.870619,15.5528571 C19.3284309,15.5528571 19.7082763,15.6490625 20.0101667,15.8414762 C20.3120571,16.0338899 20.5492531,16.2860143 20.7217619,16.5978571 C20.8942707,16.9097 21.0153568,17.2613472 21.0850238,17.6528095 C21.1546908,18.0442718 21.1895238,18.4357282 21.1895238,18.8271905 C21.1895238,19.0925886 21.182889,19.3762286 21.169619,19.678119 C21.1563491,19.9800094 21.1248336,20.2769192 21.0750714,20.5688571 C21.0253093,20.8607951 20.9490085,21.1411177 20.8461667,21.4098333 C20.7433249,21.678549 20.6039929,21.915745 20.4281667,22.1214286 C20.2523404,22.3271121 20.0300728,22.4913248 19.7613571,22.6140714 C19.4926415,22.7368181 19.1691924,22.7981905 18.791,22.7981905 C18.2071241,22.7981905 17.7410256,22.6721282 17.3926905,22.42 C17.0443554,22.1678718 16.8370162,21.7730979 16.7706667,21.2356667 L17.3479048,21.2356667 Z M18.7611429,19.6034762 C18.9933662,19.6034762 19.2139751,19.5686432 19.4229762,19.4989762 C19.6319772,19.4293092 19.8144357,19.3231515 19.9703571,19.1805 C20.1262786,19.0378485 20.2490234,18.8587074 20.3385952,18.6430714 C20.4281671,18.4274354 20.4729524,18.1736523 20.4729524,17.8817143 C20.4729524,17.6627608 20.4414368,17.4454693 20.3784048,17.2298333 C20.3153727,17.0141973 20.2191673,16.8201278 20.0897857,16.647619 C19.9604041,16.4751102 19.7945328,16.3357783 19.5921667,16.229619 C19.3898006,16.1234598 19.1526045,16.070381 18.8805714,16.070381 C18.3431402,16.070381 17.9268031,16.2296175 17.6315476,16.5480952 C17.3362922,16.866573 17.1886667,17.2978385 17.1886667,17.8419048 C17.1886667,18.0807631 17.2135474,18.3080069 17.2633095,18.5236429 C17.3130717,18.7392789 17.3976661,18.9267135 17.5170952,19.0859524 C17.6365244,19.2451913 17.7974196,19.3712535 17.9997857,19.4641429 C18.2021518,19.5570322 18.455935,19.6034762 18.7611429,19.6034762 Z M22.4037143,20.33 L25.7576667,15.7419524 L26.3647619,15.7419524 L26.3647619,20.33 L27.3500476,20.33 L27.2405714,20.8176667 L26.3647619,20.8176667 L26.3647619,22.6190476 L25.7875238,22.6190476 L25.7875238,20.8176667 L22.4037143,20.8176667 L22.4037143,20.33 Z M25.7875238,20.33 L25.7875238,16.5182381 L23.0307143,20.33 L25.7875238,20.33 Z" id="path-1"></path>
    </defs>
    <g id="Icons" stroke="none" stroke-width="1" fill="none" fill-rule="evenodd">
        <g id="Bonds/Icons/Menu/Dashboard/Default/Band-3">
            <mask id="mask-2" fill="white">
                <use xlink:href="#path-1"></use>
            </mask>
            <g id="Combined-Shape" fill-rule="nonzero"></g>
            <g id="Bonds/Colours/General/White" mask="url(#mask-2)" fill="#FFFFFF">
                <rect id="Rectangle-3" x="0" y="0" width="38" height="38"></rect>
            </g>
        </g>
    </g>
</svg>