<?xml version="1.0" encoding="UTF-8"?>
<svg width="146px" height="146px" viewBox="0 0 146 146" version="1.1" xmlns="http://www.w3.org/2000/svg" xmlns:xlink="http://www.w3.org/1999/xlink">
    <!-- Generator: Sketch 48.2 (47327) - http://www.bohemiancoding.com/sketch -->
    <title>Bonds/Icons/Learn/Credit Cards/Block</title>
    <desc>Created with Sketch.</desc>
    <defs>
        <path d="M45.8493827,63.2354286 L53.6,44.3308132 C54.6814815,41.6301538 57.8358025,40.3698462 60.5395062,41.4501099 L107.764198,60.8048352 C110.467901,61.8850989 111.819753,65.0358681 110.738272,67.7365275 L100.734568,92.0424615 L100.734568,98.7040879 C100.734568,101.584791 98.391358,104.015385 95.417284,104.015385 L44.317284,104.015385 C41.4333333,104.015385 39,101.584791 39,98.7040879 L39,68.5467253 C39,65.666022 41.4333333,63.2354286 44.317284,63.2354286 L45.8493827,63.2354286 Z M64.5950617,62.4252308 C65.1358025,62.6952967 65.7666667,62.4252308 65.9469136,61.8850989 L68.2,56.3937582 C68.4703704,55.8536264 68.2,55.2234725 67.6592593,55.0434286 L59.5481481,51.7126154 C59.0074074,51.4425495 58.3765432,51.7126154 58.1962963,52.2527473 L55.9432099,57.7440879 C55.6728395,58.2842198 55.9432099,58.9143736 56.4839506,59.0944176 L64.5950617,62.4252308 Z M56.0333333,81.1498022 C56.6641975,81.1498022 57.1148148,80.6996923 57.1148148,80.0695385 L57.1148148,74.1280879 C57.1148148,73.4979341 56.5740741,73.0478242 56.0333333,73.0478242 L47.291358,73.0478242 C46.6604938,73.0478242 46.2098765,73.587956 46.2098765,74.1280879 L46.2098765,80.0695385 C46.2098765,80.6996923 46.7506173,81.1498022 47.291358,81.1498022 L56.0333333,81.1498022 Z M55.9432099,88.4415824 C56.1234568,88.4415824 56.3938272,88.1715165 56.3938272,87.9914725 L56.3938272,87.8114286 C56.3938272,87.5413626 56.2135802,87.3613187 55.9432099,87.3613187 L46.7506173,87.3613187 C46.4802469,87.3613187 46.3,87.5413626 46.3,87.8114286 L46.3,87.9914725 C46.3,88.2615385 46.4802469,88.4415824 46.7506173,88.4415824 L55.9432099,88.4415824 Z M68.4703704,94.6530989 C68.7407407,94.6530989 69.0111111,94.383033 69.0111111,94.112967 C69.0111111,93.8429011 68.7407407,93.5728352 68.4703704,93.5728352 L46.8407407,93.5728352 C46.5703704,93.5728352 46.3,93.8429011 46.3,94.112967 C46.3,94.383033 46.5703704,94.6530989 46.8407407,94.6530989 L68.4703704,94.6530989 Z M68.4703704,88.4415824 C68.7407407,88.4415824 69.0111111,88.1715165 69.0111111,87.9914725 L69.0111111,87.8114286 C69.0111111,87.5413626 68.8308642,87.3613187 68.5604938,87.3613187 L59.3679012,87.3613187 C59.0975309,87.3613187 58.917284,87.5413626 58.917284,87.8114286 L58.917284,87.9914725 C58.917284,88.2615385 59.0975309,88.4415824 59.3679012,88.4415824 L68.4703704,88.4415824 Z M81.0876543,88.4415824 C81.3580247,88.4415824 81.6283951,88.1715165 81.6283951,87.9914725 L81.6283951,87.8114286 C81.6283951,87.5413626 81.4481481,87.3613187 81.1777778,87.3613187 L71.9851852,87.3613187 C71.7148148,87.3613187 71.5345679,87.5413626 71.5345679,87.8114286 L71.5345679,87.9914725 C71.5345679,88.2615385 71.7148148,88.4415824 71.9851852,88.4415824 L81.0876543,88.4415824 Z M93.7049383,88.4415824 C93.9753086,88.4415824 94.245679,88.1715165 94.245679,87.9914725 L94.245679,87.8114286 C94.245679,87.5413626 94.0654321,87.3613187 93.7950617,87.3613187 L84.6024691,87.3613187 C84.3320988,87.3613187 84.1518519,87.5413626 84.1518519,87.8114286 L84.1518519,87.9914725 C84.1518519,88.2615385 84.3320988,88.4415824 84.6024691,88.4415824 L93.7049383,88.4415824 Z" id="path-1"></path>
    </defs>
    <g id="Icons" stroke="none" stroke-width="1" fill="none" fill-rule="evenodd">
        <g id="Bonds/Icons/Learn/Credit-Cards/Block">
            <mask id="mask-2" fill="white">
                <use xlink:href="#path-1"></use>
            </mask>
            <use id="Combined-Shape" fill="#000000" fill-rule="nonzero" xlink:href="#path-1"></use>
            <g id="Bonds/Colours/Learn/Credit-Cards" mask="url(#mask-2)" fill="#3CCEAB">
                <rect id="Rectangle-3" x="0" y="0" width="146" height="146"></rect>
            </g>
        </g>
    </g>
</svg>