<?xml version="1.0" encoding="UTF-8"?>
<svg width="146px" height="146px" viewBox="0 0 146 146" version="1.1" xmlns="http://www.w3.org/2000/svg" xmlns:xlink="http://www.w3.org/1999/xlink">
    <!-- Generator: Sketch 48.2 (47327) - http://www.bohemiancoding.com/sketch -->
    <title>Bonds/Icons/Learn/Credit Cards/Default</title>
    <desc>Created with Sketch.</desc>
    <defs>
        <linearGradient x1="100%" y1="50%" x2="4.32484548%" y2="35.7762319%" id="linearGradient-1">
            <stop stop-color="#D1ECEA" offset="0%"></stop>
            <stop stop-color="#099A8C" offset="100%"></stop>
        </linearGradient>
        <linearGradient x1="-0.0586901032%" y1="49.9420551%" x2="99.980317%" y2="49.9420551%" id="linearGradient-2">
            <stop stop-color="#80CBC4" stop-opacity="0.5" offset="0%"></stop>
            <stop stop-color="#009688" offset="100%"></stop>
        </linearGradient>
        <linearGradient x1="43.0906569%" y1="-9.48896247%" x2="56.9483212%" y2="109.350993%" id="linearGradient-3">
            <stop stop-color="#B2DFDB" stop-opacity="0.5" offset="0%"></stop>
            <stop stop-color="#4CB6AC" offset="100%"></stop>
        </linearGradient>
    </defs>
    <g id="Icons" stroke="none" stroke-width="1" fill="none" fill-rule="evenodd">
        <g id="Bonds/Icons/Learn/Credit-Cards/Default">
            <circle id="Oval" stroke="url(#linearGradient-1)" stroke-width="3" fill-rule="nonzero" cx="73" cy="73" r="71"></circle>
            <g id="Bonds/Icons/Learn/Credit-Cards/Gradient">
                <g id="credit_card_learn" transform="translate(41.000000, 37.000000)">
                    <g id="Credit_cards_icon" fill-rule="nonzero">
                        <g id="back_1_" transform="translate(6.308642, 0.000000)">
                            <path d="M62.4555556,19.8048352 L15.2308642,0.45010989 C12.5271605,-0.630153846 9.37283951,0.630153846 8.29135802,3.33081319 L0.540740741,22.2354286 L50.108642,22.2354286 C52.9925926,22.2354286 55.4259259,24.666022 55.4259259,27.5467253 L55.4259259,51.0424615 L65.4296296,26.7365275 C66.5111111,24.0358681 65.1592593,20.8850989 62.4555556,19.8048352 Z" id="background" fill="url(#linearGradient-2)"></path>
                            <path d="M19.2864198,21.4252308 L11.1753086,18.0944176 C10.6345679,17.9143736 10.3641975,17.2842198 10.6345679,16.7440879 L12.8876543,11.2527473 C13.0679012,10.7126154 13.6987654,10.4425495 14.2395062,10.7126154 L22.3506173,14.0434286 C22.891358,14.2234725 23.1617284,14.8536264 22.891358,15.3937582 L20.6382716,20.8850989 C20.4580247,21.4252308 19.8271605,21.6952967 19.2864198,21.4252308 Z" id="chip_1_" fill="#FFFFFF"></path>
                        </g>
                        <g id="Front" transform="translate(0.000000, 21.605275)">
                            <path d="M56.417284,41.4101099 L5.31728395,41.4101099 C2.43333333,41.4101099 0,38.9795165 0,36.0988132 L0,5.94145055 C0,3.06074725 2.43333333,0.630153846 5.31728395,0.630153846 L56.417284,0.630153846 C59.3012346,0.630153846 61.7345679,3.06074725 61.7345679,5.94145055 L61.7345679,36.0988132 C61.7345679,38.9795165 59.391358,41.4101099 56.417284,41.4101099 Z" id="Shape" fill="url(#linearGradient-3)"></path>
                            <path d="M17.0333333,18.5445275 L8.29135802,18.5445275 C7.75061728,18.5445275 7.20987654,18.0944176 7.20987654,17.4642637 L7.20987654,11.5228132 C7.20987654,10.9826813 7.66049383,10.4425495 8.29135802,10.4425495 L17.0333333,10.4425495 C17.5740741,10.4425495 18.1148148,10.8926593 18.1148148,11.5228132 L18.1148148,17.4642637 C18.1148148,18.0944176 17.6641975,18.5445275 17.0333333,18.5445275 Z" id="chip" fill="#FFFFFF"></path>
                            <g id="lines" transform="translate(7.209877, 24.305934)" fill="#FFFFFF">
                                <path d="M9.73333333,1.53037363 L0.540740741,1.53037363 C0.27037037,1.53037363 0.0901234568,1.35032967 0.0901234568,1.08026374 L0.0901234568,0.90021978 C0.0901234568,0.630153846 0.27037037,0.45010989 0.540740741,0.45010989 L9.73333333,0.45010989 C10.0037037,0.45010989 10.1839506,0.630153846 10.1839506,0.90021978 L10.1839506,1.08026374 C10.1839506,1.26030769 9.91358025,1.53037363 9.73333333,1.53037363 Z" id="Shape"></path>
                                <path d="M22.2604938,7.74189011 L0.630864198,7.74189011 C0.360493827,7.74189011 0.0901234568,7.47182418 0.0901234568,7.20175824 L0.0901234568,7.20175824 C0.0901234568,6.93169231 0.360493827,6.66162637 0.630864198,6.66162637 L22.2604938,6.66162637 C22.5308642,6.66162637 22.8012346,6.93169231 22.8012346,7.20175824 L22.8012346,7.20175824 C22.8012346,7.47182418 22.5308642,7.74189011 22.2604938,7.74189011 Z" id="Shape"></path>
                                <path d="M22.2604938,1.53037363 L13.1580247,1.53037363 C12.8876543,1.53037363 12.7074074,1.35032967 12.7074074,1.08026374 L12.7074074,0.90021978 C12.7074074,0.630153846 12.8876543,0.45010989 13.1580247,0.45010989 L22.3506173,0.45010989 C22.6209877,0.45010989 22.8012346,0.630153846 22.8012346,0.90021978 L22.8012346,1.08026374 C22.8012346,1.26030769 22.5308642,1.53037363 22.2604938,1.53037363 Z" id="Shape"></path>
                                <path d="M34.8777778,1.53037363 L25.7753086,1.53037363 C25.5049383,1.53037363 25.3246914,1.35032967 25.3246914,1.08026374 L25.3246914,0.90021978 C25.3246914,0.630153846 25.5049383,0.45010989 25.7753086,0.45010989 L34.9679012,0.45010989 C35.2382716,0.45010989 35.4185185,0.630153846 35.4185185,0.90021978 L35.4185185,1.08026374 C35.4185185,1.26030769 35.1481481,1.53037363 34.8777778,1.53037363 Z" id="Shape"></path>
                                <path d="M47.4950617,1.53037363 L38.3925926,1.53037363 C38.1222222,1.53037363 37.9419753,1.35032967 37.9419753,1.08026374 L37.9419753,0.90021978 C37.9419753,0.630153846 38.1222222,0.45010989 38.3925926,0.45010989 L47.5851852,0.45010989 C47.8555556,0.45010989 48.0358025,0.630153846 48.0358025,0.90021978 L48.0358025,1.08026374 C48.0358025,1.26030769 47.7654321,1.53037363 47.4950617,1.53037363 Z" id="Shape"></path>
                            </g>
                        </g>
                    </g>
                </g>
            </g>
        </g>
    </g>
</svg>